G04 #@! TF.FileFunction,Legend,Top*
%FSLAX46Y46*%
G04 Gerber Fmt 4.6, Leading zero omitted, Abs format (unit mm)*
G04 Created by KiCad (PCBNEW 4.0.0-rc1-stable) date 2016-02-04 20:32:03*
%MOMM*%
G01*
G04 APERTURE LIST*
%ADD10C,0.100000*%
%ADD11C,0.152000*%
%ADD12R,1.200000X1.150000*%
%ADD13R,2.000000X1.600000*%
%ADD14O,2.000000X1.600000*%
%ADD15R,1.450000X1.700000*%
%ADD16R,1.600000X2.000000*%
%ADD17O,1.600000X2.000000*%
%ADD18R,1.750000X2.300000*%
%ADD19C,7.700000*%
%ADD20C,0.850000*%
%ADD21R,7.200000X7.200000*%
%ADD22R,1.700000X2.700000*%
%ADD23R,3.900000X2.400000*%
%ADD24R,1.600000X2.400000*%
%ADD25R,2.200000X1.400000*%
%ADD26R,1.600000X1.600000*%
%ADD27O,1.600000X1.600000*%
%ADD28R,1.500000X1.500000*%
%ADD29O,1.500000X1.500000*%
%ADD30R,2.800000X2.500000*%
%ADD31O,2.800000X2.500000*%
%ADD32C,0.254000*%
G04 APERTURE END LIST*
D10*
D11*
X93700000Y-71000000D02*
X93700000Y-69400000D01*
X93700000Y-69400000D02*
X96700000Y-69400000D01*
X96700000Y-69400000D02*
X96700000Y-71000000D01*
X96700000Y-71000000D02*
X93700000Y-71000000D01*
X69459000Y-98874000D02*
X69459000Y-93794000D01*
X69459000Y-93794000D02*
X71999000Y-93794000D01*
X71999000Y-93794000D02*
X71999000Y-98874000D01*
X71999000Y-98874000D02*
X69459000Y-98874000D01*
X69230000Y-96334000D02*
X69230000Y-93794000D01*
X69230000Y-93794000D02*
X69383000Y-93794000D01*
X69383000Y-93794000D02*
X69383000Y-96334000D01*
X69383000Y-96334000D02*
X69230000Y-96334000D01*
X69459000Y-88206000D02*
X69459000Y-83126000D01*
X69459000Y-83126000D02*
X71999000Y-83126000D01*
X71999000Y-83126000D02*
X71999000Y-88206000D01*
X71999000Y-88206000D02*
X69459000Y-88206000D01*
X69230000Y-85666000D02*
X69230000Y-83126000D01*
X69230000Y-83126000D02*
X69383000Y-83126000D01*
X69383000Y-83126000D02*
X69383000Y-85666000D01*
X69383000Y-85666000D02*
X69230000Y-85666000D01*
X88001000Y-98874000D02*
X88001000Y-93794000D01*
X88001000Y-93794000D02*
X90541000Y-93794000D01*
X90541000Y-93794000D02*
X90541000Y-98874000D01*
X90541000Y-98874000D02*
X88001000Y-98874000D01*
X87772000Y-96334000D02*
X87772000Y-93794000D01*
X87772000Y-93794000D02*
X87925000Y-93794000D01*
X87925000Y-93794000D02*
X87925000Y-96334000D01*
X87925000Y-96334000D02*
X87772000Y-96334000D01*
X88001000Y-88206000D02*
X88001000Y-83126000D01*
X88001000Y-83126000D02*
X90541000Y-83126000D01*
X90541000Y-83126000D02*
X90541000Y-88206000D01*
X90541000Y-88206000D02*
X88001000Y-88206000D01*
X87772000Y-85666000D02*
X87772000Y-83126000D01*
X87772000Y-83126000D02*
X87925000Y-83126000D01*
X87925000Y-83126000D02*
X87925000Y-85666000D01*
X87925000Y-85666000D02*
X87772000Y-85666000D01*
X68600000Y-99700000D02*
X68600000Y-82300000D01*
X68600000Y-82300000D02*
X91400000Y-82300000D01*
X91400000Y-82300000D02*
X91400000Y-99700000D01*
X91400000Y-99700000D02*
X68600000Y-99700000D01*
X84400000Y-92650000D02*
X84400000Y-94250000D01*
X84400000Y-94250000D02*
X81400000Y-94250000D01*
X81400000Y-94250000D02*
X81400000Y-92650000D01*
X81400000Y-92650000D02*
X84400000Y-92650000D01*
X76524000Y-90500000D02*
X76524000Y-88924000D01*
X76524000Y-88924000D02*
X76619000Y-88924000D01*
X78476000Y-90500000D02*
X78476000Y-88924000D01*
X78476000Y-88924000D02*
X78381000Y-88924000D01*
X50690000Y-94460000D02*
X58310000Y-94460000D01*
X58310000Y-94460000D02*
X58310000Y-99540000D01*
X58310000Y-99540000D02*
X50690000Y-99540000D01*
X50690000Y-99540000D02*
X50690000Y-94460000D01*
X55770000Y-94231000D02*
X58310000Y-94231000D01*
X58310000Y-94231000D02*
X58310000Y-94384000D01*
X58310000Y-94384000D02*
X55770000Y-94384000D01*
X55770000Y-94384000D02*
X55770000Y-94231000D01*
X63336000Y-62100000D02*
X63336000Y-64476000D01*
X63336000Y-64476000D02*
X62831000Y-64476000D01*
X60264000Y-62100000D02*
X60264000Y-64476000D01*
X60264000Y-64476000D02*
X60769000Y-64476000D01*
X65600000Y-72500000D02*
X65600000Y-60300000D01*
X65600000Y-60300000D02*
X73200000Y-60300000D01*
X73200000Y-60300000D02*
X73200000Y-72500000D01*
X73200000Y-72500000D02*
X65600000Y-72500000D01*
X79300000Y-92600000D02*
X79300000Y-83600000D01*
X79300000Y-83600000D02*
X86700000Y-83600000D01*
X86700000Y-83600000D02*
X86700000Y-92600000D01*
X86700000Y-92600000D02*
X79300000Y-92600000D01*
X91800000Y-72500000D02*
X73200000Y-72500000D01*
X73200000Y-72500000D02*
X73200000Y-49900000D01*
X73200000Y-49900000D02*
X91800000Y-49900000D01*
X91800000Y-49900000D02*
X91800000Y-72500000D01*
X59750000Y-90000000D02*
X59750000Y-76500000D01*
X59750000Y-76500000D02*
X68250000Y-76500000D01*
X68250000Y-76500000D02*
X68250000Y-90000000D01*
X68250000Y-90000000D02*
X59750000Y-90000000D01*
X68113000Y-90000000D02*
X68113000Y-76500000D01*
X67976000Y-90000000D02*
X67976000Y-76500000D01*
X67839000Y-90000000D02*
X67839000Y-76500000D01*
X67701000Y-90000000D02*
X67701000Y-76500000D01*
X67564000Y-90000000D02*
X67564000Y-76500000D01*
X67427000Y-90000000D02*
X67427000Y-76500000D01*
X67290000Y-90000000D02*
X67290000Y-76500000D01*
X59050000Y-91500000D02*
X61050000Y-91500000D01*
X60050000Y-92500000D02*
X60050000Y-90500000D01*
X71000000Y-73200000D02*
X84500000Y-73200000D01*
X84500000Y-73200000D02*
X84500000Y-81700000D01*
X84500000Y-81700000D02*
X71000000Y-81700000D01*
X71000000Y-81700000D02*
X71000000Y-73200000D01*
X71000000Y-81563000D02*
X84500000Y-81563000D01*
X71000000Y-81426000D02*
X84500000Y-81426000D01*
X71000000Y-81289000D02*
X84500000Y-81289000D01*
X71000000Y-81151000D02*
X84500000Y-81151000D01*
X71000000Y-81014000D02*
X84500000Y-81014000D01*
X71000000Y-80877000D02*
X84500000Y-80877000D01*
X71000000Y-80740000D02*
X84500000Y-80740000D01*
X69500000Y-72500000D02*
X69500000Y-74500000D01*
X68500000Y-73500000D02*
X70500000Y-73500000D01*
X91850000Y-89550000D02*
X91850000Y-77050000D01*
X91850000Y-77050000D02*
X98650000Y-77050000D01*
X98650000Y-77050000D02*
X98650000Y-89550000D01*
X98650000Y-89550000D02*
X91850000Y-89550000D01*
X98513000Y-89550000D02*
X98513000Y-77050000D01*
X98376000Y-89550000D02*
X98376000Y-77050000D01*
X98239000Y-89550000D02*
X98239000Y-77050000D01*
X98101000Y-89550000D02*
X98101000Y-77050000D01*
X97964000Y-89550000D02*
X97964000Y-77050000D01*
X97827000Y-89550000D02*
X97827000Y-77050000D01*
X97690000Y-89550000D02*
X97690000Y-77050000D01*
X90850000Y-91050000D02*
X92850000Y-91050000D01*
X91850000Y-92050000D02*
X91850000Y-90050000D01*
X59960000Y-71040000D02*
X59960000Y-65960000D01*
X59960000Y-65960000D02*
X65040000Y-65960000D01*
X65040000Y-65960000D02*
X65040000Y-71040000D01*
X65040000Y-71040000D02*
X59960000Y-71040000D01*
X59731000Y-68500000D02*
X59731000Y-65960000D01*
X59731000Y-65960000D02*
X59884000Y-65960000D01*
X59884000Y-65960000D02*
X59884000Y-68500000D01*
X59884000Y-68500000D02*
X59731000Y-68500000D01*
X93710000Y-68580000D02*
X93710000Y-58420000D01*
X93710000Y-58420000D02*
X98790000Y-58420000D01*
X98790000Y-58420000D02*
X98790000Y-68580000D01*
X98790000Y-68580000D02*
X93710000Y-68580000D01*
X93481000Y-60960000D02*
X93481000Y-58420000D01*
X93481000Y-58420000D02*
X93634000Y-58420000D01*
X93634000Y-58420000D02*
X93634000Y-60960000D01*
X93634000Y-60960000D02*
X93481000Y-60960000D01*
X90700000Y-81100000D02*
X90700000Y-82700000D01*
X90700000Y-82700000D02*
X87700000Y-82700000D01*
X87700000Y-82700000D02*
X87700000Y-81100000D01*
X87700000Y-81100000D02*
X90700000Y-81100000D01*
X46900000Y-72120000D02*
X46900000Y-61960000D01*
X46900000Y-61960000D02*
X59300000Y-61960000D01*
X59300000Y-61960000D02*
X59300000Y-72120000D01*
X59300000Y-72120000D02*
X46900000Y-72120000D01*
X46900000Y-93780000D02*
X46900000Y-73460000D01*
X46900000Y-73460000D02*
X59300000Y-73460000D01*
X59300000Y-73460000D02*
X59300000Y-93780000D01*
X59300000Y-93780000D02*
X46900000Y-93780000D01*
X46900000Y-60540000D02*
X46900000Y-50380000D01*
X46900000Y-50380000D02*
X59300000Y-50380000D01*
X59300000Y-50380000D02*
X59300000Y-60540000D01*
X59300000Y-60540000D02*
X46900000Y-60540000D01*
%LPC*%
D12*
X94475000Y-70200000D03*
X95925000Y-70200000D03*
D13*
X70729000Y-95064000D03*
D14*
X70729000Y-97604000D03*
D13*
X70729000Y-84396000D03*
D14*
X70729000Y-86936000D03*
D13*
X89271000Y-95064000D03*
D14*
X89271000Y-97604000D03*
D13*
X89271000Y-84396000D03*
D14*
X89271000Y-86936000D03*
D12*
X83625000Y-93450000D03*
X82175000Y-93450000D03*
D15*
X77500000Y-89400000D03*
X77500000Y-91600000D03*
D16*
X57040000Y-95730000D03*
D17*
X57040000Y-98270000D03*
X54500000Y-95730000D03*
X54500000Y-98270000D03*
X51960000Y-95730000D03*
X51960000Y-98270000D03*
D18*
X61800000Y-64000000D03*
X61800000Y-60200000D03*
D19*
X64000000Y-96000000D03*
D20*
X66675000Y-96000000D03*
X65892000Y-94108000D03*
X64000000Y-93325000D03*
X62108000Y-94108000D03*
X61325000Y-96000000D03*
X62108000Y-97892000D03*
X64000000Y-98675000D03*
X65892000Y-97892000D03*
D19*
X64000000Y-54000000D03*
D20*
X66675000Y-54000000D03*
X65892000Y-52108000D03*
X64000000Y-51325000D03*
X62108000Y-52108000D03*
X61325000Y-54000000D03*
X62108000Y-55892000D03*
X64000000Y-56675000D03*
X65892000Y-55892000D03*
D19*
X96000000Y-96000000D03*
D20*
X98675000Y-96000000D03*
X97892000Y-94108000D03*
X96000000Y-93325000D03*
X94108000Y-94108000D03*
X93325000Y-96000000D03*
X94108000Y-97892000D03*
X96000000Y-98675000D03*
X97892000Y-97892000D03*
D19*
X96000000Y-54000000D03*
D20*
X98675000Y-54000000D03*
X97892000Y-52108000D03*
X96000000Y-51325000D03*
X94108000Y-52108000D03*
X93325000Y-54000000D03*
X94108000Y-55892000D03*
X96000000Y-56675000D03*
X97892000Y-55892000D03*
D21*
X69400000Y-64100000D03*
D22*
X67100000Y-71000000D03*
X71700000Y-71000000D03*
D23*
X83000000Y-85000000D03*
D24*
X80700000Y-91200000D03*
X83000000Y-91200000D03*
X85300000Y-91200000D03*
D25*
X90500000Y-70200000D03*
X90500000Y-68200000D03*
X90500000Y-66200000D03*
X90500000Y-64200000D03*
X90500000Y-62200000D03*
X90500000Y-60200000D03*
X90500000Y-58200000D03*
X90500000Y-56200000D03*
X74500000Y-56200000D03*
X74500000Y-58200000D03*
X74500000Y-60200000D03*
X74500000Y-62200000D03*
X74500000Y-64200000D03*
X74500000Y-66200000D03*
X74500000Y-68200000D03*
X74500000Y-70200000D03*
D26*
X62250000Y-91000000D03*
D27*
X65750000Y-91000000D03*
D26*
X70000000Y-75700000D03*
D27*
X70000000Y-79200000D03*
D28*
X94000000Y-90500000D03*
D29*
X96500000Y-90500000D03*
D13*
X61230000Y-67230000D03*
D14*
X63770000Y-67230000D03*
X61230000Y-69770000D03*
X63770000Y-69770000D03*
D13*
X94980000Y-59690000D03*
D14*
X97520000Y-59690000D03*
X94980000Y-62230000D03*
X97520000Y-62230000D03*
X94980000Y-64770000D03*
X97520000Y-64770000D03*
X94980000Y-67310000D03*
X97520000Y-67310000D03*
D12*
X89925000Y-81900000D03*
X88475000Y-81900000D03*
D30*
X58000000Y-64500000D03*
D31*
X58000000Y-69580000D03*
D30*
X58000000Y-76000000D03*
D31*
X58000000Y-81080000D03*
X58000000Y-86160000D03*
X58000000Y-91240000D03*
D30*
X58000000Y-52920000D03*
D31*
X58000000Y-58000000D03*
D32*
G36*
X67723000Y-53873000D02*
X60277000Y-53873000D01*
X60277000Y-50127000D01*
X67723000Y-50127000D01*
X67723000Y-53873000D01*
X67723000Y-53873000D01*
G37*
X67723000Y-53873000D02*
X60277000Y-53873000D01*
X60277000Y-50127000D01*
X67723000Y-50127000D01*
X67723000Y-53873000D01*
G36*
X99873000Y-99873000D02*
X58377000Y-99873000D01*
X58377000Y-98627000D01*
X60150000Y-98627000D01*
X60199410Y-98616994D01*
X60241035Y-98588553D01*
X60268315Y-98546159D01*
X60277000Y-98500000D01*
X60277000Y-96127000D01*
X67723000Y-96127000D01*
X67723000Y-98650000D01*
X67733006Y-98699410D01*
X67761447Y-98741035D01*
X67803841Y-98768315D01*
X67850000Y-98777000D01*
X92150000Y-98777000D01*
X92199410Y-98766994D01*
X92241035Y-98738553D01*
X92268315Y-98696159D01*
X92277000Y-98650000D01*
X92277000Y-96052606D01*
X96052606Y-92277000D01*
X98500000Y-92277000D01*
X98549410Y-92266994D01*
X98591035Y-92238553D01*
X98618315Y-92196159D01*
X98627000Y-92150000D01*
X98627000Y-68427000D01*
X98950000Y-68427000D01*
X98999410Y-68416994D01*
X99041035Y-68388553D01*
X99068315Y-68346159D01*
X99077000Y-68300000D01*
X99077000Y-57877675D01*
X99066994Y-57828265D01*
X99038553Y-57786640D01*
X98996159Y-57759360D01*
X98950000Y-57750675D01*
X96127000Y-57750675D01*
X96127000Y-50277000D01*
X99873000Y-50277000D01*
X99873000Y-99873000D01*
X99873000Y-99873000D01*
G37*
X99873000Y-99873000D02*
X58377000Y-99873000D01*
X58377000Y-98627000D01*
X60150000Y-98627000D01*
X60199410Y-98616994D01*
X60241035Y-98588553D01*
X60268315Y-98546159D01*
X60277000Y-98500000D01*
X60277000Y-96127000D01*
X67723000Y-96127000D01*
X67723000Y-98650000D01*
X67733006Y-98699410D01*
X67761447Y-98741035D01*
X67803841Y-98768315D01*
X67850000Y-98777000D01*
X92150000Y-98777000D01*
X92199410Y-98766994D01*
X92241035Y-98738553D01*
X92268315Y-98696159D01*
X92277000Y-98650000D01*
X92277000Y-96052606D01*
X96052606Y-92277000D01*
X98500000Y-92277000D01*
X98549410Y-92266994D01*
X98591035Y-92238553D01*
X98618315Y-92196159D01*
X98627000Y-92150000D01*
X98627000Y-68427000D01*
X98950000Y-68427000D01*
X98999410Y-68416994D01*
X99041035Y-68388553D01*
X99068315Y-68346159D01*
X99077000Y-68300000D01*
X99077000Y-57877675D01*
X99066994Y-57828265D01*
X99038553Y-57786640D01*
X98996159Y-57759360D01*
X98950000Y-57750675D01*
X96127000Y-57750675D01*
X96127000Y-50277000D01*
X99873000Y-50277000D01*
X99873000Y-99873000D01*
M02*
