G04 #@! TF.FileFunction,Soldermask,Bot*
%FSLAX46Y46*%
G04 Gerber Fmt 4.6, Leading zero omitted, Abs format (unit mm)*
G04 Created by KiCad (PCBNEW 4.0.0-rc1-stable) date 2016-02-04 20:32:03*
%MOMM*%
G01*
G04 APERTURE LIST*
%ADD10C,0.100000*%
G04 APERTURE END LIST*
D10*
G36*
X96037191Y-50149998D02*
X96037715Y-50150000D01*
X100000000Y-50150000D01*
X100000000Y-100000000D01*
X58250000Y-100000000D01*
X58250000Y-98500000D01*
X60075000Y-98500000D01*
X60095895Y-98497031D01*
X60115135Y-98488358D01*
X60131197Y-98474668D01*
X60142809Y-98457046D01*
X60149052Y-98436886D01*
X60150000Y-98425000D01*
X60150000Y-96358134D01*
X60148768Y-96344595D01*
X60144937Y-96323720D01*
X60155478Y-95568766D01*
X60312457Y-94830243D01*
X60609893Y-94136272D01*
X61036457Y-93513291D01*
X61575901Y-92985028D01*
X62207675Y-92571607D01*
X62907725Y-92288768D01*
X63649380Y-92147290D01*
X64404381Y-92152562D01*
X65143983Y-92304380D01*
X65840015Y-92596964D01*
X66465958Y-93019169D01*
X66997977Y-93554914D01*
X67415798Y-94183786D01*
X67703515Y-94881840D01*
X67850065Y-95621970D01*
X67850065Y-95621977D01*
X67850166Y-95622488D01*
X67845254Y-95974281D01*
X67846447Y-95988112D01*
X67848684Y-96000000D01*
X67850000Y-96000000D01*
X67850000Y-98575000D01*
X67852969Y-98595895D01*
X67861642Y-98615135D01*
X67875332Y-98631197D01*
X67892954Y-98642809D01*
X67913114Y-98649052D01*
X67925000Y-98650000D01*
X92075000Y-98650000D01*
X92095895Y-98647031D01*
X92115135Y-98638358D01*
X92131197Y-98624668D01*
X92142809Y-98607046D01*
X92149052Y-98586886D01*
X92150000Y-98575000D01*
X92150000Y-96358134D01*
X92148768Y-96344595D01*
X92144937Y-96323720D01*
X92155478Y-95568766D01*
X92312457Y-94830243D01*
X92609893Y-94136272D01*
X93036457Y-93513291D01*
X93575901Y-92985028D01*
X94207675Y-92571607D01*
X94907725Y-92288768D01*
X95649380Y-92147290D01*
X96037191Y-92149998D01*
X96037715Y-92150000D01*
X98425000Y-92150000D01*
X98445895Y-92147031D01*
X98465135Y-92138358D01*
X98481197Y-92124668D01*
X98492809Y-92107046D01*
X98499052Y-92086886D01*
X98500000Y-92075000D01*
X98500000Y-68300000D01*
X98875000Y-68300000D01*
X98895895Y-68297031D01*
X98915135Y-68288358D01*
X98931197Y-68274668D01*
X98942809Y-68257046D01*
X98949052Y-68236886D01*
X98950000Y-68225000D01*
X98950000Y-57952675D01*
X98947031Y-57931780D01*
X98938358Y-57912540D01*
X98924668Y-57896478D01*
X98907046Y-57884866D01*
X98886886Y-57878623D01*
X98875000Y-57877675D01*
X96000000Y-57877675D01*
X96000000Y-57875868D01*
X95996963Y-57873793D01*
X95992200Y-57868285D01*
X95974495Y-57856798D01*
X95944505Y-57849850D01*
X95541934Y-57841417D01*
X94804528Y-57679287D01*
X94112653Y-57377015D01*
X93492660Y-56946109D01*
X92968182Y-56402995D01*
X92559174Y-55768340D01*
X92281234Y-55066342D01*
X92144937Y-54323720D01*
X92155478Y-53568766D01*
X92312457Y-52830243D01*
X92609893Y-52136272D01*
X93036457Y-51513291D01*
X93575901Y-50985028D01*
X94207675Y-50571607D01*
X94907725Y-50288768D01*
X95649380Y-50147290D01*
X96037191Y-50149998D01*
X96037191Y-50149998D01*
G37*
G36*
X52120789Y-97281491D02*
X52120800Y-97281495D01*
X52120862Y-97281501D01*
X52270012Y-97327670D01*
X52407354Y-97401931D01*
X52527657Y-97501454D01*
X52626337Y-97622448D01*
X52699637Y-97760305D01*
X52744764Y-97909774D01*
X52760000Y-98065161D01*
X52760000Y-98474966D01*
X52759944Y-98482959D01*
X52759943Y-98482966D01*
X52759922Y-98486009D01*
X52742518Y-98641168D01*
X52695308Y-98789993D01*
X52620091Y-98926813D01*
X52519731Y-99046417D01*
X52398051Y-99144250D01*
X52259685Y-99216586D01*
X52109905Y-99260669D01*
X52109848Y-99260674D01*
X52109835Y-99260678D01*
X51954418Y-99274822D01*
X51799211Y-99258509D01*
X51799200Y-99258505D01*
X51799138Y-99258499D01*
X51649988Y-99212330D01*
X51512646Y-99138069D01*
X51392343Y-99038546D01*
X51293663Y-98917552D01*
X51220363Y-98779695D01*
X51175236Y-98630226D01*
X51160000Y-98474839D01*
X51160000Y-98065034D01*
X51160056Y-98057041D01*
X51160057Y-98057034D01*
X51160078Y-98053991D01*
X51177482Y-97898832D01*
X51224692Y-97750007D01*
X51299909Y-97613187D01*
X51400269Y-97493583D01*
X51521949Y-97395750D01*
X51660315Y-97323414D01*
X51810095Y-97279331D01*
X51810152Y-97279326D01*
X51810165Y-97279322D01*
X51965582Y-97265178D01*
X52120789Y-97281491D01*
X52120789Y-97281491D01*
G37*
G36*
X54660789Y-97281491D02*
X54660800Y-97281495D01*
X54660862Y-97281501D01*
X54810012Y-97327670D01*
X54947354Y-97401931D01*
X55067657Y-97501454D01*
X55166337Y-97622448D01*
X55239637Y-97760305D01*
X55284764Y-97909774D01*
X55300000Y-98065161D01*
X55300000Y-98474966D01*
X55299944Y-98482959D01*
X55299943Y-98482966D01*
X55299922Y-98486009D01*
X55282518Y-98641168D01*
X55235308Y-98789993D01*
X55160091Y-98926813D01*
X55059731Y-99046417D01*
X54938051Y-99144250D01*
X54799685Y-99216586D01*
X54649905Y-99260669D01*
X54649848Y-99260674D01*
X54649835Y-99260678D01*
X54494418Y-99274822D01*
X54339211Y-99258509D01*
X54339200Y-99258505D01*
X54339138Y-99258499D01*
X54189988Y-99212330D01*
X54052646Y-99138069D01*
X53932343Y-99038546D01*
X53833663Y-98917552D01*
X53760363Y-98779695D01*
X53715236Y-98630226D01*
X53700000Y-98474839D01*
X53700000Y-98065034D01*
X53700056Y-98057041D01*
X53700057Y-98057034D01*
X53700078Y-98053991D01*
X53717482Y-97898832D01*
X53764692Y-97750007D01*
X53839909Y-97613187D01*
X53940269Y-97493583D01*
X54061949Y-97395750D01*
X54200315Y-97323414D01*
X54350095Y-97279331D01*
X54350152Y-97279326D01*
X54350165Y-97279322D01*
X54505582Y-97265178D01*
X54660789Y-97281491D01*
X54660789Y-97281491D01*
G37*
G36*
X57200789Y-97281491D02*
X57200800Y-97281495D01*
X57200862Y-97281501D01*
X57350012Y-97327670D01*
X57487354Y-97401931D01*
X57607657Y-97501454D01*
X57706337Y-97622448D01*
X57779637Y-97760305D01*
X57824764Y-97909774D01*
X57840000Y-98065161D01*
X57840000Y-98474966D01*
X57839944Y-98482959D01*
X57839943Y-98482966D01*
X57839922Y-98486009D01*
X57822518Y-98641168D01*
X57775308Y-98789993D01*
X57700091Y-98926813D01*
X57599731Y-99046417D01*
X57478051Y-99144250D01*
X57339685Y-99216586D01*
X57189905Y-99260669D01*
X57189848Y-99260674D01*
X57189835Y-99260678D01*
X57034418Y-99274822D01*
X56879211Y-99258509D01*
X56879200Y-99258505D01*
X56879138Y-99258499D01*
X56729988Y-99212330D01*
X56592646Y-99138069D01*
X56472343Y-99038546D01*
X56373663Y-98917552D01*
X56300363Y-98779695D01*
X56255236Y-98630226D01*
X56240000Y-98474839D01*
X56240000Y-98065034D01*
X56240056Y-98057041D01*
X56240057Y-98057034D01*
X56240078Y-98053991D01*
X56257482Y-97898832D01*
X56304692Y-97750007D01*
X56379909Y-97613187D01*
X56480269Y-97493583D01*
X56601949Y-97395750D01*
X56740315Y-97323414D01*
X56890095Y-97279331D01*
X56890152Y-97279326D01*
X56890165Y-97279322D01*
X57045582Y-97265178D01*
X57200789Y-97281491D01*
X57200789Y-97281491D01*
G37*
G36*
X70941959Y-96804056D02*
X70941966Y-96804057D01*
X70945009Y-96804078D01*
X71100168Y-96821482D01*
X71248993Y-96868692D01*
X71385813Y-96943909D01*
X71505417Y-97044269D01*
X71603250Y-97165949D01*
X71675586Y-97304315D01*
X71719669Y-97454095D01*
X71719674Y-97454152D01*
X71719678Y-97454165D01*
X71733822Y-97609582D01*
X71717509Y-97764789D01*
X71717505Y-97764800D01*
X71717499Y-97764862D01*
X71671330Y-97914012D01*
X71597069Y-98051354D01*
X71497546Y-98171657D01*
X71376552Y-98270337D01*
X71238695Y-98343637D01*
X71089226Y-98388764D01*
X70933839Y-98404000D01*
X70524034Y-98404000D01*
X70516041Y-98403944D01*
X70516034Y-98403943D01*
X70512991Y-98403922D01*
X70357832Y-98386518D01*
X70209007Y-98339308D01*
X70072187Y-98264091D01*
X69952583Y-98163731D01*
X69854750Y-98042051D01*
X69782414Y-97903685D01*
X69738331Y-97753905D01*
X69738326Y-97753848D01*
X69738322Y-97753835D01*
X69724178Y-97598418D01*
X69740491Y-97443211D01*
X69740495Y-97443200D01*
X69740501Y-97443138D01*
X69786670Y-97293988D01*
X69860931Y-97156646D01*
X69960454Y-97036343D01*
X70081448Y-96937663D01*
X70219305Y-96864363D01*
X70368774Y-96819236D01*
X70524161Y-96804000D01*
X70933966Y-96804000D01*
X70941959Y-96804056D01*
X70941959Y-96804056D01*
G37*
G36*
X89483959Y-96804056D02*
X89483966Y-96804057D01*
X89487009Y-96804078D01*
X89642168Y-96821482D01*
X89790993Y-96868692D01*
X89927813Y-96943909D01*
X90047417Y-97044269D01*
X90145250Y-97165949D01*
X90217586Y-97304315D01*
X90261669Y-97454095D01*
X90261674Y-97454152D01*
X90261678Y-97454165D01*
X90275822Y-97609582D01*
X90259509Y-97764789D01*
X90259505Y-97764800D01*
X90259499Y-97764862D01*
X90213330Y-97914012D01*
X90139069Y-98051354D01*
X90039546Y-98171657D01*
X89918552Y-98270337D01*
X89780695Y-98343637D01*
X89631226Y-98388764D01*
X89475839Y-98404000D01*
X89066034Y-98404000D01*
X89058041Y-98403944D01*
X89058034Y-98403943D01*
X89054991Y-98403922D01*
X88899832Y-98386518D01*
X88751007Y-98339308D01*
X88614187Y-98264091D01*
X88494583Y-98163731D01*
X88396750Y-98042051D01*
X88324414Y-97903685D01*
X88280331Y-97753905D01*
X88280326Y-97753848D01*
X88280322Y-97753835D01*
X88266178Y-97598418D01*
X88282491Y-97443211D01*
X88282495Y-97443200D01*
X88282501Y-97443138D01*
X88328670Y-97293988D01*
X88402931Y-97156646D01*
X88502454Y-97036343D01*
X88623448Y-96937663D01*
X88761305Y-96864363D01*
X88910774Y-96819236D01*
X89066161Y-96804000D01*
X89475966Y-96804000D01*
X89483959Y-96804056D01*
X89483959Y-96804056D01*
G37*
G36*
X54660789Y-94741491D02*
X54660800Y-94741495D01*
X54660862Y-94741501D01*
X54810012Y-94787670D01*
X54947354Y-94861931D01*
X55067657Y-94961454D01*
X55166337Y-95082448D01*
X55239637Y-95220305D01*
X55284764Y-95369774D01*
X55300000Y-95525161D01*
X55300000Y-95934966D01*
X55299944Y-95942959D01*
X55299943Y-95942966D01*
X55299922Y-95946009D01*
X55282518Y-96101168D01*
X55235308Y-96249993D01*
X55160091Y-96386813D01*
X55059731Y-96506417D01*
X54938051Y-96604250D01*
X54799685Y-96676586D01*
X54649905Y-96720669D01*
X54649848Y-96720674D01*
X54649835Y-96720678D01*
X54494418Y-96734822D01*
X54339211Y-96718509D01*
X54339200Y-96718505D01*
X54339138Y-96718499D01*
X54189988Y-96672330D01*
X54052646Y-96598069D01*
X53932343Y-96498546D01*
X53833663Y-96377552D01*
X53760363Y-96239695D01*
X53715236Y-96090226D01*
X53700000Y-95934839D01*
X53700000Y-95525034D01*
X53700056Y-95517041D01*
X53700057Y-95517034D01*
X53700078Y-95513991D01*
X53717482Y-95358832D01*
X53764692Y-95210007D01*
X53839909Y-95073187D01*
X53940269Y-94953583D01*
X54061949Y-94855750D01*
X54200315Y-94783414D01*
X54350095Y-94739331D01*
X54350152Y-94739326D01*
X54350165Y-94739322D01*
X54505582Y-94725178D01*
X54660789Y-94741491D01*
X54660789Y-94741491D01*
G37*
G36*
X52120789Y-94741491D02*
X52120800Y-94741495D01*
X52120862Y-94741501D01*
X52270012Y-94787670D01*
X52407354Y-94861931D01*
X52527657Y-94961454D01*
X52626337Y-95082448D01*
X52699637Y-95220305D01*
X52744764Y-95369774D01*
X52760000Y-95525161D01*
X52760000Y-95934966D01*
X52759944Y-95942959D01*
X52759943Y-95942966D01*
X52759922Y-95946009D01*
X52742518Y-96101168D01*
X52695308Y-96249993D01*
X52620091Y-96386813D01*
X52519731Y-96506417D01*
X52398051Y-96604250D01*
X52259685Y-96676586D01*
X52109905Y-96720669D01*
X52109848Y-96720674D01*
X52109835Y-96720678D01*
X51954418Y-96734822D01*
X51799211Y-96718509D01*
X51799200Y-96718505D01*
X51799138Y-96718499D01*
X51649988Y-96672330D01*
X51512646Y-96598069D01*
X51392343Y-96498546D01*
X51293663Y-96377552D01*
X51220363Y-96239695D01*
X51175236Y-96090226D01*
X51160000Y-95934839D01*
X51160000Y-95525034D01*
X51160056Y-95517041D01*
X51160057Y-95517034D01*
X51160078Y-95513991D01*
X51177482Y-95358832D01*
X51224692Y-95210007D01*
X51299909Y-95073187D01*
X51400269Y-94953583D01*
X51521949Y-94855750D01*
X51660315Y-94783414D01*
X51810095Y-94739331D01*
X51810152Y-94739326D01*
X51810165Y-94739322D01*
X51965582Y-94725178D01*
X52120789Y-94741491D01*
X52120789Y-94741491D01*
G37*
G36*
X57840000Y-96730000D02*
X56240000Y-96730000D01*
X56240000Y-94730000D01*
X57840000Y-94730000D01*
X57840000Y-96730000D01*
X57840000Y-96730000D01*
G37*
G36*
X71729000Y-95864000D02*
X69729000Y-95864000D01*
X69729000Y-94264000D01*
X71729000Y-94264000D01*
X71729000Y-95864000D01*
X71729000Y-95864000D01*
G37*
G36*
X90271000Y-95864000D02*
X88271000Y-95864000D01*
X88271000Y-94264000D01*
X90271000Y-94264000D01*
X90271000Y-95864000D01*
X90271000Y-95864000D01*
G37*
G36*
X58171178Y-89990100D02*
X58171185Y-89990101D01*
X58174227Y-89990122D01*
X58416664Y-90017315D01*
X58649201Y-90091081D01*
X58862983Y-90208608D01*
X59049865Y-90365421D01*
X59202729Y-90555546D01*
X59315754Y-90771742D01*
X59384633Y-91005773D01*
X59384638Y-91005825D01*
X59384644Y-91005846D01*
X59406747Y-91248722D01*
X59381254Y-91491274D01*
X59381249Y-91491290D01*
X59381243Y-91491347D01*
X59309103Y-91724394D01*
X59193071Y-91938991D01*
X59037567Y-92126963D01*
X58848513Y-92281152D01*
X58633112Y-92395683D01*
X58399567Y-92466194D01*
X58156774Y-92490000D01*
X57843099Y-92490000D01*
X57828822Y-92489900D01*
X57828815Y-92489899D01*
X57825773Y-92489878D01*
X57583336Y-92462685D01*
X57350799Y-92388919D01*
X57137017Y-92271392D01*
X56950135Y-92114579D01*
X56797271Y-91924454D01*
X56684246Y-91708258D01*
X56615367Y-91474227D01*
X56615362Y-91474175D01*
X56615356Y-91474154D01*
X56593253Y-91231278D01*
X56618746Y-90988726D01*
X56618751Y-90988710D01*
X56618757Y-90988653D01*
X56690897Y-90755606D01*
X56806929Y-90541009D01*
X56962433Y-90353037D01*
X57151487Y-90198848D01*
X57366888Y-90084317D01*
X57600433Y-90013806D01*
X57843226Y-89990000D01*
X58156901Y-89990000D01*
X58171178Y-89990100D01*
X58171178Y-89990100D01*
G37*
G36*
X65761992Y-90200056D02*
X65761999Y-90200057D01*
X65765041Y-90200078D01*
X65920200Y-90217482D01*
X66069025Y-90264692D01*
X66205845Y-90339909D01*
X66325449Y-90440269D01*
X66423282Y-90561949D01*
X66495618Y-90700315D01*
X66539701Y-90850095D01*
X66539706Y-90850147D01*
X66539711Y-90850165D01*
X66553855Y-91005582D01*
X66537542Y-91160789D01*
X66537537Y-91160805D01*
X66537531Y-91160862D01*
X66491362Y-91310012D01*
X66417101Y-91447354D01*
X66317578Y-91567657D01*
X66196584Y-91666337D01*
X66058727Y-91739637D01*
X65909258Y-91784764D01*
X65753871Y-91800000D01*
X65746001Y-91800000D01*
X65738008Y-91799944D01*
X65738001Y-91799943D01*
X65734959Y-91799922D01*
X65579800Y-91782518D01*
X65430975Y-91735308D01*
X65294155Y-91660091D01*
X65174551Y-91559731D01*
X65076718Y-91438051D01*
X65004382Y-91299685D01*
X64960299Y-91149905D01*
X64960294Y-91149853D01*
X64960289Y-91149835D01*
X64946145Y-90994418D01*
X64962458Y-90839211D01*
X64962463Y-90839195D01*
X64962469Y-90839138D01*
X65008638Y-90689988D01*
X65082899Y-90552646D01*
X65182422Y-90432343D01*
X65303416Y-90333663D01*
X65441273Y-90260363D01*
X65590742Y-90215236D01*
X65746129Y-90200000D01*
X65753999Y-90200000D01*
X65761992Y-90200056D01*
X65761992Y-90200056D01*
G37*
G36*
X63050000Y-91800000D02*
X61450000Y-91800000D01*
X61450000Y-90200000D01*
X63050000Y-90200000D01*
X63050000Y-91800000D01*
X63050000Y-91800000D01*
G37*
G36*
X96511053Y-89750051D02*
X96511060Y-89750052D01*
X96514101Y-89750073D01*
X96659563Y-89766389D01*
X96799085Y-89810648D01*
X96927354Y-89881165D01*
X97039484Y-89975252D01*
X97131202Y-90089328D01*
X97199017Y-90219045D01*
X97240344Y-90359464D01*
X97240349Y-90359514D01*
X97240355Y-90359536D01*
X97253614Y-90505233D01*
X97238322Y-90650735D01*
X97238315Y-90650756D01*
X97238310Y-90650808D01*
X97195026Y-90790637D01*
X97125407Y-90919395D01*
X97032105Y-91032178D01*
X96918673Y-91124691D01*
X96789432Y-91193410D01*
X96649305Y-91235716D01*
X96503629Y-91250000D01*
X96496241Y-91250000D01*
X96488947Y-91249949D01*
X96488940Y-91249948D01*
X96485899Y-91249927D01*
X96340437Y-91233611D01*
X96200915Y-91189352D01*
X96072646Y-91118835D01*
X95960516Y-91024748D01*
X95868798Y-90910672D01*
X95800983Y-90780955D01*
X95759656Y-90640536D01*
X95759651Y-90640486D01*
X95759645Y-90640464D01*
X95746386Y-90494767D01*
X95761678Y-90349265D01*
X95761685Y-90349244D01*
X95761690Y-90349192D01*
X95804974Y-90209363D01*
X95874593Y-90080605D01*
X95967895Y-89967822D01*
X96081327Y-89875309D01*
X96210568Y-89806590D01*
X96350695Y-89764284D01*
X96496371Y-89750000D01*
X96503759Y-89750000D01*
X96511053Y-89750051D01*
X96511053Y-89750051D01*
G37*
G36*
X94750000Y-91250000D02*
X93250000Y-91250000D01*
X93250000Y-89750000D01*
X94750000Y-89750000D01*
X94750000Y-91250000D01*
X94750000Y-91250000D01*
G37*
G36*
X89483959Y-86136056D02*
X89483966Y-86136057D01*
X89487009Y-86136078D01*
X89642168Y-86153482D01*
X89790993Y-86200692D01*
X89927813Y-86275909D01*
X90047417Y-86376269D01*
X90145250Y-86497949D01*
X90217586Y-86636315D01*
X90261669Y-86786095D01*
X90261674Y-86786152D01*
X90261678Y-86786165D01*
X90275822Y-86941582D01*
X90259509Y-87096789D01*
X90259505Y-87096800D01*
X90259499Y-87096862D01*
X90213330Y-87246012D01*
X90139069Y-87383354D01*
X90039546Y-87503657D01*
X89918552Y-87602337D01*
X89780695Y-87675637D01*
X89631226Y-87720764D01*
X89475839Y-87736000D01*
X89066034Y-87736000D01*
X89058041Y-87735944D01*
X89058034Y-87735943D01*
X89054991Y-87735922D01*
X88899832Y-87718518D01*
X88751007Y-87671308D01*
X88614187Y-87596091D01*
X88494583Y-87495731D01*
X88396750Y-87374051D01*
X88324414Y-87235685D01*
X88280331Y-87085905D01*
X88280326Y-87085848D01*
X88280322Y-87085835D01*
X88266178Y-86930418D01*
X88282491Y-86775211D01*
X88282495Y-86775200D01*
X88282501Y-86775138D01*
X88328670Y-86625988D01*
X88402931Y-86488646D01*
X88502454Y-86368343D01*
X88623448Y-86269663D01*
X88761305Y-86196363D01*
X88910774Y-86151236D01*
X89066161Y-86136000D01*
X89475966Y-86136000D01*
X89483959Y-86136056D01*
X89483959Y-86136056D01*
G37*
G36*
X70941959Y-86136056D02*
X70941966Y-86136057D01*
X70945009Y-86136078D01*
X71100168Y-86153482D01*
X71248993Y-86200692D01*
X71385813Y-86275909D01*
X71505417Y-86376269D01*
X71603250Y-86497949D01*
X71675586Y-86636315D01*
X71719669Y-86786095D01*
X71719674Y-86786152D01*
X71719678Y-86786165D01*
X71733822Y-86941582D01*
X71717509Y-87096789D01*
X71717505Y-87096800D01*
X71717499Y-87096862D01*
X71671330Y-87246012D01*
X71597069Y-87383354D01*
X71497546Y-87503657D01*
X71376552Y-87602337D01*
X71238695Y-87675637D01*
X71089226Y-87720764D01*
X70933839Y-87736000D01*
X70524034Y-87736000D01*
X70516041Y-87735944D01*
X70516034Y-87735943D01*
X70512991Y-87735922D01*
X70357832Y-87718518D01*
X70209007Y-87671308D01*
X70072187Y-87596091D01*
X69952583Y-87495731D01*
X69854750Y-87374051D01*
X69782414Y-87235685D01*
X69738331Y-87085905D01*
X69738326Y-87085848D01*
X69738322Y-87085835D01*
X69724178Y-86930418D01*
X69740491Y-86775211D01*
X69740495Y-86775200D01*
X69740501Y-86775138D01*
X69786670Y-86625988D01*
X69860931Y-86488646D01*
X69960454Y-86368343D01*
X70081448Y-86269663D01*
X70219305Y-86196363D01*
X70368774Y-86151236D01*
X70524161Y-86136000D01*
X70933966Y-86136000D01*
X70941959Y-86136056D01*
X70941959Y-86136056D01*
G37*
G36*
X58171178Y-84910100D02*
X58171185Y-84910101D01*
X58174227Y-84910122D01*
X58416664Y-84937315D01*
X58649201Y-85011081D01*
X58862983Y-85128608D01*
X59049865Y-85285421D01*
X59202729Y-85475546D01*
X59315754Y-85691742D01*
X59384633Y-85925773D01*
X59384638Y-85925825D01*
X59384644Y-85925846D01*
X59406747Y-86168722D01*
X59381254Y-86411274D01*
X59381249Y-86411290D01*
X59381243Y-86411347D01*
X59309103Y-86644394D01*
X59193071Y-86858991D01*
X59037567Y-87046963D01*
X58848513Y-87201152D01*
X58633112Y-87315683D01*
X58399567Y-87386194D01*
X58156774Y-87410000D01*
X57843099Y-87410000D01*
X57828822Y-87409900D01*
X57828815Y-87409899D01*
X57825773Y-87409878D01*
X57583336Y-87382685D01*
X57350799Y-87308919D01*
X57137017Y-87191392D01*
X56950135Y-87034579D01*
X56797271Y-86844454D01*
X56684246Y-86628258D01*
X56615367Y-86394227D01*
X56615362Y-86394175D01*
X56615356Y-86394154D01*
X56593253Y-86151278D01*
X56618746Y-85908726D01*
X56618751Y-85908710D01*
X56618757Y-85908653D01*
X56690897Y-85675606D01*
X56806929Y-85461009D01*
X56962433Y-85273037D01*
X57151487Y-85118848D01*
X57366888Y-85004317D01*
X57600433Y-84933806D01*
X57843226Y-84910000D01*
X58156901Y-84910000D01*
X58171178Y-84910100D01*
X58171178Y-84910100D01*
G37*
G36*
X71729000Y-85196000D02*
X69729000Y-85196000D01*
X69729000Y-83596000D01*
X71729000Y-83596000D01*
X71729000Y-85196000D01*
X71729000Y-85196000D01*
G37*
G36*
X90271000Y-85196000D02*
X88271000Y-85196000D01*
X88271000Y-83596000D01*
X90271000Y-83596000D01*
X90271000Y-85196000D01*
X90271000Y-85196000D01*
G37*
G36*
X58171178Y-79830100D02*
X58171185Y-79830101D01*
X58174227Y-79830122D01*
X58416664Y-79857315D01*
X58649201Y-79931081D01*
X58862983Y-80048608D01*
X59049865Y-80205421D01*
X59202729Y-80395546D01*
X59315754Y-80611742D01*
X59384633Y-80845773D01*
X59384638Y-80845825D01*
X59384644Y-80845846D01*
X59406747Y-81088722D01*
X59381254Y-81331274D01*
X59381249Y-81331290D01*
X59381243Y-81331347D01*
X59309103Y-81564394D01*
X59193071Y-81778991D01*
X59037567Y-81966963D01*
X58848513Y-82121152D01*
X58633112Y-82235683D01*
X58399567Y-82306194D01*
X58156774Y-82330000D01*
X57843099Y-82330000D01*
X57828822Y-82329900D01*
X57828815Y-82329899D01*
X57825773Y-82329878D01*
X57583336Y-82302685D01*
X57350799Y-82228919D01*
X57137017Y-82111392D01*
X56950135Y-81954579D01*
X56797271Y-81764454D01*
X56684246Y-81548258D01*
X56615367Y-81314227D01*
X56615362Y-81314175D01*
X56615356Y-81314154D01*
X56593253Y-81071278D01*
X56618746Y-80828726D01*
X56618751Y-80828710D01*
X56618757Y-80828653D01*
X56690897Y-80595606D01*
X56806929Y-80381009D01*
X56962433Y-80193037D01*
X57151487Y-80038848D01*
X57366888Y-79924317D01*
X57600433Y-79853806D01*
X57843226Y-79830000D01*
X58156901Y-79830000D01*
X58171178Y-79830100D01*
X58171178Y-79830100D01*
G37*
G36*
X70160789Y-78412458D02*
X70160805Y-78412463D01*
X70160862Y-78412469D01*
X70310012Y-78458638D01*
X70447354Y-78532899D01*
X70567657Y-78632422D01*
X70666337Y-78753416D01*
X70739637Y-78891273D01*
X70784764Y-79040742D01*
X70800000Y-79196129D01*
X70800000Y-79203999D01*
X70799944Y-79211992D01*
X70799943Y-79211999D01*
X70799922Y-79215041D01*
X70782518Y-79370200D01*
X70735308Y-79519025D01*
X70660091Y-79655845D01*
X70559731Y-79775449D01*
X70438051Y-79873282D01*
X70299685Y-79945618D01*
X70149905Y-79989701D01*
X70149853Y-79989706D01*
X70149835Y-79989711D01*
X69994418Y-80003855D01*
X69839211Y-79987542D01*
X69839195Y-79987537D01*
X69839138Y-79987531D01*
X69689988Y-79941362D01*
X69552646Y-79867101D01*
X69432343Y-79767578D01*
X69333663Y-79646584D01*
X69260363Y-79508727D01*
X69215236Y-79359258D01*
X69200000Y-79203871D01*
X69200000Y-79196001D01*
X69200056Y-79188008D01*
X69200057Y-79188001D01*
X69200078Y-79184959D01*
X69217482Y-79029800D01*
X69264692Y-78880975D01*
X69339909Y-78744155D01*
X69440269Y-78624551D01*
X69561949Y-78526718D01*
X69700315Y-78454382D01*
X69850095Y-78410299D01*
X69850147Y-78410294D01*
X69850165Y-78410289D01*
X70005582Y-78396145D01*
X70160789Y-78412458D01*
X70160789Y-78412458D01*
G37*
G36*
X59400000Y-77250000D02*
X56600000Y-77250000D01*
X56600000Y-74750000D01*
X59400000Y-74750000D01*
X59400000Y-77250000D01*
X59400000Y-77250000D01*
G37*
G36*
X70800000Y-76500000D02*
X69200000Y-76500000D01*
X69200000Y-74900000D01*
X70800000Y-74900000D01*
X70800000Y-76500000D01*
X70800000Y-76500000D01*
G37*
G36*
X58171178Y-68330100D02*
X58171185Y-68330101D01*
X58174227Y-68330122D01*
X58416664Y-68357315D01*
X58649201Y-68431081D01*
X58862983Y-68548608D01*
X59049865Y-68705421D01*
X59202729Y-68895546D01*
X59315754Y-69111742D01*
X59384633Y-69345773D01*
X59384638Y-69345825D01*
X59384644Y-69345846D01*
X59406747Y-69588722D01*
X59381254Y-69831274D01*
X59381249Y-69831290D01*
X59381243Y-69831347D01*
X59309103Y-70064394D01*
X59193071Y-70278991D01*
X59037567Y-70466963D01*
X58848513Y-70621152D01*
X58633112Y-70735683D01*
X58399567Y-70806194D01*
X58156774Y-70830000D01*
X57843099Y-70830000D01*
X57828822Y-70829900D01*
X57828815Y-70829899D01*
X57825773Y-70829878D01*
X57583336Y-70802685D01*
X57350799Y-70728919D01*
X57137017Y-70611392D01*
X56950135Y-70454579D01*
X56797271Y-70264454D01*
X56684246Y-70048258D01*
X56615367Y-69814227D01*
X56615362Y-69814175D01*
X56615356Y-69814154D01*
X56593253Y-69571278D01*
X56618746Y-69328726D01*
X56618751Y-69328710D01*
X56618757Y-69328653D01*
X56690897Y-69095606D01*
X56806929Y-68881009D01*
X56962433Y-68693037D01*
X57151487Y-68538848D01*
X57366888Y-68424317D01*
X57600433Y-68353806D01*
X57843226Y-68330000D01*
X58156901Y-68330000D01*
X58171178Y-68330100D01*
X58171178Y-68330100D01*
G37*
G36*
X63982959Y-68970056D02*
X63982966Y-68970057D01*
X63986009Y-68970078D01*
X64141168Y-68987482D01*
X64289993Y-69034692D01*
X64426813Y-69109909D01*
X64546417Y-69210269D01*
X64644250Y-69331949D01*
X64716586Y-69470315D01*
X64760669Y-69620095D01*
X64760674Y-69620152D01*
X64760678Y-69620165D01*
X64774822Y-69775582D01*
X64758509Y-69930789D01*
X64758505Y-69930800D01*
X64758499Y-69930862D01*
X64712330Y-70080012D01*
X64638069Y-70217354D01*
X64538546Y-70337657D01*
X64417552Y-70436337D01*
X64279695Y-70509637D01*
X64130226Y-70554764D01*
X63974839Y-70570000D01*
X63565034Y-70570000D01*
X63557041Y-70569944D01*
X63557034Y-70569943D01*
X63553991Y-70569922D01*
X63398832Y-70552518D01*
X63250007Y-70505308D01*
X63113187Y-70430091D01*
X62993583Y-70329731D01*
X62895750Y-70208051D01*
X62823414Y-70069685D01*
X62779331Y-69919905D01*
X62779326Y-69919848D01*
X62779322Y-69919835D01*
X62765178Y-69764418D01*
X62781491Y-69609211D01*
X62781495Y-69609200D01*
X62781501Y-69609138D01*
X62827670Y-69459988D01*
X62901931Y-69322646D01*
X63001454Y-69202343D01*
X63122448Y-69103663D01*
X63260305Y-69030363D01*
X63409774Y-68985236D01*
X63565161Y-68970000D01*
X63974966Y-68970000D01*
X63982959Y-68970056D01*
X63982959Y-68970056D01*
G37*
G36*
X61442959Y-68970056D02*
X61442966Y-68970057D01*
X61446009Y-68970078D01*
X61601168Y-68987482D01*
X61749993Y-69034692D01*
X61886813Y-69109909D01*
X62006417Y-69210269D01*
X62104250Y-69331949D01*
X62176586Y-69470315D01*
X62220669Y-69620095D01*
X62220674Y-69620152D01*
X62220678Y-69620165D01*
X62234822Y-69775582D01*
X62218509Y-69930789D01*
X62218505Y-69930800D01*
X62218499Y-69930862D01*
X62172330Y-70080012D01*
X62098069Y-70217354D01*
X61998546Y-70337657D01*
X61877552Y-70436337D01*
X61739695Y-70509637D01*
X61590226Y-70554764D01*
X61434839Y-70570000D01*
X61025034Y-70570000D01*
X61017041Y-70569944D01*
X61017034Y-70569943D01*
X61013991Y-70569922D01*
X60858832Y-70552518D01*
X60710007Y-70505308D01*
X60573187Y-70430091D01*
X60453583Y-70329731D01*
X60355750Y-70208051D01*
X60283414Y-70069685D01*
X60239331Y-69919905D01*
X60239326Y-69919848D01*
X60239322Y-69919835D01*
X60225178Y-69764418D01*
X60241491Y-69609211D01*
X60241495Y-69609200D01*
X60241501Y-69609138D01*
X60287670Y-69459988D01*
X60361931Y-69322646D01*
X60461454Y-69202343D01*
X60582448Y-69103663D01*
X60720305Y-69030363D01*
X60869774Y-68985236D01*
X61025161Y-68970000D01*
X61434966Y-68970000D01*
X61442959Y-68970056D01*
X61442959Y-68970056D01*
G37*
G36*
X95192959Y-66510056D02*
X95192966Y-66510057D01*
X95196009Y-66510078D01*
X95351168Y-66527482D01*
X95499993Y-66574692D01*
X95636813Y-66649909D01*
X95756417Y-66750269D01*
X95854250Y-66871949D01*
X95926586Y-67010315D01*
X95970669Y-67160095D01*
X95970674Y-67160152D01*
X95970678Y-67160165D01*
X95984822Y-67315582D01*
X95968509Y-67470789D01*
X95968505Y-67470800D01*
X95968499Y-67470862D01*
X95922330Y-67620012D01*
X95848069Y-67757354D01*
X95748546Y-67877657D01*
X95627552Y-67976337D01*
X95489695Y-68049637D01*
X95340226Y-68094764D01*
X95184839Y-68110000D01*
X94775034Y-68110000D01*
X94767041Y-68109944D01*
X94767034Y-68109943D01*
X94763991Y-68109922D01*
X94608832Y-68092518D01*
X94460007Y-68045308D01*
X94323187Y-67970091D01*
X94203583Y-67869731D01*
X94105750Y-67748051D01*
X94033414Y-67609685D01*
X93989331Y-67459905D01*
X93989326Y-67459848D01*
X93989322Y-67459835D01*
X93975178Y-67304418D01*
X93991491Y-67149211D01*
X93991495Y-67149200D01*
X93991501Y-67149138D01*
X94037670Y-66999988D01*
X94111931Y-66862646D01*
X94211454Y-66742343D01*
X94332448Y-66643663D01*
X94470305Y-66570363D01*
X94619774Y-66525236D01*
X94775161Y-66510000D01*
X95184966Y-66510000D01*
X95192959Y-66510056D01*
X95192959Y-66510056D01*
G37*
G36*
X97732959Y-66510056D02*
X97732966Y-66510057D01*
X97736009Y-66510078D01*
X97891168Y-66527482D01*
X98039993Y-66574692D01*
X98176813Y-66649909D01*
X98296417Y-66750269D01*
X98394250Y-66871949D01*
X98466586Y-67010315D01*
X98510669Y-67160095D01*
X98510674Y-67160152D01*
X98510678Y-67160165D01*
X98524822Y-67315582D01*
X98508509Y-67470789D01*
X98508505Y-67470800D01*
X98508499Y-67470862D01*
X98462330Y-67620012D01*
X98388069Y-67757354D01*
X98288546Y-67877657D01*
X98167552Y-67976337D01*
X98029695Y-68049637D01*
X97880226Y-68094764D01*
X97724839Y-68110000D01*
X97315034Y-68110000D01*
X97307041Y-68109944D01*
X97307034Y-68109943D01*
X97303991Y-68109922D01*
X97148832Y-68092518D01*
X97000007Y-68045308D01*
X96863187Y-67970091D01*
X96743583Y-67869731D01*
X96645750Y-67748051D01*
X96573414Y-67609685D01*
X96529331Y-67459905D01*
X96529326Y-67459848D01*
X96529322Y-67459835D01*
X96515178Y-67304418D01*
X96531491Y-67149211D01*
X96531495Y-67149200D01*
X96531501Y-67149138D01*
X96577670Y-66999988D01*
X96651931Y-66862646D01*
X96751454Y-66742343D01*
X96872448Y-66643663D01*
X97010305Y-66570363D01*
X97159774Y-66525236D01*
X97315161Y-66510000D01*
X97724966Y-66510000D01*
X97732959Y-66510056D01*
X97732959Y-66510056D01*
G37*
G36*
X62230000Y-68030000D02*
X60230000Y-68030000D01*
X60230000Y-66430000D01*
X62230000Y-66430000D01*
X62230000Y-68030000D01*
X62230000Y-68030000D01*
G37*
G36*
X63982959Y-66430056D02*
X63982966Y-66430057D01*
X63986009Y-66430078D01*
X64141168Y-66447482D01*
X64289993Y-66494692D01*
X64426813Y-66569909D01*
X64546417Y-66670269D01*
X64644250Y-66791949D01*
X64716586Y-66930315D01*
X64760669Y-67080095D01*
X64760674Y-67080152D01*
X64760678Y-67080165D01*
X64774822Y-67235582D01*
X64758509Y-67390789D01*
X64758505Y-67390800D01*
X64758499Y-67390862D01*
X64712330Y-67540012D01*
X64638069Y-67677354D01*
X64538546Y-67797657D01*
X64417552Y-67896337D01*
X64279695Y-67969637D01*
X64130226Y-68014764D01*
X63974839Y-68030000D01*
X63565034Y-68030000D01*
X63557041Y-68029944D01*
X63557034Y-68029943D01*
X63553991Y-68029922D01*
X63398832Y-68012518D01*
X63250007Y-67965308D01*
X63113187Y-67890091D01*
X62993583Y-67789731D01*
X62895750Y-67668051D01*
X62823414Y-67529685D01*
X62779331Y-67379905D01*
X62779326Y-67379848D01*
X62779322Y-67379835D01*
X62765178Y-67224418D01*
X62781491Y-67069211D01*
X62781495Y-67069200D01*
X62781501Y-67069138D01*
X62827670Y-66919988D01*
X62901931Y-66782646D01*
X63001454Y-66662343D01*
X63122448Y-66563663D01*
X63260305Y-66490363D01*
X63409774Y-66445236D01*
X63565161Y-66430000D01*
X63974966Y-66430000D01*
X63982959Y-66430056D01*
X63982959Y-66430056D01*
G37*
G36*
X59400000Y-65750000D02*
X56600000Y-65750000D01*
X56600000Y-63250000D01*
X59400000Y-63250000D01*
X59400000Y-65750000D01*
X59400000Y-65750000D01*
G37*
G36*
X95192959Y-63970056D02*
X95192966Y-63970057D01*
X95196009Y-63970078D01*
X95351168Y-63987482D01*
X95499993Y-64034692D01*
X95636813Y-64109909D01*
X95756417Y-64210269D01*
X95854250Y-64331949D01*
X95926586Y-64470315D01*
X95970669Y-64620095D01*
X95970674Y-64620152D01*
X95970678Y-64620165D01*
X95984822Y-64775582D01*
X95968509Y-64930789D01*
X95968505Y-64930800D01*
X95968499Y-64930862D01*
X95922330Y-65080012D01*
X95848069Y-65217354D01*
X95748546Y-65337657D01*
X95627552Y-65436337D01*
X95489695Y-65509637D01*
X95340226Y-65554764D01*
X95184839Y-65570000D01*
X94775034Y-65570000D01*
X94767041Y-65569944D01*
X94767034Y-65569943D01*
X94763991Y-65569922D01*
X94608832Y-65552518D01*
X94460007Y-65505308D01*
X94323187Y-65430091D01*
X94203583Y-65329731D01*
X94105750Y-65208051D01*
X94033414Y-65069685D01*
X93989331Y-64919905D01*
X93989326Y-64919848D01*
X93989322Y-64919835D01*
X93975178Y-64764418D01*
X93991491Y-64609211D01*
X93991495Y-64609200D01*
X93991501Y-64609138D01*
X94037670Y-64459988D01*
X94111931Y-64322646D01*
X94211454Y-64202343D01*
X94332448Y-64103663D01*
X94470305Y-64030363D01*
X94619774Y-63985236D01*
X94775161Y-63970000D01*
X95184966Y-63970000D01*
X95192959Y-63970056D01*
X95192959Y-63970056D01*
G37*
G36*
X97732959Y-63970056D02*
X97732966Y-63970057D01*
X97736009Y-63970078D01*
X97891168Y-63987482D01*
X98039993Y-64034692D01*
X98176813Y-64109909D01*
X98296417Y-64210269D01*
X98394250Y-64331949D01*
X98466586Y-64470315D01*
X98510669Y-64620095D01*
X98510674Y-64620152D01*
X98510678Y-64620165D01*
X98524822Y-64775582D01*
X98508509Y-64930789D01*
X98508505Y-64930800D01*
X98508499Y-64930862D01*
X98462330Y-65080012D01*
X98388069Y-65217354D01*
X98288546Y-65337657D01*
X98167552Y-65436337D01*
X98029695Y-65509637D01*
X97880226Y-65554764D01*
X97724839Y-65570000D01*
X97315034Y-65570000D01*
X97307041Y-65569944D01*
X97307034Y-65569943D01*
X97303991Y-65569922D01*
X97148832Y-65552518D01*
X97000007Y-65505308D01*
X96863187Y-65430091D01*
X96743583Y-65329731D01*
X96645750Y-65208051D01*
X96573414Y-65069685D01*
X96529331Y-64919905D01*
X96529326Y-64919848D01*
X96529322Y-64919835D01*
X96515178Y-64764418D01*
X96531491Y-64609211D01*
X96531495Y-64609200D01*
X96531501Y-64609138D01*
X96577670Y-64459988D01*
X96651931Y-64322646D01*
X96751454Y-64202343D01*
X96872448Y-64103663D01*
X97010305Y-64030363D01*
X97159774Y-63985236D01*
X97315161Y-63970000D01*
X97724966Y-63970000D01*
X97732959Y-63970056D01*
X97732959Y-63970056D01*
G37*
G36*
X97732959Y-61430056D02*
X97732966Y-61430057D01*
X97736009Y-61430078D01*
X97891168Y-61447482D01*
X98039993Y-61494692D01*
X98176813Y-61569909D01*
X98296417Y-61670269D01*
X98394250Y-61791949D01*
X98466586Y-61930315D01*
X98510669Y-62080095D01*
X98510674Y-62080152D01*
X98510678Y-62080165D01*
X98524822Y-62235582D01*
X98508509Y-62390789D01*
X98508505Y-62390800D01*
X98508499Y-62390862D01*
X98462330Y-62540012D01*
X98388069Y-62677354D01*
X98288546Y-62797657D01*
X98167552Y-62896337D01*
X98029695Y-62969637D01*
X97880226Y-63014764D01*
X97724839Y-63030000D01*
X97315034Y-63030000D01*
X97307041Y-63029944D01*
X97307034Y-63029943D01*
X97303991Y-63029922D01*
X97148832Y-63012518D01*
X97000007Y-62965308D01*
X96863187Y-62890091D01*
X96743583Y-62789731D01*
X96645750Y-62668051D01*
X96573414Y-62529685D01*
X96529331Y-62379905D01*
X96529326Y-62379848D01*
X96529322Y-62379835D01*
X96515178Y-62224418D01*
X96531491Y-62069211D01*
X96531495Y-62069200D01*
X96531501Y-62069138D01*
X96577670Y-61919988D01*
X96651931Y-61782646D01*
X96751454Y-61662343D01*
X96872448Y-61563663D01*
X97010305Y-61490363D01*
X97159774Y-61445236D01*
X97315161Y-61430000D01*
X97724966Y-61430000D01*
X97732959Y-61430056D01*
X97732959Y-61430056D01*
G37*
G36*
X95192959Y-61430056D02*
X95192966Y-61430057D01*
X95196009Y-61430078D01*
X95351168Y-61447482D01*
X95499993Y-61494692D01*
X95636813Y-61569909D01*
X95756417Y-61670269D01*
X95854250Y-61791949D01*
X95926586Y-61930315D01*
X95970669Y-62080095D01*
X95970674Y-62080152D01*
X95970678Y-62080165D01*
X95984822Y-62235582D01*
X95968509Y-62390789D01*
X95968505Y-62390800D01*
X95968499Y-62390862D01*
X95922330Y-62540012D01*
X95848069Y-62677354D01*
X95748546Y-62797657D01*
X95627552Y-62896337D01*
X95489695Y-62969637D01*
X95340226Y-63014764D01*
X95184839Y-63030000D01*
X94775034Y-63030000D01*
X94767041Y-63029944D01*
X94767034Y-63029943D01*
X94763991Y-63029922D01*
X94608832Y-63012518D01*
X94460007Y-62965308D01*
X94323187Y-62890091D01*
X94203583Y-62789731D01*
X94105750Y-62668051D01*
X94033414Y-62529685D01*
X93989331Y-62379905D01*
X93989326Y-62379848D01*
X93989322Y-62379835D01*
X93975178Y-62224418D01*
X93991491Y-62069211D01*
X93991495Y-62069200D01*
X93991501Y-62069138D01*
X94037670Y-61919988D01*
X94111931Y-61782646D01*
X94211454Y-61662343D01*
X94332448Y-61563663D01*
X94470305Y-61490363D01*
X94619774Y-61445236D01*
X94775161Y-61430000D01*
X95184966Y-61430000D01*
X95192959Y-61430056D01*
X95192959Y-61430056D01*
G37*
G36*
X97732959Y-58890056D02*
X97732966Y-58890057D01*
X97736009Y-58890078D01*
X97891168Y-58907482D01*
X98039993Y-58954692D01*
X98176813Y-59029909D01*
X98296417Y-59130269D01*
X98394250Y-59251949D01*
X98466586Y-59390315D01*
X98510669Y-59540095D01*
X98510674Y-59540152D01*
X98510678Y-59540165D01*
X98524822Y-59695582D01*
X98508509Y-59850789D01*
X98508505Y-59850800D01*
X98508499Y-59850862D01*
X98462330Y-60000012D01*
X98388069Y-60137354D01*
X98288546Y-60257657D01*
X98167552Y-60356337D01*
X98029695Y-60429637D01*
X97880226Y-60474764D01*
X97724839Y-60490000D01*
X97315034Y-60490000D01*
X97307041Y-60489944D01*
X97307034Y-60489943D01*
X97303991Y-60489922D01*
X97148832Y-60472518D01*
X97000007Y-60425308D01*
X96863187Y-60350091D01*
X96743583Y-60249731D01*
X96645750Y-60128051D01*
X96573414Y-59989685D01*
X96529331Y-59839905D01*
X96529326Y-59839848D01*
X96529322Y-59839835D01*
X96515178Y-59684418D01*
X96531491Y-59529211D01*
X96531495Y-59529200D01*
X96531501Y-59529138D01*
X96577670Y-59379988D01*
X96651931Y-59242646D01*
X96751454Y-59122343D01*
X96872448Y-59023663D01*
X97010305Y-58950363D01*
X97159774Y-58905236D01*
X97315161Y-58890000D01*
X97724966Y-58890000D01*
X97732959Y-58890056D01*
X97732959Y-58890056D01*
G37*
G36*
X95980000Y-60490000D02*
X93980000Y-60490000D01*
X93980000Y-58890000D01*
X95980000Y-58890000D01*
X95980000Y-60490000D01*
X95980000Y-60490000D01*
G37*
G36*
X58171178Y-56750100D02*
X58171185Y-56750101D01*
X58174227Y-56750122D01*
X58416664Y-56777315D01*
X58649201Y-56851081D01*
X58862983Y-56968608D01*
X59049865Y-57125421D01*
X59202729Y-57315546D01*
X59315754Y-57531742D01*
X59384633Y-57765773D01*
X59384638Y-57765825D01*
X59384644Y-57765846D01*
X59406747Y-58008722D01*
X59381254Y-58251274D01*
X59381249Y-58251290D01*
X59381243Y-58251347D01*
X59309103Y-58484394D01*
X59193071Y-58698991D01*
X59037567Y-58886963D01*
X58848513Y-59041152D01*
X58633112Y-59155683D01*
X58399567Y-59226194D01*
X58156774Y-59250000D01*
X57843099Y-59250000D01*
X57828822Y-59249900D01*
X57828815Y-59249899D01*
X57825773Y-59249878D01*
X57583336Y-59222685D01*
X57350799Y-59148919D01*
X57137017Y-59031392D01*
X56950135Y-58874579D01*
X56797271Y-58684454D01*
X56684246Y-58468258D01*
X56615367Y-58234227D01*
X56615362Y-58234175D01*
X56615356Y-58234154D01*
X56593253Y-57991278D01*
X56618746Y-57748726D01*
X56618751Y-57748710D01*
X56618757Y-57748653D01*
X56690897Y-57515606D01*
X56806929Y-57301009D01*
X56962433Y-57113037D01*
X57151487Y-56958848D01*
X57366888Y-56844317D01*
X57600433Y-56773806D01*
X57843226Y-56750000D01*
X58156901Y-56750000D01*
X58171178Y-56750100D01*
X58171178Y-56750100D01*
G37*
G36*
X67850000Y-53614286D02*
X67850151Y-53615823D01*
X67850065Y-53621977D01*
X67850166Y-53622488D01*
X67850000Y-53634376D01*
X67850000Y-54000000D01*
X67848477Y-54000000D01*
X67845900Y-54012727D01*
X67844540Y-54025403D01*
X67838124Y-54484868D01*
X67838008Y-54485378D01*
X67838008Y-54485386D01*
X67670851Y-55221129D01*
X67363755Y-55910879D01*
X66928535Y-56527844D01*
X66381769Y-57048521D01*
X65744276Y-57453086D01*
X65040355Y-57726119D01*
X64296797Y-57857229D01*
X63541934Y-57841417D01*
X62804528Y-57679287D01*
X62112653Y-57377015D01*
X61492660Y-56946109D01*
X60968182Y-56402995D01*
X60559174Y-55768340D01*
X60281234Y-55066342D01*
X60144937Y-54323720D01*
X60149993Y-53961605D01*
X60150000Y-53960558D01*
X60150000Y-50000000D01*
X67850000Y-50000000D01*
X67850000Y-53614286D01*
X67850000Y-53614286D01*
G37*
G36*
X59400000Y-54170000D02*
X56600000Y-54170000D01*
X56600000Y-51670000D01*
X59400000Y-51670000D01*
X59400000Y-54170000D01*
X59400000Y-54170000D01*
G37*
M02*
