G04 #@! TF.FileFunction,Copper,L2,Bot,Signal*
%FSLAX46Y46*%
G04 Gerber Fmt 4.6, Leading zero omitted, Abs format (unit mm)*
G04 Created by KiCad (PCBNEW 4.0.0-rc1-stable) date 2016-02-04 20:32:03*
%MOMM*%
G01*
G04 APERTURE LIST*
%ADD10C,0.100000*%
%ADD11R,1.800000X1.400000*%
%ADD12O,1.800000X1.400000*%
%ADD13R,1.400000X1.800000*%
%ADD14O,1.400000X1.800000*%
%ADD15C,7.500000*%
%ADD16C,0.650000*%
%ADD17R,1.400000X1.400000*%
%ADD18O,1.400000X1.400000*%
%ADD19R,1.300000X1.300000*%
%ADD20O,1.300000X1.300000*%
%ADD21R,2.600000X2.300000*%
%ADD22O,2.600000X2.300000*%
%ADD23C,1.000000*%
%ADD24C,1.500000*%
%ADD25C,0.200000*%
%ADD26C,0.500000*%
%ADD27C,2.000000*%
G04 APERTURE END LIST*
D10*
D11*
X70729000Y-95064000D03*
D12*
X70729000Y-97604000D03*
D11*
X70729000Y-84396000D03*
D12*
X70729000Y-86936000D03*
D11*
X89271000Y-95064000D03*
D12*
X89271000Y-97604000D03*
D11*
X89271000Y-84396000D03*
D12*
X89271000Y-86936000D03*
D13*
X57040000Y-95730000D03*
D14*
X57040000Y-98270000D03*
X54500000Y-95730000D03*
X54500000Y-98270000D03*
X51960000Y-95730000D03*
X51960000Y-98270000D03*
D15*
X64000000Y-96000000D03*
D16*
X66675000Y-96000000D03*
X65892000Y-94108000D03*
X64000000Y-93325000D03*
X62108000Y-94108000D03*
X61325000Y-96000000D03*
X62108000Y-97892000D03*
X64000000Y-98675000D03*
X65892000Y-97892000D03*
D15*
X64000000Y-54000000D03*
D16*
X66675000Y-54000000D03*
X65892000Y-52108000D03*
X64000000Y-51325000D03*
X62108000Y-52108000D03*
X61325000Y-54000000D03*
X62108000Y-55892000D03*
X64000000Y-56675000D03*
X65892000Y-55892000D03*
D15*
X96000000Y-96000000D03*
D16*
X98675000Y-96000000D03*
X97892000Y-94108000D03*
X96000000Y-93325000D03*
X94108000Y-94108000D03*
X93325000Y-96000000D03*
X94108000Y-97892000D03*
X96000000Y-98675000D03*
X97892000Y-97892000D03*
D15*
X96000000Y-54000000D03*
D16*
X98675000Y-54000000D03*
X97892000Y-52108000D03*
X96000000Y-51325000D03*
X94108000Y-52108000D03*
X93325000Y-54000000D03*
X94108000Y-55892000D03*
X96000000Y-56675000D03*
X97892000Y-55892000D03*
D17*
X62250000Y-91000000D03*
D18*
X65750000Y-91000000D03*
D17*
X70000000Y-75700000D03*
D18*
X70000000Y-79200000D03*
D19*
X94000000Y-90500000D03*
D20*
X96500000Y-90500000D03*
D11*
X61230000Y-67230000D03*
D12*
X63770000Y-67230000D03*
X61230000Y-69770000D03*
X63770000Y-69770000D03*
D11*
X94980000Y-59690000D03*
D12*
X97520000Y-59690000D03*
X94980000Y-62230000D03*
X97520000Y-62230000D03*
X94980000Y-64770000D03*
X97520000Y-64770000D03*
X94980000Y-67310000D03*
X97520000Y-67310000D03*
D21*
X58000000Y-64500000D03*
D22*
X58000000Y-69580000D03*
D21*
X58000000Y-76000000D03*
D22*
X58000000Y-81080000D03*
X58000000Y-86160000D03*
X58000000Y-91240000D03*
D21*
X58000000Y-52920000D03*
D22*
X58000000Y-58000000D03*
D16*
X95900000Y-71200000D03*
X73150000Y-71800000D03*
X70400000Y-71800000D03*
X70400000Y-70200000D03*
X81100000Y-93000000D03*
X92250000Y-70200000D03*
X83000000Y-74400000D03*
X82950000Y-72600000D03*
D23*
X63770000Y-69770000D02*
X65770000Y-69770000D01*
X63770000Y-69770000D02*
X63770000Y-71470000D01*
X63770000Y-71470000D02*
X63800000Y-71500000D01*
D24*
X61230000Y-81020000D02*
X61170000Y-81080000D01*
X61170000Y-81080000D02*
X58000000Y-81080000D01*
X54500000Y-85946592D02*
X54500000Y-87899301D01*
X54500000Y-87899301D02*
X54500000Y-95730000D01*
X51960000Y-95730000D02*
X51960000Y-93330000D01*
X51960000Y-93330000D02*
X54500000Y-90790000D01*
X54500000Y-90790000D02*
X54500000Y-87899301D01*
X58000000Y-81080000D02*
X54620000Y-81080000D01*
X54620000Y-81080000D02*
X54500000Y-81200000D01*
X54500000Y-81200000D02*
X54500000Y-85946592D01*
X58000000Y-86160000D02*
X54713408Y-86160000D01*
X54713408Y-86160000D02*
X54500000Y-85946592D01*
X61230000Y-69770000D02*
X58190000Y-69770000D01*
X58190000Y-69770000D02*
X58000000Y-69580000D01*
X63770000Y-69770000D02*
X61230000Y-69770000D01*
D25*
X61730000Y-51730000D02*
X64000000Y-54000000D01*
X64000000Y-54000000D02*
X61300000Y-54000000D01*
D26*
X64000000Y-54000000D02*
X62108000Y-55892000D01*
X64000000Y-54000000D02*
X64000000Y-56675000D01*
X64000000Y-54000000D02*
X62108000Y-52108000D01*
X64000000Y-54000000D02*
X64000000Y-51325000D01*
X64000000Y-54000000D02*
X65892000Y-52108000D01*
X64000000Y-54000000D02*
X66675000Y-54000000D01*
D27*
X54700000Y-72850000D02*
X54700000Y-64160521D01*
X54700000Y-64160521D02*
X54700000Y-56070000D01*
X58000000Y-64500000D02*
X55039479Y-64500000D01*
X55039479Y-64500000D02*
X54700000Y-64160521D01*
X58000000Y-76000000D02*
X57850000Y-76000000D01*
X57850000Y-76000000D02*
X54700000Y-72850000D01*
X54700000Y-56070000D02*
X57850000Y-52920000D01*
X57850000Y-52920000D02*
X58000000Y-52920000D01*
D26*
X82950000Y-74350000D02*
X83000000Y-74400000D01*
X82950000Y-72600000D02*
X82950000Y-74350000D01*
D25*
G36*
X59400000Y-51378464D02*
X59379565Y-51370000D01*
X58400000Y-51370000D01*
X58300000Y-51470000D01*
X58300000Y-52620000D01*
X58320000Y-52620000D01*
X58320000Y-53220000D01*
X58300000Y-53220000D01*
X58300000Y-54370000D01*
X58400000Y-54470000D01*
X59379565Y-54470000D01*
X59400000Y-54461536D01*
X59400000Y-57084594D01*
X59279321Y-56903984D01*
X58776464Y-56567987D01*
X58183305Y-56450000D01*
X57816695Y-56450000D01*
X57223536Y-56567987D01*
X56720679Y-56903984D01*
X56384682Y-57406841D01*
X56266695Y-58000000D01*
X56384682Y-58593159D01*
X56720679Y-59096016D01*
X57223536Y-59432013D01*
X57816695Y-59550000D01*
X58183305Y-59550000D01*
X58776464Y-59432013D01*
X59279321Y-59096016D01*
X59400000Y-58915406D01*
X59400000Y-62958464D01*
X59379565Y-62950000D01*
X58400000Y-62950000D01*
X58300000Y-63050000D01*
X58300000Y-64200000D01*
X58320000Y-64200000D01*
X58320000Y-64800000D01*
X58300000Y-64800000D01*
X58300000Y-65950000D01*
X58400000Y-66050000D01*
X59379565Y-66050000D01*
X59400000Y-66041536D01*
X59400000Y-68620000D01*
X59370204Y-68620000D01*
X59279321Y-68483984D01*
X58776464Y-68147987D01*
X58183305Y-68030000D01*
X57816695Y-68030000D01*
X57223536Y-68147987D01*
X56720679Y-68483984D01*
X56384682Y-68986841D01*
X56266695Y-69580000D01*
X56384682Y-70173159D01*
X56720679Y-70676016D01*
X57223536Y-71012013D01*
X57816695Y-71130000D01*
X58183305Y-71130000D01*
X58776464Y-71012013D01*
X58914172Y-70920000D01*
X59400000Y-70920000D01*
X59400000Y-74458464D01*
X59379565Y-74450000D01*
X58400000Y-74450000D01*
X58300000Y-74550000D01*
X58300000Y-75700000D01*
X58320000Y-75700000D01*
X58320000Y-76300000D01*
X58300000Y-76300000D01*
X58300000Y-77450000D01*
X58400000Y-77550000D01*
X59379565Y-77550000D01*
X59400000Y-77541536D01*
X59400000Y-78400000D01*
X50450000Y-78400000D01*
X50450000Y-76400000D01*
X56300000Y-76400000D01*
X56300000Y-77229565D01*
X56360896Y-77376582D01*
X56473418Y-77489104D01*
X56620435Y-77550000D01*
X57600000Y-77550000D01*
X57700000Y-77450000D01*
X57700000Y-76300000D01*
X56400000Y-76300000D01*
X56300000Y-76400000D01*
X50450000Y-76400000D01*
X50450000Y-74770435D01*
X56300000Y-74770435D01*
X56300000Y-75600000D01*
X56400000Y-75700000D01*
X57700000Y-75700000D01*
X57700000Y-74550000D01*
X57600000Y-74450000D01*
X56620435Y-74450000D01*
X56473418Y-74510896D01*
X56360896Y-74623418D01*
X56300000Y-74770435D01*
X50450000Y-74770435D01*
X50450000Y-64900000D01*
X56300000Y-64900000D01*
X56300000Y-65729565D01*
X56360896Y-65876582D01*
X56473418Y-65989104D01*
X56620435Y-66050000D01*
X57600000Y-66050000D01*
X57700000Y-65950000D01*
X57700000Y-64800000D01*
X56400000Y-64800000D01*
X56300000Y-64900000D01*
X50450000Y-64900000D01*
X50450000Y-63270435D01*
X56300000Y-63270435D01*
X56300000Y-64100000D01*
X56400000Y-64200000D01*
X57700000Y-64200000D01*
X57700000Y-63050000D01*
X57600000Y-62950000D01*
X56620435Y-62950000D01*
X56473418Y-63010896D01*
X56360896Y-63123418D01*
X56300000Y-63270435D01*
X50450000Y-63270435D01*
X50450000Y-53320000D01*
X56300000Y-53320000D01*
X56300000Y-54149565D01*
X56360896Y-54296582D01*
X56473418Y-54409104D01*
X56620435Y-54470000D01*
X57600000Y-54470000D01*
X57700000Y-54370000D01*
X57700000Y-53220000D01*
X56400000Y-53220000D01*
X56300000Y-53320000D01*
X50450000Y-53320000D01*
X50450000Y-51690435D01*
X56300000Y-51690435D01*
X56300000Y-52520000D01*
X56400000Y-52620000D01*
X57700000Y-52620000D01*
X57700000Y-51470000D01*
X57600000Y-51370000D01*
X56620435Y-51370000D01*
X56473418Y-51430896D01*
X56360896Y-51543418D01*
X56300000Y-51690435D01*
X50450000Y-51690435D01*
X50450000Y-50450000D01*
X59400000Y-50450000D01*
X59400000Y-51378464D01*
X59400000Y-51378464D01*
G37*
X59400000Y-51378464D02*
X59379565Y-51370000D01*
X58400000Y-51370000D01*
X58300000Y-51470000D01*
X58300000Y-52620000D01*
X58320000Y-52620000D01*
X58320000Y-53220000D01*
X58300000Y-53220000D01*
X58300000Y-54370000D01*
X58400000Y-54470000D01*
X59379565Y-54470000D01*
X59400000Y-54461536D01*
X59400000Y-57084594D01*
X59279321Y-56903984D01*
X58776464Y-56567987D01*
X58183305Y-56450000D01*
X57816695Y-56450000D01*
X57223536Y-56567987D01*
X56720679Y-56903984D01*
X56384682Y-57406841D01*
X56266695Y-58000000D01*
X56384682Y-58593159D01*
X56720679Y-59096016D01*
X57223536Y-59432013D01*
X57816695Y-59550000D01*
X58183305Y-59550000D01*
X58776464Y-59432013D01*
X59279321Y-59096016D01*
X59400000Y-58915406D01*
X59400000Y-62958464D01*
X59379565Y-62950000D01*
X58400000Y-62950000D01*
X58300000Y-63050000D01*
X58300000Y-64200000D01*
X58320000Y-64200000D01*
X58320000Y-64800000D01*
X58300000Y-64800000D01*
X58300000Y-65950000D01*
X58400000Y-66050000D01*
X59379565Y-66050000D01*
X59400000Y-66041536D01*
X59400000Y-68620000D01*
X59370204Y-68620000D01*
X59279321Y-68483984D01*
X58776464Y-68147987D01*
X58183305Y-68030000D01*
X57816695Y-68030000D01*
X57223536Y-68147987D01*
X56720679Y-68483984D01*
X56384682Y-68986841D01*
X56266695Y-69580000D01*
X56384682Y-70173159D01*
X56720679Y-70676016D01*
X57223536Y-71012013D01*
X57816695Y-71130000D01*
X58183305Y-71130000D01*
X58776464Y-71012013D01*
X58914172Y-70920000D01*
X59400000Y-70920000D01*
X59400000Y-74458464D01*
X59379565Y-74450000D01*
X58400000Y-74450000D01*
X58300000Y-74550000D01*
X58300000Y-75700000D01*
X58320000Y-75700000D01*
X58320000Y-76300000D01*
X58300000Y-76300000D01*
X58300000Y-77450000D01*
X58400000Y-77550000D01*
X59379565Y-77550000D01*
X59400000Y-77541536D01*
X59400000Y-78400000D01*
X50450000Y-78400000D01*
X50450000Y-76400000D01*
X56300000Y-76400000D01*
X56300000Y-77229565D01*
X56360896Y-77376582D01*
X56473418Y-77489104D01*
X56620435Y-77550000D01*
X57600000Y-77550000D01*
X57700000Y-77450000D01*
X57700000Y-76300000D01*
X56400000Y-76300000D01*
X56300000Y-76400000D01*
X50450000Y-76400000D01*
X50450000Y-74770435D01*
X56300000Y-74770435D01*
X56300000Y-75600000D01*
X56400000Y-75700000D01*
X57700000Y-75700000D01*
X57700000Y-74550000D01*
X57600000Y-74450000D01*
X56620435Y-74450000D01*
X56473418Y-74510896D01*
X56360896Y-74623418D01*
X56300000Y-74770435D01*
X50450000Y-74770435D01*
X50450000Y-64900000D01*
X56300000Y-64900000D01*
X56300000Y-65729565D01*
X56360896Y-65876582D01*
X56473418Y-65989104D01*
X56620435Y-66050000D01*
X57600000Y-66050000D01*
X57700000Y-65950000D01*
X57700000Y-64800000D01*
X56400000Y-64800000D01*
X56300000Y-64900000D01*
X50450000Y-64900000D01*
X50450000Y-63270435D01*
X56300000Y-63270435D01*
X56300000Y-64100000D01*
X56400000Y-64200000D01*
X57700000Y-64200000D01*
X57700000Y-63050000D01*
X57600000Y-62950000D01*
X56620435Y-62950000D01*
X56473418Y-63010896D01*
X56360896Y-63123418D01*
X56300000Y-63270435D01*
X50450000Y-63270435D01*
X50450000Y-53320000D01*
X56300000Y-53320000D01*
X56300000Y-54149565D01*
X56360896Y-54296582D01*
X56473418Y-54409104D01*
X56620435Y-54470000D01*
X57600000Y-54470000D01*
X57700000Y-54370000D01*
X57700000Y-53220000D01*
X56400000Y-53220000D01*
X56300000Y-53320000D01*
X50450000Y-53320000D01*
X50450000Y-51690435D01*
X56300000Y-51690435D01*
X56300000Y-52520000D01*
X56400000Y-52620000D01*
X57700000Y-52620000D01*
X57700000Y-51470000D01*
X57600000Y-51370000D01*
X56620435Y-51370000D01*
X56473418Y-51430896D01*
X56360896Y-51543418D01*
X56300000Y-51690435D01*
X50450000Y-51690435D01*
X50450000Y-50450000D01*
X59400000Y-50450000D01*
X59400000Y-51378464D01*
G36*
X68900000Y-57500000D02*
X68907879Y-57538906D01*
X68930273Y-57571681D01*
X68963654Y-57593161D01*
X69000000Y-57600000D01*
X96000000Y-57600000D01*
X96038906Y-57592121D01*
X96071681Y-57569727D01*
X96093161Y-57536346D01*
X96100000Y-57500000D01*
X96100000Y-57403635D01*
X96120572Y-57404304D01*
X96390487Y-57302648D01*
X96430438Y-57275954D01*
X96448436Y-57130507D01*
X96100000Y-56782071D01*
X96100000Y-56767929D01*
X96455507Y-57123436D01*
X96600954Y-57105438D01*
X96719930Y-56842698D01*
X96729304Y-56554428D01*
X96651373Y-56347507D01*
X97443564Y-56347507D01*
X97461562Y-56492954D01*
X97724302Y-56611930D01*
X98012572Y-56621304D01*
X98282487Y-56519648D01*
X98322438Y-56492954D01*
X98340436Y-56347507D01*
X97892000Y-55899071D01*
X97443564Y-56347507D01*
X96651373Y-56347507D01*
X96627648Y-56284513D01*
X96600954Y-56244562D01*
X96455507Y-56226564D01*
X96100000Y-56582071D01*
X96100000Y-56567929D01*
X96448436Y-56219493D01*
X96430438Y-56074046D01*
X96294683Y-56012572D01*
X97162696Y-56012572D01*
X97264352Y-56282487D01*
X97291046Y-56322438D01*
X97436493Y-56340436D01*
X97884929Y-55892000D01*
X97899071Y-55892000D01*
X98347507Y-56340436D01*
X98492954Y-56322438D01*
X98611930Y-56059698D01*
X98621304Y-55771428D01*
X98519648Y-55501513D01*
X98492954Y-55461562D01*
X98347507Y-55443564D01*
X97899071Y-55892000D01*
X97884929Y-55892000D01*
X97436493Y-55443564D01*
X97291046Y-55461562D01*
X97172070Y-55724302D01*
X97162696Y-56012572D01*
X96294683Y-56012572D01*
X96167698Y-55955070D01*
X96100000Y-55952869D01*
X96100000Y-55436493D01*
X97443564Y-55436493D01*
X97892000Y-55884929D01*
X98340436Y-55436493D01*
X98322438Y-55291046D01*
X98059698Y-55172070D01*
X97771428Y-55162696D01*
X97501513Y-55264352D01*
X97461562Y-55291046D01*
X97443564Y-55436493D01*
X96100000Y-55436493D01*
X96100000Y-54455507D01*
X98226564Y-54455507D01*
X98244562Y-54600954D01*
X98507302Y-54719930D01*
X98795572Y-54729304D01*
X99065487Y-54627648D01*
X99105438Y-54600954D01*
X99123436Y-54455507D01*
X98675000Y-54007071D01*
X98226564Y-54455507D01*
X96100000Y-54455507D01*
X96100000Y-54120572D01*
X97945696Y-54120572D01*
X98047352Y-54390487D01*
X98074046Y-54430438D01*
X98219493Y-54448436D01*
X98667929Y-54000000D01*
X98682071Y-54000000D01*
X99130507Y-54448436D01*
X99275954Y-54430438D01*
X99394930Y-54167698D01*
X99404304Y-53879428D01*
X99302648Y-53609513D01*
X99275954Y-53569562D01*
X99130507Y-53551564D01*
X98682071Y-54000000D01*
X98667929Y-54000000D01*
X98219493Y-53551564D01*
X98074046Y-53569562D01*
X97955070Y-53832302D01*
X97945696Y-54120572D01*
X96100000Y-54120572D01*
X96100000Y-53544493D01*
X98226564Y-53544493D01*
X98675000Y-53992929D01*
X99123436Y-53544493D01*
X99105438Y-53399046D01*
X98842698Y-53280070D01*
X98554428Y-53270696D01*
X98284513Y-53372352D01*
X98244562Y-53399046D01*
X98226564Y-53544493D01*
X96100000Y-53544493D01*
X96100000Y-52563507D01*
X97443564Y-52563507D01*
X97461562Y-52708954D01*
X97724302Y-52827930D01*
X98012572Y-52837304D01*
X98282487Y-52735648D01*
X98322438Y-52708954D01*
X98340436Y-52563507D01*
X97892000Y-52115071D01*
X97443564Y-52563507D01*
X96100000Y-52563507D01*
X96100000Y-52228572D01*
X97162696Y-52228572D01*
X97264352Y-52498487D01*
X97291046Y-52538438D01*
X97436493Y-52556436D01*
X97884929Y-52108000D01*
X97899071Y-52108000D01*
X98347507Y-52556436D01*
X98492954Y-52538438D01*
X98611930Y-52275698D01*
X98621304Y-51987428D01*
X98519648Y-51717513D01*
X98492954Y-51677562D01*
X98347507Y-51659564D01*
X97899071Y-52108000D01*
X97884929Y-52108000D01*
X97436493Y-51659564D01*
X97291046Y-51677562D01*
X97172070Y-51940302D01*
X97162696Y-52228572D01*
X96100000Y-52228572D01*
X96100000Y-52053635D01*
X96120572Y-52054304D01*
X96390487Y-51952648D01*
X96430438Y-51925954D01*
X96448436Y-51780507D01*
X96100000Y-51432071D01*
X96100000Y-51417929D01*
X96455507Y-51773436D01*
X96600954Y-51755438D01*
X96647570Y-51652493D01*
X97443564Y-51652493D01*
X97892000Y-52100929D01*
X98340436Y-51652493D01*
X98322438Y-51507046D01*
X98059698Y-51388070D01*
X97771428Y-51378696D01*
X97501513Y-51480352D01*
X97461562Y-51507046D01*
X97443564Y-51652493D01*
X96647570Y-51652493D01*
X96719930Y-51492698D01*
X96729304Y-51204428D01*
X96627648Y-50934513D01*
X96600954Y-50894562D01*
X96455507Y-50876564D01*
X96100000Y-51232071D01*
X96100000Y-51217929D01*
X96448436Y-50869493D01*
X96430438Y-50724046D01*
X96167698Y-50605070D01*
X96100000Y-50602869D01*
X96100000Y-50450000D01*
X99550000Y-50450000D01*
X99550000Y-99550000D01*
X57268587Y-99550000D01*
X57460952Y-99511736D01*
X57817817Y-99273286D01*
X57913219Y-99130507D01*
X63551564Y-99130507D01*
X63569562Y-99275954D01*
X63832302Y-99394930D01*
X64120572Y-99404304D01*
X64390487Y-99302648D01*
X64430438Y-99275954D01*
X64448436Y-99130507D01*
X95551564Y-99130507D01*
X95569562Y-99275954D01*
X95832302Y-99394930D01*
X96120572Y-99404304D01*
X96390487Y-99302648D01*
X96430438Y-99275954D01*
X96448436Y-99130507D01*
X96000000Y-98682071D01*
X95551564Y-99130507D01*
X64448436Y-99130507D01*
X64000000Y-98682071D01*
X63551564Y-99130507D01*
X57913219Y-99130507D01*
X58056267Y-98916421D01*
X58080305Y-98795572D01*
X63270696Y-98795572D01*
X63372352Y-99065487D01*
X63399046Y-99105438D01*
X63544493Y-99123436D01*
X63992929Y-98675000D01*
X64007071Y-98675000D01*
X64455507Y-99123436D01*
X64600954Y-99105438D01*
X64719930Y-98842698D01*
X64721462Y-98795572D01*
X95270696Y-98795572D01*
X95372352Y-99065487D01*
X95399046Y-99105438D01*
X95544493Y-99123436D01*
X95992929Y-98675000D01*
X96007071Y-98675000D01*
X96455507Y-99123436D01*
X96600954Y-99105438D01*
X96719930Y-98842698D01*
X96729304Y-98554428D01*
X96651373Y-98347507D01*
X97443564Y-98347507D01*
X97461562Y-98492954D01*
X97724302Y-98611930D01*
X98012572Y-98621304D01*
X98282487Y-98519648D01*
X98322438Y-98492954D01*
X98340436Y-98347507D01*
X97892000Y-97899071D01*
X97443564Y-98347507D01*
X96651373Y-98347507D01*
X96627648Y-98284513D01*
X96600954Y-98244562D01*
X96455507Y-98226564D01*
X96007071Y-98675000D01*
X95992929Y-98675000D01*
X95544493Y-98226564D01*
X95399046Y-98244562D01*
X95280070Y-98507302D01*
X95270696Y-98795572D01*
X64721462Y-98795572D01*
X64729304Y-98554428D01*
X64651373Y-98347507D01*
X65443564Y-98347507D01*
X65461562Y-98492954D01*
X65724302Y-98611930D01*
X66012572Y-98621304D01*
X66282487Y-98519648D01*
X66322438Y-98492954D01*
X66340436Y-98347507D01*
X65892000Y-97899071D01*
X65443564Y-98347507D01*
X64651373Y-98347507D01*
X64627648Y-98284513D01*
X64600954Y-98244562D01*
X64455507Y-98226564D01*
X64007071Y-98675000D01*
X63992929Y-98675000D01*
X63544493Y-98226564D01*
X63399046Y-98244562D01*
X63280070Y-98507302D01*
X63270696Y-98795572D01*
X58080305Y-98795572D01*
X58140000Y-98495469D01*
X58140000Y-98347507D01*
X61659564Y-98347507D01*
X61677562Y-98492954D01*
X61940302Y-98611930D01*
X62228572Y-98621304D01*
X62498487Y-98519648D01*
X62538438Y-98492954D01*
X62556436Y-98347507D01*
X62108000Y-97899071D01*
X61659564Y-98347507D01*
X58140000Y-98347507D01*
X58140000Y-98044531D01*
X58133643Y-98012572D01*
X61378696Y-98012572D01*
X61480352Y-98282487D01*
X61507046Y-98322438D01*
X61652493Y-98340436D01*
X62100929Y-97892000D01*
X62115071Y-97892000D01*
X62563507Y-98340436D01*
X62708954Y-98322438D01*
X62755570Y-98219493D01*
X63551564Y-98219493D01*
X64000000Y-98667929D01*
X64448436Y-98219493D01*
X64430438Y-98074046D01*
X64294683Y-98012572D01*
X65162696Y-98012572D01*
X65264352Y-98282487D01*
X65291046Y-98322438D01*
X65436493Y-98340436D01*
X65884929Y-97892000D01*
X65899071Y-97892000D01*
X66347507Y-98340436D01*
X66492954Y-98322438D01*
X66611930Y-98059698D01*
X66621304Y-97771428D01*
X66558247Y-97604000D01*
X69403531Y-97604000D01*
X69487264Y-98024952D01*
X69725714Y-98381817D01*
X70082579Y-98620267D01*
X70503531Y-98704000D01*
X70954469Y-98704000D01*
X71375421Y-98620267D01*
X71732286Y-98381817D01*
X71970736Y-98024952D01*
X72054469Y-97604000D01*
X87945531Y-97604000D01*
X88029264Y-98024952D01*
X88267714Y-98381817D01*
X88624579Y-98620267D01*
X89045531Y-98704000D01*
X89496469Y-98704000D01*
X89917421Y-98620267D01*
X90274286Y-98381817D01*
X90297211Y-98347507D01*
X93659564Y-98347507D01*
X93677562Y-98492954D01*
X93940302Y-98611930D01*
X94228572Y-98621304D01*
X94498487Y-98519648D01*
X94538438Y-98492954D01*
X94556436Y-98347507D01*
X94108000Y-97899071D01*
X93659564Y-98347507D01*
X90297211Y-98347507D01*
X90512736Y-98024952D01*
X90515198Y-98012572D01*
X93378696Y-98012572D01*
X93480352Y-98282487D01*
X93507046Y-98322438D01*
X93652493Y-98340436D01*
X94100929Y-97892000D01*
X94115071Y-97892000D01*
X94563507Y-98340436D01*
X94708954Y-98322438D01*
X94755570Y-98219493D01*
X95551564Y-98219493D01*
X96000000Y-98667929D01*
X96448436Y-98219493D01*
X96430438Y-98074046D01*
X96294683Y-98012572D01*
X97162696Y-98012572D01*
X97264352Y-98282487D01*
X97291046Y-98322438D01*
X97436493Y-98340436D01*
X97884929Y-97892000D01*
X97899071Y-97892000D01*
X98347507Y-98340436D01*
X98492954Y-98322438D01*
X98611930Y-98059698D01*
X98621304Y-97771428D01*
X98519648Y-97501513D01*
X98492954Y-97461562D01*
X98347507Y-97443564D01*
X97899071Y-97892000D01*
X97884929Y-97892000D01*
X97436493Y-97443564D01*
X97291046Y-97461562D01*
X97172070Y-97724302D01*
X97162696Y-98012572D01*
X96294683Y-98012572D01*
X96167698Y-97955070D01*
X95879428Y-97945696D01*
X95609513Y-98047352D01*
X95569562Y-98074046D01*
X95551564Y-98219493D01*
X94755570Y-98219493D01*
X94827930Y-98059698D01*
X94837304Y-97771428D01*
X94735648Y-97501513D01*
X94708954Y-97461562D01*
X94563507Y-97443564D01*
X94115071Y-97892000D01*
X94100929Y-97892000D01*
X93652493Y-97443564D01*
X93507046Y-97461562D01*
X93388070Y-97724302D01*
X93378696Y-98012572D01*
X90515198Y-98012572D01*
X90596469Y-97604000D01*
X90563150Y-97436493D01*
X93659564Y-97436493D01*
X94108000Y-97884929D01*
X94556436Y-97436493D01*
X97443564Y-97436493D01*
X97892000Y-97884929D01*
X98340436Y-97436493D01*
X98322438Y-97291046D01*
X98059698Y-97172070D01*
X97771428Y-97162696D01*
X97501513Y-97264352D01*
X97461562Y-97291046D01*
X97443564Y-97436493D01*
X94556436Y-97436493D01*
X94538438Y-97291046D01*
X94275698Y-97172070D01*
X93987428Y-97162696D01*
X93717513Y-97264352D01*
X93677562Y-97291046D01*
X93659564Y-97436493D01*
X90563150Y-97436493D01*
X90512736Y-97183048D01*
X90274286Y-96826183D01*
X89917421Y-96587733D01*
X89496469Y-96504000D01*
X89045531Y-96504000D01*
X88624579Y-96587733D01*
X88267714Y-96826183D01*
X88029264Y-97183048D01*
X87945531Y-97604000D01*
X72054469Y-97604000D01*
X71970736Y-97183048D01*
X71732286Y-96826183D01*
X71375421Y-96587733D01*
X70954469Y-96504000D01*
X70503531Y-96504000D01*
X70082579Y-96587733D01*
X69725714Y-96826183D01*
X69487264Y-97183048D01*
X69403531Y-97604000D01*
X66558247Y-97604000D01*
X66519648Y-97501513D01*
X66492954Y-97461562D01*
X66347507Y-97443564D01*
X65899071Y-97892000D01*
X65884929Y-97892000D01*
X65436493Y-97443564D01*
X65291046Y-97461562D01*
X65172070Y-97724302D01*
X65162696Y-98012572D01*
X64294683Y-98012572D01*
X64167698Y-97955070D01*
X63879428Y-97945696D01*
X63609513Y-98047352D01*
X63569562Y-98074046D01*
X63551564Y-98219493D01*
X62755570Y-98219493D01*
X62827930Y-98059698D01*
X62837304Y-97771428D01*
X62735648Y-97501513D01*
X62708954Y-97461562D01*
X62563507Y-97443564D01*
X62115071Y-97892000D01*
X62100929Y-97892000D01*
X61652493Y-97443564D01*
X61507046Y-97461562D01*
X61388070Y-97724302D01*
X61378696Y-98012572D01*
X58133643Y-98012572D01*
X58056267Y-97623579D01*
X57931260Y-97436493D01*
X61659564Y-97436493D01*
X62108000Y-97884929D01*
X62556436Y-97436493D01*
X65443564Y-97436493D01*
X65892000Y-97884929D01*
X66340436Y-97436493D01*
X66322438Y-97291046D01*
X66059698Y-97172070D01*
X65771428Y-97162696D01*
X65501513Y-97264352D01*
X65461562Y-97291046D01*
X65443564Y-97436493D01*
X62556436Y-97436493D01*
X62538438Y-97291046D01*
X62275698Y-97172070D01*
X61987428Y-97162696D01*
X61717513Y-97264352D01*
X61677562Y-97291046D01*
X61659564Y-97436493D01*
X57931260Y-97436493D01*
X57817817Y-97266714D01*
X57475277Y-97037836D01*
X57740000Y-97037836D01*
X57888231Y-97009944D01*
X58024372Y-96922340D01*
X58115704Y-96788671D01*
X58147836Y-96630000D01*
X58147836Y-96455507D01*
X60876564Y-96455507D01*
X60894562Y-96600954D01*
X61157302Y-96719930D01*
X61445572Y-96729304D01*
X61715487Y-96627648D01*
X61755438Y-96600954D01*
X61773436Y-96455507D01*
X66226564Y-96455507D01*
X66244562Y-96600954D01*
X66507302Y-96719930D01*
X66795572Y-96729304D01*
X67065487Y-96627648D01*
X67105438Y-96600954D01*
X67123436Y-96455507D01*
X92876564Y-96455507D01*
X92894562Y-96600954D01*
X93157302Y-96719930D01*
X93445572Y-96729304D01*
X93715487Y-96627648D01*
X93755438Y-96600954D01*
X93773436Y-96455507D01*
X98226564Y-96455507D01*
X98244562Y-96600954D01*
X98507302Y-96719930D01*
X98795572Y-96729304D01*
X99065487Y-96627648D01*
X99105438Y-96600954D01*
X99123436Y-96455507D01*
X98675000Y-96007071D01*
X98226564Y-96455507D01*
X93773436Y-96455507D01*
X93325000Y-96007071D01*
X92876564Y-96455507D01*
X67123436Y-96455507D01*
X66675000Y-96007071D01*
X66226564Y-96455507D01*
X61773436Y-96455507D01*
X61325000Y-96007071D01*
X60876564Y-96455507D01*
X58147836Y-96455507D01*
X58147836Y-96120572D01*
X60595696Y-96120572D01*
X60697352Y-96390487D01*
X60724046Y-96430438D01*
X60869493Y-96448436D01*
X61317929Y-96000000D01*
X61332071Y-96000000D01*
X61780507Y-96448436D01*
X61925954Y-96430438D01*
X62044930Y-96167698D01*
X62046462Y-96120572D01*
X65945696Y-96120572D01*
X66047352Y-96390487D01*
X66074046Y-96430438D01*
X66219493Y-96448436D01*
X66667929Y-96000000D01*
X66682071Y-96000000D01*
X67130507Y-96448436D01*
X67275954Y-96430438D01*
X67394930Y-96167698D01*
X67404304Y-95879428D01*
X67302648Y-95609513D01*
X67275954Y-95569562D01*
X67130507Y-95551564D01*
X66682071Y-96000000D01*
X66667929Y-96000000D01*
X66219493Y-95551564D01*
X66074046Y-95569562D01*
X65955070Y-95832302D01*
X65945696Y-96120572D01*
X62046462Y-96120572D01*
X62054304Y-95879428D01*
X61952648Y-95609513D01*
X61925954Y-95569562D01*
X61780507Y-95551564D01*
X61332071Y-96000000D01*
X61317929Y-96000000D01*
X60869493Y-95551564D01*
X60724046Y-95569562D01*
X60605070Y-95832302D01*
X60595696Y-96120572D01*
X58147836Y-96120572D01*
X58147836Y-95544493D01*
X60876564Y-95544493D01*
X61325000Y-95992929D01*
X61773436Y-95544493D01*
X66226564Y-95544493D01*
X66675000Y-95992929D01*
X67123436Y-95544493D01*
X67105438Y-95399046D01*
X66842698Y-95280070D01*
X66554428Y-95270696D01*
X66284513Y-95372352D01*
X66244562Y-95399046D01*
X66226564Y-95544493D01*
X61773436Y-95544493D01*
X61755438Y-95399046D01*
X61492698Y-95280070D01*
X61204428Y-95270696D01*
X60934513Y-95372352D01*
X60894562Y-95399046D01*
X60876564Y-95544493D01*
X58147836Y-95544493D01*
X58147836Y-94830000D01*
X58119944Y-94681769D01*
X58043845Y-94563507D01*
X61659564Y-94563507D01*
X61677562Y-94708954D01*
X61940302Y-94827930D01*
X62228572Y-94837304D01*
X62498487Y-94735648D01*
X62538438Y-94708954D01*
X62556436Y-94563507D01*
X65443564Y-94563507D01*
X65461562Y-94708954D01*
X65724302Y-94827930D01*
X66012572Y-94837304D01*
X66282487Y-94735648D01*
X66322438Y-94708954D01*
X66340436Y-94563507D01*
X65892000Y-94115071D01*
X65443564Y-94563507D01*
X62556436Y-94563507D01*
X62108000Y-94115071D01*
X61659564Y-94563507D01*
X58043845Y-94563507D01*
X58032340Y-94545628D01*
X57898671Y-94454296D01*
X57740000Y-94422164D01*
X56340000Y-94422164D01*
X56191769Y-94450056D01*
X56055628Y-94537660D01*
X55964296Y-94671329D01*
X55932164Y-94830000D01*
X55932164Y-96630000D01*
X55960056Y-96778231D01*
X56047660Y-96914372D01*
X56181329Y-97005704D01*
X56340000Y-97037836D01*
X56604723Y-97037836D01*
X56262183Y-97266714D01*
X56023733Y-97623579D01*
X55940000Y-98044531D01*
X55940000Y-98495469D01*
X56023733Y-98916421D01*
X56262183Y-99273286D01*
X56619048Y-99511736D01*
X56811413Y-99550000D01*
X54728587Y-99550000D01*
X54920952Y-99511736D01*
X55277817Y-99273286D01*
X55516267Y-98916421D01*
X55600000Y-98495469D01*
X55600000Y-98044531D01*
X55516267Y-97623579D01*
X55277817Y-97266714D01*
X54920952Y-97028264D01*
X54778860Y-97000000D01*
X54920952Y-96971736D01*
X55277817Y-96733286D01*
X55516267Y-96376421D01*
X55600000Y-95955469D01*
X55600000Y-95504531D01*
X55516267Y-95083579D01*
X55277817Y-94726714D01*
X54920952Y-94488264D01*
X54500000Y-94404531D01*
X54079048Y-94488264D01*
X53722183Y-94726714D01*
X53483733Y-95083579D01*
X53400000Y-95504531D01*
X53400000Y-95955469D01*
X53483733Y-96376421D01*
X53722183Y-96733286D01*
X54079048Y-96971736D01*
X54221140Y-97000000D01*
X54079048Y-97028264D01*
X53722183Y-97266714D01*
X53483733Y-97623579D01*
X53400000Y-98044531D01*
X53400000Y-98495469D01*
X53483733Y-98916421D01*
X53722183Y-99273286D01*
X54079048Y-99511736D01*
X54271413Y-99550000D01*
X52188587Y-99550000D01*
X52380952Y-99511736D01*
X52737817Y-99273286D01*
X52976267Y-98916421D01*
X53060000Y-98495469D01*
X53060000Y-98044531D01*
X52976267Y-97623579D01*
X52737817Y-97266714D01*
X52380952Y-97028264D01*
X52238860Y-97000000D01*
X52380952Y-96971736D01*
X52737817Y-96733286D01*
X52976267Y-96376421D01*
X53060000Y-95955469D01*
X53060000Y-95504531D01*
X52976267Y-95083579D01*
X52737817Y-94726714D01*
X52380952Y-94488264D01*
X51960000Y-94404531D01*
X51539048Y-94488264D01*
X51182183Y-94726714D01*
X50943733Y-95083579D01*
X50860000Y-95504531D01*
X50860000Y-95955469D01*
X50943733Y-96376421D01*
X51182183Y-96733286D01*
X51539048Y-96971736D01*
X51681140Y-97000000D01*
X51539048Y-97028264D01*
X51182183Y-97266714D01*
X50943733Y-97623579D01*
X50860000Y-98044531D01*
X50860000Y-98495469D01*
X50943733Y-98916421D01*
X51182183Y-99273286D01*
X51539048Y-99511736D01*
X51731413Y-99550000D01*
X50450000Y-99550000D01*
X50450000Y-94228572D01*
X61378696Y-94228572D01*
X61480352Y-94498487D01*
X61507046Y-94538438D01*
X61652493Y-94556436D01*
X62100929Y-94108000D01*
X62115071Y-94108000D01*
X62563507Y-94556436D01*
X62708954Y-94538438D01*
X62827930Y-94275698D01*
X62829462Y-94228572D01*
X65162696Y-94228572D01*
X65264352Y-94498487D01*
X65291046Y-94538438D01*
X65436493Y-94556436D01*
X65884929Y-94108000D01*
X65899071Y-94108000D01*
X66347507Y-94556436D01*
X66492954Y-94538438D01*
X66571944Y-94364000D01*
X69421164Y-94364000D01*
X69421164Y-95764000D01*
X69449056Y-95912231D01*
X69536660Y-96048372D01*
X69670329Y-96139704D01*
X69829000Y-96171836D01*
X71629000Y-96171836D01*
X71777231Y-96143944D01*
X71913372Y-96056340D01*
X72004704Y-95922671D01*
X72036836Y-95764000D01*
X72036836Y-94364000D01*
X87963164Y-94364000D01*
X87963164Y-95764000D01*
X87991056Y-95912231D01*
X88078660Y-96048372D01*
X88212329Y-96139704D01*
X88371000Y-96171836D01*
X90171000Y-96171836D01*
X90319231Y-96143944D01*
X90355552Y-96120572D01*
X92595696Y-96120572D01*
X92697352Y-96390487D01*
X92724046Y-96430438D01*
X92869493Y-96448436D01*
X93317929Y-96000000D01*
X93332071Y-96000000D01*
X93780507Y-96448436D01*
X93925954Y-96430438D01*
X94044930Y-96167698D01*
X94046462Y-96120572D01*
X97945696Y-96120572D01*
X98047352Y-96390487D01*
X98074046Y-96430438D01*
X98219493Y-96448436D01*
X98667929Y-96000000D01*
X98682071Y-96000000D01*
X99130507Y-96448436D01*
X99275954Y-96430438D01*
X99394930Y-96167698D01*
X99404304Y-95879428D01*
X99302648Y-95609513D01*
X99275954Y-95569562D01*
X99130507Y-95551564D01*
X98682071Y-96000000D01*
X98667929Y-96000000D01*
X98219493Y-95551564D01*
X98074046Y-95569562D01*
X97955070Y-95832302D01*
X97945696Y-96120572D01*
X94046462Y-96120572D01*
X94054304Y-95879428D01*
X93952648Y-95609513D01*
X93925954Y-95569562D01*
X93780507Y-95551564D01*
X93332071Y-96000000D01*
X93317929Y-96000000D01*
X92869493Y-95551564D01*
X92724046Y-95569562D01*
X92605070Y-95832302D01*
X92595696Y-96120572D01*
X90355552Y-96120572D01*
X90455372Y-96056340D01*
X90546704Y-95922671D01*
X90578836Y-95764000D01*
X90578836Y-95544493D01*
X92876564Y-95544493D01*
X93325000Y-95992929D01*
X93773436Y-95544493D01*
X98226564Y-95544493D01*
X98675000Y-95992929D01*
X99123436Y-95544493D01*
X99105438Y-95399046D01*
X98842698Y-95280070D01*
X98554428Y-95270696D01*
X98284513Y-95372352D01*
X98244562Y-95399046D01*
X98226564Y-95544493D01*
X93773436Y-95544493D01*
X93755438Y-95399046D01*
X93492698Y-95280070D01*
X93204428Y-95270696D01*
X92934513Y-95372352D01*
X92894562Y-95399046D01*
X92876564Y-95544493D01*
X90578836Y-95544493D01*
X90578836Y-94563507D01*
X93659564Y-94563507D01*
X93677562Y-94708954D01*
X93940302Y-94827930D01*
X94228572Y-94837304D01*
X94498487Y-94735648D01*
X94538438Y-94708954D01*
X94556436Y-94563507D01*
X97443564Y-94563507D01*
X97461562Y-94708954D01*
X97724302Y-94827930D01*
X98012572Y-94837304D01*
X98282487Y-94735648D01*
X98322438Y-94708954D01*
X98340436Y-94563507D01*
X97892000Y-94115071D01*
X97443564Y-94563507D01*
X94556436Y-94563507D01*
X94108000Y-94115071D01*
X93659564Y-94563507D01*
X90578836Y-94563507D01*
X90578836Y-94364000D01*
X90553354Y-94228572D01*
X93378696Y-94228572D01*
X93480352Y-94498487D01*
X93507046Y-94538438D01*
X93652493Y-94556436D01*
X94100929Y-94108000D01*
X94115071Y-94108000D01*
X94563507Y-94556436D01*
X94708954Y-94538438D01*
X94827930Y-94275698D01*
X94829462Y-94228572D01*
X97162696Y-94228572D01*
X97264352Y-94498487D01*
X97291046Y-94538438D01*
X97436493Y-94556436D01*
X97884929Y-94108000D01*
X97899071Y-94108000D01*
X98347507Y-94556436D01*
X98492954Y-94538438D01*
X98611930Y-94275698D01*
X98621304Y-93987428D01*
X98519648Y-93717513D01*
X98492954Y-93677562D01*
X98347507Y-93659564D01*
X97899071Y-94108000D01*
X97884929Y-94108000D01*
X97436493Y-93659564D01*
X97291046Y-93677562D01*
X97172070Y-93940302D01*
X97162696Y-94228572D01*
X94829462Y-94228572D01*
X94837304Y-93987428D01*
X94759373Y-93780507D01*
X95551564Y-93780507D01*
X95569562Y-93925954D01*
X95832302Y-94044930D01*
X96120572Y-94054304D01*
X96390487Y-93952648D01*
X96430438Y-93925954D01*
X96448436Y-93780507D01*
X96000000Y-93332071D01*
X95551564Y-93780507D01*
X94759373Y-93780507D01*
X94735648Y-93717513D01*
X94708954Y-93677562D01*
X94563507Y-93659564D01*
X94115071Y-94108000D01*
X94100929Y-94108000D01*
X93652493Y-93659564D01*
X93507046Y-93677562D01*
X93388070Y-93940302D01*
X93378696Y-94228572D01*
X90553354Y-94228572D01*
X90550944Y-94215769D01*
X90463340Y-94079628D01*
X90329671Y-93988296D01*
X90171000Y-93956164D01*
X88371000Y-93956164D01*
X88222769Y-93984056D01*
X88086628Y-94071660D01*
X87995296Y-94205329D01*
X87963164Y-94364000D01*
X72036836Y-94364000D01*
X72008944Y-94215769D01*
X71921340Y-94079628D01*
X71787671Y-93988296D01*
X71629000Y-93956164D01*
X69829000Y-93956164D01*
X69680769Y-93984056D01*
X69544628Y-94071660D01*
X69453296Y-94205329D01*
X69421164Y-94364000D01*
X66571944Y-94364000D01*
X66611930Y-94275698D01*
X66621304Y-93987428D01*
X66519648Y-93717513D01*
X66492954Y-93677562D01*
X66347507Y-93659564D01*
X65899071Y-94108000D01*
X65884929Y-94108000D01*
X65436493Y-93659564D01*
X65291046Y-93677562D01*
X65172070Y-93940302D01*
X65162696Y-94228572D01*
X62829462Y-94228572D01*
X62837304Y-93987428D01*
X62759373Y-93780507D01*
X63551564Y-93780507D01*
X63569562Y-93925954D01*
X63832302Y-94044930D01*
X64120572Y-94054304D01*
X64390487Y-93952648D01*
X64430438Y-93925954D01*
X64448436Y-93780507D01*
X64000000Y-93332071D01*
X63551564Y-93780507D01*
X62759373Y-93780507D01*
X62735648Y-93717513D01*
X62708954Y-93677562D01*
X62563507Y-93659564D01*
X62115071Y-94108000D01*
X62100929Y-94108000D01*
X61652493Y-93659564D01*
X61507046Y-93677562D01*
X61388070Y-93940302D01*
X61378696Y-94228572D01*
X50450000Y-94228572D01*
X50450000Y-93652493D01*
X61659564Y-93652493D01*
X62108000Y-94100929D01*
X62556436Y-93652493D01*
X62538438Y-93507046D01*
X62402683Y-93445572D01*
X63270696Y-93445572D01*
X63372352Y-93715487D01*
X63399046Y-93755438D01*
X63544493Y-93773436D01*
X63992929Y-93325000D01*
X64007071Y-93325000D01*
X64455507Y-93773436D01*
X64600954Y-93755438D01*
X64647570Y-93652493D01*
X65443564Y-93652493D01*
X65892000Y-94100929D01*
X66340436Y-93652493D01*
X93659564Y-93652493D01*
X94108000Y-94100929D01*
X94556436Y-93652493D01*
X94538438Y-93507046D01*
X94402683Y-93445572D01*
X95270696Y-93445572D01*
X95372352Y-93715487D01*
X95399046Y-93755438D01*
X95544493Y-93773436D01*
X95992929Y-93325000D01*
X96007071Y-93325000D01*
X96455507Y-93773436D01*
X96600954Y-93755438D01*
X96647570Y-93652493D01*
X97443564Y-93652493D01*
X97892000Y-94100929D01*
X98340436Y-93652493D01*
X98322438Y-93507046D01*
X98059698Y-93388070D01*
X97771428Y-93378696D01*
X97501513Y-93480352D01*
X97461562Y-93507046D01*
X97443564Y-93652493D01*
X96647570Y-93652493D01*
X96719930Y-93492698D01*
X96729304Y-93204428D01*
X96627648Y-92934513D01*
X96600954Y-92894562D01*
X96455507Y-92876564D01*
X96007071Y-93325000D01*
X95992929Y-93325000D01*
X95544493Y-92876564D01*
X95399046Y-92894562D01*
X95280070Y-93157302D01*
X95270696Y-93445572D01*
X94402683Y-93445572D01*
X94275698Y-93388070D01*
X93987428Y-93378696D01*
X93717513Y-93480352D01*
X93677562Y-93507046D01*
X93659564Y-93652493D01*
X66340436Y-93652493D01*
X66322438Y-93507046D01*
X66059698Y-93388070D01*
X65771428Y-93378696D01*
X65501513Y-93480352D01*
X65461562Y-93507046D01*
X65443564Y-93652493D01*
X64647570Y-93652493D01*
X64719930Y-93492698D01*
X64729304Y-93204428D01*
X64627648Y-92934513D01*
X64600954Y-92894562D01*
X64455507Y-92876564D01*
X64007071Y-93325000D01*
X63992929Y-93325000D01*
X63544493Y-92876564D01*
X63399046Y-92894562D01*
X63280070Y-93157302D01*
X63270696Y-93445572D01*
X62402683Y-93445572D01*
X62275698Y-93388070D01*
X61987428Y-93378696D01*
X61717513Y-93480352D01*
X61677562Y-93507046D01*
X61659564Y-93652493D01*
X50450000Y-93652493D01*
X50450000Y-92869493D01*
X63551564Y-92869493D01*
X64000000Y-93317929D01*
X64448436Y-92869493D01*
X95551564Y-92869493D01*
X96000000Y-93317929D01*
X96448436Y-92869493D01*
X96430438Y-92724046D01*
X96167698Y-92605070D01*
X95879428Y-92595696D01*
X95609513Y-92697352D01*
X95569562Y-92724046D01*
X95551564Y-92869493D01*
X64448436Y-92869493D01*
X64430438Y-92724046D01*
X64167698Y-92605070D01*
X63879428Y-92595696D01*
X63609513Y-92697352D01*
X63569562Y-92724046D01*
X63551564Y-92869493D01*
X50450000Y-92869493D01*
X50450000Y-91240000D01*
X56266695Y-91240000D01*
X56384682Y-91833159D01*
X56720679Y-92336016D01*
X57223536Y-92672013D01*
X57816695Y-92790000D01*
X58183305Y-92790000D01*
X58776464Y-92672013D01*
X59279321Y-92336016D01*
X59615318Y-91833159D01*
X59733305Y-91240000D01*
X59615318Y-90646841D01*
X59383568Y-90300000D01*
X61142164Y-90300000D01*
X61142164Y-91700000D01*
X61170056Y-91848231D01*
X61257660Y-91984372D01*
X61391329Y-92075704D01*
X61550000Y-92107836D01*
X62950000Y-92107836D01*
X63098231Y-92079944D01*
X63234372Y-91992340D01*
X63325704Y-91858671D01*
X63357836Y-91700000D01*
X63357836Y-91221284D01*
X64672488Y-91221284D01*
X64831608Y-91605447D01*
X65133211Y-91910814D01*
X65528715Y-92077517D01*
X65700000Y-91998868D01*
X65700000Y-91050000D01*
X65800000Y-91050000D01*
X65800000Y-91998868D01*
X65971285Y-92077517D01*
X66366789Y-91910814D01*
X66668392Y-91605447D01*
X66827512Y-91221284D01*
X66748749Y-91050000D01*
X65800000Y-91050000D01*
X65700000Y-91050000D01*
X64751251Y-91050000D01*
X64672488Y-91221284D01*
X63357836Y-91221284D01*
X63357836Y-90778716D01*
X64672488Y-90778716D01*
X64751251Y-90950000D01*
X65700000Y-90950000D01*
X65700000Y-90001132D01*
X65800000Y-90001132D01*
X65800000Y-90950000D01*
X66748749Y-90950000D01*
X66827512Y-90778716D01*
X66668392Y-90394553D01*
X66366789Y-90089186D01*
X65971285Y-89922483D01*
X65800000Y-90001132D01*
X65700000Y-90001132D01*
X65528715Y-89922483D01*
X65133211Y-90089186D01*
X64831608Y-90394553D01*
X64672488Y-90778716D01*
X63357836Y-90778716D01*
X63357836Y-90300000D01*
X63329944Y-90151769D01*
X63242340Y-90015628D01*
X63108671Y-89924296D01*
X62950000Y-89892164D01*
X61550000Y-89892164D01*
X61401769Y-89920056D01*
X61265628Y-90007660D01*
X61174296Y-90141329D01*
X61142164Y-90300000D01*
X59383568Y-90300000D01*
X59279321Y-90143984D01*
X58839342Y-89850000D01*
X92942164Y-89850000D01*
X92942164Y-91150000D01*
X92970056Y-91298231D01*
X93057660Y-91434372D01*
X93191329Y-91525704D01*
X93350000Y-91557836D01*
X94650000Y-91557836D01*
X94798231Y-91529944D01*
X94934372Y-91442340D01*
X95025704Y-91308671D01*
X95057836Y-91150000D01*
X95057836Y-90669193D01*
X95463721Y-90669193D01*
X95477855Y-90740254D01*
X95647602Y-91113124D01*
X95947119Y-91392651D01*
X96330807Y-91536280D01*
X96495000Y-91449989D01*
X96495000Y-90505000D01*
X96505000Y-90505000D01*
X96505000Y-91449989D01*
X96669193Y-91536280D01*
X97052881Y-91392651D01*
X97352398Y-91113124D01*
X97522145Y-90740254D01*
X97536279Y-90669193D01*
X97449987Y-90505000D01*
X96505000Y-90505000D01*
X96495000Y-90505000D01*
X95550013Y-90505000D01*
X95463721Y-90669193D01*
X95057836Y-90669193D01*
X95057836Y-90330807D01*
X95463721Y-90330807D01*
X95550013Y-90495000D01*
X96495000Y-90495000D01*
X96495000Y-89550011D01*
X96505000Y-89550011D01*
X96505000Y-90495000D01*
X97449987Y-90495000D01*
X97536279Y-90330807D01*
X97522145Y-90259746D01*
X97352398Y-89886876D01*
X97052881Y-89607349D01*
X96669193Y-89463720D01*
X96505000Y-89550011D01*
X96495000Y-89550011D01*
X96330807Y-89463720D01*
X95947119Y-89607349D01*
X95647602Y-89886876D01*
X95477855Y-90259746D01*
X95463721Y-90330807D01*
X95057836Y-90330807D01*
X95057836Y-89850000D01*
X95029944Y-89701769D01*
X94942340Y-89565628D01*
X94808671Y-89474296D01*
X94650000Y-89442164D01*
X93350000Y-89442164D01*
X93201769Y-89470056D01*
X93065628Y-89557660D01*
X92974296Y-89691329D01*
X92942164Y-89850000D01*
X58839342Y-89850000D01*
X58776464Y-89807987D01*
X58183305Y-89690000D01*
X57816695Y-89690000D01*
X57223536Y-89807987D01*
X56720679Y-90143984D01*
X56384682Y-90646841D01*
X56266695Y-91240000D01*
X50450000Y-91240000D01*
X50450000Y-86160000D01*
X56266695Y-86160000D01*
X56384682Y-86753159D01*
X56720679Y-87256016D01*
X57223536Y-87592013D01*
X57816695Y-87710000D01*
X58183305Y-87710000D01*
X58776464Y-87592013D01*
X59279321Y-87256016D01*
X59374870Y-87113015D01*
X69443336Y-87113015D01*
X69510819Y-87352332D01*
X69747647Y-87710282D01*
X70103429Y-87950354D01*
X70524000Y-88036000D01*
X70724000Y-88036000D01*
X70724000Y-86941000D01*
X70734000Y-86941000D01*
X70734000Y-88036000D01*
X70934000Y-88036000D01*
X71354571Y-87950354D01*
X71710353Y-87710282D01*
X71947181Y-87352332D01*
X72014664Y-87113015D01*
X87985336Y-87113015D01*
X88052819Y-87352332D01*
X88289647Y-87710282D01*
X88645429Y-87950354D01*
X89066000Y-88036000D01*
X89266000Y-88036000D01*
X89266000Y-86941000D01*
X89276000Y-86941000D01*
X89276000Y-88036000D01*
X89476000Y-88036000D01*
X89896571Y-87950354D01*
X90252353Y-87710282D01*
X90489181Y-87352332D01*
X90556664Y-87113015D01*
X90470987Y-86941000D01*
X89276000Y-86941000D01*
X89266000Y-86941000D01*
X88071013Y-86941000D01*
X87985336Y-87113015D01*
X72014664Y-87113015D01*
X71928987Y-86941000D01*
X70734000Y-86941000D01*
X70724000Y-86941000D01*
X69529013Y-86941000D01*
X69443336Y-87113015D01*
X59374870Y-87113015D01*
X59611425Y-86758985D01*
X69443336Y-86758985D01*
X69529013Y-86931000D01*
X70724000Y-86931000D01*
X70724000Y-85836000D01*
X70734000Y-85836000D01*
X70734000Y-86931000D01*
X71928987Y-86931000D01*
X72014664Y-86758985D01*
X87985336Y-86758985D01*
X88071013Y-86931000D01*
X89266000Y-86931000D01*
X89266000Y-85836000D01*
X89276000Y-85836000D01*
X89276000Y-86931000D01*
X90470987Y-86931000D01*
X90556664Y-86758985D01*
X90489181Y-86519668D01*
X90252353Y-86161718D01*
X89896571Y-85921646D01*
X89476000Y-85836000D01*
X89276000Y-85836000D01*
X89266000Y-85836000D01*
X89066000Y-85836000D01*
X88645429Y-85921646D01*
X88289647Y-86161718D01*
X88052819Y-86519668D01*
X87985336Y-86758985D01*
X72014664Y-86758985D01*
X71947181Y-86519668D01*
X71710353Y-86161718D01*
X71354571Y-85921646D01*
X70934000Y-85836000D01*
X70734000Y-85836000D01*
X70724000Y-85836000D01*
X70524000Y-85836000D01*
X70103429Y-85921646D01*
X69747647Y-86161718D01*
X69510819Y-86519668D01*
X69443336Y-86758985D01*
X59611425Y-86758985D01*
X59615318Y-86753159D01*
X59733305Y-86160000D01*
X59615318Y-85566841D01*
X59279321Y-85063984D01*
X58776464Y-84727987D01*
X58183305Y-84610000D01*
X57816695Y-84610000D01*
X57223536Y-84727987D01*
X56720679Y-85063984D01*
X56384682Y-85566841D01*
X56266695Y-86160000D01*
X50450000Y-86160000D01*
X50450000Y-84501000D01*
X69429000Y-84501000D01*
X69429000Y-85175565D01*
X69489896Y-85322582D01*
X69602418Y-85435104D01*
X69749435Y-85496000D01*
X70624000Y-85496000D01*
X70724000Y-85396000D01*
X70724000Y-84401000D01*
X70734000Y-84401000D01*
X70734000Y-85396000D01*
X70834000Y-85496000D01*
X71708565Y-85496000D01*
X71855582Y-85435104D01*
X71968104Y-85322582D01*
X72029000Y-85175565D01*
X72029000Y-84501000D01*
X87971000Y-84501000D01*
X87971000Y-85175565D01*
X88031896Y-85322582D01*
X88144418Y-85435104D01*
X88291435Y-85496000D01*
X89166000Y-85496000D01*
X89266000Y-85396000D01*
X89266000Y-84401000D01*
X89276000Y-84401000D01*
X89276000Y-85396000D01*
X89376000Y-85496000D01*
X90250565Y-85496000D01*
X90397582Y-85435104D01*
X90510104Y-85322582D01*
X90571000Y-85175565D01*
X90571000Y-84501000D01*
X90471000Y-84401000D01*
X89276000Y-84401000D01*
X89266000Y-84401000D01*
X88071000Y-84401000D01*
X87971000Y-84501000D01*
X72029000Y-84501000D01*
X71929000Y-84401000D01*
X70734000Y-84401000D01*
X70724000Y-84401000D01*
X69529000Y-84401000D01*
X69429000Y-84501000D01*
X50450000Y-84501000D01*
X50450000Y-83616435D01*
X69429000Y-83616435D01*
X69429000Y-84291000D01*
X69529000Y-84391000D01*
X70724000Y-84391000D01*
X70724000Y-83396000D01*
X70734000Y-83396000D01*
X70734000Y-84391000D01*
X71929000Y-84391000D01*
X72029000Y-84291000D01*
X72029000Y-83616435D01*
X87971000Y-83616435D01*
X87971000Y-84291000D01*
X88071000Y-84391000D01*
X89266000Y-84391000D01*
X89266000Y-83396000D01*
X89276000Y-83396000D01*
X89276000Y-84391000D01*
X90471000Y-84391000D01*
X90571000Y-84291000D01*
X90571000Y-83616435D01*
X90510104Y-83469418D01*
X90397582Y-83356896D01*
X90250565Y-83296000D01*
X89376000Y-83296000D01*
X89276000Y-83396000D01*
X89266000Y-83396000D01*
X89166000Y-83296000D01*
X88291435Y-83296000D01*
X88144418Y-83356896D01*
X88031896Y-83469418D01*
X87971000Y-83616435D01*
X72029000Y-83616435D01*
X71968104Y-83469418D01*
X71855582Y-83356896D01*
X71708565Y-83296000D01*
X70834000Y-83296000D01*
X70734000Y-83396000D01*
X70724000Y-83396000D01*
X70624000Y-83296000D01*
X69749435Y-83296000D01*
X69602418Y-83356896D01*
X69489896Y-83469418D01*
X69429000Y-83616435D01*
X50450000Y-83616435D01*
X50450000Y-81080000D01*
X56266695Y-81080000D01*
X56384682Y-81673159D01*
X56720679Y-82176016D01*
X57223536Y-82512013D01*
X57816695Y-82630000D01*
X58183305Y-82630000D01*
X58776464Y-82512013D01*
X59279321Y-82176016D01*
X59615318Y-81673159D01*
X59733305Y-81080000D01*
X59615318Y-80486841D01*
X59279321Y-79983984D01*
X58776464Y-79647987D01*
X58183305Y-79530000D01*
X57816695Y-79530000D01*
X57223536Y-79647987D01*
X56720679Y-79983984D01*
X56384682Y-80486841D01*
X56266695Y-81080000D01*
X50450000Y-81080000D01*
X50450000Y-79377015D01*
X68914336Y-79377015D01*
X69064718Y-79779006D01*
X69357488Y-80092849D01*
X69748075Y-80270764D01*
X69822985Y-80285664D01*
X69995000Y-80199987D01*
X69995000Y-79205000D01*
X70005000Y-79205000D01*
X70005000Y-80199987D01*
X70177015Y-80285664D01*
X70251925Y-80270764D01*
X70642512Y-80092849D01*
X70935282Y-79779006D01*
X71085664Y-79377015D01*
X70999989Y-79205000D01*
X70005000Y-79205000D01*
X69995000Y-79205000D01*
X69000011Y-79205000D01*
X68914336Y-79377015D01*
X50450000Y-79377015D01*
X50450000Y-79022985D01*
X68914336Y-79022985D01*
X69000011Y-79195000D01*
X69995000Y-79195000D01*
X69995000Y-78200013D01*
X70005000Y-78200013D01*
X70005000Y-79195000D01*
X70999989Y-79195000D01*
X71085664Y-79022985D01*
X70935282Y-78620994D01*
X70642512Y-78307151D01*
X70251925Y-78129236D01*
X70177015Y-78114336D01*
X70005000Y-78200013D01*
X69995000Y-78200013D01*
X69822985Y-78114336D01*
X69748075Y-78129236D01*
X69357488Y-78307151D01*
X69064718Y-78620994D01*
X68914336Y-79022985D01*
X50450000Y-79022985D01*
X50450000Y-78900000D01*
X59500000Y-78900000D01*
X59645383Y-78872644D01*
X59778908Y-78786723D01*
X59868486Y-78655622D01*
X59900000Y-78500000D01*
X59900000Y-75000000D01*
X68892164Y-75000000D01*
X68892164Y-76400000D01*
X68920056Y-76548231D01*
X69007660Y-76684372D01*
X69141329Y-76775704D01*
X69300000Y-76807836D01*
X70700000Y-76807836D01*
X70848231Y-76779944D01*
X70984372Y-76692340D01*
X71075704Y-76558671D01*
X71107836Y-76400000D01*
X71107836Y-75000000D01*
X71079944Y-74851769D01*
X70992340Y-74715628D01*
X70858671Y-74624296D01*
X70700000Y-74592164D01*
X69300000Y-74592164D01*
X69151769Y-74620056D01*
X69015628Y-74707660D01*
X68924296Y-74841329D01*
X68892164Y-75000000D01*
X59900000Y-75000000D01*
X59900000Y-72743579D01*
X82224874Y-72743579D01*
X82300000Y-72925398D01*
X82300000Y-74195253D01*
X82275126Y-74255156D01*
X82274874Y-74543579D01*
X82385016Y-74810143D01*
X82588784Y-75014267D01*
X82855156Y-75124874D01*
X83143579Y-75125126D01*
X83410143Y-75014984D01*
X83614267Y-74811216D01*
X83724874Y-74544844D01*
X83725126Y-74256421D01*
X83614984Y-73989857D01*
X83600000Y-73974847D01*
X83600000Y-72925161D01*
X83674874Y-72744844D01*
X83675126Y-72456421D01*
X83564984Y-72189857D01*
X83361216Y-71985733D01*
X83094844Y-71875126D01*
X82806421Y-71874874D01*
X82539857Y-71985016D01*
X82335733Y-72188784D01*
X82225126Y-72455156D01*
X82224874Y-72743579D01*
X59900000Y-72743579D01*
X59900000Y-70238324D01*
X60154044Y-70618528D01*
X60543352Y-70878655D01*
X61002572Y-70970000D01*
X61457428Y-70970000D01*
X61916648Y-70878655D01*
X62305956Y-70618528D01*
X62500000Y-70328120D01*
X62694044Y-70618528D01*
X63083352Y-70878655D01*
X63542572Y-70970000D01*
X63997428Y-70970000D01*
X64456648Y-70878655D01*
X64845956Y-70618528D01*
X65106083Y-70229220D01*
X65197428Y-69770000D01*
X65106083Y-69310780D01*
X64845956Y-68921472D01*
X64456648Y-68661345D01*
X63997428Y-68570000D01*
X63542572Y-68570000D01*
X63083352Y-68661345D01*
X62694044Y-68921472D01*
X62500000Y-69211880D01*
X62305956Y-68921472D01*
X61916648Y-68661345D01*
X61457428Y-68570000D01*
X61002572Y-68570000D01*
X60543352Y-68661345D01*
X60154044Y-68921472D01*
X59900000Y-69301676D01*
X59900000Y-66530000D01*
X59922164Y-66530000D01*
X59922164Y-67930000D01*
X59950056Y-68078231D01*
X60037660Y-68214372D01*
X60171329Y-68305704D01*
X60330000Y-68337836D01*
X62130000Y-68337836D01*
X62278231Y-68309944D01*
X62414372Y-68222340D01*
X62505704Y-68088671D01*
X62537836Y-67930000D01*
X62537836Y-67665277D01*
X62766714Y-68007817D01*
X63123579Y-68246267D01*
X63544531Y-68330000D01*
X63995469Y-68330000D01*
X64416421Y-68246267D01*
X64773286Y-68007817D01*
X65011736Y-67650952D01*
X65079555Y-67310000D01*
X93654531Y-67310000D01*
X93738264Y-67730952D01*
X93976714Y-68087817D01*
X94333579Y-68326267D01*
X94754531Y-68410000D01*
X95205469Y-68410000D01*
X95626421Y-68326267D01*
X95983286Y-68087817D01*
X96221736Y-67730952D01*
X96250000Y-67588860D01*
X96278264Y-67730952D01*
X96516714Y-68087817D01*
X96873579Y-68326267D01*
X97294531Y-68410000D01*
X97745469Y-68410000D01*
X98166421Y-68326267D01*
X98523286Y-68087817D01*
X98761736Y-67730952D01*
X98845469Y-67310000D01*
X98761736Y-66889048D01*
X98523286Y-66532183D01*
X98166421Y-66293733D01*
X97745469Y-66210000D01*
X97294531Y-66210000D01*
X96873579Y-66293733D01*
X96516714Y-66532183D01*
X96278264Y-66889048D01*
X96250000Y-67031140D01*
X96221736Y-66889048D01*
X95983286Y-66532183D01*
X95626421Y-66293733D01*
X95205469Y-66210000D01*
X94754531Y-66210000D01*
X94333579Y-66293733D01*
X93976714Y-66532183D01*
X93738264Y-66889048D01*
X93654531Y-67310000D01*
X65079555Y-67310000D01*
X65095469Y-67230000D01*
X65011736Y-66809048D01*
X64773286Y-66452183D01*
X64416421Y-66213733D01*
X63995469Y-66130000D01*
X63544531Y-66130000D01*
X63123579Y-66213733D01*
X62766714Y-66452183D01*
X62537836Y-66794723D01*
X62537836Y-66530000D01*
X62509944Y-66381769D01*
X62422340Y-66245628D01*
X62288671Y-66154296D01*
X62130000Y-66122164D01*
X60330000Y-66122164D01*
X60181769Y-66150056D01*
X60045628Y-66237660D01*
X59954296Y-66371329D01*
X59922164Y-66530000D01*
X59900000Y-66530000D01*
X59900000Y-64770000D01*
X93654531Y-64770000D01*
X93738264Y-65190952D01*
X93976714Y-65547817D01*
X94333579Y-65786267D01*
X94754531Y-65870000D01*
X95205469Y-65870000D01*
X95626421Y-65786267D01*
X95983286Y-65547817D01*
X96221736Y-65190952D01*
X96250000Y-65048860D01*
X96278264Y-65190952D01*
X96516714Y-65547817D01*
X96873579Y-65786267D01*
X97294531Y-65870000D01*
X97745469Y-65870000D01*
X98166421Y-65786267D01*
X98523286Y-65547817D01*
X98761736Y-65190952D01*
X98845469Y-64770000D01*
X98761736Y-64349048D01*
X98523286Y-63992183D01*
X98166421Y-63753733D01*
X97745469Y-63670000D01*
X97294531Y-63670000D01*
X96873579Y-63753733D01*
X96516714Y-63992183D01*
X96278264Y-64349048D01*
X96250000Y-64491140D01*
X96221736Y-64349048D01*
X95983286Y-63992183D01*
X95626421Y-63753733D01*
X95205469Y-63670000D01*
X94754531Y-63670000D01*
X94333579Y-63753733D01*
X93976714Y-63992183D01*
X93738264Y-64349048D01*
X93654531Y-64770000D01*
X59900000Y-64770000D01*
X59900000Y-62230000D01*
X93654531Y-62230000D01*
X93738264Y-62650952D01*
X93976714Y-63007817D01*
X94333579Y-63246267D01*
X94754531Y-63330000D01*
X95205469Y-63330000D01*
X95626421Y-63246267D01*
X95983286Y-63007817D01*
X96221736Y-62650952D01*
X96250000Y-62508860D01*
X96278264Y-62650952D01*
X96516714Y-63007817D01*
X96873579Y-63246267D01*
X97294531Y-63330000D01*
X97745469Y-63330000D01*
X98166421Y-63246267D01*
X98523286Y-63007817D01*
X98761736Y-62650952D01*
X98845469Y-62230000D01*
X98761736Y-61809048D01*
X98523286Y-61452183D01*
X98166421Y-61213733D01*
X97745469Y-61130000D01*
X97294531Y-61130000D01*
X96873579Y-61213733D01*
X96516714Y-61452183D01*
X96278264Y-61809048D01*
X96250000Y-61951140D01*
X96221736Y-61809048D01*
X95983286Y-61452183D01*
X95626421Y-61213733D01*
X95205469Y-61130000D01*
X94754531Y-61130000D01*
X94333579Y-61213733D01*
X93976714Y-61452183D01*
X93738264Y-61809048D01*
X93654531Y-62230000D01*
X59900000Y-62230000D01*
X59900000Y-58990000D01*
X93672164Y-58990000D01*
X93672164Y-60390000D01*
X93700056Y-60538231D01*
X93787660Y-60674372D01*
X93921329Y-60765704D01*
X94080000Y-60797836D01*
X95880000Y-60797836D01*
X96028231Y-60769944D01*
X96164372Y-60682340D01*
X96255704Y-60548671D01*
X96287836Y-60390000D01*
X96287836Y-60125277D01*
X96516714Y-60467817D01*
X96873579Y-60706267D01*
X97294531Y-60790000D01*
X97745469Y-60790000D01*
X98166421Y-60706267D01*
X98523286Y-60467817D01*
X98761736Y-60110952D01*
X98845469Y-59690000D01*
X98761736Y-59269048D01*
X98523286Y-58912183D01*
X98166421Y-58673733D01*
X97745469Y-58590000D01*
X97294531Y-58590000D01*
X96873579Y-58673733D01*
X96516714Y-58912183D01*
X96287836Y-59254723D01*
X96287836Y-58990000D01*
X96259944Y-58841769D01*
X96172340Y-58705628D01*
X96038671Y-58614296D01*
X95880000Y-58582164D01*
X94080000Y-58582164D01*
X93931769Y-58610056D01*
X93795628Y-58697660D01*
X93704296Y-58831329D01*
X93672164Y-58990000D01*
X59900000Y-58990000D01*
X59900000Y-57130507D01*
X63551564Y-57130507D01*
X63569562Y-57275954D01*
X63832302Y-57394930D01*
X64120572Y-57404304D01*
X64390487Y-57302648D01*
X64430438Y-57275954D01*
X64448436Y-57130507D01*
X64000000Y-56682071D01*
X63551564Y-57130507D01*
X59900000Y-57130507D01*
X59900000Y-56795572D01*
X63270696Y-56795572D01*
X63372352Y-57065487D01*
X63399046Y-57105438D01*
X63544493Y-57123436D01*
X63992929Y-56675000D01*
X64007071Y-56675000D01*
X64455507Y-57123436D01*
X64600954Y-57105438D01*
X64719930Y-56842698D01*
X64729304Y-56554428D01*
X64651373Y-56347507D01*
X65443564Y-56347507D01*
X65461562Y-56492954D01*
X65724302Y-56611930D01*
X66012572Y-56621304D01*
X66282487Y-56519648D01*
X66322438Y-56492954D01*
X66340436Y-56347507D01*
X65892000Y-55899071D01*
X65443564Y-56347507D01*
X64651373Y-56347507D01*
X64627648Y-56284513D01*
X64600954Y-56244562D01*
X64455507Y-56226564D01*
X64007071Y-56675000D01*
X63992929Y-56675000D01*
X63544493Y-56226564D01*
X63399046Y-56244562D01*
X63280070Y-56507302D01*
X63270696Y-56795572D01*
X59900000Y-56795572D01*
X59900000Y-56347507D01*
X61659564Y-56347507D01*
X61677562Y-56492954D01*
X61940302Y-56611930D01*
X62228572Y-56621304D01*
X62498487Y-56519648D01*
X62538438Y-56492954D01*
X62556436Y-56347507D01*
X62108000Y-55899071D01*
X61659564Y-56347507D01*
X59900000Y-56347507D01*
X59900000Y-56012572D01*
X61378696Y-56012572D01*
X61480352Y-56282487D01*
X61507046Y-56322438D01*
X61652493Y-56340436D01*
X62100929Y-55892000D01*
X62115071Y-55892000D01*
X62563507Y-56340436D01*
X62708954Y-56322438D01*
X62755570Y-56219493D01*
X63551564Y-56219493D01*
X64000000Y-56667929D01*
X64448436Y-56219493D01*
X64430438Y-56074046D01*
X64294683Y-56012572D01*
X65162696Y-56012572D01*
X65264352Y-56282487D01*
X65291046Y-56322438D01*
X65436493Y-56340436D01*
X65884929Y-55892000D01*
X65899071Y-55892000D01*
X66347507Y-56340436D01*
X66492954Y-56322438D01*
X66611930Y-56059698D01*
X66621304Y-55771428D01*
X66519648Y-55501513D01*
X66492954Y-55461562D01*
X66347507Y-55443564D01*
X65899071Y-55892000D01*
X65884929Y-55892000D01*
X65436493Y-55443564D01*
X65291046Y-55461562D01*
X65172070Y-55724302D01*
X65162696Y-56012572D01*
X64294683Y-56012572D01*
X64167698Y-55955070D01*
X63879428Y-55945696D01*
X63609513Y-56047352D01*
X63569562Y-56074046D01*
X63551564Y-56219493D01*
X62755570Y-56219493D01*
X62827930Y-56059698D01*
X62837304Y-55771428D01*
X62735648Y-55501513D01*
X62708954Y-55461562D01*
X62563507Y-55443564D01*
X62115071Y-55892000D01*
X62100929Y-55892000D01*
X61652493Y-55443564D01*
X61507046Y-55461562D01*
X61388070Y-55724302D01*
X61378696Y-56012572D01*
X59900000Y-56012572D01*
X59900000Y-55436493D01*
X61659564Y-55436493D01*
X62108000Y-55884929D01*
X62556436Y-55436493D01*
X65443564Y-55436493D01*
X65892000Y-55884929D01*
X66340436Y-55436493D01*
X66322438Y-55291046D01*
X66059698Y-55172070D01*
X65771428Y-55162696D01*
X65501513Y-55264352D01*
X65461562Y-55291046D01*
X65443564Y-55436493D01*
X62556436Y-55436493D01*
X62538438Y-55291046D01*
X62275698Y-55172070D01*
X61987428Y-55162696D01*
X61717513Y-55264352D01*
X61677562Y-55291046D01*
X61659564Y-55436493D01*
X59900000Y-55436493D01*
X59900000Y-54455507D01*
X60876564Y-54455507D01*
X60894562Y-54600954D01*
X61157302Y-54719930D01*
X61445572Y-54729304D01*
X61715487Y-54627648D01*
X61755438Y-54600954D01*
X61773436Y-54455507D01*
X66226564Y-54455507D01*
X66244562Y-54600954D01*
X66507302Y-54719930D01*
X66795572Y-54729304D01*
X67065487Y-54627648D01*
X67105438Y-54600954D01*
X67123436Y-54455507D01*
X66675000Y-54007071D01*
X66226564Y-54455507D01*
X61773436Y-54455507D01*
X61325000Y-54007071D01*
X60876564Y-54455507D01*
X59900000Y-54455507D01*
X59900000Y-54120572D01*
X60595696Y-54120572D01*
X60697352Y-54390487D01*
X60724046Y-54430438D01*
X60869493Y-54448436D01*
X61317929Y-54000000D01*
X61332071Y-54000000D01*
X61780507Y-54448436D01*
X61925954Y-54430438D01*
X62044930Y-54167698D01*
X62046462Y-54120572D01*
X65945696Y-54120572D01*
X66047352Y-54390487D01*
X66074046Y-54430438D01*
X66219493Y-54448436D01*
X66667929Y-54000000D01*
X66682071Y-54000000D01*
X67130507Y-54448436D01*
X67275954Y-54430438D01*
X67394930Y-54167698D01*
X67404304Y-53879428D01*
X67302648Y-53609513D01*
X67275954Y-53569562D01*
X67130507Y-53551564D01*
X66682071Y-54000000D01*
X66667929Y-54000000D01*
X66219493Y-53551564D01*
X66074046Y-53569562D01*
X65955070Y-53832302D01*
X65945696Y-54120572D01*
X62046462Y-54120572D01*
X62054304Y-53879428D01*
X61952648Y-53609513D01*
X61925954Y-53569562D01*
X61780507Y-53551564D01*
X61332071Y-54000000D01*
X61317929Y-54000000D01*
X60869493Y-53551564D01*
X60724046Y-53569562D01*
X60605070Y-53832302D01*
X60595696Y-54120572D01*
X59900000Y-54120572D01*
X59900000Y-53544493D01*
X60876564Y-53544493D01*
X61325000Y-53992929D01*
X61773436Y-53544493D01*
X66226564Y-53544493D01*
X66675000Y-53992929D01*
X67123436Y-53544493D01*
X67105438Y-53399046D01*
X66842698Y-53280070D01*
X66554428Y-53270696D01*
X66284513Y-53372352D01*
X66244562Y-53399046D01*
X66226564Y-53544493D01*
X61773436Y-53544493D01*
X61755438Y-53399046D01*
X61492698Y-53280070D01*
X61204428Y-53270696D01*
X60934513Y-53372352D01*
X60894562Y-53399046D01*
X60876564Y-53544493D01*
X59900000Y-53544493D01*
X59900000Y-52563507D01*
X61659564Y-52563507D01*
X61677562Y-52708954D01*
X61940302Y-52827930D01*
X62228572Y-52837304D01*
X62498487Y-52735648D01*
X62538438Y-52708954D01*
X62556436Y-52563507D01*
X65443564Y-52563507D01*
X65461562Y-52708954D01*
X65724302Y-52827930D01*
X66012572Y-52837304D01*
X66282487Y-52735648D01*
X66322438Y-52708954D01*
X66340436Y-52563507D01*
X65892000Y-52115071D01*
X65443564Y-52563507D01*
X62556436Y-52563507D01*
X62108000Y-52115071D01*
X61659564Y-52563507D01*
X59900000Y-52563507D01*
X59900000Y-52228572D01*
X61378696Y-52228572D01*
X61480352Y-52498487D01*
X61507046Y-52538438D01*
X61652493Y-52556436D01*
X62100929Y-52108000D01*
X62115071Y-52108000D01*
X62563507Y-52556436D01*
X62708954Y-52538438D01*
X62827930Y-52275698D01*
X62829462Y-52228572D01*
X65162696Y-52228572D01*
X65264352Y-52498487D01*
X65291046Y-52538438D01*
X65436493Y-52556436D01*
X65884929Y-52108000D01*
X65899071Y-52108000D01*
X66347507Y-52556436D01*
X66492954Y-52538438D01*
X66611930Y-52275698D01*
X66621304Y-51987428D01*
X66519648Y-51717513D01*
X66492954Y-51677562D01*
X66347507Y-51659564D01*
X65899071Y-52108000D01*
X65884929Y-52108000D01*
X65436493Y-51659564D01*
X65291046Y-51677562D01*
X65172070Y-51940302D01*
X65162696Y-52228572D01*
X62829462Y-52228572D01*
X62837304Y-51987428D01*
X62759373Y-51780507D01*
X63551564Y-51780507D01*
X63569562Y-51925954D01*
X63832302Y-52044930D01*
X64120572Y-52054304D01*
X64390487Y-51952648D01*
X64430438Y-51925954D01*
X64448436Y-51780507D01*
X64000000Y-51332071D01*
X63551564Y-51780507D01*
X62759373Y-51780507D01*
X62735648Y-51717513D01*
X62708954Y-51677562D01*
X62563507Y-51659564D01*
X62115071Y-52108000D01*
X62100929Y-52108000D01*
X61652493Y-51659564D01*
X61507046Y-51677562D01*
X61388070Y-51940302D01*
X61378696Y-52228572D01*
X59900000Y-52228572D01*
X59900000Y-51652493D01*
X61659564Y-51652493D01*
X62108000Y-52100929D01*
X62556436Y-51652493D01*
X62538438Y-51507046D01*
X62402683Y-51445572D01*
X63270696Y-51445572D01*
X63372352Y-51715487D01*
X63399046Y-51755438D01*
X63544493Y-51773436D01*
X63992929Y-51325000D01*
X64007071Y-51325000D01*
X64455507Y-51773436D01*
X64600954Y-51755438D01*
X64647570Y-51652493D01*
X65443564Y-51652493D01*
X65892000Y-52100929D01*
X66340436Y-51652493D01*
X66322438Y-51507046D01*
X66059698Y-51388070D01*
X65771428Y-51378696D01*
X65501513Y-51480352D01*
X65461562Y-51507046D01*
X65443564Y-51652493D01*
X64647570Y-51652493D01*
X64719930Y-51492698D01*
X64729304Y-51204428D01*
X64627648Y-50934513D01*
X64600954Y-50894562D01*
X64455507Y-50876564D01*
X64007071Y-51325000D01*
X63992929Y-51325000D01*
X63544493Y-50876564D01*
X63399046Y-50894562D01*
X63280070Y-51157302D01*
X63270696Y-51445572D01*
X62402683Y-51445572D01*
X62275698Y-51388070D01*
X61987428Y-51378696D01*
X61717513Y-51480352D01*
X61677562Y-51507046D01*
X61659564Y-51652493D01*
X59900000Y-51652493D01*
X59900000Y-50869493D01*
X63551564Y-50869493D01*
X64000000Y-51317929D01*
X64448436Y-50869493D01*
X64430438Y-50724046D01*
X64167698Y-50605070D01*
X63879428Y-50595696D01*
X63609513Y-50697352D01*
X63569562Y-50724046D01*
X63551564Y-50869493D01*
X59900000Y-50869493D01*
X59900000Y-50450000D01*
X68900000Y-50450000D01*
X68900000Y-57500000D01*
X68900000Y-57500000D01*
G37*
X68900000Y-57500000D02*
X68907879Y-57538906D01*
X68930273Y-57571681D01*
X68963654Y-57593161D01*
X69000000Y-57600000D01*
X96000000Y-57600000D01*
X96038906Y-57592121D01*
X96071681Y-57569727D01*
X96093161Y-57536346D01*
X96100000Y-57500000D01*
X96100000Y-57403635D01*
X96120572Y-57404304D01*
X96390487Y-57302648D01*
X96430438Y-57275954D01*
X96448436Y-57130507D01*
X96100000Y-56782071D01*
X96100000Y-56767929D01*
X96455507Y-57123436D01*
X96600954Y-57105438D01*
X96719930Y-56842698D01*
X96729304Y-56554428D01*
X96651373Y-56347507D01*
X97443564Y-56347507D01*
X97461562Y-56492954D01*
X97724302Y-56611930D01*
X98012572Y-56621304D01*
X98282487Y-56519648D01*
X98322438Y-56492954D01*
X98340436Y-56347507D01*
X97892000Y-55899071D01*
X97443564Y-56347507D01*
X96651373Y-56347507D01*
X96627648Y-56284513D01*
X96600954Y-56244562D01*
X96455507Y-56226564D01*
X96100000Y-56582071D01*
X96100000Y-56567929D01*
X96448436Y-56219493D01*
X96430438Y-56074046D01*
X96294683Y-56012572D01*
X97162696Y-56012572D01*
X97264352Y-56282487D01*
X97291046Y-56322438D01*
X97436493Y-56340436D01*
X97884929Y-55892000D01*
X97899071Y-55892000D01*
X98347507Y-56340436D01*
X98492954Y-56322438D01*
X98611930Y-56059698D01*
X98621304Y-55771428D01*
X98519648Y-55501513D01*
X98492954Y-55461562D01*
X98347507Y-55443564D01*
X97899071Y-55892000D01*
X97884929Y-55892000D01*
X97436493Y-55443564D01*
X97291046Y-55461562D01*
X97172070Y-55724302D01*
X97162696Y-56012572D01*
X96294683Y-56012572D01*
X96167698Y-55955070D01*
X96100000Y-55952869D01*
X96100000Y-55436493D01*
X97443564Y-55436493D01*
X97892000Y-55884929D01*
X98340436Y-55436493D01*
X98322438Y-55291046D01*
X98059698Y-55172070D01*
X97771428Y-55162696D01*
X97501513Y-55264352D01*
X97461562Y-55291046D01*
X97443564Y-55436493D01*
X96100000Y-55436493D01*
X96100000Y-54455507D01*
X98226564Y-54455507D01*
X98244562Y-54600954D01*
X98507302Y-54719930D01*
X98795572Y-54729304D01*
X99065487Y-54627648D01*
X99105438Y-54600954D01*
X99123436Y-54455507D01*
X98675000Y-54007071D01*
X98226564Y-54455507D01*
X96100000Y-54455507D01*
X96100000Y-54120572D01*
X97945696Y-54120572D01*
X98047352Y-54390487D01*
X98074046Y-54430438D01*
X98219493Y-54448436D01*
X98667929Y-54000000D01*
X98682071Y-54000000D01*
X99130507Y-54448436D01*
X99275954Y-54430438D01*
X99394930Y-54167698D01*
X99404304Y-53879428D01*
X99302648Y-53609513D01*
X99275954Y-53569562D01*
X99130507Y-53551564D01*
X98682071Y-54000000D01*
X98667929Y-54000000D01*
X98219493Y-53551564D01*
X98074046Y-53569562D01*
X97955070Y-53832302D01*
X97945696Y-54120572D01*
X96100000Y-54120572D01*
X96100000Y-53544493D01*
X98226564Y-53544493D01*
X98675000Y-53992929D01*
X99123436Y-53544493D01*
X99105438Y-53399046D01*
X98842698Y-53280070D01*
X98554428Y-53270696D01*
X98284513Y-53372352D01*
X98244562Y-53399046D01*
X98226564Y-53544493D01*
X96100000Y-53544493D01*
X96100000Y-52563507D01*
X97443564Y-52563507D01*
X97461562Y-52708954D01*
X97724302Y-52827930D01*
X98012572Y-52837304D01*
X98282487Y-52735648D01*
X98322438Y-52708954D01*
X98340436Y-52563507D01*
X97892000Y-52115071D01*
X97443564Y-52563507D01*
X96100000Y-52563507D01*
X96100000Y-52228572D01*
X97162696Y-52228572D01*
X97264352Y-52498487D01*
X97291046Y-52538438D01*
X97436493Y-52556436D01*
X97884929Y-52108000D01*
X97899071Y-52108000D01*
X98347507Y-52556436D01*
X98492954Y-52538438D01*
X98611930Y-52275698D01*
X98621304Y-51987428D01*
X98519648Y-51717513D01*
X98492954Y-51677562D01*
X98347507Y-51659564D01*
X97899071Y-52108000D01*
X97884929Y-52108000D01*
X97436493Y-51659564D01*
X97291046Y-51677562D01*
X97172070Y-51940302D01*
X97162696Y-52228572D01*
X96100000Y-52228572D01*
X96100000Y-52053635D01*
X96120572Y-52054304D01*
X96390487Y-51952648D01*
X96430438Y-51925954D01*
X96448436Y-51780507D01*
X96100000Y-51432071D01*
X96100000Y-51417929D01*
X96455507Y-51773436D01*
X96600954Y-51755438D01*
X96647570Y-51652493D01*
X97443564Y-51652493D01*
X97892000Y-52100929D01*
X98340436Y-51652493D01*
X98322438Y-51507046D01*
X98059698Y-51388070D01*
X97771428Y-51378696D01*
X97501513Y-51480352D01*
X97461562Y-51507046D01*
X97443564Y-51652493D01*
X96647570Y-51652493D01*
X96719930Y-51492698D01*
X96729304Y-51204428D01*
X96627648Y-50934513D01*
X96600954Y-50894562D01*
X96455507Y-50876564D01*
X96100000Y-51232071D01*
X96100000Y-51217929D01*
X96448436Y-50869493D01*
X96430438Y-50724046D01*
X96167698Y-50605070D01*
X96100000Y-50602869D01*
X96100000Y-50450000D01*
X99550000Y-50450000D01*
X99550000Y-99550000D01*
X57268587Y-99550000D01*
X57460952Y-99511736D01*
X57817817Y-99273286D01*
X57913219Y-99130507D01*
X63551564Y-99130507D01*
X63569562Y-99275954D01*
X63832302Y-99394930D01*
X64120572Y-99404304D01*
X64390487Y-99302648D01*
X64430438Y-99275954D01*
X64448436Y-99130507D01*
X95551564Y-99130507D01*
X95569562Y-99275954D01*
X95832302Y-99394930D01*
X96120572Y-99404304D01*
X96390487Y-99302648D01*
X96430438Y-99275954D01*
X96448436Y-99130507D01*
X96000000Y-98682071D01*
X95551564Y-99130507D01*
X64448436Y-99130507D01*
X64000000Y-98682071D01*
X63551564Y-99130507D01*
X57913219Y-99130507D01*
X58056267Y-98916421D01*
X58080305Y-98795572D01*
X63270696Y-98795572D01*
X63372352Y-99065487D01*
X63399046Y-99105438D01*
X63544493Y-99123436D01*
X63992929Y-98675000D01*
X64007071Y-98675000D01*
X64455507Y-99123436D01*
X64600954Y-99105438D01*
X64719930Y-98842698D01*
X64721462Y-98795572D01*
X95270696Y-98795572D01*
X95372352Y-99065487D01*
X95399046Y-99105438D01*
X95544493Y-99123436D01*
X95992929Y-98675000D01*
X96007071Y-98675000D01*
X96455507Y-99123436D01*
X96600954Y-99105438D01*
X96719930Y-98842698D01*
X96729304Y-98554428D01*
X96651373Y-98347507D01*
X97443564Y-98347507D01*
X97461562Y-98492954D01*
X97724302Y-98611930D01*
X98012572Y-98621304D01*
X98282487Y-98519648D01*
X98322438Y-98492954D01*
X98340436Y-98347507D01*
X97892000Y-97899071D01*
X97443564Y-98347507D01*
X96651373Y-98347507D01*
X96627648Y-98284513D01*
X96600954Y-98244562D01*
X96455507Y-98226564D01*
X96007071Y-98675000D01*
X95992929Y-98675000D01*
X95544493Y-98226564D01*
X95399046Y-98244562D01*
X95280070Y-98507302D01*
X95270696Y-98795572D01*
X64721462Y-98795572D01*
X64729304Y-98554428D01*
X64651373Y-98347507D01*
X65443564Y-98347507D01*
X65461562Y-98492954D01*
X65724302Y-98611930D01*
X66012572Y-98621304D01*
X66282487Y-98519648D01*
X66322438Y-98492954D01*
X66340436Y-98347507D01*
X65892000Y-97899071D01*
X65443564Y-98347507D01*
X64651373Y-98347507D01*
X64627648Y-98284513D01*
X64600954Y-98244562D01*
X64455507Y-98226564D01*
X64007071Y-98675000D01*
X63992929Y-98675000D01*
X63544493Y-98226564D01*
X63399046Y-98244562D01*
X63280070Y-98507302D01*
X63270696Y-98795572D01*
X58080305Y-98795572D01*
X58140000Y-98495469D01*
X58140000Y-98347507D01*
X61659564Y-98347507D01*
X61677562Y-98492954D01*
X61940302Y-98611930D01*
X62228572Y-98621304D01*
X62498487Y-98519648D01*
X62538438Y-98492954D01*
X62556436Y-98347507D01*
X62108000Y-97899071D01*
X61659564Y-98347507D01*
X58140000Y-98347507D01*
X58140000Y-98044531D01*
X58133643Y-98012572D01*
X61378696Y-98012572D01*
X61480352Y-98282487D01*
X61507046Y-98322438D01*
X61652493Y-98340436D01*
X62100929Y-97892000D01*
X62115071Y-97892000D01*
X62563507Y-98340436D01*
X62708954Y-98322438D01*
X62755570Y-98219493D01*
X63551564Y-98219493D01*
X64000000Y-98667929D01*
X64448436Y-98219493D01*
X64430438Y-98074046D01*
X64294683Y-98012572D01*
X65162696Y-98012572D01*
X65264352Y-98282487D01*
X65291046Y-98322438D01*
X65436493Y-98340436D01*
X65884929Y-97892000D01*
X65899071Y-97892000D01*
X66347507Y-98340436D01*
X66492954Y-98322438D01*
X66611930Y-98059698D01*
X66621304Y-97771428D01*
X66558247Y-97604000D01*
X69403531Y-97604000D01*
X69487264Y-98024952D01*
X69725714Y-98381817D01*
X70082579Y-98620267D01*
X70503531Y-98704000D01*
X70954469Y-98704000D01*
X71375421Y-98620267D01*
X71732286Y-98381817D01*
X71970736Y-98024952D01*
X72054469Y-97604000D01*
X87945531Y-97604000D01*
X88029264Y-98024952D01*
X88267714Y-98381817D01*
X88624579Y-98620267D01*
X89045531Y-98704000D01*
X89496469Y-98704000D01*
X89917421Y-98620267D01*
X90274286Y-98381817D01*
X90297211Y-98347507D01*
X93659564Y-98347507D01*
X93677562Y-98492954D01*
X93940302Y-98611930D01*
X94228572Y-98621304D01*
X94498487Y-98519648D01*
X94538438Y-98492954D01*
X94556436Y-98347507D01*
X94108000Y-97899071D01*
X93659564Y-98347507D01*
X90297211Y-98347507D01*
X90512736Y-98024952D01*
X90515198Y-98012572D01*
X93378696Y-98012572D01*
X93480352Y-98282487D01*
X93507046Y-98322438D01*
X93652493Y-98340436D01*
X94100929Y-97892000D01*
X94115071Y-97892000D01*
X94563507Y-98340436D01*
X94708954Y-98322438D01*
X94755570Y-98219493D01*
X95551564Y-98219493D01*
X96000000Y-98667929D01*
X96448436Y-98219493D01*
X96430438Y-98074046D01*
X96294683Y-98012572D01*
X97162696Y-98012572D01*
X97264352Y-98282487D01*
X97291046Y-98322438D01*
X97436493Y-98340436D01*
X97884929Y-97892000D01*
X97899071Y-97892000D01*
X98347507Y-98340436D01*
X98492954Y-98322438D01*
X98611930Y-98059698D01*
X98621304Y-97771428D01*
X98519648Y-97501513D01*
X98492954Y-97461562D01*
X98347507Y-97443564D01*
X97899071Y-97892000D01*
X97884929Y-97892000D01*
X97436493Y-97443564D01*
X97291046Y-97461562D01*
X97172070Y-97724302D01*
X97162696Y-98012572D01*
X96294683Y-98012572D01*
X96167698Y-97955070D01*
X95879428Y-97945696D01*
X95609513Y-98047352D01*
X95569562Y-98074046D01*
X95551564Y-98219493D01*
X94755570Y-98219493D01*
X94827930Y-98059698D01*
X94837304Y-97771428D01*
X94735648Y-97501513D01*
X94708954Y-97461562D01*
X94563507Y-97443564D01*
X94115071Y-97892000D01*
X94100929Y-97892000D01*
X93652493Y-97443564D01*
X93507046Y-97461562D01*
X93388070Y-97724302D01*
X93378696Y-98012572D01*
X90515198Y-98012572D01*
X90596469Y-97604000D01*
X90563150Y-97436493D01*
X93659564Y-97436493D01*
X94108000Y-97884929D01*
X94556436Y-97436493D01*
X97443564Y-97436493D01*
X97892000Y-97884929D01*
X98340436Y-97436493D01*
X98322438Y-97291046D01*
X98059698Y-97172070D01*
X97771428Y-97162696D01*
X97501513Y-97264352D01*
X97461562Y-97291046D01*
X97443564Y-97436493D01*
X94556436Y-97436493D01*
X94538438Y-97291046D01*
X94275698Y-97172070D01*
X93987428Y-97162696D01*
X93717513Y-97264352D01*
X93677562Y-97291046D01*
X93659564Y-97436493D01*
X90563150Y-97436493D01*
X90512736Y-97183048D01*
X90274286Y-96826183D01*
X89917421Y-96587733D01*
X89496469Y-96504000D01*
X89045531Y-96504000D01*
X88624579Y-96587733D01*
X88267714Y-96826183D01*
X88029264Y-97183048D01*
X87945531Y-97604000D01*
X72054469Y-97604000D01*
X71970736Y-97183048D01*
X71732286Y-96826183D01*
X71375421Y-96587733D01*
X70954469Y-96504000D01*
X70503531Y-96504000D01*
X70082579Y-96587733D01*
X69725714Y-96826183D01*
X69487264Y-97183048D01*
X69403531Y-97604000D01*
X66558247Y-97604000D01*
X66519648Y-97501513D01*
X66492954Y-97461562D01*
X66347507Y-97443564D01*
X65899071Y-97892000D01*
X65884929Y-97892000D01*
X65436493Y-97443564D01*
X65291046Y-97461562D01*
X65172070Y-97724302D01*
X65162696Y-98012572D01*
X64294683Y-98012572D01*
X64167698Y-97955070D01*
X63879428Y-97945696D01*
X63609513Y-98047352D01*
X63569562Y-98074046D01*
X63551564Y-98219493D01*
X62755570Y-98219493D01*
X62827930Y-98059698D01*
X62837304Y-97771428D01*
X62735648Y-97501513D01*
X62708954Y-97461562D01*
X62563507Y-97443564D01*
X62115071Y-97892000D01*
X62100929Y-97892000D01*
X61652493Y-97443564D01*
X61507046Y-97461562D01*
X61388070Y-97724302D01*
X61378696Y-98012572D01*
X58133643Y-98012572D01*
X58056267Y-97623579D01*
X57931260Y-97436493D01*
X61659564Y-97436493D01*
X62108000Y-97884929D01*
X62556436Y-97436493D01*
X65443564Y-97436493D01*
X65892000Y-97884929D01*
X66340436Y-97436493D01*
X66322438Y-97291046D01*
X66059698Y-97172070D01*
X65771428Y-97162696D01*
X65501513Y-97264352D01*
X65461562Y-97291046D01*
X65443564Y-97436493D01*
X62556436Y-97436493D01*
X62538438Y-97291046D01*
X62275698Y-97172070D01*
X61987428Y-97162696D01*
X61717513Y-97264352D01*
X61677562Y-97291046D01*
X61659564Y-97436493D01*
X57931260Y-97436493D01*
X57817817Y-97266714D01*
X57475277Y-97037836D01*
X57740000Y-97037836D01*
X57888231Y-97009944D01*
X58024372Y-96922340D01*
X58115704Y-96788671D01*
X58147836Y-96630000D01*
X58147836Y-96455507D01*
X60876564Y-96455507D01*
X60894562Y-96600954D01*
X61157302Y-96719930D01*
X61445572Y-96729304D01*
X61715487Y-96627648D01*
X61755438Y-96600954D01*
X61773436Y-96455507D01*
X66226564Y-96455507D01*
X66244562Y-96600954D01*
X66507302Y-96719930D01*
X66795572Y-96729304D01*
X67065487Y-96627648D01*
X67105438Y-96600954D01*
X67123436Y-96455507D01*
X92876564Y-96455507D01*
X92894562Y-96600954D01*
X93157302Y-96719930D01*
X93445572Y-96729304D01*
X93715487Y-96627648D01*
X93755438Y-96600954D01*
X93773436Y-96455507D01*
X98226564Y-96455507D01*
X98244562Y-96600954D01*
X98507302Y-96719930D01*
X98795572Y-96729304D01*
X99065487Y-96627648D01*
X99105438Y-96600954D01*
X99123436Y-96455507D01*
X98675000Y-96007071D01*
X98226564Y-96455507D01*
X93773436Y-96455507D01*
X93325000Y-96007071D01*
X92876564Y-96455507D01*
X67123436Y-96455507D01*
X66675000Y-96007071D01*
X66226564Y-96455507D01*
X61773436Y-96455507D01*
X61325000Y-96007071D01*
X60876564Y-96455507D01*
X58147836Y-96455507D01*
X58147836Y-96120572D01*
X60595696Y-96120572D01*
X60697352Y-96390487D01*
X60724046Y-96430438D01*
X60869493Y-96448436D01*
X61317929Y-96000000D01*
X61332071Y-96000000D01*
X61780507Y-96448436D01*
X61925954Y-96430438D01*
X62044930Y-96167698D01*
X62046462Y-96120572D01*
X65945696Y-96120572D01*
X66047352Y-96390487D01*
X66074046Y-96430438D01*
X66219493Y-96448436D01*
X66667929Y-96000000D01*
X66682071Y-96000000D01*
X67130507Y-96448436D01*
X67275954Y-96430438D01*
X67394930Y-96167698D01*
X67404304Y-95879428D01*
X67302648Y-95609513D01*
X67275954Y-95569562D01*
X67130507Y-95551564D01*
X66682071Y-96000000D01*
X66667929Y-96000000D01*
X66219493Y-95551564D01*
X66074046Y-95569562D01*
X65955070Y-95832302D01*
X65945696Y-96120572D01*
X62046462Y-96120572D01*
X62054304Y-95879428D01*
X61952648Y-95609513D01*
X61925954Y-95569562D01*
X61780507Y-95551564D01*
X61332071Y-96000000D01*
X61317929Y-96000000D01*
X60869493Y-95551564D01*
X60724046Y-95569562D01*
X60605070Y-95832302D01*
X60595696Y-96120572D01*
X58147836Y-96120572D01*
X58147836Y-95544493D01*
X60876564Y-95544493D01*
X61325000Y-95992929D01*
X61773436Y-95544493D01*
X66226564Y-95544493D01*
X66675000Y-95992929D01*
X67123436Y-95544493D01*
X67105438Y-95399046D01*
X66842698Y-95280070D01*
X66554428Y-95270696D01*
X66284513Y-95372352D01*
X66244562Y-95399046D01*
X66226564Y-95544493D01*
X61773436Y-95544493D01*
X61755438Y-95399046D01*
X61492698Y-95280070D01*
X61204428Y-95270696D01*
X60934513Y-95372352D01*
X60894562Y-95399046D01*
X60876564Y-95544493D01*
X58147836Y-95544493D01*
X58147836Y-94830000D01*
X58119944Y-94681769D01*
X58043845Y-94563507D01*
X61659564Y-94563507D01*
X61677562Y-94708954D01*
X61940302Y-94827930D01*
X62228572Y-94837304D01*
X62498487Y-94735648D01*
X62538438Y-94708954D01*
X62556436Y-94563507D01*
X65443564Y-94563507D01*
X65461562Y-94708954D01*
X65724302Y-94827930D01*
X66012572Y-94837304D01*
X66282487Y-94735648D01*
X66322438Y-94708954D01*
X66340436Y-94563507D01*
X65892000Y-94115071D01*
X65443564Y-94563507D01*
X62556436Y-94563507D01*
X62108000Y-94115071D01*
X61659564Y-94563507D01*
X58043845Y-94563507D01*
X58032340Y-94545628D01*
X57898671Y-94454296D01*
X57740000Y-94422164D01*
X56340000Y-94422164D01*
X56191769Y-94450056D01*
X56055628Y-94537660D01*
X55964296Y-94671329D01*
X55932164Y-94830000D01*
X55932164Y-96630000D01*
X55960056Y-96778231D01*
X56047660Y-96914372D01*
X56181329Y-97005704D01*
X56340000Y-97037836D01*
X56604723Y-97037836D01*
X56262183Y-97266714D01*
X56023733Y-97623579D01*
X55940000Y-98044531D01*
X55940000Y-98495469D01*
X56023733Y-98916421D01*
X56262183Y-99273286D01*
X56619048Y-99511736D01*
X56811413Y-99550000D01*
X54728587Y-99550000D01*
X54920952Y-99511736D01*
X55277817Y-99273286D01*
X55516267Y-98916421D01*
X55600000Y-98495469D01*
X55600000Y-98044531D01*
X55516267Y-97623579D01*
X55277817Y-97266714D01*
X54920952Y-97028264D01*
X54778860Y-97000000D01*
X54920952Y-96971736D01*
X55277817Y-96733286D01*
X55516267Y-96376421D01*
X55600000Y-95955469D01*
X55600000Y-95504531D01*
X55516267Y-95083579D01*
X55277817Y-94726714D01*
X54920952Y-94488264D01*
X54500000Y-94404531D01*
X54079048Y-94488264D01*
X53722183Y-94726714D01*
X53483733Y-95083579D01*
X53400000Y-95504531D01*
X53400000Y-95955469D01*
X53483733Y-96376421D01*
X53722183Y-96733286D01*
X54079048Y-96971736D01*
X54221140Y-97000000D01*
X54079048Y-97028264D01*
X53722183Y-97266714D01*
X53483733Y-97623579D01*
X53400000Y-98044531D01*
X53400000Y-98495469D01*
X53483733Y-98916421D01*
X53722183Y-99273286D01*
X54079048Y-99511736D01*
X54271413Y-99550000D01*
X52188587Y-99550000D01*
X52380952Y-99511736D01*
X52737817Y-99273286D01*
X52976267Y-98916421D01*
X53060000Y-98495469D01*
X53060000Y-98044531D01*
X52976267Y-97623579D01*
X52737817Y-97266714D01*
X52380952Y-97028264D01*
X52238860Y-97000000D01*
X52380952Y-96971736D01*
X52737817Y-96733286D01*
X52976267Y-96376421D01*
X53060000Y-95955469D01*
X53060000Y-95504531D01*
X52976267Y-95083579D01*
X52737817Y-94726714D01*
X52380952Y-94488264D01*
X51960000Y-94404531D01*
X51539048Y-94488264D01*
X51182183Y-94726714D01*
X50943733Y-95083579D01*
X50860000Y-95504531D01*
X50860000Y-95955469D01*
X50943733Y-96376421D01*
X51182183Y-96733286D01*
X51539048Y-96971736D01*
X51681140Y-97000000D01*
X51539048Y-97028264D01*
X51182183Y-97266714D01*
X50943733Y-97623579D01*
X50860000Y-98044531D01*
X50860000Y-98495469D01*
X50943733Y-98916421D01*
X51182183Y-99273286D01*
X51539048Y-99511736D01*
X51731413Y-99550000D01*
X50450000Y-99550000D01*
X50450000Y-94228572D01*
X61378696Y-94228572D01*
X61480352Y-94498487D01*
X61507046Y-94538438D01*
X61652493Y-94556436D01*
X62100929Y-94108000D01*
X62115071Y-94108000D01*
X62563507Y-94556436D01*
X62708954Y-94538438D01*
X62827930Y-94275698D01*
X62829462Y-94228572D01*
X65162696Y-94228572D01*
X65264352Y-94498487D01*
X65291046Y-94538438D01*
X65436493Y-94556436D01*
X65884929Y-94108000D01*
X65899071Y-94108000D01*
X66347507Y-94556436D01*
X66492954Y-94538438D01*
X66571944Y-94364000D01*
X69421164Y-94364000D01*
X69421164Y-95764000D01*
X69449056Y-95912231D01*
X69536660Y-96048372D01*
X69670329Y-96139704D01*
X69829000Y-96171836D01*
X71629000Y-96171836D01*
X71777231Y-96143944D01*
X71913372Y-96056340D01*
X72004704Y-95922671D01*
X72036836Y-95764000D01*
X72036836Y-94364000D01*
X87963164Y-94364000D01*
X87963164Y-95764000D01*
X87991056Y-95912231D01*
X88078660Y-96048372D01*
X88212329Y-96139704D01*
X88371000Y-96171836D01*
X90171000Y-96171836D01*
X90319231Y-96143944D01*
X90355552Y-96120572D01*
X92595696Y-96120572D01*
X92697352Y-96390487D01*
X92724046Y-96430438D01*
X92869493Y-96448436D01*
X93317929Y-96000000D01*
X93332071Y-96000000D01*
X93780507Y-96448436D01*
X93925954Y-96430438D01*
X94044930Y-96167698D01*
X94046462Y-96120572D01*
X97945696Y-96120572D01*
X98047352Y-96390487D01*
X98074046Y-96430438D01*
X98219493Y-96448436D01*
X98667929Y-96000000D01*
X98682071Y-96000000D01*
X99130507Y-96448436D01*
X99275954Y-96430438D01*
X99394930Y-96167698D01*
X99404304Y-95879428D01*
X99302648Y-95609513D01*
X99275954Y-95569562D01*
X99130507Y-95551564D01*
X98682071Y-96000000D01*
X98667929Y-96000000D01*
X98219493Y-95551564D01*
X98074046Y-95569562D01*
X97955070Y-95832302D01*
X97945696Y-96120572D01*
X94046462Y-96120572D01*
X94054304Y-95879428D01*
X93952648Y-95609513D01*
X93925954Y-95569562D01*
X93780507Y-95551564D01*
X93332071Y-96000000D01*
X93317929Y-96000000D01*
X92869493Y-95551564D01*
X92724046Y-95569562D01*
X92605070Y-95832302D01*
X92595696Y-96120572D01*
X90355552Y-96120572D01*
X90455372Y-96056340D01*
X90546704Y-95922671D01*
X90578836Y-95764000D01*
X90578836Y-95544493D01*
X92876564Y-95544493D01*
X93325000Y-95992929D01*
X93773436Y-95544493D01*
X98226564Y-95544493D01*
X98675000Y-95992929D01*
X99123436Y-95544493D01*
X99105438Y-95399046D01*
X98842698Y-95280070D01*
X98554428Y-95270696D01*
X98284513Y-95372352D01*
X98244562Y-95399046D01*
X98226564Y-95544493D01*
X93773436Y-95544493D01*
X93755438Y-95399046D01*
X93492698Y-95280070D01*
X93204428Y-95270696D01*
X92934513Y-95372352D01*
X92894562Y-95399046D01*
X92876564Y-95544493D01*
X90578836Y-95544493D01*
X90578836Y-94563507D01*
X93659564Y-94563507D01*
X93677562Y-94708954D01*
X93940302Y-94827930D01*
X94228572Y-94837304D01*
X94498487Y-94735648D01*
X94538438Y-94708954D01*
X94556436Y-94563507D01*
X97443564Y-94563507D01*
X97461562Y-94708954D01*
X97724302Y-94827930D01*
X98012572Y-94837304D01*
X98282487Y-94735648D01*
X98322438Y-94708954D01*
X98340436Y-94563507D01*
X97892000Y-94115071D01*
X97443564Y-94563507D01*
X94556436Y-94563507D01*
X94108000Y-94115071D01*
X93659564Y-94563507D01*
X90578836Y-94563507D01*
X90578836Y-94364000D01*
X90553354Y-94228572D01*
X93378696Y-94228572D01*
X93480352Y-94498487D01*
X93507046Y-94538438D01*
X93652493Y-94556436D01*
X94100929Y-94108000D01*
X94115071Y-94108000D01*
X94563507Y-94556436D01*
X94708954Y-94538438D01*
X94827930Y-94275698D01*
X94829462Y-94228572D01*
X97162696Y-94228572D01*
X97264352Y-94498487D01*
X97291046Y-94538438D01*
X97436493Y-94556436D01*
X97884929Y-94108000D01*
X97899071Y-94108000D01*
X98347507Y-94556436D01*
X98492954Y-94538438D01*
X98611930Y-94275698D01*
X98621304Y-93987428D01*
X98519648Y-93717513D01*
X98492954Y-93677562D01*
X98347507Y-93659564D01*
X97899071Y-94108000D01*
X97884929Y-94108000D01*
X97436493Y-93659564D01*
X97291046Y-93677562D01*
X97172070Y-93940302D01*
X97162696Y-94228572D01*
X94829462Y-94228572D01*
X94837304Y-93987428D01*
X94759373Y-93780507D01*
X95551564Y-93780507D01*
X95569562Y-93925954D01*
X95832302Y-94044930D01*
X96120572Y-94054304D01*
X96390487Y-93952648D01*
X96430438Y-93925954D01*
X96448436Y-93780507D01*
X96000000Y-93332071D01*
X95551564Y-93780507D01*
X94759373Y-93780507D01*
X94735648Y-93717513D01*
X94708954Y-93677562D01*
X94563507Y-93659564D01*
X94115071Y-94108000D01*
X94100929Y-94108000D01*
X93652493Y-93659564D01*
X93507046Y-93677562D01*
X93388070Y-93940302D01*
X93378696Y-94228572D01*
X90553354Y-94228572D01*
X90550944Y-94215769D01*
X90463340Y-94079628D01*
X90329671Y-93988296D01*
X90171000Y-93956164D01*
X88371000Y-93956164D01*
X88222769Y-93984056D01*
X88086628Y-94071660D01*
X87995296Y-94205329D01*
X87963164Y-94364000D01*
X72036836Y-94364000D01*
X72008944Y-94215769D01*
X71921340Y-94079628D01*
X71787671Y-93988296D01*
X71629000Y-93956164D01*
X69829000Y-93956164D01*
X69680769Y-93984056D01*
X69544628Y-94071660D01*
X69453296Y-94205329D01*
X69421164Y-94364000D01*
X66571944Y-94364000D01*
X66611930Y-94275698D01*
X66621304Y-93987428D01*
X66519648Y-93717513D01*
X66492954Y-93677562D01*
X66347507Y-93659564D01*
X65899071Y-94108000D01*
X65884929Y-94108000D01*
X65436493Y-93659564D01*
X65291046Y-93677562D01*
X65172070Y-93940302D01*
X65162696Y-94228572D01*
X62829462Y-94228572D01*
X62837304Y-93987428D01*
X62759373Y-93780507D01*
X63551564Y-93780507D01*
X63569562Y-93925954D01*
X63832302Y-94044930D01*
X64120572Y-94054304D01*
X64390487Y-93952648D01*
X64430438Y-93925954D01*
X64448436Y-93780507D01*
X64000000Y-93332071D01*
X63551564Y-93780507D01*
X62759373Y-93780507D01*
X62735648Y-93717513D01*
X62708954Y-93677562D01*
X62563507Y-93659564D01*
X62115071Y-94108000D01*
X62100929Y-94108000D01*
X61652493Y-93659564D01*
X61507046Y-93677562D01*
X61388070Y-93940302D01*
X61378696Y-94228572D01*
X50450000Y-94228572D01*
X50450000Y-93652493D01*
X61659564Y-93652493D01*
X62108000Y-94100929D01*
X62556436Y-93652493D01*
X62538438Y-93507046D01*
X62402683Y-93445572D01*
X63270696Y-93445572D01*
X63372352Y-93715487D01*
X63399046Y-93755438D01*
X63544493Y-93773436D01*
X63992929Y-93325000D01*
X64007071Y-93325000D01*
X64455507Y-93773436D01*
X64600954Y-93755438D01*
X64647570Y-93652493D01*
X65443564Y-93652493D01*
X65892000Y-94100929D01*
X66340436Y-93652493D01*
X93659564Y-93652493D01*
X94108000Y-94100929D01*
X94556436Y-93652493D01*
X94538438Y-93507046D01*
X94402683Y-93445572D01*
X95270696Y-93445572D01*
X95372352Y-93715487D01*
X95399046Y-93755438D01*
X95544493Y-93773436D01*
X95992929Y-93325000D01*
X96007071Y-93325000D01*
X96455507Y-93773436D01*
X96600954Y-93755438D01*
X96647570Y-93652493D01*
X97443564Y-93652493D01*
X97892000Y-94100929D01*
X98340436Y-93652493D01*
X98322438Y-93507046D01*
X98059698Y-93388070D01*
X97771428Y-93378696D01*
X97501513Y-93480352D01*
X97461562Y-93507046D01*
X97443564Y-93652493D01*
X96647570Y-93652493D01*
X96719930Y-93492698D01*
X96729304Y-93204428D01*
X96627648Y-92934513D01*
X96600954Y-92894562D01*
X96455507Y-92876564D01*
X96007071Y-93325000D01*
X95992929Y-93325000D01*
X95544493Y-92876564D01*
X95399046Y-92894562D01*
X95280070Y-93157302D01*
X95270696Y-93445572D01*
X94402683Y-93445572D01*
X94275698Y-93388070D01*
X93987428Y-93378696D01*
X93717513Y-93480352D01*
X93677562Y-93507046D01*
X93659564Y-93652493D01*
X66340436Y-93652493D01*
X66322438Y-93507046D01*
X66059698Y-93388070D01*
X65771428Y-93378696D01*
X65501513Y-93480352D01*
X65461562Y-93507046D01*
X65443564Y-93652493D01*
X64647570Y-93652493D01*
X64719930Y-93492698D01*
X64729304Y-93204428D01*
X64627648Y-92934513D01*
X64600954Y-92894562D01*
X64455507Y-92876564D01*
X64007071Y-93325000D01*
X63992929Y-93325000D01*
X63544493Y-92876564D01*
X63399046Y-92894562D01*
X63280070Y-93157302D01*
X63270696Y-93445572D01*
X62402683Y-93445572D01*
X62275698Y-93388070D01*
X61987428Y-93378696D01*
X61717513Y-93480352D01*
X61677562Y-93507046D01*
X61659564Y-93652493D01*
X50450000Y-93652493D01*
X50450000Y-92869493D01*
X63551564Y-92869493D01*
X64000000Y-93317929D01*
X64448436Y-92869493D01*
X95551564Y-92869493D01*
X96000000Y-93317929D01*
X96448436Y-92869493D01*
X96430438Y-92724046D01*
X96167698Y-92605070D01*
X95879428Y-92595696D01*
X95609513Y-92697352D01*
X95569562Y-92724046D01*
X95551564Y-92869493D01*
X64448436Y-92869493D01*
X64430438Y-92724046D01*
X64167698Y-92605070D01*
X63879428Y-92595696D01*
X63609513Y-92697352D01*
X63569562Y-92724046D01*
X63551564Y-92869493D01*
X50450000Y-92869493D01*
X50450000Y-91240000D01*
X56266695Y-91240000D01*
X56384682Y-91833159D01*
X56720679Y-92336016D01*
X57223536Y-92672013D01*
X57816695Y-92790000D01*
X58183305Y-92790000D01*
X58776464Y-92672013D01*
X59279321Y-92336016D01*
X59615318Y-91833159D01*
X59733305Y-91240000D01*
X59615318Y-90646841D01*
X59383568Y-90300000D01*
X61142164Y-90300000D01*
X61142164Y-91700000D01*
X61170056Y-91848231D01*
X61257660Y-91984372D01*
X61391329Y-92075704D01*
X61550000Y-92107836D01*
X62950000Y-92107836D01*
X63098231Y-92079944D01*
X63234372Y-91992340D01*
X63325704Y-91858671D01*
X63357836Y-91700000D01*
X63357836Y-91221284D01*
X64672488Y-91221284D01*
X64831608Y-91605447D01*
X65133211Y-91910814D01*
X65528715Y-92077517D01*
X65700000Y-91998868D01*
X65700000Y-91050000D01*
X65800000Y-91050000D01*
X65800000Y-91998868D01*
X65971285Y-92077517D01*
X66366789Y-91910814D01*
X66668392Y-91605447D01*
X66827512Y-91221284D01*
X66748749Y-91050000D01*
X65800000Y-91050000D01*
X65700000Y-91050000D01*
X64751251Y-91050000D01*
X64672488Y-91221284D01*
X63357836Y-91221284D01*
X63357836Y-90778716D01*
X64672488Y-90778716D01*
X64751251Y-90950000D01*
X65700000Y-90950000D01*
X65700000Y-90001132D01*
X65800000Y-90001132D01*
X65800000Y-90950000D01*
X66748749Y-90950000D01*
X66827512Y-90778716D01*
X66668392Y-90394553D01*
X66366789Y-90089186D01*
X65971285Y-89922483D01*
X65800000Y-90001132D01*
X65700000Y-90001132D01*
X65528715Y-89922483D01*
X65133211Y-90089186D01*
X64831608Y-90394553D01*
X64672488Y-90778716D01*
X63357836Y-90778716D01*
X63357836Y-90300000D01*
X63329944Y-90151769D01*
X63242340Y-90015628D01*
X63108671Y-89924296D01*
X62950000Y-89892164D01*
X61550000Y-89892164D01*
X61401769Y-89920056D01*
X61265628Y-90007660D01*
X61174296Y-90141329D01*
X61142164Y-90300000D01*
X59383568Y-90300000D01*
X59279321Y-90143984D01*
X58839342Y-89850000D01*
X92942164Y-89850000D01*
X92942164Y-91150000D01*
X92970056Y-91298231D01*
X93057660Y-91434372D01*
X93191329Y-91525704D01*
X93350000Y-91557836D01*
X94650000Y-91557836D01*
X94798231Y-91529944D01*
X94934372Y-91442340D01*
X95025704Y-91308671D01*
X95057836Y-91150000D01*
X95057836Y-90669193D01*
X95463721Y-90669193D01*
X95477855Y-90740254D01*
X95647602Y-91113124D01*
X95947119Y-91392651D01*
X96330807Y-91536280D01*
X96495000Y-91449989D01*
X96495000Y-90505000D01*
X96505000Y-90505000D01*
X96505000Y-91449989D01*
X96669193Y-91536280D01*
X97052881Y-91392651D01*
X97352398Y-91113124D01*
X97522145Y-90740254D01*
X97536279Y-90669193D01*
X97449987Y-90505000D01*
X96505000Y-90505000D01*
X96495000Y-90505000D01*
X95550013Y-90505000D01*
X95463721Y-90669193D01*
X95057836Y-90669193D01*
X95057836Y-90330807D01*
X95463721Y-90330807D01*
X95550013Y-90495000D01*
X96495000Y-90495000D01*
X96495000Y-89550011D01*
X96505000Y-89550011D01*
X96505000Y-90495000D01*
X97449987Y-90495000D01*
X97536279Y-90330807D01*
X97522145Y-90259746D01*
X97352398Y-89886876D01*
X97052881Y-89607349D01*
X96669193Y-89463720D01*
X96505000Y-89550011D01*
X96495000Y-89550011D01*
X96330807Y-89463720D01*
X95947119Y-89607349D01*
X95647602Y-89886876D01*
X95477855Y-90259746D01*
X95463721Y-90330807D01*
X95057836Y-90330807D01*
X95057836Y-89850000D01*
X95029944Y-89701769D01*
X94942340Y-89565628D01*
X94808671Y-89474296D01*
X94650000Y-89442164D01*
X93350000Y-89442164D01*
X93201769Y-89470056D01*
X93065628Y-89557660D01*
X92974296Y-89691329D01*
X92942164Y-89850000D01*
X58839342Y-89850000D01*
X58776464Y-89807987D01*
X58183305Y-89690000D01*
X57816695Y-89690000D01*
X57223536Y-89807987D01*
X56720679Y-90143984D01*
X56384682Y-90646841D01*
X56266695Y-91240000D01*
X50450000Y-91240000D01*
X50450000Y-86160000D01*
X56266695Y-86160000D01*
X56384682Y-86753159D01*
X56720679Y-87256016D01*
X57223536Y-87592013D01*
X57816695Y-87710000D01*
X58183305Y-87710000D01*
X58776464Y-87592013D01*
X59279321Y-87256016D01*
X59374870Y-87113015D01*
X69443336Y-87113015D01*
X69510819Y-87352332D01*
X69747647Y-87710282D01*
X70103429Y-87950354D01*
X70524000Y-88036000D01*
X70724000Y-88036000D01*
X70724000Y-86941000D01*
X70734000Y-86941000D01*
X70734000Y-88036000D01*
X70934000Y-88036000D01*
X71354571Y-87950354D01*
X71710353Y-87710282D01*
X71947181Y-87352332D01*
X72014664Y-87113015D01*
X87985336Y-87113015D01*
X88052819Y-87352332D01*
X88289647Y-87710282D01*
X88645429Y-87950354D01*
X89066000Y-88036000D01*
X89266000Y-88036000D01*
X89266000Y-86941000D01*
X89276000Y-86941000D01*
X89276000Y-88036000D01*
X89476000Y-88036000D01*
X89896571Y-87950354D01*
X90252353Y-87710282D01*
X90489181Y-87352332D01*
X90556664Y-87113015D01*
X90470987Y-86941000D01*
X89276000Y-86941000D01*
X89266000Y-86941000D01*
X88071013Y-86941000D01*
X87985336Y-87113015D01*
X72014664Y-87113015D01*
X71928987Y-86941000D01*
X70734000Y-86941000D01*
X70724000Y-86941000D01*
X69529013Y-86941000D01*
X69443336Y-87113015D01*
X59374870Y-87113015D01*
X59611425Y-86758985D01*
X69443336Y-86758985D01*
X69529013Y-86931000D01*
X70724000Y-86931000D01*
X70724000Y-85836000D01*
X70734000Y-85836000D01*
X70734000Y-86931000D01*
X71928987Y-86931000D01*
X72014664Y-86758985D01*
X87985336Y-86758985D01*
X88071013Y-86931000D01*
X89266000Y-86931000D01*
X89266000Y-85836000D01*
X89276000Y-85836000D01*
X89276000Y-86931000D01*
X90470987Y-86931000D01*
X90556664Y-86758985D01*
X90489181Y-86519668D01*
X90252353Y-86161718D01*
X89896571Y-85921646D01*
X89476000Y-85836000D01*
X89276000Y-85836000D01*
X89266000Y-85836000D01*
X89066000Y-85836000D01*
X88645429Y-85921646D01*
X88289647Y-86161718D01*
X88052819Y-86519668D01*
X87985336Y-86758985D01*
X72014664Y-86758985D01*
X71947181Y-86519668D01*
X71710353Y-86161718D01*
X71354571Y-85921646D01*
X70934000Y-85836000D01*
X70734000Y-85836000D01*
X70724000Y-85836000D01*
X70524000Y-85836000D01*
X70103429Y-85921646D01*
X69747647Y-86161718D01*
X69510819Y-86519668D01*
X69443336Y-86758985D01*
X59611425Y-86758985D01*
X59615318Y-86753159D01*
X59733305Y-86160000D01*
X59615318Y-85566841D01*
X59279321Y-85063984D01*
X58776464Y-84727987D01*
X58183305Y-84610000D01*
X57816695Y-84610000D01*
X57223536Y-84727987D01*
X56720679Y-85063984D01*
X56384682Y-85566841D01*
X56266695Y-86160000D01*
X50450000Y-86160000D01*
X50450000Y-84501000D01*
X69429000Y-84501000D01*
X69429000Y-85175565D01*
X69489896Y-85322582D01*
X69602418Y-85435104D01*
X69749435Y-85496000D01*
X70624000Y-85496000D01*
X70724000Y-85396000D01*
X70724000Y-84401000D01*
X70734000Y-84401000D01*
X70734000Y-85396000D01*
X70834000Y-85496000D01*
X71708565Y-85496000D01*
X71855582Y-85435104D01*
X71968104Y-85322582D01*
X72029000Y-85175565D01*
X72029000Y-84501000D01*
X87971000Y-84501000D01*
X87971000Y-85175565D01*
X88031896Y-85322582D01*
X88144418Y-85435104D01*
X88291435Y-85496000D01*
X89166000Y-85496000D01*
X89266000Y-85396000D01*
X89266000Y-84401000D01*
X89276000Y-84401000D01*
X89276000Y-85396000D01*
X89376000Y-85496000D01*
X90250565Y-85496000D01*
X90397582Y-85435104D01*
X90510104Y-85322582D01*
X90571000Y-85175565D01*
X90571000Y-84501000D01*
X90471000Y-84401000D01*
X89276000Y-84401000D01*
X89266000Y-84401000D01*
X88071000Y-84401000D01*
X87971000Y-84501000D01*
X72029000Y-84501000D01*
X71929000Y-84401000D01*
X70734000Y-84401000D01*
X70724000Y-84401000D01*
X69529000Y-84401000D01*
X69429000Y-84501000D01*
X50450000Y-84501000D01*
X50450000Y-83616435D01*
X69429000Y-83616435D01*
X69429000Y-84291000D01*
X69529000Y-84391000D01*
X70724000Y-84391000D01*
X70724000Y-83396000D01*
X70734000Y-83396000D01*
X70734000Y-84391000D01*
X71929000Y-84391000D01*
X72029000Y-84291000D01*
X72029000Y-83616435D01*
X87971000Y-83616435D01*
X87971000Y-84291000D01*
X88071000Y-84391000D01*
X89266000Y-84391000D01*
X89266000Y-83396000D01*
X89276000Y-83396000D01*
X89276000Y-84391000D01*
X90471000Y-84391000D01*
X90571000Y-84291000D01*
X90571000Y-83616435D01*
X90510104Y-83469418D01*
X90397582Y-83356896D01*
X90250565Y-83296000D01*
X89376000Y-83296000D01*
X89276000Y-83396000D01*
X89266000Y-83396000D01*
X89166000Y-83296000D01*
X88291435Y-83296000D01*
X88144418Y-83356896D01*
X88031896Y-83469418D01*
X87971000Y-83616435D01*
X72029000Y-83616435D01*
X71968104Y-83469418D01*
X71855582Y-83356896D01*
X71708565Y-83296000D01*
X70834000Y-83296000D01*
X70734000Y-83396000D01*
X70724000Y-83396000D01*
X70624000Y-83296000D01*
X69749435Y-83296000D01*
X69602418Y-83356896D01*
X69489896Y-83469418D01*
X69429000Y-83616435D01*
X50450000Y-83616435D01*
X50450000Y-81080000D01*
X56266695Y-81080000D01*
X56384682Y-81673159D01*
X56720679Y-82176016D01*
X57223536Y-82512013D01*
X57816695Y-82630000D01*
X58183305Y-82630000D01*
X58776464Y-82512013D01*
X59279321Y-82176016D01*
X59615318Y-81673159D01*
X59733305Y-81080000D01*
X59615318Y-80486841D01*
X59279321Y-79983984D01*
X58776464Y-79647987D01*
X58183305Y-79530000D01*
X57816695Y-79530000D01*
X57223536Y-79647987D01*
X56720679Y-79983984D01*
X56384682Y-80486841D01*
X56266695Y-81080000D01*
X50450000Y-81080000D01*
X50450000Y-79377015D01*
X68914336Y-79377015D01*
X69064718Y-79779006D01*
X69357488Y-80092849D01*
X69748075Y-80270764D01*
X69822985Y-80285664D01*
X69995000Y-80199987D01*
X69995000Y-79205000D01*
X70005000Y-79205000D01*
X70005000Y-80199987D01*
X70177015Y-80285664D01*
X70251925Y-80270764D01*
X70642512Y-80092849D01*
X70935282Y-79779006D01*
X71085664Y-79377015D01*
X70999989Y-79205000D01*
X70005000Y-79205000D01*
X69995000Y-79205000D01*
X69000011Y-79205000D01*
X68914336Y-79377015D01*
X50450000Y-79377015D01*
X50450000Y-79022985D01*
X68914336Y-79022985D01*
X69000011Y-79195000D01*
X69995000Y-79195000D01*
X69995000Y-78200013D01*
X70005000Y-78200013D01*
X70005000Y-79195000D01*
X70999989Y-79195000D01*
X71085664Y-79022985D01*
X70935282Y-78620994D01*
X70642512Y-78307151D01*
X70251925Y-78129236D01*
X70177015Y-78114336D01*
X70005000Y-78200013D01*
X69995000Y-78200013D01*
X69822985Y-78114336D01*
X69748075Y-78129236D01*
X69357488Y-78307151D01*
X69064718Y-78620994D01*
X68914336Y-79022985D01*
X50450000Y-79022985D01*
X50450000Y-78900000D01*
X59500000Y-78900000D01*
X59645383Y-78872644D01*
X59778908Y-78786723D01*
X59868486Y-78655622D01*
X59900000Y-78500000D01*
X59900000Y-75000000D01*
X68892164Y-75000000D01*
X68892164Y-76400000D01*
X68920056Y-76548231D01*
X69007660Y-76684372D01*
X69141329Y-76775704D01*
X69300000Y-76807836D01*
X70700000Y-76807836D01*
X70848231Y-76779944D01*
X70984372Y-76692340D01*
X71075704Y-76558671D01*
X71107836Y-76400000D01*
X71107836Y-75000000D01*
X71079944Y-74851769D01*
X70992340Y-74715628D01*
X70858671Y-74624296D01*
X70700000Y-74592164D01*
X69300000Y-74592164D01*
X69151769Y-74620056D01*
X69015628Y-74707660D01*
X68924296Y-74841329D01*
X68892164Y-75000000D01*
X59900000Y-75000000D01*
X59900000Y-72743579D01*
X82224874Y-72743579D01*
X82300000Y-72925398D01*
X82300000Y-74195253D01*
X82275126Y-74255156D01*
X82274874Y-74543579D01*
X82385016Y-74810143D01*
X82588784Y-75014267D01*
X82855156Y-75124874D01*
X83143579Y-75125126D01*
X83410143Y-75014984D01*
X83614267Y-74811216D01*
X83724874Y-74544844D01*
X83725126Y-74256421D01*
X83614984Y-73989857D01*
X83600000Y-73974847D01*
X83600000Y-72925161D01*
X83674874Y-72744844D01*
X83675126Y-72456421D01*
X83564984Y-72189857D01*
X83361216Y-71985733D01*
X83094844Y-71875126D01*
X82806421Y-71874874D01*
X82539857Y-71985016D01*
X82335733Y-72188784D01*
X82225126Y-72455156D01*
X82224874Y-72743579D01*
X59900000Y-72743579D01*
X59900000Y-70238324D01*
X60154044Y-70618528D01*
X60543352Y-70878655D01*
X61002572Y-70970000D01*
X61457428Y-70970000D01*
X61916648Y-70878655D01*
X62305956Y-70618528D01*
X62500000Y-70328120D01*
X62694044Y-70618528D01*
X63083352Y-70878655D01*
X63542572Y-70970000D01*
X63997428Y-70970000D01*
X64456648Y-70878655D01*
X64845956Y-70618528D01*
X65106083Y-70229220D01*
X65197428Y-69770000D01*
X65106083Y-69310780D01*
X64845956Y-68921472D01*
X64456648Y-68661345D01*
X63997428Y-68570000D01*
X63542572Y-68570000D01*
X63083352Y-68661345D01*
X62694044Y-68921472D01*
X62500000Y-69211880D01*
X62305956Y-68921472D01*
X61916648Y-68661345D01*
X61457428Y-68570000D01*
X61002572Y-68570000D01*
X60543352Y-68661345D01*
X60154044Y-68921472D01*
X59900000Y-69301676D01*
X59900000Y-66530000D01*
X59922164Y-66530000D01*
X59922164Y-67930000D01*
X59950056Y-68078231D01*
X60037660Y-68214372D01*
X60171329Y-68305704D01*
X60330000Y-68337836D01*
X62130000Y-68337836D01*
X62278231Y-68309944D01*
X62414372Y-68222340D01*
X62505704Y-68088671D01*
X62537836Y-67930000D01*
X62537836Y-67665277D01*
X62766714Y-68007817D01*
X63123579Y-68246267D01*
X63544531Y-68330000D01*
X63995469Y-68330000D01*
X64416421Y-68246267D01*
X64773286Y-68007817D01*
X65011736Y-67650952D01*
X65079555Y-67310000D01*
X93654531Y-67310000D01*
X93738264Y-67730952D01*
X93976714Y-68087817D01*
X94333579Y-68326267D01*
X94754531Y-68410000D01*
X95205469Y-68410000D01*
X95626421Y-68326267D01*
X95983286Y-68087817D01*
X96221736Y-67730952D01*
X96250000Y-67588860D01*
X96278264Y-67730952D01*
X96516714Y-68087817D01*
X96873579Y-68326267D01*
X97294531Y-68410000D01*
X97745469Y-68410000D01*
X98166421Y-68326267D01*
X98523286Y-68087817D01*
X98761736Y-67730952D01*
X98845469Y-67310000D01*
X98761736Y-66889048D01*
X98523286Y-66532183D01*
X98166421Y-66293733D01*
X97745469Y-66210000D01*
X97294531Y-66210000D01*
X96873579Y-66293733D01*
X96516714Y-66532183D01*
X96278264Y-66889048D01*
X96250000Y-67031140D01*
X96221736Y-66889048D01*
X95983286Y-66532183D01*
X95626421Y-66293733D01*
X95205469Y-66210000D01*
X94754531Y-66210000D01*
X94333579Y-66293733D01*
X93976714Y-66532183D01*
X93738264Y-66889048D01*
X93654531Y-67310000D01*
X65079555Y-67310000D01*
X65095469Y-67230000D01*
X65011736Y-66809048D01*
X64773286Y-66452183D01*
X64416421Y-66213733D01*
X63995469Y-66130000D01*
X63544531Y-66130000D01*
X63123579Y-66213733D01*
X62766714Y-66452183D01*
X62537836Y-66794723D01*
X62537836Y-66530000D01*
X62509944Y-66381769D01*
X62422340Y-66245628D01*
X62288671Y-66154296D01*
X62130000Y-66122164D01*
X60330000Y-66122164D01*
X60181769Y-66150056D01*
X60045628Y-66237660D01*
X59954296Y-66371329D01*
X59922164Y-66530000D01*
X59900000Y-66530000D01*
X59900000Y-64770000D01*
X93654531Y-64770000D01*
X93738264Y-65190952D01*
X93976714Y-65547817D01*
X94333579Y-65786267D01*
X94754531Y-65870000D01*
X95205469Y-65870000D01*
X95626421Y-65786267D01*
X95983286Y-65547817D01*
X96221736Y-65190952D01*
X96250000Y-65048860D01*
X96278264Y-65190952D01*
X96516714Y-65547817D01*
X96873579Y-65786267D01*
X97294531Y-65870000D01*
X97745469Y-65870000D01*
X98166421Y-65786267D01*
X98523286Y-65547817D01*
X98761736Y-65190952D01*
X98845469Y-64770000D01*
X98761736Y-64349048D01*
X98523286Y-63992183D01*
X98166421Y-63753733D01*
X97745469Y-63670000D01*
X97294531Y-63670000D01*
X96873579Y-63753733D01*
X96516714Y-63992183D01*
X96278264Y-64349048D01*
X96250000Y-64491140D01*
X96221736Y-64349048D01*
X95983286Y-63992183D01*
X95626421Y-63753733D01*
X95205469Y-63670000D01*
X94754531Y-63670000D01*
X94333579Y-63753733D01*
X93976714Y-63992183D01*
X93738264Y-64349048D01*
X93654531Y-64770000D01*
X59900000Y-64770000D01*
X59900000Y-62230000D01*
X93654531Y-62230000D01*
X93738264Y-62650952D01*
X93976714Y-63007817D01*
X94333579Y-63246267D01*
X94754531Y-63330000D01*
X95205469Y-63330000D01*
X95626421Y-63246267D01*
X95983286Y-63007817D01*
X96221736Y-62650952D01*
X96250000Y-62508860D01*
X96278264Y-62650952D01*
X96516714Y-63007817D01*
X96873579Y-63246267D01*
X97294531Y-63330000D01*
X97745469Y-63330000D01*
X98166421Y-63246267D01*
X98523286Y-63007817D01*
X98761736Y-62650952D01*
X98845469Y-62230000D01*
X98761736Y-61809048D01*
X98523286Y-61452183D01*
X98166421Y-61213733D01*
X97745469Y-61130000D01*
X97294531Y-61130000D01*
X96873579Y-61213733D01*
X96516714Y-61452183D01*
X96278264Y-61809048D01*
X96250000Y-61951140D01*
X96221736Y-61809048D01*
X95983286Y-61452183D01*
X95626421Y-61213733D01*
X95205469Y-61130000D01*
X94754531Y-61130000D01*
X94333579Y-61213733D01*
X93976714Y-61452183D01*
X93738264Y-61809048D01*
X93654531Y-62230000D01*
X59900000Y-62230000D01*
X59900000Y-58990000D01*
X93672164Y-58990000D01*
X93672164Y-60390000D01*
X93700056Y-60538231D01*
X93787660Y-60674372D01*
X93921329Y-60765704D01*
X94080000Y-60797836D01*
X95880000Y-60797836D01*
X96028231Y-60769944D01*
X96164372Y-60682340D01*
X96255704Y-60548671D01*
X96287836Y-60390000D01*
X96287836Y-60125277D01*
X96516714Y-60467817D01*
X96873579Y-60706267D01*
X97294531Y-60790000D01*
X97745469Y-60790000D01*
X98166421Y-60706267D01*
X98523286Y-60467817D01*
X98761736Y-60110952D01*
X98845469Y-59690000D01*
X98761736Y-59269048D01*
X98523286Y-58912183D01*
X98166421Y-58673733D01*
X97745469Y-58590000D01*
X97294531Y-58590000D01*
X96873579Y-58673733D01*
X96516714Y-58912183D01*
X96287836Y-59254723D01*
X96287836Y-58990000D01*
X96259944Y-58841769D01*
X96172340Y-58705628D01*
X96038671Y-58614296D01*
X95880000Y-58582164D01*
X94080000Y-58582164D01*
X93931769Y-58610056D01*
X93795628Y-58697660D01*
X93704296Y-58831329D01*
X93672164Y-58990000D01*
X59900000Y-58990000D01*
X59900000Y-57130507D01*
X63551564Y-57130507D01*
X63569562Y-57275954D01*
X63832302Y-57394930D01*
X64120572Y-57404304D01*
X64390487Y-57302648D01*
X64430438Y-57275954D01*
X64448436Y-57130507D01*
X64000000Y-56682071D01*
X63551564Y-57130507D01*
X59900000Y-57130507D01*
X59900000Y-56795572D01*
X63270696Y-56795572D01*
X63372352Y-57065487D01*
X63399046Y-57105438D01*
X63544493Y-57123436D01*
X63992929Y-56675000D01*
X64007071Y-56675000D01*
X64455507Y-57123436D01*
X64600954Y-57105438D01*
X64719930Y-56842698D01*
X64729304Y-56554428D01*
X64651373Y-56347507D01*
X65443564Y-56347507D01*
X65461562Y-56492954D01*
X65724302Y-56611930D01*
X66012572Y-56621304D01*
X66282487Y-56519648D01*
X66322438Y-56492954D01*
X66340436Y-56347507D01*
X65892000Y-55899071D01*
X65443564Y-56347507D01*
X64651373Y-56347507D01*
X64627648Y-56284513D01*
X64600954Y-56244562D01*
X64455507Y-56226564D01*
X64007071Y-56675000D01*
X63992929Y-56675000D01*
X63544493Y-56226564D01*
X63399046Y-56244562D01*
X63280070Y-56507302D01*
X63270696Y-56795572D01*
X59900000Y-56795572D01*
X59900000Y-56347507D01*
X61659564Y-56347507D01*
X61677562Y-56492954D01*
X61940302Y-56611930D01*
X62228572Y-56621304D01*
X62498487Y-56519648D01*
X62538438Y-56492954D01*
X62556436Y-56347507D01*
X62108000Y-55899071D01*
X61659564Y-56347507D01*
X59900000Y-56347507D01*
X59900000Y-56012572D01*
X61378696Y-56012572D01*
X61480352Y-56282487D01*
X61507046Y-56322438D01*
X61652493Y-56340436D01*
X62100929Y-55892000D01*
X62115071Y-55892000D01*
X62563507Y-56340436D01*
X62708954Y-56322438D01*
X62755570Y-56219493D01*
X63551564Y-56219493D01*
X64000000Y-56667929D01*
X64448436Y-56219493D01*
X64430438Y-56074046D01*
X64294683Y-56012572D01*
X65162696Y-56012572D01*
X65264352Y-56282487D01*
X65291046Y-56322438D01*
X65436493Y-56340436D01*
X65884929Y-55892000D01*
X65899071Y-55892000D01*
X66347507Y-56340436D01*
X66492954Y-56322438D01*
X66611930Y-56059698D01*
X66621304Y-55771428D01*
X66519648Y-55501513D01*
X66492954Y-55461562D01*
X66347507Y-55443564D01*
X65899071Y-55892000D01*
X65884929Y-55892000D01*
X65436493Y-55443564D01*
X65291046Y-55461562D01*
X65172070Y-55724302D01*
X65162696Y-56012572D01*
X64294683Y-56012572D01*
X64167698Y-55955070D01*
X63879428Y-55945696D01*
X63609513Y-56047352D01*
X63569562Y-56074046D01*
X63551564Y-56219493D01*
X62755570Y-56219493D01*
X62827930Y-56059698D01*
X62837304Y-55771428D01*
X62735648Y-55501513D01*
X62708954Y-55461562D01*
X62563507Y-55443564D01*
X62115071Y-55892000D01*
X62100929Y-55892000D01*
X61652493Y-55443564D01*
X61507046Y-55461562D01*
X61388070Y-55724302D01*
X61378696Y-56012572D01*
X59900000Y-56012572D01*
X59900000Y-55436493D01*
X61659564Y-55436493D01*
X62108000Y-55884929D01*
X62556436Y-55436493D01*
X65443564Y-55436493D01*
X65892000Y-55884929D01*
X66340436Y-55436493D01*
X66322438Y-55291046D01*
X66059698Y-55172070D01*
X65771428Y-55162696D01*
X65501513Y-55264352D01*
X65461562Y-55291046D01*
X65443564Y-55436493D01*
X62556436Y-55436493D01*
X62538438Y-55291046D01*
X62275698Y-55172070D01*
X61987428Y-55162696D01*
X61717513Y-55264352D01*
X61677562Y-55291046D01*
X61659564Y-55436493D01*
X59900000Y-55436493D01*
X59900000Y-54455507D01*
X60876564Y-54455507D01*
X60894562Y-54600954D01*
X61157302Y-54719930D01*
X61445572Y-54729304D01*
X61715487Y-54627648D01*
X61755438Y-54600954D01*
X61773436Y-54455507D01*
X66226564Y-54455507D01*
X66244562Y-54600954D01*
X66507302Y-54719930D01*
X66795572Y-54729304D01*
X67065487Y-54627648D01*
X67105438Y-54600954D01*
X67123436Y-54455507D01*
X66675000Y-54007071D01*
X66226564Y-54455507D01*
X61773436Y-54455507D01*
X61325000Y-54007071D01*
X60876564Y-54455507D01*
X59900000Y-54455507D01*
X59900000Y-54120572D01*
X60595696Y-54120572D01*
X60697352Y-54390487D01*
X60724046Y-54430438D01*
X60869493Y-54448436D01*
X61317929Y-54000000D01*
X61332071Y-54000000D01*
X61780507Y-54448436D01*
X61925954Y-54430438D01*
X62044930Y-54167698D01*
X62046462Y-54120572D01*
X65945696Y-54120572D01*
X66047352Y-54390487D01*
X66074046Y-54430438D01*
X66219493Y-54448436D01*
X66667929Y-54000000D01*
X66682071Y-54000000D01*
X67130507Y-54448436D01*
X67275954Y-54430438D01*
X67394930Y-54167698D01*
X67404304Y-53879428D01*
X67302648Y-53609513D01*
X67275954Y-53569562D01*
X67130507Y-53551564D01*
X66682071Y-54000000D01*
X66667929Y-54000000D01*
X66219493Y-53551564D01*
X66074046Y-53569562D01*
X65955070Y-53832302D01*
X65945696Y-54120572D01*
X62046462Y-54120572D01*
X62054304Y-53879428D01*
X61952648Y-53609513D01*
X61925954Y-53569562D01*
X61780507Y-53551564D01*
X61332071Y-54000000D01*
X61317929Y-54000000D01*
X60869493Y-53551564D01*
X60724046Y-53569562D01*
X60605070Y-53832302D01*
X60595696Y-54120572D01*
X59900000Y-54120572D01*
X59900000Y-53544493D01*
X60876564Y-53544493D01*
X61325000Y-53992929D01*
X61773436Y-53544493D01*
X66226564Y-53544493D01*
X66675000Y-53992929D01*
X67123436Y-53544493D01*
X67105438Y-53399046D01*
X66842698Y-53280070D01*
X66554428Y-53270696D01*
X66284513Y-53372352D01*
X66244562Y-53399046D01*
X66226564Y-53544493D01*
X61773436Y-53544493D01*
X61755438Y-53399046D01*
X61492698Y-53280070D01*
X61204428Y-53270696D01*
X60934513Y-53372352D01*
X60894562Y-53399046D01*
X60876564Y-53544493D01*
X59900000Y-53544493D01*
X59900000Y-52563507D01*
X61659564Y-52563507D01*
X61677562Y-52708954D01*
X61940302Y-52827930D01*
X62228572Y-52837304D01*
X62498487Y-52735648D01*
X62538438Y-52708954D01*
X62556436Y-52563507D01*
X65443564Y-52563507D01*
X65461562Y-52708954D01*
X65724302Y-52827930D01*
X66012572Y-52837304D01*
X66282487Y-52735648D01*
X66322438Y-52708954D01*
X66340436Y-52563507D01*
X65892000Y-52115071D01*
X65443564Y-52563507D01*
X62556436Y-52563507D01*
X62108000Y-52115071D01*
X61659564Y-52563507D01*
X59900000Y-52563507D01*
X59900000Y-52228572D01*
X61378696Y-52228572D01*
X61480352Y-52498487D01*
X61507046Y-52538438D01*
X61652493Y-52556436D01*
X62100929Y-52108000D01*
X62115071Y-52108000D01*
X62563507Y-52556436D01*
X62708954Y-52538438D01*
X62827930Y-52275698D01*
X62829462Y-52228572D01*
X65162696Y-52228572D01*
X65264352Y-52498487D01*
X65291046Y-52538438D01*
X65436493Y-52556436D01*
X65884929Y-52108000D01*
X65899071Y-52108000D01*
X66347507Y-52556436D01*
X66492954Y-52538438D01*
X66611930Y-52275698D01*
X66621304Y-51987428D01*
X66519648Y-51717513D01*
X66492954Y-51677562D01*
X66347507Y-51659564D01*
X65899071Y-52108000D01*
X65884929Y-52108000D01*
X65436493Y-51659564D01*
X65291046Y-51677562D01*
X65172070Y-51940302D01*
X65162696Y-52228572D01*
X62829462Y-52228572D01*
X62837304Y-51987428D01*
X62759373Y-51780507D01*
X63551564Y-51780507D01*
X63569562Y-51925954D01*
X63832302Y-52044930D01*
X64120572Y-52054304D01*
X64390487Y-51952648D01*
X64430438Y-51925954D01*
X64448436Y-51780507D01*
X64000000Y-51332071D01*
X63551564Y-51780507D01*
X62759373Y-51780507D01*
X62735648Y-51717513D01*
X62708954Y-51677562D01*
X62563507Y-51659564D01*
X62115071Y-52108000D01*
X62100929Y-52108000D01*
X61652493Y-51659564D01*
X61507046Y-51677562D01*
X61388070Y-51940302D01*
X61378696Y-52228572D01*
X59900000Y-52228572D01*
X59900000Y-51652493D01*
X61659564Y-51652493D01*
X62108000Y-52100929D01*
X62556436Y-51652493D01*
X62538438Y-51507046D01*
X62402683Y-51445572D01*
X63270696Y-51445572D01*
X63372352Y-51715487D01*
X63399046Y-51755438D01*
X63544493Y-51773436D01*
X63992929Y-51325000D01*
X64007071Y-51325000D01*
X64455507Y-51773436D01*
X64600954Y-51755438D01*
X64647570Y-51652493D01*
X65443564Y-51652493D01*
X65892000Y-52100929D01*
X66340436Y-51652493D01*
X66322438Y-51507046D01*
X66059698Y-51388070D01*
X65771428Y-51378696D01*
X65501513Y-51480352D01*
X65461562Y-51507046D01*
X65443564Y-51652493D01*
X64647570Y-51652493D01*
X64719930Y-51492698D01*
X64729304Y-51204428D01*
X64627648Y-50934513D01*
X64600954Y-50894562D01*
X64455507Y-50876564D01*
X64007071Y-51325000D01*
X63992929Y-51325000D01*
X63544493Y-50876564D01*
X63399046Y-50894562D01*
X63280070Y-51157302D01*
X63270696Y-51445572D01*
X62402683Y-51445572D01*
X62275698Y-51388070D01*
X61987428Y-51378696D01*
X61717513Y-51480352D01*
X61677562Y-51507046D01*
X61659564Y-51652493D01*
X59900000Y-51652493D01*
X59900000Y-50869493D01*
X63551564Y-50869493D01*
X64000000Y-51317929D01*
X64448436Y-50869493D01*
X64430438Y-50724046D01*
X64167698Y-50605070D01*
X63879428Y-50595696D01*
X63609513Y-50697352D01*
X63569562Y-50724046D01*
X63551564Y-50869493D01*
X59900000Y-50869493D01*
X59900000Y-50450000D01*
X68900000Y-50450000D01*
X68900000Y-57500000D01*
M02*
