G04 #@! TF.FileFunction,Legend,Bot*
%FSLAX46Y46*%
G04 Gerber Fmt 4.6, Leading zero omitted, Abs format (unit mm)*
G04 Created by KiCad (PCBNEW 4.0.0-rc1-stable) date 2016-02-04 20:32:03*
%MOMM*%
G01*
G04 APERTURE LIST*
%ADD10C,0.100000*%
%ADD11C,0.200000*%
%ADD12C,0.152000*%
%ADD13C,0.381000*%
%ADD14R,2.000000X1.600000*%
%ADD15O,2.000000X1.600000*%
%ADD16R,1.600000X2.000000*%
%ADD17O,1.600000X2.000000*%
%ADD18C,7.700000*%
%ADD19C,0.850000*%
%ADD20R,1.600000X1.600000*%
%ADD21O,1.600000X1.600000*%
%ADD22R,1.500000X1.500000*%
%ADD23O,1.500000X1.500000*%
%ADD24R,2.800000X2.500000*%
%ADD25O,2.800000X2.500000*%
%ADD26C,0.254000*%
G04 APERTURE END LIST*
D10*
D11*
X71687857Y-51720714D02*
X70487857Y-51720714D01*
X70487857Y-52006429D01*
X70545000Y-52177857D01*
X70659286Y-52292143D01*
X70773571Y-52349286D01*
X71002143Y-52406429D01*
X71173571Y-52406429D01*
X71402143Y-52349286D01*
X71516429Y-52292143D01*
X71630714Y-52177857D01*
X71687857Y-52006429D01*
X71687857Y-51720714D01*
X71687857Y-52920714D02*
X70887857Y-52920714D01*
X71116429Y-52920714D02*
X71002143Y-52977857D01*
X70945000Y-53035000D01*
X70887857Y-53149286D01*
X70887857Y-53263571D01*
X70487857Y-53892143D02*
X70487857Y-54120714D01*
X70545000Y-54235000D01*
X70659286Y-54349286D01*
X70887857Y-54406428D01*
X71287857Y-54406428D01*
X71516429Y-54349286D01*
X71630714Y-54235000D01*
X71687857Y-54120714D01*
X71687857Y-53892143D01*
X71630714Y-53777857D01*
X71516429Y-53663571D01*
X71287857Y-53606428D01*
X70887857Y-53606428D01*
X70659286Y-53663571D01*
X70545000Y-53777857D01*
X70487857Y-53892143D01*
X71630714Y-55435000D02*
X71687857Y-55320714D01*
X71687857Y-55092143D01*
X71630714Y-54977857D01*
X71573571Y-54920714D01*
X71459286Y-54863571D01*
X71116429Y-54863571D01*
X71002143Y-54920714D01*
X70945000Y-54977857D01*
X70887857Y-55092143D01*
X70887857Y-55320714D01*
X70945000Y-55435000D01*
X70887857Y-55777857D02*
X70887857Y-56235000D01*
X70487857Y-55949285D02*
X71516429Y-55949285D01*
X71630714Y-56006428D01*
X71687857Y-56120714D01*
X71687857Y-56235000D01*
X71687857Y-56806428D02*
X71630714Y-56692142D01*
X71573571Y-56634999D01*
X71459286Y-56577856D01*
X71116429Y-56577856D01*
X71002143Y-56634999D01*
X70945000Y-56692142D01*
X70887857Y-56806428D01*
X70887857Y-56977856D01*
X70945000Y-57092142D01*
X71002143Y-57149285D01*
X71116429Y-57206428D01*
X71459286Y-57206428D01*
X71573571Y-57149285D01*
X71630714Y-57092142D01*
X71687857Y-56977856D01*
X71687857Y-56806428D01*
X70887857Y-57720713D02*
X72087857Y-57720713D01*
X70945000Y-57720713D02*
X70887857Y-57834999D01*
X70887857Y-58063570D01*
X70945000Y-58177856D01*
X71002143Y-58234999D01*
X71116429Y-58292142D01*
X71459286Y-58292142D01*
X71573571Y-58234999D01*
X71630714Y-58177856D01*
X71687857Y-58063570D01*
X71687857Y-57834999D01*
X71630714Y-57720713D01*
X70887857Y-59320713D02*
X71687857Y-59320713D01*
X70887857Y-58806427D02*
X71516429Y-58806427D01*
X71630714Y-58863570D01*
X71687857Y-58977856D01*
X71687857Y-59149284D01*
X71630714Y-59263570D01*
X71573571Y-59320713D01*
X71630714Y-59834998D02*
X71687857Y-59949284D01*
X71687857Y-60177856D01*
X71630714Y-60292141D01*
X71516429Y-60349284D01*
X71459286Y-60349284D01*
X71345000Y-60292141D01*
X71287857Y-60177856D01*
X71287857Y-60006427D01*
X71230714Y-59892141D01*
X71116429Y-59834998D01*
X71059286Y-59834998D01*
X70945000Y-59892141D01*
X70887857Y-60006427D01*
X70887857Y-60177856D01*
X70945000Y-60292141D01*
X70887857Y-61663571D02*
X71687857Y-61949285D01*
X70887857Y-62234999D01*
X70602143Y-62634999D02*
X70545000Y-62692142D01*
X70487857Y-62806428D01*
X70487857Y-63092142D01*
X70545000Y-63206428D01*
X70602143Y-63263571D01*
X70716429Y-63320714D01*
X70830714Y-63320714D01*
X71002143Y-63263571D01*
X71687857Y-62577857D01*
X71687857Y-63320714D01*
X71573571Y-63834999D02*
X71630714Y-63892142D01*
X71687857Y-63834999D01*
X71630714Y-63777856D01*
X71573571Y-63834999D01*
X71687857Y-63834999D01*
X70487857Y-64635000D02*
X70487857Y-64749285D01*
X70545000Y-64863571D01*
X70602143Y-64920714D01*
X70716429Y-64977857D01*
X70945000Y-65035000D01*
X71230714Y-65035000D01*
X71459286Y-64977857D01*
X71573571Y-64920714D01*
X71630714Y-64863571D01*
X71687857Y-64749285D01*
X71687857Y-64635000D01*
X71630714Y-64520714D01*
X71573571Y-64463571D01*
X71459286Y-64406428D01*
X71230714Y-64349285D01*
X70945000Y-64349285D01*
X70716429Y-64406428D01*
X70602143Y-64463571D01*
X70545000Y-64520714D01*
X70487857Y-64635000D01*
X73567857Y-51720714D02*
X72367857Y-51720714D01*
X73567857Y-52235000D02*
X72939286Y-52235000D01*
X72825000Y-52177857D01*
X72767857Y-52063571D01*
X72767857Y-51892143D01*
X72825000Y-51777857D01*
X72882143Y-51720714D01*
X72767857Y-52635000D02*
X72767857Y-53092143D01*
X72367857Y-52806428D02*
X73396429Y-52806428D01*
X73510714Y-52863571D01*
X73567857Y-52977857D01*
X73567857Y-53092143D01*
X72767857Y-53320714D02*
X72767857Y-53777857D01*
X72367857Y-53492142D02*
X73396429Y-53492142D01*
X73510714Y-53549285D01*
X73567857Y-53663571D01*
X73567857Y-53777857D01*
X72767857Y-54177856D02*
X73967857Y-54177856D01*
X72825000Y-54177856D02*
X72767857Y-54292142D01*
X72767857Y-54520713D01*
X72825000Y-54634999D01*
X72882143Y-54692142D01*
X72996429Y-54749285D01*
X73339286Y-54749285D01*
X73453571Y-54692142D01*
X73510714Y-54634999D01*
X73567857Y-54520713D01*
X73567857Y-54292142D01*
X73510714Y-54177856D01*
X73453571Y-55263570D02*
X73510714Y-55320713D01*
X73567857Y-55263570D01*
X73510714Y-55206427D01*
X73453571Y-55263570D01*
X73567857Y-55263570D01*
X72825000Y-55263570D02*
X72882143Y-55320713D01*
X72939286Y-55263570D01*
X72882143Y-55206427D01*
X72825000Y-55263570D01*
X72939286Y-55263570D01*
X72310714Y-56692142D02*
X73853571Y-55663571D01*
X72310714Y-57949285D02*
X73853571Y-56920714D01*
X72767857Y-58349285D02*
X73567857Y-58349285D01*
X72882143Y-58349285D02*
X72825000Y-58406428D01*
X72767857Y-58520714D01*
X72767857Y-58692142D01*
X72825000Y-58806428D01*
X72939286Y-58863571D01*
X73567857Y-58863571D01*
X73567857Y-59434999D02*
X72767857Y-59434999D01*
X72367857Y-59434999D02*
X72425000Y-59377856D01*
X72482143Y-59434999D01*
X72425000Y-59492142D01*
X72367857Y-59434999D01*
X72482143Y-59434999D01*
X73510714Y-60520714D02*
X73567857Y-60406428D01*
X73567857Y-60177857D01*
X73510714Y-60063571D01*
X73453571Y-60006428D01*
X73339286Y-59949285D01*
X72996429Y-59949285D01*
X72882143Y-60006428D01*
X72825000Y-60063571D01*
X72767857Y-60177857D01*
X72767857Y-60406428D01*
X72825000Y-60520714D01*
X73510714Y-61492142D02*
X73567857Y-61377856D01*
X73567857Y-61149285D01*
X73510714Y-61034999D01*
X73396429Y-60977856D01*
X72939286Y-60977856D01*
X72825000Y-61034999D01*
X72767857Y-61149285D01*
X72767857Y-61377856D01*
X72825000Y-61492142D01*
X72939286Y-61549285D01*
X73053571Y-61549285D01*
X73167857Y-60977856D01*
X73510714Y-62577856D02*
X73567857Y-62463570D01*
X73567857Y-62234999D01*
X73510714Y-62120713D01*
X73453571Y-62063570D01*
X73339286Y-62006427D01*
X72996429Y-62006427D01*
X72882143Y-62063570D01*
X72825000Y-62120713D01*
X72767857Y-62234999D01*
X72767857Y-62463570D01*
X72825000Y-62577856D01*
X73567857Y-63092141D02*
X72767857Y-63092141D01*
X72367857Y-63092141D02*
X72425000Y-63034998D01*
X72482143Y-63092141D01*
X72425000Y-63149284D01*
X72367857Y-63092141D01*
X72482143Y-63092141D01*
X73567857Y-63663570D02*
X72767857Y-63663570D01*
X72996429Y-63663570D02*
X72882143Y-63720713D01*
X72825000Y-63777856D01*
X72767857Y-63892142D01*
X72767857Y-64006427D01*
X73510714Y-64920713D02*
X73567857Y-64806427D01*
X73567857Y-64577856D01*
X73510714Y-64463570D01*
X73453571Y-64406427D01*
X73339286Y-64349284D01*
X72996429Y-64349284D01*
X72882143Y-64406427D01*
X72825000Y-64463570D01*
X72767857Y-64577856D01*
X72767857Y-64806427D01*
X72825000Y-64920713D01*
X72767857Y-65949284D02*
X73567857Y-65949284D01*
X72767857Y-65434998D02*
X73396429Y-65434998D01*
X73510714Y-65492141D01*
X73567857Y-65606427D01*
X73567857Y-65777855D01*
X73510714Y-65892141D01*
X73453571Y-65949284D01*
X73567857Y-66520712D02*
X72767857Y-66520712D01*
X72367857Y-66520712D02*
X72425000Y-66463569D01*
X72482143Y-66520712D01*
X72425000Y-66577855D01*
X72367857Y-66520712D01*
X72482143Y-66520712D01*
X72767857Y-66920713D02*
X72767857Y-67377856D01*
X72367857Y-67092141D02*
X73396429Y-67092141D01*
X73510714Y-67149284D01*
X73567857Y-67263570D01*
X73567857Y-67377856D01*
X73510714Y-67720712D02*
X73567857Y-67834998D01*
X73567857Y-68063570D01*
X73510714Y-68177855D01*
X73396429Y-68234998D01*
X73339286Y-68234998D01*
X73225000Y-68177855D01*
X73167857Y-68063570D01*
X73167857Y-67892141D01*
X73110714Y-67777855D01*
X72996429Y-67720712D01*
X72939286Y-67720712D01*
X72825000Y-67777855D01*
X72767857Y-67892141D01*
X72767857Y-68063570D01*
X72825000Y-68177855D01*
X73453571Y-68749284D02*
X73510714Y-68806427D01*
X73567857Y-68749284D01*
X73510714Y-68692141D01*
X73453571Y-68749284D01*
X73567857Y-68749284D01*
X73510714Y-69834999D02*
X73567857Y-69720713D01*
X73567857Y-69492142D01*
X73510714Y-69377856D01*
X73453571Y-69320713D01*
X73339286Y-69263570D01*
X72996429Y-69263570D01*
X72882143Y-69320713D01*
X72825000Y-69377856D01*
X72767857Y-69492142D01*
X72767857Y-69720713D01*
X72825000Y-69834999D01*
X73567857Y-70520713D02*
X73510714Y-70406427D01*
X73453571Y-70349284D01*
X73339286Y-70292141D01*
X72996429Y-70292141D01*
X72882143Y-70349284D01*
X72825000Y-70406427D01*
X72767857Y-70520713D01*
X72767857Y-70692141D01*
X72825000Y-70806427D01*
X72882143Y-70863570D01*
X72996429Y-70920713D01*
X73339286Y-70920713D01*
X73453571Y-70863570D01*
X73510714Y-70806427D01*
X73567857Y-70692141D01*
X73567857Y-70520713D01*
X73567857Y-71434998D02*
X72767857Y-71434998D01*
X72882143Y-71434998D02*
X72825000Y-71492141D01*
X72767857Y-71606427D01*
X72767857Y-71777855D01*
X72825000Y-71892141D01*
X72939286Y-71949284D01*
X73567857Y-71949284D01*
X72939286Y-71949284D02*
X72825000Y-72006427D01*
X72767857Y-72120713D01*
X72767857Y-72292141D01*
X72825000Y-72406427D01*
X72939286Y-72463570D01*
X73567857Y-72463570D01*
X72310714Y-73892141D02*
X73853571Y-72863570D01*
X73567857Y-74292141D02*
X72367857Y-74292141D01*
X72367857Y-74577856D01*
X72425000Y-74749284D01*
X72539286Y-74863570D01*
X72653571Y-74920713D01*
X72882143Y-74977856D01*
X73053571Y-74977856D01*
X73282143Y-74920713D01*
X73396429Y-74863570D01*
X73510714Y-74749284D01*
X73567857Y-74577856D01*
X73567857Y-74292141D01*
X73567857Y-75492141D02*
X72767857Y-75492141D01*
X72996429Y-75492141D02*
X72882143Y-75549284D01*
X72825000Y-75606427D01*
X72767857Y-75720713D01*
X72767857Y-75834998D01*
X72367857Y-76463570D02*
X72367857Y-76692141D01*
X72425000Y-76806427D01*
X72539286Y-76920713D01*
X72767857Y-76977855D01*
X73167857Y-76977855D01*
X73396429Y-76920713D01*
X73510714Y-76806427D01*
X73567857Y-76692141D01*
X73567857Y-76463570D01*
X73510714Y-76349284D01*
X73396429Y-76234998D01*
X73167857Y-76177855D01*
X72767857Y-76177855D01*
X72539286Y-76234998D01*
X72425000Y-76349284D01*
X72367857Y-76463570D01*
X73510714Y-78006427D02*
X73567857Y-77892141D01*
X73567857Y-77663570D01*
X73510714Y-77549284D01*
X73453571Y-77492141D01*
X73339286Y-77434998D01*
X72996429Y-77434998D01*
X72882143Y-77492141D01*
X72825000Y-77549284D01*
X72767857Y-77663570D01*
X72767857Y-77892141D01*
X72825000Y-78006427D01*
X72767857Y-78349284D02*
X72767857Y-78806427D01*
X72367857Y-78520712D02*
X73396429Y-78520712D01*
X73510714Y-78577855D01*
X73567857Y-78692141D01*
X73567857Y-78806427D01*
X73567857Y-79377855D02*
X73510714Y-79263569D01*
X73453571Y-79206426D01*
X73339286Y-79149283D01*
X72996429Y-79149283D01*
X72882143Y-79206426D01*
X72825000Y-79263569D01*
X72767857Y-79377855D01*
X72767857Y-79549283D01*
X72825000Y-79663569D01*
X72882143Y-79720712D01*
X72996429Y-79777855D01*
X73339286Y-79777855D01*
X73453571Y-79720712D01*
X73510714Y-79663569D01*
X73567857Y-79549283D01*
X73567857Y-79377855D01*
X72767857Y-80292140D02*
X73967857Y-80292140D01*
X72825000Y-80292140D02*
X72767857Y-80406426D01*
X72767857Y-80634997D01*
X72825000Y-80749283D01*
X72882143Y-80806426D01*
X72996429Y-80863569D01*
X73339286Y-80863569D01*
X73453571Y-80806426D01*
X73510714Y-80749283D01*
X73567857Y-80634997D01*
X73567857Y-80406426D01*
X73510714Y-80292140D01*
X72767857Y-81892140D02*
X73567857Y-81892140D01*
X72767857Y-81377854D02*
X73396429Y-81377854D01*
X73510714Y-81434997D01*
X73567857Y-81549283D01*
X73567857Y-81720711D01*
X73510714Y-81834997D01*
X73453571Y-81892140D01*
X73510714Y-82406425D02*
X73567857Y-82520711D01*
X73567857Y-82749283D01*
X73510714Y-82863568D01*
X73396429Y-82920711D01*
X73339286Y-82920711D01*
X73225000Y-82863568D01*
X73167857Y-82749283D01*
X73167857Y-82577854D01*
X73110714Y-82463568D01*
X72996429Y-82406425D01*
X72939286Y-82406425D01*
X72825000Y-82463568D01*
X72767857Y-82577854D01*
X72767857Y-82749283D01*
X72825000Y-82863568D01*
X72310714Y-84292140D02*
X73853571Y-83263569D01*
X74362143Y-51663571D02*
X74305000Y-51720714D01*
X74247857Y-51835000D01*
X74247857Y-52120714D01*
X74305000Y-52235000D01*
X74362143Y-52292143D01*
X74476429Y-52349286D01*
X74590714Y-52349286D01*
X74762143Y-52292143D01*
X75447857Y-51606429D01*
X75447857Y-52349286D01*
X74247857Y-53092143D02*
X74247857Y-53206428D01*
X74305000Y-53320714D01*
X74362143Y-53377857D01*
X74476429Y-53435000D01*
X74705000Y-53492143D01*
X74990714Y-53492143D01*
X75219286Y-53435000D01*
X75333571Y-53377857D01*
X75390714Y-53320714D01*
X75447857Y-53206428D01*
X75447857Y-53092143D01*
X75390714Y-52977857D01*
X75333571Y-52920714D01*
X75219286Y-52863571D01*
X74990714Y-52806428D01*
X74705000Y-52806428D01*
X74476429Y-52863571D01*
X74362143Y-52920714D01*
X74305000Y-52977857D01*
X74247857Y-53092143D01*
X75447857Y-54635000D02*
X75447857Y-53949285D01*
X75447857Y-54292143D02*
X74247857Y-54292143D01*
X74419286Y-54177857D01*
X74533571Y-54063571D01*
X74590714Y-53949285D01*
X74247857Y-55663571D02*
X74247857Y-55435000D01*
X74305000Y-55320714D01*
X74362143Y-55263571D01*
X74533571Y-55149285D01*
X74762143Y-55092142D01*
X75219286Y-55092142D01*
X75333571Y-55149285D01*
X75390714Y-55206428D01*
X75447857Y-55320714D01*
X75447857Y-55549285D01*
X75390714Y-55663571D01*
X75333571Y-55720714D01*
X75219286Y-55777857D01*
X74933571Y-55777857D01*
X74819286Y-55720714D01*
X74762143Y-55663571D01*
X74705000Y-55549285D01*
X74705000Y-55320714D01*
X74762143Y-55206428D01*
X74819286Y-55149285D01*
X74933571Y-55092142D01*
X75333571Y-56292142D02*
X75390714Y-56349285D01*
X75447857Y-56292142D01*
X75390714Y-56234999D01*
X75333571Y-56292142D01*
X75447857Y-56292142D01*
X74247857Y-57092143D02*
X74247857Y-57206428D01*
X74305000Y-57320714D01*
X74362143Y-57377857D01*
X74476429Y-57435000D01*
X74705000Y-57492143D01*
X74990714Y-57492143D01*
X75219286Y-57435000D01*
X75333571Y-57377857D01*
X75390714Y-57320714D01*
X75447857Y-57206428D01*
X75447857Y-57092143D01*
X75390714Y-56977857D01*
X75333571Y-56920714D01*
X75219286Y-56863571D01*
X74990714Y-56806428D01*
X74705000Y-56806428D01*
X74476429Y-56863571D01*
X74362143Y-56920714D01*
X74305000Y-56977857D01*
X74247857Y-57092143D01*
X74362143Y-57949285D02*
X74305000Y-58006428D01*
X74247857Y-58120714D01*
X74247857Y-58406428D01*
X74305000Y-58520714D01*
X74362143Y-58577857D01*
X74476429Y-58635000D01*
X74590714Y-58635000D01*
X74762143Y-58577857D01*
X75447857Y-57892143D01*
X75447857Y-58635000D01*
X75447857Y-60063571D02*
X74247857Y-60063571D01*
X74247857Y-60520714D01*
X74305000Y-60635000D01*
X74362143Y-60692143D01*
X74476429Y-60749286D01*
X74647857Y-60749286D01*
X74762143Y-60692143D01*
X74819286Y-60635000D01*
X74876429Y-60520714D01*
X74876429Y-60063571D01*
X75447857Y-61263571D02*
X74647857Y-61263571D01*
X74247857Y-61263571D02*
X74305000Y-61206428D01*
X74362143Y-61263571D01*
X74305000Y-61320714D01*
X74247857Y-61263571D01*
X74362143Y-61263571D01*
X75447857Y-62006429D02*
X75390714Y-61892143D01*
X75333571Y-61835000D01*
X75219286Y-61777857D01*
X74876429Y-61777857D01*
X74762143Y-61835000D01*
X74705000Y-61892143D01*
X74647857Y-62006429D01*
X74647857Y-62177857D01*
X74705000Y-62292143D01*
X74762143Y-62349286D01*
X74876429Y-62406429D01*
X75219286Y-62406429D01*
X75333571Y-62349286D01*
X75390714Y-62292143D01*
X75447857Y-62177857D01*
X75447857Y-62006429D01*
X74647857Y-62749286D02*
X74647857Y-63206429D01*
X74247857Y-62920714D02*
X75276429Y-62920714D01*
X75390714Y-62977857D01*
X75447857Y-63092143D01*
X75447857Y-63206429D01*
X75447857Y-63606428D02*
X74647857Y-63606428D01*
X74876429Y-63606428D02*
X74762143Y-63663571D01*
X74705000Y-63720714D01*
X74647857Y-63835000D01*
X74647857Y-63949285D01*
X75447857Y-65263571D02*
X74247857Y-65263571D01*
X75447857Y-65949286D01*
X74247857Y-65949286D01*
X75447857Y-66692143D02*
X75390714Y-66577857D01*
X75333571Y-66520714D01*
X75219286Y-66463571D01*
X74876429Y-66463571D01*
X74762143Y-66520714D01*
X74705000Y-66577857D01*
X74647857Y-66692143D01*
X74647857Y-66863571D01*
X74705000Y-66977857D01*
X74762143Y-67035000D01*
X74876429Y-67092143D01*
X75219286Y-67092143D01*
X75333571Y-67035000D01*
X75390714Y-66977857D01*
X75447857Y-66863571D01*
X75447857Y-66692143D01*
X74647857Y-67492143D02*
X75447857Y-67720714D01*
X74876429Y-67949285D01*
X75447857Y-68177857D01*
X74647857Y-68406428D01*
X75447857Y-68863571D02*
X74647857Y-68863571D01*
X74247857Y-68863571D02*
X74305000Y-68806428D01*
X74362143Y-68863571D01*
X74305000Y-68920714D01*
X74247857Y-68863571D01*
X74362143Y-68863571D01*
X75390714Y-69949286D02*
X75447857Y-69835000D01*
X75447857Y-69606429D01*
X75390714Y-69492143D01*
X75333571Y-69435000D01*
X75219286Y-69377857D01*
X74876429Y-69377857D01*
X74762143Y-69435000D01*
X74705000Y-69492143D01*
X74647857Y-69606429D01*
X74647857Y-69835000D01*
X74705000Y-69949286D01*
X75447857Y-70463571D02*
X74247857Y-70463571D01*
X74990714Y-70577857D02*
X75447857Y-70920714D01*
X74647857Y-70920714D02*
X75105000Y-70463571D01*
X75447857Y-71435000D02*
X74647857Y-71435000D01*
X74247857Y-71435000D02*
X74305000Y-71377857D01*
X74362143Y-71435000D01*
X74305000Y-71492143D01*
X74247857Y-71435000D01*
X74362143Y-71435000D01*
D12*
X55285714Y-91571429D02*
X54523809Y-91571429D01*
X54904761Y-91952381D02*
X54904761Y-91190476D01*
X53619047Y-90952381D02*
X53809524Y-90952381D01*
X53904762Y-91000000D01*
X53952381Y-91047619D01*
X54047619Y-91190476D01*
X54095238Y-91380952D01*
X54095238Y-91761905D01*
X54047619Y-91857143D01*
X54000000Y-91904762D01*
X53904762Y-91952381D01*
X53714285Y-91952381D01*
X53619047Y-91904762D01*
X53571428Y-91857143D01*
X53523809Y-91761905D01*
X53523809Y-91523810D01*
X53571428Y-91428571D01*
X53619047Y-91380952D01*
X53714285Y-91333333D01*
X53904762Y-91333333D01*
X54000000Y-91380952D01*
X54047619Y-91428571D01*
X54095238Y-91523810D01*
X53238095Y-90952381D02*
X52904762Y-91952381D01*
X52571428Y-90952381D01*
X55961905Y-76071429D02*
X55200000Y-76071429D01*
X55580952Y-76452381D02*
X55580952Y-75690476D01*
X54200000Y-76452381D02*
X54771429Y-76452381D01*
X54485715Y-76452381D02*
X54485715Y-75452381D01*
X54580953Y-75595238D01*
X54676191Y-75690476D01*
X54771429Y-75738095D01*
X53819048Y-75547619D02*
X53771429Y-75500000D01*
X53676191Y-75452381D01*
X53438095Y-75452381D01*
X53342857Y-75500000D01*
X53295238Y-75547619D01*
X53247619Y-75642857D01*
X53247619Y-75738095D01*
X53295238Y-75880952D01*
X53866667Y-76452381D01*
X53247619Y-76452381D01*
X52961905Y-75452381D02*
X52628572Y-76452381D01*
X52295238Y-75452381D01*
X54761904Y-85500000D02*
X54857142Y-85452381D01*
X54999999Y-85452381D01*
X55142857Y-85500000D01*
X55238095Y-85595238D01*
X55285714Y-85690476D01*
X55333333Y-85880952D01*
X55333333Y-86023810D01*
X55285714Y-86214286D01*
X55238095Y-86309524D01*
X55142857Y-86404762D01*
X54999999Y-86452381D01*
X54904761Y-86452381D01*
X54761904Y-86404762D01*
X54714285Y-86357143D01*
X54714285Y-86023810D01*
X54904761Y-86023810D01*
X54285714Y-86452381D02*
X54285714Y-85452381D01*
X53714285Y-86452381D01*
X53714285Y-85452381D01*
X53238095Y-86452381D02*
X53238095Y-85452381D01*
X53000000Y-85452381D01*
X52857142Y-85500000D01*
X52761904Y-85595238D01*
X52714285Y-85690476D01*
X52666666Y-85880952D01*
X52666666Y-86023810D01*
X52714285Y-86214286D01*
X52761904Y-86309524D01*
X52857142Y-86404762D01*
X53000000Y-86452381D01*
X53238095Y-86452381D01*
X54761904Y-80500000D02*
X54857142Y-80452381D01*
X54999999Y-80452381D01*
X55142857Y-80500000D01*
X55238095Y-80595238D01*
X55285714Y-80690476D01*
X55333333Y-80880952D01*
X55333333Y-81023810D01*
X55285714Y-81214286D01*
X55238095Y-81309524D01*
X55142857Y-81404762D01*
X54999999Y-81452381D01*
X54904761Y-81452381D01*
X54761904Y-81404762D01*
X54714285Y-81357143D01*
X54714285Y-81023810D01*
X54904761Y-81023810D01*
X54285714Y-81452381D02*
X54285714Y-80452381D01*
X53714285Y-81452381D01*
X53714285Y-80452381D01*
X53238095Y-81452381D02*
X53238095Y-80452381D01*
X53000000Y-80452381D01*
X52857142Y-80500000D01*
X52761904Y-80595238D01*
X52714285Y-80690476D01*
X52666666Y-80880952D01*
X52666666Y-81023810D01*
X52714285Y-81214286D01*
X52761904Y-81309524D01*
X52857142Y-81404762D01*
X53000000Y-81452381D01*
X53238095Y-81452381D01*
X55961905Y-53071429D02*
X55200000Y-53071429D01*
X55580952Y-53452381D02*
X55580952Y-52690476D01*
X54200000Y-53452381D02*
X54771429Y-53452381D01*
X54485715Y-53452381D02*
X54485715Y-52452381D01*
X54580953Y-52595238D01*
X54676191Y-52690476D01*
X54771429Y-52738095D01*
X53819048Y-52547619D02*
X53771429Y-52500000D01*
X53676191Y-52452381D01*
X53438095Y-52452381D01*
X53342857Y-52500000D01*
X53295238Y-52547619D01*
X53247619Y-52642857D01*
X53247619Y-52738095D01*
X53295238Y-52880952D01*
X53866667Y-53452381D01*
X53247619Y-53452381D01*
X52961905Y-52452381D02*
X52628572Y-53452381D01*
X52295238Y-52452381D01*
X54961904Y-69000000D02*
X55057142Y-68952381D01*
X55199999Y-68952381D01*
X55342857Y-69000000D01*
X55438095Y-69095238D01*
X55485714Y-69190476D01*
X55533333Y-69380952D01*
X55533333Y-69523810D01*
X55485714Y-69714286D01*
X55438095Y-69809524D01*
X55342857Y-69904762D01*
X55199999Y-69952381D01*
X55104761Y-69952381D01*
X54961904Y-69904762D01*
X54914285Y-69857143D01*
X54914285Y-69523810D01*
X55104761Y-69523810D01*
X54485714Y-69952381D02*
X54485714Y-68952381D01*
X53914285Y-69952381D01*
X53914285Y-68952381D01*
X53438095Y-69952381D02*
X53438095Y-68952381D01*
X53200000Y-68952381D01*
X53057142Y-69000000D01*
X52961904Y-69095238D01*
X52914285Y-69190476D01*
X52866666Y-69380952D01*
X52866666Y-69523810D01*
X52914285Y-69714286D01*
X52961904Y-69809524D01*
X53057142Y-69904762D01*
X53200000Y-69952381D01*
X53438095Y-69952381D01*
D13*
X94550000Y-78380000D02*
X96100000Y-77330000D01*
X94499900Y-73580200D02*
X94400840Y-73481140D01*
X94400840Y-73481140D02*
X94299240Y-73280480D01*
X94299240Y-73280480D02*
X94299240Y-72980760D01*
X94299240Y-72980760D02*
X94400840Y-72681040D01*
X94400840Y-72681040D02*
X94799620Y-72480380D01*
X94799620Y-72480380D02*
X95300000Y-72378780D01*
X95300000Y-72378780D02*
X95698780Y-72378780D01*
X95698780Y-72378780D02*
X96100100Y-72579440D01*
X96100100Y-72579440D02*
X96300760Y-72980760D01*
X96300760Y-72980760D02*
X96300760Y-73178880D01*
X96300760Y-73178880D02*
X96300760Y-73481140D01*
X96300760Y-73481140D02*
X96100100Y-73580200D01*
X94499900Y-71581220D02*
X94400840Y-71479620D01*
X94400840Y-71479620D02*
X94299240Y-71179900D01*
X94299240Y-71179900D02*
X94400840Y-70781120D01*
X94400840Y-70781120D02*
X94598960Y-70478860D01*
X94598960Y-70478860D02*
X95000280Y-70379800D01*
X95000280Y-70379800D02*
X95399060Y-70379800D01*
X95399060Y-70379800D02*
X95899440Y-70478860D01*
X95899440Y-70478860D02*
X96199160Y-70679520D01*
X96199160Y-70679520D02*
X96300760Y-70979240D01*
X96300760Y-70979240D02*
X96300760Y-71380560D01*
X96300760Y-71380560D02*
X96100100Y-71581220D01*
X92800640Y-71980000D02*
X92800640Y-71880940D01*
X92800640Y-71880940D02*
X92899700Y-71278960D01*
X92899700Y-71278960D02*
X93100360Y-70781120D01*
X93100360Y-70781120D02*
X93499140Y-70280740D01*
X93499140Y-70280740D02*
X94101120Y-69780360D01*
X94101120Y-69780360D02*
X94499900Y-69579700D01*
X94499900Y-69579700D02*
X95000280Y-69480640D01*
X95000280Y-69480640D02*
X95599720Y-69480640D01*
X95599720Y-69480640D02*
X96399820Y-69678760D01*
X96399820Y-69678760D02*
X97100860Y-70280740D01*
X97100860Y-70280740D02*
X97499640Y-70781120D01*
X97499640Y-70781120D02*
X97799360Y-71479620D01*
X97799360Y-71479620D02*
X97799360Y-72279720D01*
X97799360Y-72279720D02*
X97601240Y-72879160D01*
X97601240Y-72879160D02*
X97298980Y-73481140D01*
X97298980Y-73481140D02*
X96801140Y-73978980D01*
X96801140Y-73978980D02*
X96100100Y-74380300D01*
X96100100Y-74380300D02*
X95500660Y-74479360D01*
X95500660Y-74479360D02*
X94901220Y-74479360D01*
X94901220Y-74479360D02*
X94299240Y-74281240D01*
X94299240Y-74281240D02*
X93798860Y-73978980D01*
X93798860Y-73978980D02*
X93301020Y-73481140D01*
X93301020Y-73481140D02*
X92998760Y-72980760D01*
X92998760Y-72980760D02*
X92899700Y-72579440D01*
X92899700Y-72579440D02*
X92800640Y-71980000D01*
X94150000Y-77830000D02*
X94250000Y-78130000D01*
X94250000Y-78130000D02*
X94550000Y-78380000D01*
X94550000Y-78380000D02*
X94950000Y-78530000D01*
X94950000Y-78530000D02*
X95400000Y-78530000D01*
X95400000Y-78530000D02*
X95750000Y-78530000D01*
X95750000Y-78530000D02*
X96200000Y-78330000D01*
X96200000Y-78330000D02*
X96450000Y-78180000D01*
X96450000Y-78180000D02*
X96650000Y-77880000D01*
X96650000Y-77880000D02*
X96600000Y-77580000D01*
X96600000Y-77580000D02*
X96350000Y-77330000D01*
X96350000Y-77330000D02*
X95950000Y-77180000D01*
X95950000Y-77180000D02*
X95400000Y-77080000D01*
X95400000Y-77080000D02*
X94900000Y-77180000D01*
X94900000Y-77180000D02*
X94400000Y-77330000D01*
X94400000Y-77330000D02*
X94200000Y-77580000D01*
X94200000Y-77580000D02*
X94150000Y-77830000D01*
X92850640Y-77830000D02*
X92850640Y-77730940D01*
X92850640Y-77730940D02*
X92949700Y-77128960D01*
X92949700Y-77128960D02*
X93150360Y-76631120D01*
X93150360Y-76631120D02*
X93549140Y-76130740D01*
X93549140Y-76130740D02*
X94151120Y-75630360D01*
X94151120Y-75630360D02*
X94549900Y-75429700D01*
X94549900Y-75429700D02*
X95050280Y-75330640D01*
X95050280Y-75330640D02*
X95649720Y-75330640D01*
X95649720Y-75330640D02*
X96449820Y-75528760D01*
X96449820Y-75528760D02*
X97150860Y-76130740D01*
X97150860Y-76130740D02*
X97549640Y-76631120D01*
X97549640Y-76631120D02*
X97849360Y-77329620D01*
X97849360Y-77329620D02*
X97849360Y-78129720D01*
X97849360Y-78129720D02*
X97651240Y-78729160D01*
X97651240Y-78729160D02*
X97348980Y-79331140D01*
X97348980Y-79331140D02*
X96851140Y-79828980D01*
X96851140Y-79828980D02*
X96150100Y-80230300D01*
X96150100Y-80230300D02*
X95550660Y-80329360D01*
X95550660Y-80329360D02*
X94951220Y-80329360D01*
X94951220Y-80329360D02*
X94349240Y-80131240D01*
X94349240Y-80131240D02*
X93848860Y-79828980D01*
X93848860Y-79828980D02*
X93351020Y-79331140D01*
X93351020Y-79331140D02*
X93048760Y-78830760D01*
X93048760Y-78830760D02*
X92949700Y-78429440D01*
X92949700Y-78429440D02*
X92850640Y-77830000D01*
X96034860Y-87393780D02*
X97505520Y-87754460D01*
X97505520Y-87754460D02*
X96443800Y-88033860D01*
X96443800Y-88033860D02*
X97515680Y-88343740D01*
X97515680Y-88343740D02*
X96065340Y-88684100D01*
X96725740Y-85973920D02*
X96715580Y-86763860D01*
X96715580Y-86763860D02*
X96725740Y-86774020D01*
X96725740Y-86774020D02*
X96715580Y-86774020D01*
X96004380Y-86814660D02*
X97546160Y-86814660D01*
X95994220Y-85925660D02*
X97563940Y-85925660D01*
X97563940Y-85925660D02*
X97553780Y-85935820D01*
X96095820Y-85374480D02*
X96014540Y-85023960D01*
X96014540Y-85023960D02*
X96004380Y-84703920D01*
X96004380Y-84703920D02*
X96205040Y-84465160D01*
X96205040Y-84465160D02*
X96474280Y-84434680D01*
X96474280Y-84434680D02*
X96715580Y-84675980D01*
X96715580Y-84675980D02*
X96845120Y-85064600D01*
X96845120Y-85064600D02*
X97005140Y-85244940D01*
X97005140Y-85244940D02*
X97304860Y-85285580D01*
X97304860Y-85285580D02*
X97525840Y-85054440D01*
X97525840Y-85054440D02*
X97553780Y-84734400D01*
X97553780Y-84734400D02*
X97444560Y-84383880D01*
X95994220Y-83345020D02*
X96014540Y-83096100D01*
X96014540Y-83096100D02*
X96255840Y-82854800D01*
X96255840Y-82854800D02*
X96746060Y-82765900D01*
X96746060Y-82765900D02*
X97094040Y-82793840D01*
X97094040Y-82793840D02*
X97414080Y-82994500D01*
X97414080Y-82994500D02*
X97536000Y-83245960D01*
X97536000Y-83245960D02*
X97464880Y-83555840D01*
X97464880Y-83555840D02*
X97284540Y-83774280D01*
X97284540Y-83774280D02*
X96824800Y-83845400D01*
X96824800Y-83845400D02*
X96415860Y-83794600D01*
X96415860Y-83794600D02*
X96133920Y-83685380D01*
X96133920Y-83685380D02*
X96004380Y-83324700D01*
X94274640Y-83944460D02*
X94835980Y-83685380D01*
X94835980Y-83685380D02*
X95354140Y-84223860D01*
X95354140Y-84223860D02*
X95084900Y-84744560D01*
X95084900Y-84744560D02*
X95244920Y-85023960D01*
X95224600Y-86464140D02*
X95034100Y-86794340D01*
X95034100Y-86794340D02*
X95364300Y-87233760D01*
X95364300Y-87233760D02*
X94874080Y-87706200D01*
X94874080Y-87706200D02*
X94394020Y-87424260D01*
X94394020Y-87424260D02*
X93924120Y-87614760D01*
X93924120Y-87614760D02*
X93736160Y-88224360D01*
X93736160Y-88224360D02*
X93055440Y-88224360D01*
X93055440Y-88224360D02*
X92915740Y-87665560D01*
X92915740Y-87665560D02*
X92344240Y-87464900D01*
X92344240Y-87464900D02*
X91874340Y-87734140D01*
X91874340Y-87734140D02*
X91363800Y-87264240D01*
X91363800Y-87264240D02*
X91625420Y-86746080D01*
X91625420Y-86746080D02*
X91424760Y-86276180D01*
X91424760Y-86276180D02*
X90883740Y-86106000D01*
X90883740Y-86106000D02*
X90865960Y-85415120D01*
X90865960Y-85415120D02*
X91414600Y-85204300D01*
X91414600Y-85204300D02*
X91584780Y-84785200D01*
X91584780Y-84785200D02*
X91315540Y-84234020D01*
X91315540Y-84234020D02*
X91843860Y-83715860D01*
X91843860Y-83715860D02*
X92384880Y-83964780D01*
X92384880Y-83964780D02*
X92864940Y-83794600D01*
X92864940Y-83794600D02*
X92964000Y-83245960D01*
X92964000Y-83245960D02*
X93665040Y-83235800D01*
X93665040Y-83235800D02*
X93865700Y-83794600D01*
X93865700Y-83794600D02*
X94264480Y-83934300D01*
X94244160Y-86075520D02*
X94094300Y-86375240D01*
X94094300Y-86375240D02*
X93896180Y-86575900D01*
X93896180Y-86575900D02*
X93494860Y-86725760D01*
X93494860Y-86725760D02*
X93096080Y-86725760D01*
X93096080Y-86725760D02*
X92745560Y-86575900D01*
X92745560Y-86575900D02*
X92395040Y-86123780D01*
X92395040Y-86123780D02*
X92344240Y-85674200D01*
X92344240Y-85674200D02*
X92445840Y-85275420D01*
X92445840Y-85275420D02*
X92793820Y-84874100D01*
X92793820Y-84874100D02*
X93245940Y-84724240D01*
X93245940Y-84724240D02*
X93743780Y-84775040D01*
X93743780Y-84775040D02*
X94046040Y-85023960D01*
X94046040Y-85023960D02*
X94244160Y-85374480D01*
X94244160Y-85374480D02*
X95244920Y-85023960D01*
X94244160Y-86075520D02*
X95244920Y-86474300D01*
D12*
X56061905Y-64721429D02*
X55300000Y-64721429D01*
X55680952Y-65102381D02*
X55680952Y-64340476D01*
X54300000Y-65102381D02*
X54871429Y-65102381D01*
X54585715Y-65102381D02*
X54585715Y-64102381D01*
X54680953Y-64245238D01*
X54776191Y-64340476D01*
X54871429Y-64388095D01*
X53919048Y-64197619D02*
X53871429Y-64150000D01*
X53776191Y-64102381D01*
X53538095Y-64102381D01*
X53442857Y-64150000D01*
X53395238Y-64197619D01*
X53347619Y-64292857D01*
X53347619Y-64388095D01*
X53395238Y-64530952D01*
X53966667Y-65102381D01*
X53347619Y-65102381D01*
X53061905Y-64102381D02*
X52728572Y-65102381D01*
X52395238Y-64102381D01*
X60928571Y-82619048D02*
X60976190Y-82761905D01*
X61023810Y-82809524D01*
X61119048Y-82857143D01*
X61261905Y-82857143D01*
X61357143Y-82809524D01*
X61404762Y-82761905D01*
X61452381Y-82666667D01*
X61452381Y-82285714D01*
X60452381Y-82285714D01*
X60452381Y-82619048D01*
X60500000Y-82714286D01*
X60547619Y-82761905D01*
X60642857Y-82809524D01*
X60738095Y-82809524D01*
X60833333Y-82761905D01*
X60880952Y-82714286D01*
X60928571Y-82619048D01*
X60928571Y-82285714D01*
X60928571Y-83285714D02*
X60928571Y-83619048D01*
X61452381Y-83761905D02*
X61452381Y-83285714D01*
X60452381Y-83285714D01*
X60452381Y-83761905D01*
X61357143Y-84761905D02*
X61404762Y-84714286D01*
X61452381Y-84571429D01*
X61452381Y-84476191D01*
X61404762Y-84333333D01*
X61309524Y-84238095D01*
X61214286Y-84190476D01*
X61023810Y-84142857D01*
X60880952Y-84142857D01*
X60690476Y-84190476D01*
X60595238Y-84238095D01*
X60500000Y-84333333D01*
X60452381Y-84476191D01*
X60452381Y-84571429D01*
X60500000Y-84714286D01*
X60547619Y-84761905D01*
X55690477Y-58452381D02*
X55690477Y-57452381D01*
X55690477Y-57928571D02*
X55119048Y-57928571D01*
X55119048Y-58452381D02*
X55119048Y-57452381D01*
X54261905Y-58404762D02*
X54357143Y-58452381D01*
X54547620Y-58452381D01*
X54642858Y-58404762D01*
X54690477Y-58309524D01*
X54690477Y-57928571D01*
X54642858Y-57833333D01*
X54547620Y-57785714D01*
X54357143Y-57785714D01*
X54261905Y-57833333D01*
X54214286Y-57928571D01*
X54214286Y-58023810D01*
X54690477Y-58119048D01*
X53357143Y-58452381D02*
X53357143Y-57928571D01*
X53404762Y-57833333D01*
X53500000Y-57785714D01*
X53690477Y-57785714D01*
X53785715Y-57833333D01*
X53357143Y-58404762D02*
X53452381Y-58452381D01*
X53690477Y-58452381D01*
X53785715Y-58404762D01*
X53833334Y-58309524D01*
X53833334Y-58214286D01*
X53785715Y-58119048D01*
X53690477Y-58071429D01*
X53452381Y-58071429D01*
X53357143Y-58023810D01*
X53023810Y-57785714D02*
X52642858Y-57785714D01*
X52880953Y-57452381D02*
X52880953Y-58309524D01*
X52833334Y-58404762D01*
X52738096Y-58452381D01*
X52642858Y-58452381D01*
X51928571Y-58404762D02*
X52023809Y-58452381D01*
X52214286Y-58452381D01*
X52309524Y-58404762D01*
X52357143Y-58309524D01*
X52357143Y-57928571D01*
X52309524Y-57833333D01*
X52214286Y-57785714D01*
X52023809Y-57785714D01*
X51928571Y-57833333D01*
X51880952Y-57928571D01*
X51880952Y-58023810D01*
X52357143Y-58119048D01*
X51452381Y-58452381D02*
X51452381Y-57785714D01*
X51452381Y-57976190D02*
X51404762Y-57880952D01*
X51357143Y-57833333D01*
X51261905Y-57785714D01*
X51166666Y-57785714D01*
%LPC*%
D14*
X70729000Y-95064000D03*
D15*
X70729000Y-97604000D03*
D14*
X70729000Y-84396000D03*
D15*
X70729000Y-86936000D03*
D14*
X89271000Y-95064000D03*
D15*
X89271000Y-97604000D03*
D14*
X89271000Y-84396000D03*
D15*
X89271000Y-86936000D03*
D16*
X57040000Y-95730000D03*
D17*
X57040000Y-98270000D03*
X54500000Y-95730000D03*
X54500000Y-98270000D03*
X51960000Y-95730000D03*
X51960000Y-98270000D03*
D18*
X64000000Y-96000000D03*
D19*
X66675000Y-96000000D03*
X65892000Y-94108000D03*
X64000000Y-93325000D03*
X62108000Y-94108000D03*
X61325000Y-96000000D03*
X62108000Y-97892000D03*
X64000000Y-98675000D03*
X65892000Y-97892000D03*
D18*
X64000000Y-54000000D03*
D19*
X66675000Y-54000000D03*
X65892000Y-52108000D03*
X64000000Y-51325000D03*
X62108000Y-52108000D03*
X61325000Y-54000000D03*
X62108000Y-55892000D03*
X64000000Y-56675000D03*
X65892000Y-55892000D03*
D18*
X96000000Y-96000000D03*
D19*
X98675000Y-96000000D03*
X97892000Y-94108000D03*
X96000000Y-93325000D03*
X94108000Y-94108000D03*
X93325000Y-96000000D03*
X94108000Y-97892000D03*
X96000000Y-98675000D03*
X97892000Y-97892000D03*
D18*
X96000000Y-54000000D03*
D19*
X98675000Y-54000000D03*
X97892000Y-52108000D03*
X96000000Y-51325000D03*
X94108000Y-52108000D03*
X93325000Y-54000000D03*
X94108000Y-55892000D03*
X96000000Y-56675000D03*
X97892000Y-55892000D03*
D20*
X62250000Y-91000000D03*
D21*
X65750000Y-91000000D03*
D20*
X70000000Y-75700000D03*
D21*
X70000000Y-79200000D03*
D22*
X94000000Y-90500000D03*
D23*
X96500000Y-90500000D03*
D14*
X61230000Y-67230000D03*
D15*
X63770000Y-67230000D03*
X61230000Y-69770000D03*
X63770000Y-69770000D03*
D14*
X94980000Y-59690000D03*
D15*
X97520000Y-59690000D03*
X94980000Y-62230000D03*
X97520000Y-62230000D03*
X94980000Y-64770000D03*
X97520000Y-64770000D03*
X94980000Y-67310000D03*
X97520000Y-67310000D03*
D24*
X58000000Y-64500000D03*
D25*
X58000000Y-69580000D03*
D24*
X58000000Y-76000000D03*
D25*
X58000000Y-81080000D03*
X58000000Y-86160000D03*
X58000000Y-91240000D03*
D24*
X58000000Y-52920000D03*
D25*
X58000000Y-58000000D03*
D26*
G36*
X99873000Y-99873000D02*
X58377000Y-99873000D01*
X58377000Y-98627000D01*
X60150000Y-98627000D01*
X60199410Y-98616994D01*
X60241035Y-98588553D01*
X60268315Y-98546159D01*
X60277000Y-98500000D01*
X60277000Y-96127000D01*
X67723000Y-96127000D01*
X67723000Y-98650000D01*
X67733006Y-98699410D01*
X67761447Y-98741035D01*
X67803841Y-98768315D01*
X67850000Y-98777000D01*
X92150000Y-98777000D01*
X92199410Y-98766994D01*
X92241035Y-98738553D01*
X92268315Y-98696159D01*
X92277000Y-98650000D01*
X92277000Y-96052606D01*
X96052606Y-92277000D01*
X98500000Y-92277000D01*
X98549410Y-92266994D01*
X98591035Y-92238553D01*
X98618315Y-92196159D01*
X98627000Y-92150000D01*
X98627000Y-68427000D01*
X98950000Y-68427000D01*
X98999410Y-68416994D01*
X99041035Y-68388553D01*
X99068315Y-68346159D01*
X99077000Y-68300000D01*
X99077000Y-57877675D01*
X99066994Y-57828265D01*
X99038553Y-57786640D01*
X98996159Y-57759360D01*
X98950000Y-57750675D01*
X96127000Y-57750675D01*
X96127000Y-50277000D01*
X99873000Y-50277000D01*
X99873000Y-99873000D01*
X99873000Y-99873000D01*
G37*
X99873000Y-99873000D02*
X58377000Y-99873000D01*
X58377000Y-98627000D01*
X60150000Y-98627000D01*
X60199410Y-98616994D01*
X60241035Y-98588553D01*
X60268315Y-98546159D01*
X60277000Y-98500000D01*
X60277000Y-96127000D01*
X67723000Y-96127000D01*
X67723000Y-98650000D01*
X67733006Y-98699410D01*
X67761447Y-98741035D01*
X67803841Y-98768315D01*
X67850000Y-98777000D01*
X92150000Y-98777000D01*
X92199410Y-98766994D01*
X92241035Y-98738553D01*
X92268315Y-98696159D01*
X92277000Y-98650000D01*
X92277000Y-96052606D01*
X96052606Y-92277000D01*
X98500000Y-92277000D01*
X98549410Y-92266994D01*
X98591035Y-92238553D01*
X98618315Y-92196159D01*
X98627000Y-92150000D01*
X98627000Y-68427000D01*
X98950000Y-68427000D01*
X98999410Y-68416994D01*
X99041035Y-68388553D01*
X99068315Y-68346159D01*
X99077000Y-68300000D01*
X99077000Y-57877675D01*
X99066994Y-57828265D01*
X99038553Y-57786640D01*
X98996159Y-57759360D01*
X98950000Y-57750675D01*
X96127000Y-57750675D01*
X96127000Y-50277000D01*
X99873000Y-50277000D01*
X99873000Y-99873000D01*
G36*
X67723000Y-53873000D02*
X60277000Y-53873000D01*
X60277000Y-50127000D01*
X67723000Y-50127000D01*
X67723000Y-53873000D01*
X67723000Y-53873000D01*
G37*
X67723000Y-53873000D02*
X60277000Y-53873000D01*
X60277000Y-50127000D01*
X67723000Y-50127000D01*
X67723000Y-53873000D01*
M02*
