G04 #@! TF.FileFunction,Copper,L1,Top,Signal*
%FSLAX46Y46*%
G04 Gerber Fmt 4.6, Leading zero omitted, Abs format (unit mm)*
G04 Created by KiCad (PCBNEW 4.0.0-rc1-stable) date 2016-02-04 20:32:03*
%MOMM*%
G01*
G04 APERTURE LIST*
%ADD10C,0.100000*%
%ADD11R,1.000000X0.950000*%
%ADD12R,1.800000X1.400000*%
%ADD13O,1.800000X1.400000*%
%ADD14R,1.250000X1.500000*%
%ADD15R,1.400000X1.800000*%
%ADD16O,1.400000X1.800000*%
%ADD17R,1.550000X2.100000*%
%ADD18C,7.500000*%
%ADD19C,0.650000*%
%ADD20R,7.000000X7.000000*%
%ADD21R,1.500000X2.500000*%
%ADD22R,3.700000X2.200000*%
%ADD23R,1.400000X2.200000*%
%ADD24R,2.000000X1.200000*%
%ADD25R,1.400000X1.400000*%
%ADD26O,1.400000X1.400000*%
%ADD27R,1.300000X1.300000*%
%ADD28O,1.300000X1.300000*%
%ADD29R,2.600000X2.300000*%
%ADD30O,2.600000X2.300000*%
%ADD31C,1.000000*%
%ADD32C,0.300000*%
%ADD33C,0.500000*%
%ADD34C,0.200000*%
%ADD35C,1.500000*%
G04 APERTURE END LIST*
D10*
D11*
X94475000Y-70200000D03*
X95925000Y-70200000D03*
D12*
X70729000Y-95064000D03*
D13*
X70729000Y-97604000D03*
D12*
X70729000Y-84396000D03*
D13*
X70729000Y-86936000D03*
D12*
X89271000Y-95064000D03*
D13*
X89271000Y-97604000D03*
D12*
X89271000Y-84396000D03*
D13*
X89271000Y-86936000D03*
D11*
X83625000Y-93450000D03*
X82175000Y-93450000D03*
D14*
X77500000Y-89400000D03*
X77500000Y-91600000D03*
D15*
X57040000Y-95730000D03*
D16*
X57040000Y-98270000D03*
X54500000Y-95730000D03*
X54500000Y-98270000D03*
X51960000Y-95730000D03*
X51960000Y-98270000D03*
D17*
X61800000Y-64000000D03*
X61800000Y-60200000D03*
D18*
X64000000Y-96000000D03*
D19*
X66675000Y-96000000D03*
X65892000Y-94108000D03*
X64000000Y-93325000D03*
X62108000Y-94108000D03*
X61325000Y-96000000D03*
X62108000Y-97892000D03*
X64000000Y-98675000D03*
X65892000Y-97892000D03*
D18*
X64000000Y-54000000D03*
D19*
X66675000Y-54000000D03*
X65892000Y-52108000D03*
X64000000Y-51325000D03*
X62108000Y-52108000D03*
X61325000Y-54000000D03*
X62108000Y-55892000D03*
X64000000Y-56675000D03*
X65892000Y-55892000D03*
D18*
X96000000Y-96000000D03*
D19*
X98675000Y-96000000D03*
X97892000Y-94108000D03*
X96000000Y-93325000D03*
X94108000Y-94108000D03*
X93325000Y-96000000D03*
X94108000Y-97892000D03*
X96000000Y-98675000D03*
X97892000Y-97892000D03*
D18*
X96000000Y-54000000D03*
D19*
X98675000Y-54000000D03*
X97892000Y-52108000D03*
X96000000Y-51325000D03*
X94108000Y-52108000D03*
X93325000Y-54000000D03*
X94108000Y-55892000D03*
X96000000Y-56675000D03*
X97892000Y-55892000D03*
D20*
X69400000Y-64100000D03*
D21*
X67100000Y-71000000D03*
X71700000Y-71000000D03*
D22*
X83000000Y-85000000D03*
D23*
X80700000Y-91200000D03*
X83000000Y-91200000D03*
X85300000Y-91200000D03*
D24*
X90500000Y-70200000D03*
X90500000Y-68200000D03*
X90500000Y-66200000D03*
X90500000Y-64200000D03*
X90500000Y-62200000D03*
X90500000Y-60200000D03*
X90500000Y-58200000D03*
X90500000Y-56200000D03*
X74500000Y-56200000D03*
X74500000Y-58200000D03*
X74500000Y-60200000D03*
X74500000Y-62200000D03*
X74500000Y-64200000D03*
X74500000Y-66200000D03*
X74500000Y-68200000D03*
X74500000Y-70200000D03*
D25*
X62250000Y-91000000D03*
D26*
X65750000Y-91000000D03*
D25*
X70000000Y-75700000D03*
D26*
X70000000Y-79200000D03*
D27*
X94000000Y-90500000D03*
D28*
X96500000Y-90500000D03*
D12*
X61230000Y-67230000D03*
D13*
X63770000Y-67230000D03*
X61230000Y-69770000D03*
X63770000Y-69770000D03*
D12*
X94980000Y-59690000D03*
D13*
X97520000Y-59690000D03*
X94980000Y-62230000D03*
X97520000Y-62230000D03*
X94980000Y-64770000D03*
X97520000Y-64770000D03*
X94980000Y-67310000D03*
X97520000Y-67310000D03*
D11*
X89925000Y-81900000D03*
X88475000Y-81900000D03*
D29*
X58000000Y-64500000D03*
D30*
X58000000Y-69580000D03*
D29*
X58000000Y-76000000D03*
D30*
X58000000Y-81080000D03*
X58000000Y-86160000D03*
X58000000Y-91240000D03*
D29*
X58000000Y-52920000D03*
D30*
X58000000Y-58000000D03*
D19*
X95900000Y-71200000D03*
X73150000Y-71800000D03*
X70400000Y-71800000D03*
X70400000Y-70200000D03*
X81100000Y-93000000D03*
X92250000Y-70200000D03*
X83000000Y-74400000D03*
X82950000Y-72600000D03*
D31*
X94000000Y-90500000D02*
X94000000Y-79700000D01*
X94000000Y-79700000D02*
X97520000Y-76180000D01*
X97520000Y-76180000D02*
X97520000Y-69422478D01*
X97520000Y-69422478D02*
X97520000Y-67310000D01*
X89271000Y-95064000D02*
X89436000Y-95064000D01*
X89436000Y-95064000D02*
X94000000Y-90500000D01*
X89271000Y-97604000D02*
X89271000Y-95064000D01*
D32*
X83625000Y-93450000D02*
X83625000Y-93375000D01*
X83625000Y-93375000D02*
X85300000Y-91700000D01*
X85300000Y-91700000D02*
X85300000Y-91200000D01*
D33*
X85300000Y-91200000D02*
X85300000Y-91400000D01*
X85300000Y-91400000D02*
X88964000Y-95064000D01*
X88964000Y-95064000D02*
X89271000Y-95064000D01*
D34*
X95925000Y-70200000D02*
X95925000Y-71175000D01*
X95925000Y-71175000D02*
X95900000Y-71200000D01*
D33*
X89700000Y-83100000D02*
X89925000Y-82875000D01*
X89367000Y-83100000D02*
X89700000Y-83100000D01*
X89271000Y-83196000D02*
X89367000Y-83100000D01*
X89925000Y-82875000D02*
X89925000Y-81900000D01*
X89271000Y-84396000D02*
X89271000Y-83196000D01*
D31*
X55000000Y-89010000D02*
X55000000Y-88309294D01*
X51960000Y-95730000D02*
X51960000Y-93830000D01*
X55000000Y-88309294D02*
X55000000Y-78230000D01*
X51960000Y-93830000D02*
X55000000Y-90790000D01*
X55000000Y-90790000D02*
X55000000Y-88309294D01*
X51960000Y-98270000D02*
X51960000Y-95730000D01*
X54500000Y-95730000D02*
X54500000Y-89510000D01*
X54500000Y-89510000D02*
X55000000Y-89010000D01*
X54500000Y-98270000D02*
X54500000Y-95730000D01*
D35*
X58000000Y-81080000D02*
X58000000Y-86160000D01*
X55000000Y-74000000D02*
X55000000Y-78230000D01*
X55000000Y-78230000D02*
X57850000Y-81080000D01*
X57850000Y-81080000D02*
X58000000Y-81080000D01*
X57500000Y-71500000D02*
X55000000Y-74000000D01*
X58000000Y-71500000D02*
X57500000Y-71500000D01*
X58000000Y-69580000D02*
X58000000Y-71500000D01*
D31*
X71700000Y-71000000D02*
X71700000Y-71750000D01*
X71700000Y-71750000D02*
X71750000Y-71750000D01*
X71750000Y-71750000D02*
X71700000Y-71800000D01*
X71700000Y-71800000D02*
X73150000Y-71800000D01*
X71700000Y-71750000D02*
X71750000Y-71800000D01*
X71750000Y-71800000D02*
X70400000Y-71800000D01*
X71700000Y-71000000D02*
X71700000Y-70250000D01*
X71700000Y-70250000D02*
X71650000Y-70200000D01*
X71650000Y-70200000D02*
X70400000Y-70200000D01*
D32*
X77500000Y-91600000D02*
X80300000Y-91600000D01*
X80300000Y-91600000D02*
X80700000Y-91200000D01*
X82175000Y-93450000D02*
X82175000Y-93325000D01*
X82175000Y-93325000D02*
X82000000Y-93150000D01*
X82000000Y-93150000D02*
X81250000Y-93150000D01*
X81250000Y-93150000D02*
X81100000Y-93000000D01*
X80700000Y-91200000D02*
X80700000Y-92600000D01*
X80700000Y-92600000D02*
X81100000Y-93000000D01*
D33*
X90500000Y-70200000D02*
X92250000Y-70200000D01*
D34*
X65875000Y-55875000D02*
X64000000Y-54000000D01*
X90900000Y-68200000D02*
X90500000Y-68200000D01*
D35*
X58000000Y-91240000D02*
X57050000Y-92190000D01*
X57050000Y-92190000D02*
X57050000Y-95720000D01*
X57050000Y-95720000D02*
X57040000Y-95730000D01*
D31*
X62250000Y-91000000D02*
X58240000Y-91000000D01*
D35*
X58240000Y-91000000D02*
X58000000Y-91240000D01*
X57040000Y-95730000D02*
X57040000Y-98270000D01*
D31*
X70000000Y-75700000D02*
X69800000Y-75700000D01*
X69800000Y-75700000D02*
X68000000Y-77500000D01*
X68000000Y-77500000D02*
X68000000Y-77750000D01*
X58000000Y-76000000D02*
X66250000Y-76000000D01*
X66250000Y-76000000D02*
X68000000Y-77750000D01*
X70729000Y-95064000D02*
X70729000Y-93364000D01*
X70729000Y-93364000D02*
X68000000Y-90635000D01*
X68000000Y-90635000D02*
X68000000Y-77750000D01*
X70729000Y-97604000D02*
X70729000Y-95064000D01*
D35*
X61800000Y-64000000D02*
X58500000Y-64000000D01*
X58500000Y-64000000D02*
X58000000Y-64500000D01*
X61230000Y-67230000D02*
X60730000Y-67230000D01*
X60730000Y-67230000D02*
X58000000Y-64500000D01*
X63770000Y-67230000D02*
X61230000Y-67230000D01*
D33*
X83000000Y-85000000D02*
X83000000Y-74400000D01*
D31*
X83000000Y-85000000D02*
X83000000Y-74852410D01*
X83000000Y-74852410D02*
X82950000Y-74802410D01*
X83000000Y-91200000D02*
X83000000Y-85000000D01*
D34*
X82950000Y-72600000D02*
X89350000Y-66200000D01*
X89350000Y-66200000D02*
X90500000Y-66200000D01*
D33*
X82950000Y-72600000D02*
X80550000Y-70200000D01*
X80550000Y-70200000D02*
X74500000Y-70200000D01*
X83000000Y-89400000D02*
X83000000Y-85000000D01*
X83000000Y-91200000D02*
X83000000Y-89400000D01*
D32*
X77500000Y-89400000D02*
X83000000Y-89400000D01*
D34*
X94475000Y-70200000D02*
X94475000Y-71425000D01*
X94475000Y-71425000D02*
X88475000Y-77425000D01*
X88475000Y-77425000D02*
X88475000Y-81900000D01*
X95633542Y-68466458D02*
X96250000Y-67850000D01*
X96250000Y-67574039D02*
X96250000Y-65750000D01*
X96250000Y-67850000D02*
X96250000Y-67574039D01*
X95633542Y-68466458D02*
X94475000Y-69625000D01*
X94475000Y-69625000D02*
X94475000Y-70200000D01*
X96250000Y-65750000D02*
X97230000Y-64770000D01*
X97230000Y-64770000D02*
X97520000Y-64770000D01*
X92990186Y-72159814D02*
X91450000Y-73700000D01*
X91450000Y-73700000D02*
X67000000Y-73700000D01*
X67000000Y-73700000D02*
X65700000Y-72400000D01*
X65700000Y-72400000D02*
X65700000Y-67800000D01*
X65700000Y-67800000D02*
X69400000Y-64100000D01*
D35*
X61800000Y-60200000D02*
X65500000Y-60200000D01*
X65500000Y-60200000D02*
X69400000Y-64100000D01*
X61800000Y-60200000D02*
X60200000Y-60200000D01*
X60200000Y-60200000D02*
X58000000Y-58000000D01*
D34*
X92990186Y-72159814D02*
X92900000Y-72250000D01*
X93600000Y-71550000D02*
X92990186Y-72159814D01*
X93600000Y-68490000D02*
X93600000Y-71550000D01*
X94980000Y-67310000D02*
X94780000Y-67310000D01*
X94780000Y-67310000D02*
X93600000Y-68490000D01*
X94980000Y-59690000D02*
X94640000Y-59690000D01*
X94640000Y-59690000D02*
X92150000Y-57200000D01*
X92150000Y-57200000D02*
X89150000Y-57200000D01*
X89150000Y-57200000D02*
X86150000Y-60200000D01*
X86150000Y-60200000D02*
X74500000Y-60200000D01*
X97520000Y-59690000D02*
X97390000Y-59690000D01*
X97390000Y-59690000D02*
X96150000Y-58450000D01*
X96150000Y-58450000D02*
X94200000Y-58450000D01*
X91950000Y-56200000D02*
X90500000Y-56200000D01*
X94200000Y-58450000D02*
X91950000Y-56200000D01*
X94980000Y-62230000D02*
X93970000Y-62230000D01*
X93970000Y-62230000D02*
X92000000Y-64200000D01*
X92000000Y-64200000D02*
X91700000Y-64200000D01*
X91700000Y-64200000D02*
X90500000Y-64200000D01*
X94980000Y-62230000D02*
X94820000Y-62230000D01*
X90900000Y-58200000D02*
X90500000Y-58200000D01*
X96040000Y-60950000D02*
X93650000Y-60950000D01*
X93650000Y-60950000D02*
X90900000Y-58200000D01*
X97320000Y-62230000D02*
X96040000Y-60950000D01*
X97520000Y-62230000D02*
X97320000Y-62230000D01*
X94980000Y-64770000D02*
X94780000Y-64770000D01*
X94780000Y-64770000D02*
X93000000Y-66550000D01*
X93000000Y-66550000D02*
X93000000Y-71300000D01*
X93000000Y-71300000D02*
X91000000Y-73300000D01*
X91000000Y-73300000D02*
X68900000Y-73300000D01*
X68900000Y-73300000D02*
X67100000Y-71500000D01*
X67100000Y-71500000D02*
X67100000Y-71000000D01*
G36*
X99450000Y-99450000D02*
X57732815Y-99450000D01*
X57888528Y-99345956D01*
X58032486Y-99130507D01*
X63551564Y-99130507D01*
X63569562Y-99275954D01*
X63832302Y-99394930D01*
X64120572Y-99404304D01*
X64390487Y-99302648D01*
X64430438Y-99275954D01*
X64448436Y-99130507D01*
X95551564Y-99130507D01*
X95569562Y-99275954D01*
X95832302Y-99394930D01*
X96120572Y-99404304D01*
X96390487Y-99302648D01*
X96430438Y-99275954D01*
X96448436Y-99130507D01*
X96000000Y-98682071D01*
X95551564Y-99130507D01*
X64448436Y-99130507D01*
X64000000Y-98682071D01*
X63551564Y-99130507D01*
X58032486Y-99130507D01*
X58148655Y-98956648D01*
X58180695Y-98795572D01*
X63270696Y-98795572D01*
X63372352Y-99065487D01*
X63399046Y-99105438D01*
X63544493Y-99123436D01*
X63992929Y-98675000D01*
X64007071Y-98675000D01*
X64455507Y-99123436D01*
X64600954Y-99105438D01*
X64719930Y-98842698D01*
X64729304Y-98554428D01*
X64651373Y-98347507D01*
X65443564Y-98347507D01*
X65461562Y-98492954D01*
X65724302Y-98611930D01*
X66012572Y-98621304D01*
X66282487Y-98519648D01*
X66322438Y-98492954D01*
X66340436Y-98347507D01*
X65892000Y-97899071D01*
X65443564Y-98347507D01*
X64651373Y-98347507D01*
X64627648Y-98284513D01*
X64600954Y-98244562D01*
X64455507Y-98226564D01*
X64007071Y-98675000D01*
X63992929Y-98675000D01*
X63544493Y-98226564D01*
X63399046Y-98244562D01*
X63280070Y-98507302D01*
X63270696Y-98795572D01*
X58180695Y-98795572D01*
X58188069Y-98758501D01*
X58194849Y-98748354D01*
X58274582Y-98347507D01*
X61659564Y-98347507D01*
X61677562Y-98492954D01*
X61940302Y-98611930D01*
X62228572Y-98621304D01*
X62498487Y-98519648D01*
X62538438Y-98492954D01*
X62556436Y-98347507D01*
X62108000Y-97899071D01*
X61659564Y-98347507D01*
X58274582Y-98347507D01*
X58290000Y-98270000D01*
X58290000Y-98012572D01*
X61378696Y-98012572D01*
X61480352Y-98282487D01*
X61507046Y-98322438D01*
X61652493Y-98340436D01*
X62100929Y-97892000D01*
X62115071Y-97892000D01*
X62563507Y-98340436D01*
X62708954Y-98322438D01*
X62755570Y-98219493D01*
X63551564Y-98219493D01*
X64000000Y-98667929D01*
X64448436Y-98219493D01*
X64430438Y-98074046D01*
X64294683Y-98012572D01*
X65162696Y-98012572D01*
X65264352Y-98282487D01*
X65291046Y-98322438D01*
X65436493Y-98340436D01*
X65884929Y-97892000D01*
X65899071Y-97892000D01*
X66347507Y-98340436D01*
X66492954Y-98322438D01*
X66611930Y-98059698D01*
X66621304Y-97771428D01*
X66519648Y-97501513D01*
X66492954Y-97461562D01*
X66347507Y-97443564D01*
X65899071Y-97892000D01*
X65884929Y-97892000D01*
X65436493Y-97443564D01*
X65291046Y-97461562D01*
X65172070Y-97724302D01*
X65162696Y-98012572D01*
X64294683Y-98012572D01*
X64167698Y-97955070D01*
X63879428Y-97945696D01*
X63609513Y-98047352D01*
X63569562Y-98074046D01*
X63551564Y-98219493D01*
X62755570Y-98219493D01*
X62827930Y-98059698D01*
X62837304Y-97771428D01*
X62735648Y-97501513D01*
X62708954Y-97461562D01*
X62563507Y-97443564D01*
X62115071Y-97892000D01*
X62100929Y-97892000D01*
X61652493Y-97443564D01*
X61507046Y-97461562D01*
X61388070Y-97724302D01*
X61378696Y-98012572D01*
X58290000Y-98012572D01*
X58290000Y-97436493D01*
X61659564Y-97436493D01*
X62108000Y-97884929D01*
X62556436Y-97436493D01*
X65443564Y-97436493D01*
X65892000Y-97884929D01*
X66340436Y-97436493D01*
X66322438Y-97291046D01*
X66059698Y-97172070D01*
X65771428Y-97162696D01*
X65501513Y-97264352D01*
X65461562Y-97291046D01*
X65443564Y-97436493D01*
X62556436Y-97436493D01*
X62538438Y-97291046D01*
X62275698Y-97172070D01*
X61987428Y-97162696D01*
X61717513Y-97264352D01*
X61677562Y-97291046D01*
X61659564Y-97436493D01*
X58290000Y-97436493D01*
X58290000Y-96455507D01*
X60876564Y-96455507D01*
X60894562Y-96600954D01*
X61157302Y-96719930D01*
X61445572Y-96729304D01*
X61715487Y-96627648D01*
X61755438Y-96600954D01*
X61773436Y-96455507D01*
X66226564Y-96455507D01*
X66244562Y-96600954D01*
X66507302Y-96719930D01*
X66795572Y-96729304D01*
X67065487Y-96627648D01*
X67105438Y-96600954D01*
X67123436Y-96455507D01*
X66675000Y-96007071D01*
X66226564Y-96455507D01*
X61773436Y-96455507D01*
X61325000Y-96007071D01*
X60876564Y-96455507D01*
X58290000Y-96455507D01*
X58290000Y-96120572D01*
X60595696Y-96120572D01*
X60697352Y-96390487D01*
X60724046Y-96430438D01*
X60869493Y-96448436D01*
X61317929Y-96000000D01*
X61332071Y-96000000D01*
X61780507Y-96448436D01*
X61925954Y-96430438D01*
X62044930Y-96167698D01*
X62046462Y-96120572D01*
X65945696Y-96120572D01*
X66047352Y-96390487D01*
X66074046Y-96430438D01*
X66219493Y-96448436D01*
X66667929Y-96000000D01*
X66682071Y-96000000D01*
X67130507Y-96448436D01*
X67275954Y-96430438D01*
X67394930Y-96167698D01*
X67404304Y-95879428D01*
X67302648Y-95609513D01*
X67275954Y-95569562D01*
X67130507Y-95551564D01*
X66682071Y-96000000D01*
X66667929Y-96000000D01*
X66219493Y-95551564D01*
X66074046Y-95569562D01*
X65955070Y-95832302D01*
X65945696Y-96120572D01*
X62046462Y-96120572D01*
X62054304Y-95879428D01*
X61952648Y-95609513D01*
X61925954Y-95569562D01*
X61780507Y-95551564D01*
X61332071Y-96000000D01*
X61317929Y-96000000D01*
X60869493Y-95551564D01*
X60724046Y-95569562D01*
X60605070Y-95832302D01*
X60595696Y-96120572D01*
X58290000Y-96120572D01*
X58290000Y-95770273D01*
X58300000Y-95720000D01*
X58300000Y-95544493D01*
X60876564Y-95544493D01*
X61325000Y-95992929D01*
X61773436Y-95544493D01*
X66226564Y-95544493D01*
X66675000Y-95992929D01*
X67123436Y-95544493D01*
X67105438Y-95399046D01*
X66842698Y-95280070D01*
X66554428Y-95270696D01*
X66284513Y-95372352D01*
X66244562Y-95399046D01*
X66226564Y-95544493D01*
X61773436Y-95544493D01*
X61755438Y-95399046D01*
X61492698Y-95280070D01*
X61204428Y-95270696D01*
X60934513Y-95372352D01*
X60894562Y-95399046D01*
X60876564Y-95544493D01*
X58300000Y-95544493D01*
X58300000Y-94563507D01*
X61659564Y-94563507D01*
X61677562Y-94708954D01*
X61940302Y-94827930D01*
X62228572Y-94837304D01*
X62498487Y-94735648D01*
X62538438Y-94708954D01*
X62556436Y-94563507D01*
X65443564Y-94563507D01*
X65461562Y-94708954D01*
X65724302Y-94827930D01*
X66012572Y-94837304D01*
X66282487Y-94735648D01*
X66322438Y-94708954D01*
X66340436Y-94563507D01*
X65892000Y-94115071D01*
X65443564Y-94563507D01*
X62556436Y-94563507D01*
X62108000Y-94115071D01*
X61659564Y-94563507D01*
X58300000Y-94563507D01*
X58300000Y-94228572D01*
X61378696Y-94228572D01*
X61480352Y-94498487D01*
X61507046Y-94538438D01*
X61652493Y-94556436D01*
X62100929Y-94108000D01*
X62115071Y-94108000D01*
X62563507Y-94556436D01*
X62708954Y-94538438D01*
X62827930Y-94275698D01*
X62829462Y-94228572D01*
X65162696Y-94228572D01*
X65264352Y-94498487D01*
X65291046Y-94538438D01*
X65436493Y-94556436D01*
X65884929Y-94108000D01*
X65899071Y-94108000D01*
X66347507Y-94556436D01*
X66492954Y-94538438D01*
X66611930Y-94275698D01*
X66621304Y-93987428D01*
X66519648Y-93717513D01*
X66492954Y-93677562D01*
X66347507Y-93659564D01*
X65899071Y-94108000D01*
X65884929Y-94108000D01*
X65436493Y-93659564D01*
X65291046Y-93677562D01*
X65172070Y-93940302D01*
X65162696Y-94228572D01*
X62829462Y-94228572D01*
X62837304Y-93987428D01*
X62759373Y-93780507D01*
X63551564Y-93780507D01*
X63569562Y-93925954D01*
X63832302Y-94044930D01*
X64120572Y-94054304D01*
X64390487Y-93952648D01*
X64430438Y-93925954D01*
X64448436Y-93780507D01*
X64000000Y-93332071D01*
X63551564Y-93780507D01*
X62759373Y-93780507D01*
X62735648Y-93717513D01*
X62708954Y-93677562D01*
X62563507Y-93659564D01*
X62115071Y-94108000D01*
X62100929Y-94108000D01*
X61652493Y-93659564D01*
X61507046Y-93677562D01*
X61388070Y-93940302D01*
X61378696Y-94228572D01*
X58300000Y-94228572D01*
X58300000Y-93652493D01*
X61659564Y-93652493D01*
X62108000Y-94100929D01*
X62556436Y-93652493D01*
X62538438Y-93507046D01*
X62402683Y-93445572D01*
X63270696Y-93445572D01*
X63372352Y-93715487D01*
X63399046Y-93755438D01*
X63544493Y-93773436D01*
X63992929Y-93325000D01*
X64007071Y-93325000D01*
X64455507Y-93773436D01*
X64600954Y-93755438D01*
X64647570Y-93652493D01*
X65443564Y-93652493D01*
X65892000Y-94100929D01*
X66340436Y-93652493D01*
X66322438Y-93507046D01*
X66059698Y-93388070D01*
X65771428Y-93378696D01*
X65501513Y-93480352D01*
X65461562Y-93507046D01*
X65443564Y-93652493D01*
X64647570Y-93652493D01*
X64719930Y-93492698D01*
X64729304Y-93204428D01*
X64627648Y-92934513D01*
X64600954Y-92894562D01*
X64455507Y-92876564D01*
X64007071Y-93325000D01*
X63992929Y-93325000D01*
X63544493Y-92876564D01*
X63399046Y-92894562D01*
X63280070Y-93157302D01*
X63270696Y-93445572D01*
X62402683Y-93445572D01*
X62275698Y-93388070D01*
X61987428Y-93378696D01*
X61717513Y-93480352D01*
X61677562Y-93507046D01*
X61659564Y-93652493D01*
X58300000Y-93652493D01*
X58300000Y-92869493D01*
X63551564Y-92869493D01*
X64000000Y-93317929D01*
X64448436Y-92869493D01*
X64430438Y-92724046D01*
X64167698Y-92605070D01*
X63879428Y-92595696D01*
X63609513Y-92697352D01*
X63569562Y-92724046D01*
X63551564Y-92869493D01*
X58300000Y-92869493D01*
X58300000Y-92867178D01*
X58816692Y-92764401D01*
X59351990Y-92406726D01*
X59623756Y-92000000D01*
X61148884Y-92000000D01*
X61184575Y-92055465D01*
X61351661Y-92169630D01*
X61550000Y-92209795D01*
X62950000Y-92209795D01*
X63135289Y-92174931D01*
X63305465Y-92065425D01*
X63419630Y-91898339D01*
X63459795Y-91700000D01*
X63459795Y-91221284D01*
X64672488Y-91221284D01*
X64831608Y-91605447D01*
X65133211Y-91910814D01*
X65528715Y-92077517D01*
X65700000Y-91998868D01*
X65700000Y-91050000D01*
X65800000Y-91050000D01*
X65800000Y-91998868D01*
X65971285Y-92077517D01*
X66366789Y-91910814D01*
X66668392Y-91605447D01*
X66827512Y-91221284D01*
X66748749Y-91050000D01*
X65800000Y-91050000D01*
X65700000Y-91050000D01*
X64751251Y-91050000D01*
X64672488Y-91221284D01*
X63459795Y-91221284D01*
X63459795Y-90778716D01*
X64672488Y-90778716D01*
X64751251Y-90950000D01*
X65700000Y-90950000D01*
X65700000Y-90001132D01*
X65800000Y-90001132D01*
X65800000Y-90950000D01*
X66748749Y-90950000D01*
X66827512Y-90778716D01*
X66668392Y-90394553D01*
X66366789Y-90089186D01*
X65971285Y-89922483D01*
X65800000Y-90001132D01*
X65700000Y-90001132D01*
X65528715Y-89922483D01*
X65133211Y-90089186D01*
X64831608Y-90394553D01*
X64672488Y-90778716D01*
X63459795Y-90778716D01*
X63459795Y-90300000D01*
X63424931Y-90114711D01*
X63315425Y-89944535D01*
X63148339Y-89830370D01*
X62950000Y-89790205D01*
X61550000Y-89790205D01*
X61364711Y-89825069D01*
X61194535Y-89934575D01*
X61149832Y-90000000D01*
X59242328Y-90000000D01*
X58816692Y-89715599D01*
X58185264Y-89590000D01*
X57814736Y-89590000D01*
X57183308Y-89715599D01*
X56648010Y-90073274D01*
X56290335Y-90608572D01*
X56164736Y-91240000D01*
X56175935Y-91296299D01*
X56166117Y-91306117D01*
X55895151Y-91711646D01*
X55800000Y-92190000D01*
X55800000Y-95679727D01*
X55790000Y-95730000D01*
X55790000Y-98270000D01*
X55885151Y-98748354D01*
X55891931Y-98758501D01*
X55931345Y-98956648D01*
X56191472Y-99345956D01*
X56347185Y-99450000D01*
X55192815Y-99450000D01*
X55348528Y-99345956D01*
X55608655Y-98956648D01*
X55700000Y-98497428D01*
X55700000Y-98042572D01*
X55608655Y-97583352D01*
X55348528Y-97194044D01*
X55058120Y-97000000D01*
X55348528Y-96805956D01*
X55608655Y-96416648D01*
X55700000Y-95957428D01*
X55700000Y-95502572D01*
X55608655Y-95043352D01*
X55348528Y-94654044D01*
X54959220Y-94393917D01*
X54500000Y-94302572D01*
X54040780Y-94393917D01*
X53651472Y-94654044D01*
X53391345Y-95043352D01*
X53300000Y-95502572D01*
X53300000Y-95957428D01*
X53391345Y-96416648D01*
X53651472Y-96805956D01*
X53941880Y-97000000D01*
X53651472Y-97194044D01*
X53391345Y-97583352D01*
X53300000Y-98042572D01*
X53300000Y-98497428D01*
X53391345Y-98956648D01*
X53651472Y-99345956D01*
X53807185Y-99450000D01*
X52652815Y-99450000D01*
X52808528Y-99345956D01*
X53068655Y-98956648D01*
X53160000Y-98497428D01*
X53160000Y-98042572D01*
X53068655Y-97583352D01*
X52808528Y-97194044D01*
X52518120Y-97000000D01*
X52808528Y-96805956D01*
X53068655Y-96416648D01*
X53160000Y-95957428D01*
X53160000Y-95502572D01*
X53068655Y-95043352D01*
X52808528Y-94654044D01*
X52419220Y-94393917D01*
X51960000Y-94302572D01*
X51500780Y-94393917D01*
X51111472Y-94654044D01*
X50851345Y-95043352D01*
X50760000Y-95502572D01*
X50760000Y-95957428D01*
X50851345Y-96416648D01*
X51111472Y-96805956D01*
X51401880Y-97000000D01*
X51111472Y-97194044D01*
X50851345Y-97583352D01*
X50760000Y-98042572D01*
X50760000Y-98497428D01*
X50851345Y-98956648D01*
X51111472Y-99345956D01*
X51267185Y-99450000D01*
X50550000Y-99450000D01*
X50550000Y-86160000D01*
X56164736Y-86160000D01*
X56290335Y-86791428D01*
X56648010Y-87326726D01*
X57183308Y-87684401D01*
X57814736Y-87810000D01*
X58185264Y-87810000D01*
X58816692Y-87684401D01*
X59351990Y-87326726D01*
X59709665Y-86791428D01*
X59835264Y-86160000D01*
X59709665Y-85528572D01*
X59351990Y-84993274D01*
X58816692Y-84635599D01*
X58185264Y-84510000D01*
X57814736Y-84510000D01*
X57183308Y-84635599D01*
X56648010Y-84993274D01*
X56290335Y-85528572D01*
X56164736Y-86160000D01*
X50550000Y-86160000D01*
X50550000Y-81080000D01*
X56164736Y-81080000D01*
X56290335Y-81711428D01*
X56648010Y-82246726D01*
X57183308Y-82604401D01*
X57814736Y-82730000D01*
X58185264Y-82730000D01*
X58816692Y-82604401D01*
X59351990Y-82246726D01*
X59709665Y-81711428D01*
X59835264Y-81080000D01*
X59709665Y-80448572D01*
X59351990Y-79913274D01*
X58816692Y-79555599D01*
X58185264Y-79430000D01*
X57814736Y-79430000D01*
X57183308Y-79555599D01*
X56648010Y-79913274D01*
X56290335Y-80448572D01*
X56164736Y-81080000D01*
X50550000Y-81080000D01*
X50550000Y-74850000D01*
X56190205Y-74850000D01*
X56190205Y-77150000D01*
X56225069Y-77335289D01*
X56334575Y-77505465D01*
X56501661Y-77619630D01*
X56700000Y-77659795D01*
X59300000Y-77659795D01*
X59485289Y-77624931D01*
X59655465Y-77515425D01*
X59769630Y-77348339D01*
X59809795Y-77150000D01*
X59809795Y-77000000D01*
X65835786Y-77000000D01*
X67000000Y-78164214D01*
X67000000Y-90635000D01*
X67076120Y-91017684D01*
X67292893Y-91342107D01*
X69729000Y-93778214D01*
X69729000Y-93873021D01*
X69643711Y-93889069D01*
X69473535Y-93998575D01*
X69359370Y-94165661D01*
X69319205Y-94364000D01*
X69319205Y-95764000D01*
X69354069Y-95949289D01*
X69463575Y-96119465D01*
X69630661Y-96233630D01*
X69729000Y-96253544D01*
X69729000Y-96704720D01*
X69653044Y-96755472D01*
X69392917Y-97144780D01*
X69301572Y-97604000D01*
X69392917Y-98063220D01*
X69653044Y-98452528D01*
X70042352Y-98712655D01*
X70501572Y-98804000D01*
X70956428Y-98804000D01*
X71415648Y-98712655D01*
X71804956Y-98452528D01*
X72065083Y-98063220D01*
X72156428Y-97604000D01*
X72065083Y-97144780D01*
X71804956Y-96755472D01*
X71729000Y-96704720D01*
X71729000Y-96254979D01*
X71814289Y-96238931D01*
X71984465Y-96129425D01*
X72098630Y-95962339D01*
X72138795Y-95764000D01*
X72138795Y-94364000D01*
X72103931Y-94178711D01*
X71994425Y-94008535D01*
X71827339Y-93894370D01*
X71729000Y-93874456D01*
X71729000Y-93555000D01*
X81275000Y-93555000D01*
X81275000Y-94004565D01*
X81335896Y-94151582D01*
X81448418Y-94264104D01*
X81595435Y-94325000D01*
X82070000Y-94325000D01*
X82170000Y-94225000D01*
X82170000Y-93455000D01*
X81375000Y-93455000D01*
X81275000Y-93555000D01*
X71729000Y-93555000D01*
X71729000Y-93364000D01*
X71697259Y-93204428D01*
X71652880Y-92981316D01*
X71436107Y-92656893D01*
X70484214Y-91705000D01*
X76475000Y-91705000D01*
X76475000Y-92429565D01*
X76535896Y-92576582D01*
X76648418Y-92689104D01*
X76795435Y-92750000D01*
X77395000Y-92750000D01*
X77495000Y-92650000D01*
X77495000Y-91605000D01*
X77505000Y-91605000D01*
X77505000Y-92650000D01*
X77605000Y-92750000D01*
X78204565Y-92750000D01*
X78351582Y-92689104D01*
X78464104Y-92576582D01*
X78525000Y-92429565D01*
X78525000Y-91705000D01*
X78425000Y-91605000D01*
X77505000Y-91605000D01*
X77495000Y-91605000D01*
X76575000Y-91605000D01*
X76475000Y-91705000D01*
X70484214Y-91705000D01*
X69000000Y-90220786D01*
X69000000Y-87113015D01*
X69443336Y-87113015D01*
X69510819Y-87352332D01*
X69747647Y-87710282D01*
X70103429Y-87950354D01*
X70524000Y-88036000D01*
X70724000Y-88036000D01*
X70724000Y-86941000D01*
X70734000Y-86941000D01*
X70734000Y-88036000D01*
X70934000Y-88036000D01*
X71354571Y-87950354D01*
X71710353Y-87710282D01*
X71947181Y-87352332D01*
X72014664Y-87113015D01*
X71928987Y-86941000D01*
X70734000Y-86941000D01*
X70724000Y-86941000D01*
X69529013Y-86941000D01*
X69443336Y-87113015D01*
X69000000Y-87113015D01*
X69000000Y-86758985D01*
X69443336Y-86758985D01*
X69529013Y-86931000D01*
X70724000Y-86931000D01*
X70724000Y-85836000D01*
X70734000Y-85836000D01*
X70734000Y-86931000D01*
X71928987Y-86931000D01*
X72014664Y-86758985D01*
X71947181Y-86519668D01*
X71710353Y-86161718D01*
X71354571Y-85921646D01*
X70934000Y-85836000D01*
X70734000Y-85836000D01*
X70724000Y-85836000D01*
X70524000Y-85836000D01*
X70103429Y-85921646D01*
X69747647Y-86161718D01*
X69510819Y-86519668D01*
X69443336Y-86758985D01*
X69000000Y-86758985D01*
X69000000Y-84501000D01*
X69429000Y-84501000D01*
X69429000Y-85175565D01*
X69489896Y-85322582D01*
X69602418Y-85435104D01*
X69749435Y-85496000D01*
X70624000Y-85496000D01*
X70724000Y-85396000D01*
X70724000Y-84401000D01*
X70734000Y-84401000D01*
X70734000Y-85396000D01*
X70834000Y-85496000D01*
X71708565Y-85496000D01*
X71855582Y-85435104D01*
X71968104Y-85322582D01*
X72029000Y-85175565D01*
X72029000Y-84501000D01*
X71929000Y-84401000D01*
X70734000Y-84401000D01*
X70724000Y-84401000D01*
X69529000Y-84401000D01*
X69429000Y-84501000D01*
X69000000Y-84501000D01*
X69000000Y-83616435D01*
X69429000Y-83616435D01*
X69429000Y-84291000D01*
X69529000Y-84391000D01*
X70724000Y-84391000D01*
X70724000Y-83396000D01*
X70734000Y-83396000D01*
X70734000Y-84391000D01*
X71929000Y-84391000D01*
X72029000Y-84291000D01*
X72029000Y-83616435D01*
X71968104Y-83469418D01*
X71855582Y-83356896D01*
X71708565Y-83296000D01*
X70834000Y-83296000D01*
X70734000Y-83396000D01*
X70724000Y-83396000D01*
X70624000Y-83296000D01*
X69749435Y-83296000D01*
X69602418Y-83356896D01*
X69489896Y-83469418D01*
X69429000Y-83616435D01*
X69000000Y-83616435D01*
X69000000Y-79606006D01*
X69064718Y-79779006D01*
X69357488Y-80092849D01*
X69748075Y-80270764D01*
X69822985Y-80285664D01*
X69995000Y-80199987D01*
X69995000Y-79205000D01*
X70005000Y-79205000D01*
X70005000Y-80199987D01*
X70177015Y-80285664D01*
X70251925Y-80270764D01*
X70642512Y-80092849D01*
X70935282Y-79779006D01*
X71085664Y-79377015D01*
X70999989Y-79205000D01*
X70005000Y-79205000D01*
X69995000Y-79205000D01*
X69975000Y-79205000D01*
X69975000Y-79195000D01*
X69995000Y-79195000D01*
X69995000Y-78200013D01*
X70005000Y-78200013D01*
X70005000Y-79195000D01*
X70999989Y-79195000D01*
X71085664Y-79022985D01*
X70935282Y-78620994D01*
X70642512Y-78307151D01*
X70251925Y-78129236D01*
X70177015Y-78114336D01*
X70005000Y-78200013D01*
X69995000Y-78200013D01*
X69822985Y-78114336D01*
X69748075Y-78129236D01*
X69357488Y-78307151D01*
X69064718Y-78620994D01*
X69000000Y-78793994D01*
X69000000Y-77914214D01*
X70004418Y-76909795D01*
X70700000Y-76909795D01*
X70885289Y-76874931D01*
X71055465Y-76765425D01*
X71169630Y-76598339D01*
X71209795Y-76400000D01*
X71209795Y-75000000D01*
X71174931Y-74814711D01*
X71065425Y-74644535D01*
X70898339Y-74530370D01*
X70700000Y-74490205D01*
X69300000Y-74490205D01*
X69114711Y-74525069D01*
X68944535Y-74634575D01*
X68830370Y-74801661D01*
X68790205Y-75000000D01*
X68790205Y-75295582D01*
X67875000Y-76210786D01*
X66957107Y-75292893D01*
X66632684Y-75076120D01*
X66250000Y-75000000D01*
X59809795Y-75000000D01*
X59809795Y-74850000D01*
X59774931Y-74664711D01*
X59665425Y-74494535D01*
X59498339Y-74380370D01*
X59300000Y-74340205D01*
X56700000Y-74340205D01*
X56514711Y-74375069D01*
X56344535Y-74484575D01*
X56230370Y-74651661D01*
X56190205Y-74850000D01*
X50550000Y-74850000D01*
X50550000Y-70100000D01*
X56396744Y-70100000D01*
X56416073Y-70168540D01*
X56750449Y-70672480D01*
X57252221Y-71010100D01*
X57845000Y-71130000D01*
X57995000Y-71130000D01*
X57995000Y-70100000D01*
X58005000Y-70100000D01*
X58005000Y-71130000D01*
X58155000Y-71130000D01*
X58747779Y-71010100D01*
X59249551Y-70672480D01*
X59583927Y-70168540D01*
X59603256Y-70100000D01*
X59868213Y-70100000D01*
X59893917Y-70229220D01*
X60154044Y-70618528D01*
X60543352Y-70878655D01*
X61002572Y-70970000D01*
X61457428Y-70970000D01*
X61916648Y-70878655D01*
X62305956Y-70618528D01*
X62500000Y-70328120D01*
X62694044Y-70618528D01*
X63083352Y-70878655D01*
X63542572Y-70970000D01*
X63997428Y-70970000D01*
X64456648Y-70878655D01*
X64845956Y-70618528D01*
X65100000Y-70238324D01*
X65100000Y-72400000D01*
X65145672Y-72629610D01*
X65275736Y-72824264D01*
X66575736Y-74124264D01*
X66770390Y-74254328D01*
X67000000Y-74300000D01*
X78400000Y-74300000D01*
X78400000Y-88232750D01*
X78323339Y-88180370D01*
X78125000Y-88140205D01*
X76875000Y-88140205D01*
X76689711Y-88175069D01*
X76519535Y-88284575D01*
X76405370Y-88451661D01*
X76365205Y-88650000D01*
X76365205Y-90150000D01*
X76400069Y-90335289D01*
X76509575Y-90505465D01*
X76595286Y-90564028D01*
X76535896Y-90623418D01*
X76475000Y-90770435D01*
X76475000Y-91495000D01*
X76575000Y-91595000D01*
X77495000Y-91595000D01*
X77495000Y-91575000D01*
X77505000Y-91575000D01*
X77505000Y-91595000D01*
X78425000Y-91595000D01*
X78525000Y-91495000D01*
X78525000Y-91305000D01*
X79600000Y-91305000D01*
X79600000Y-92379565D01*
X79660896Y-92526582D01*
X79773418Y-92639104D01*
X79920435Y-92700000D01*
X80595000Y-92700000D01*
X80695000Y-92600000D01*
X80695000Y-91205000D01*
X79700000Y-91205000D01*
X79600000Y-91305000D01*
X78525000Y-91305000D01*
X78525000Y-90770435D01*
X78464104Y-90623418D01*
X78404800Y-90564114D01*
X78480465Y-90515425D01*
X78558697Y-90400929D01*
X78569915Y-90418363D01*
X78766566Y-90552728D01*
X79000000Y-90600000D01*
X79600000Y-90600000D01*
X79600000Y-91095000D01*
X79700000Y-91195000D01*
X80695000Y-91195000D01*
X80695000Y-91175000D01*
X80705000Y-91175000D01*
X80705000Y-91195000D01*
X80725000Y-91195000D01*
X80725000Y-91205000D01*
X80705000Y-91205000D01*
X80705000Y-92600000D01*
X80805000Y-92700000D01*
X81384314Y-92700000D01*
X81335896Y-92748418D01*
X81275000Y-92895435D01*
X81275000Y-93345000D01*
X81375000Y-93445000D01*
X82170000Y-93445000D01*
X82170000Y-93425000D01*
X82180000Y-93425000D01*
X82180000Y-93445000D01*
X82200000Y-93445000D01*
X82200000Y-93455000D01*
X82180000Y-93455000D01*
X82180000Y-94225000D01*
X82280000Y-94325000D01*
X82754565Y-94325000D01*
X82798263Y-94306900D01*
X82926661Y-94394630D01*
X83125000Y-94434795D01*
X84125000Y-94434795D01*
X84310289Y-94399931D01*
X84480465Y-94290425D01*
X84594630Y-94123339D01*
X84634795Y-93925000D01*
X84634795Y-93284443D01*
X85109444Y-92809795D01*
X85649135Y-92809795D01*
X87861205Y-95021865D01*
X87861205Y-95764000D01*
X87896069Y-95949289D01*
X88005575Y-96119465D01*
X88172661Y-96233630D01*
X88271000Y-96253544D01*
X88271000Y-96704720D01*
X88195044Y-96755472D01*
X87934917Y-97144780D01*
X87843572Y-97604000D01*
X87934917Y-98063220D01*
X88195044Y-98452528D01*
X88584352Y-98712655D01*
X89043572Y-98804000D01*
X89498428Y-98804000D01*
X89540798Y-98795572D01*
X95270696Y-98795572D01*
X95372352Y-99065487D01*
X95399046Y-99105438D01*
X95544493Y-99123436D01*
X95992929Y-98675000D01*
X96007071Y-98675000D01*
X96455507Y-99123436D01*
X96600954Y-99105438D01*
X96719930Y-98842698D01*
X96729304Y-98554428D01*
X96651373Y-98347507D01*
X97443564Y-98347507D01*
X97461562Y-98492954D01*
X97724302Y-98611930D01*
X98012572Y-98621304D01*
X98282487Y-98519648D01*
X98322438Y-98492954D01*
X98340436Y-98347507D01*
X97892000Y-97899071D01*
X97443564Y-98347507D01*
X96651373Y-98347507D01*
X96627648Y-98284513D01*
X96600954Y-98244562D01*
X96455507Y-98226564D01*
X96007071Y-98675000D01*
X95992929Y-98675000D01*
X95544493Y-98226564D01*
X95399046Y-98244562D01*
X95280070Y-98507302D01*
X95270696Y-98795572D01*
X89540798Y-98795572D01*
X89957648Y-98712655D01*
X90346956Y-98452528D01*
X90417128Y-98347507D01*
X93659564Y-98347507D01*
X93677562Y-98492954D01*
X93940302Y-98611930D01*
X94228572Y-98621304D01*
X94498487Y-98519648D01*
X94538438Y-98492954D01*
X94556436Y-98347507D01*
X94108000Y-97899071D01*
X93659564Y-98347507D01*
X90417128Y-98347507D01*
X90607083Y-98063220D01*
X90617157Y-98012572D01*
X93378696Y-98012572D01*
X93480352Y-98282487D01*
X93507046Y-98322438D01*
X93652493Y-98340436D01*
X94100929Y-97892000D01*
X94115071Y-97892000D01*
X94563507Y-98340436D01*
X94708954Y-98322438D01*
X94755570Y-98219493D01*
X95551564Y-98219493D01*
X96000000Y-98667929D01*
X96448436Y-98219493D01*
X96430438Y-98074046D01*
X96294683Y-98012572D01*
X97162696Y-98012572D01*
X97264352Y-98282487D01*
X97291046Y-98322438D01*
X97436493Y-98340436D01*
X97884929Y-97892000D01*
X97899071Y-97892000D01*
X98347507Y-98340436D01*
X98492954Y-98322438D01*
X98611930Y-98059698D01*
X98621304Y-97771428D01*
X98519648Y-97501513D01*
X98492954Y-97461562D01*
X98347507Y-97443564D01*
X97899071Y-97892000D01*
X97884929Y-97892000D01*
X97436493Y-97443564D01*
X97291046Y-97461562D01*
X97172070Y-97724302D01*
X97162696Y-98012572D01*
X96294683Y-98012572D01*
X96167698Y-97955070D01*
X95879428Y-97945696D01*
X95609513Y-98047352D01*
X95569562Y-98074046D01*
X95551564Y-98219493D01*
X94755570Y-98219493D01*
X94827930Y-98059698D01*
X94837304Y-97771428D01*
X94735648Y-97501513D01*
X94708954Y-97461562D01*
X94563507Y-97443564D01*
X94115071Y-97892000D01*
X94100929Y-97892000D01*
X93652493Y-97443564D01*
X93507046Y-97461562D01*
X93388070Y-97724302D01*
X93378696Y-98012572D01*
X90617157Y-98012572D01*
X90698428Y-97604000D01*
X90665109Y-97436493D01*
X93659564Y-97436493D01*
X94108000Y-97884929D01*
X94556436Y-97436493D01*
X97443564Y-97436493D01*
X97892000Y-97884929D01*
X98340436Y-97436493D01*
X98322438Y-97291046D01*
X98059698Y-97172070D01*
X97771428Y-97162696D01*
X97501513Y-97264352D01*
X97461562Y-97291046D01*
X97443564Y-97436493D01*
X94556436Y-97436493D01*
X94538438Y-97291046D01*
X94275698Y-97172070D01*
X93987428Y-97162696D01*
X93717513Y-97264352D01*
X93677562Y-97291046D01*
X93659564Y-97436493D01*
X90665109Y-97436493D01*
X90607083Y-97144780D01*
X90346956Y-96755472D01*
X90271000Y-96704720D01*
X90271000Y-96455507D01*
X92876564Y-96455507D01*
X92894562Y-96600954D01*
X93157302Y-96719930D01*
X93445572Y-96729304D01*
X93715487Y-96627648D01*
X93755438Y-96600954D01*
X93773436Y-96455507D01*
X98226564Y-96455507D01*
X98244562Y-96600954D01*
X98507302Y-96719930D01*
X98795572Y-96729304D01*
X99065487Y-96627648D01*
X99105438Y-96600954D01*
X99123436Y-96455507D01*
X98675000Y-96007071D01*
X98226564Y-96455507D01*
X93773436Y-96455507D01*
X93325000Y-96007071D01*
X92876564Y-96455507D01*
X90271000Y-96455507D01*
X90271000Y-96254979D01*
X90356289Y-96238931D01*
X90526465Y-96129425D01*
X90532513Y-96120572D01*
X92595696Y-96120572D01*
X92697352Y-96390487D01*
X92724046Y-96430438D01*
X92869493Y-96448436D01*
X93317929Y-96000000D01*
X93332071Y-96000000D01*
X93780507Y-96448436D01*
X93925954Y-96430438D01*
X94044930Y-96167698D01*
X94046462Y-96120572D01*
X97945696Y-96120572D01*
X98047352Y-96390487D01*
X98074046Y-96430438D01*
X98219493Y-96448436D01*
X98667929Y-96000000D01*
X98682071Y-96000000D01*
X99130507Y-96448436D01*
X99275954Y-96430438D01*
X99394930Y-96167698D01*
X99404304Y-95879428D01*
X99302648Y-95609513D01*
X99275954Y-95569562D01*
X99130507Y-95551564D01*
X98682071Y-96000000D01*
X98667929Y-96000000D01*
X98219493Y-95551564D01*
X98074046Y-95569562D01*
X97955070Y-95832302D01*
X97945696Y-96120572D01*
X94046462Y-96120572D01*
X94054304Y-95879428D01*
X93952648Y-95609513D01*
X93925954Y-95569562D01*
X93780507Y-95551564D01*
X93332071Y-96000000D01*
X93317929Y-96000000D01*
X92869493Y-95551564D01*
X92724046Y-95569562D01*
X92605070Y-95832302D01*
X92595696Y-96120572D01*
X90532513Y-96120572D01*
X90640630Y-95962339D01*
X90680795Y-95764000D01*
X90680795Y-95544493D01*
X92876564Y-95544493D01*
X93325000Y-95992929D01*
X93773436Y-95544493D01*
X98226564Y-95544493D01*
X98675000Y-95992929D01*
X99123436Y-95544493D01*
X99105438Y-95399046D01*
X98842698Y-95280070D01*
X98554428Y-95270696D01*
X98284513Y-95372352D01*
X98244562Y-95399046D01*
X98226564Y-95544493D01*
X93773436Y-95544493D01*
X93755438Y-95399046D01*
X93492698Y-95280070D01*
X93204428Y-95270696D01*
X92934513Y-95372352D01*
X92894562Y-95399046D01*
X92876564Y-95544493D01*
X90680795Y-95544493D01*
X90680795Y-95233419D01*
X91350707Y-94563507D01*
X93659564Y-94563507D01*
X93677562Y-94708954D01*
X93940302Y-94827930D01*
X94228572Y-94837304D01*
X94498487Y-94735648D01*
X94538438Y-94708954D01*
X94556436Y-94563507D01*
X97443564Y-94563507D01*
X97461562Y-94708954D01*
X97724302Y-94827930D01*
X98012572Y-94837304D01*
X98282487Y-94735648D01*
X98322438Y-94708954D01*
X98340436Y-94563507D01*
X97892000Y-94115071D01*
X97443564Y-94563507D01*
X94556436Y-94563507D01*
X94108000Y-94115071D01*
X93659564Y-94563507D01*
X91350707Y-94563507D01*
X91685642Y-94228572D01*
X93378696Y-94228572D01*
X93480352Y-94498487D01*
X93507046Y-94538438D01*
X93652493Y-94556436D01*
X94100929Y-94108000D01*
X94115071Y-94108000D01*
X94563507Y-94556436D01*
X94708954Y-94538438D01*
X94827930Y-94275698D01*
X94829462Y-94228572D01*
X97162696Y-94228572D01*
X97264352Y-94498487D01*
X97291046Y-94538438D01*
X97436493Y-94556436D01*
X97884929Y-94108000D01*
X97899071Y-94108000D01*
X98347507Y-94556436D01*
X98492954Y-94538438D01*
X98611930Y-94275698D01*
X98621304Y-93987428D01*
X98519648Y-93717513D01*
X98492954Y-93677562D01*
X98347507Y-93659564D01*
X97899071Y-94108000D01*
X97884929Y-94108000D01*
X97436493Y-93659564D01*
X97291046Y-93677562D01*
X97172070Y-93940302D01*
X97162696Y-94228572D01*
X94829462Y-94228572D01*
X94837304Y-93987428D01*
X94759373Y-93780507D01*
X95551564Y-93780507D01*
X95569562Y-93925954D01*
X95832302Y-94044930D01*
X96120572Y-94054304D01*
X96390487Y-93952648D01*
X96430438Y-93925954D01*
X96448436Y-93780507D01*
X96000000Y-93332071D01*
X95551564Y-93780507D01*
X94759373Y-93780507D01*
X94735648Y-93717513D01*
X94708954Y-93677562D01*
X94563507Y-93659564D01*
X94115071Y-94108000D01*
X94100929Y-94108000D01*
X93652493Y-93659564D01*
X93507046Y-93677562D01*
X93388070Y-93940302D01*
X93378696Y-94228572D01*
X91685642Y-94228572D01*
X92261721Y-93652493D01*
X93659564Y-93652493D01*
X94108000Y-94100929D01*
X94556436Y-93652493D01*
X94538438Y-93507046D01*
X94402683Y-93445572D01*
X95270696Y-93445572D01*
X95372352Y-93715487D01*
X95399046Y-93755438D01*
X95544493Y-93773436D01*
X95992929Y-93325000D01*
X96007071Y-93325000D01*
X96455507Y-93773436D01*
X96600954Y-93755438D01*
X96647570Y-93652493D01*
X97443564Y-93652493D01*
X97892000Y-94100929D01*
X98340436Y-93652493D01*
X98322438Y-93507046D01*
X98059698Y-93388070D01*
X97771428Y-93378696D01*
X97501513Y-93480352D01*
X97461562Y-93507046D01*
X97443564Y-93652493D01*
X96647570Y-93652493D01*
X96719930Y-93492698D01*
X96729304Y-93204428D01*
X96627648Y-92934513D01*
X96600954Y-92894562D01*
X96455507Y-92876564D01*
X96007071Y-93325000D01*
X95992929Y-93325000D01*
X95544493Y-92876564D01*
X95399046Y-92894562D01*
X95280070Y-93157302D01*
X95270696Y-93445572D01*
X94402683Y-93445572D01*
X94275698Y-93388070D01*
X93987428Y-93378696D01*
X93717513Y-93480352D01*
X93677562Y-93507046D01*
X93659564Y-93652493D01*
X92261721Y-93652493D01*
X93044721Y-92869493D01*
X95551564Y-92869493D01*
X96000000Y-93317929D01*
X96448436Y-92869493D01*
X96430438Y-92724046D01*
X96167698Y-92605070D01*
X95879428Y-92595696D01*
X95609513Y-92697352D01*
X95569562Y-92724046D01*
X95551564Y-92869493D01*
X93044721Y-92869493D01*
X94254419Y-91659795D01*
X94650000Y-91659795D01*
X94835289Y-91624931D01*
X95005465Y-91515425D01*
X95119630Y-91348339D01*
X95159795Y-91150000D01*
X95159795Y-90669193D01*
X95463721Y-90669193D01*
X95477855Y-90740254D01*
X95647602Y-91113124D01*
X95947119Y-91392651D01*
X96330807Y-91536280D01*
X96495000Y-91449989D01*
X96495000Y-90505000D01*
X96505000Y-90505000D01*
X96505000Y-91449989D01*
X96669193Y-91536280D01*
X97052881Y-91392651D01*
X97352398Y-91113124D01*
X97522145Y-90740254D01*
X97536279Y-90669193D01*
X97449987Y-90505000D01*
X96505000Y-90505000D01*
X96495000Y-90505000D01*
X95550013Y-90505000D01*
X95463721Y-90669193D01*
X95159795Y-90669193D01*
X95159795Y-90330807D01*
X95463721Y-90330807D01*
X95550013Y-90495000D01*
X96495000Y-90495000D01*
X96495000Y-89550011D01*
X96505000Y-89550011D01*
X96505000Y-90495000D01*
X97449987Y-90495000D01*
X97536279Y-90330807D01*
X97522145Y-90259746D01*
X97352398Y-89886876D01*
X97052881Y-89607349D01*
X96669193Y-89463720D01*
X96505000Y-89550011D01*
X96495000Y-89550011D01*
X96330807Y-89463720D01*
X95947119Y-89607349D01*
X95647602Y-89886876D01*
X95477855Y-90259746D01*
X95463721Y-90330807D01*
X95159795Y-90330807D01*
X95159795Y-89850000D01*
X95124931Y-89664711D01*
X95015425Y-89494535D01*
X95000000Y-89483996D01*
X95000000Y-80114214D01*
X98227107Y-76887107D01*
X98443880Y-76562684D01*
X98520000Y-76180000D01*
X98520000Y-68209280D01*
X98595956Y-68158528D01*
X98856083Y-67769220D01*
X98947428Y-67310000D01*
X98856083Y-66850780D01*
X98595956Y-66461472D01*
X98206648Y-66201345D01*
X97747428Y-66110000D01*
X97292572Y-66110000D01*
X96850000Y-66198033D01*
X96850000Y-65998528D01*
X96947223Y-65901305D01*
X97292572Y-65970000D01*
X97747428Y-65970000D01*
X98206648Y-65878655D01*
X98595956Y-65618528D01*
X98856083Y-65229220D01*
X98947428Y-64770000D01*
X98856083Y-64310780D01*
X98595956Y-63921472D01*
X98206648Y-63661345D01*
X97747428Y-63570000D01*
X97292572Y-63570000D01*
X96833352Y-63661345D01*
X96444044Y-63921472D01*
X96250000Y-64211880D01*
X96055956Y-63921472D01*
X95666648Y-63661345D01*
X95207428Y-63570000D01*
X94752572Y-63570000D01*
X94293352Y-63661345D01*
X93904044Y-63921472D01*
X93643917Y-64310780D01*
X93552572Y-64770000D01*
X93615436Y-65086036D01*
X92575736Y-66125736D01*
X92445672Y-66320390D01*
X92400000Y-66550000D01*
X92400000Y-71051472D01*
X90751472Y-72700000D01*
X83774913Y-72700000D01*
X83774980Y-72623548D01*
X86093528Y-70305000D01*
X89100000Y-70305000D01*
X89100000Y-70879565D01*
X89160896Y-71026582D01*
X89273418Y-71139104D01*
X89420435Y-71200000D01*
X90395000Y-71200000D01*
X90495000Y-71100000D01*
X90495000Y-70205000D01*
X90505000Y-70205000D01*
X90505000Y-71100000D01*
X90605000Y-71200000D01*
X91579565Y-71200000D01*
X91726582Y-71139104D01*
X91839104Y-71026582D01*
X91900000Y-70879565D01*
X91900000Y-70305000D01*
X91800000Y-70205000D01*
X90505000Y-70205000D01*
X90495000Y-70205000D01*
X89200000Y-70205000D01*
X89100000Y-70305000D01*
X86093528Y-70305000D01*
X88093528Y-68305000D01*
X89100000Y-68305000D01*
X89100000Y-68879565D01*
X89160896Y-69026582D01*
X89273418Y-69139104D01*
X89420435Y-69200000D01*
X89273418Y-69260896D01*
X89160896Y-69373418D01*
X89100000Y-69520435D01*
X89100000Y-70095000D01*
X89200000Y-70195000D01*
X90495000Y-70195000D01*
X90495000Y-69300000D01*
X90395000Y-69200000D01*
X90495000Y-69100000D01*
X90495000Y-68205000D01*
X90505000Y-68205000D01*
X90505000Y-69100000D01*
X90605000Y-69200000D01*
X90505000Y-69300000D01*
X90505000Y-70195000D01*
X91800000Y-70195000D01*
X91900000Y-70095000D01*
X91900000Y-69520435D01*
X91839104Y-69373418D01*
X91726582Y-69260896D01*
X91579565Y-69200000D01*
X91726582Y-69139104D01*
X91839104Y-69026582D01*
X91900000Y-68879565D01*
X91900000Y-68305000D01*
X91800000Y-68205000D01*
X90505000Y-68205000D01*
X90495000Y-68205000D01*
X89200000Y-68205000D01*
X89100000Y-68305000D01*
X88093528Y-68305000D01*
X89199026Y-67199502D01*
X89283043Y-67256909D01*
X89273418Y-67260896D01*
X89160896Y-67373418D01*
X89100000Y-67520435D01*
X89100000Y-68095000D01*
X89200000Y-68195000D01*
X90495000Y-68195000D01*
X90495000Y-68175000D01*
X90505000Y-68175000D01*
X90505000Y-68195000D01*
X91800000Y-68195000D01*
X91900000Y-68095000D01*
X91900000Y-67520435D01*
X91839104Y-67373418D01*
X91726582Y-67260896D01*
X91714729Y-67255987D01*
X91855465Y-67165425D01*
X91969630Y-66998339D01*
X92009795Y-66800000D01*
X92009795Y-65600000D01*
X91974931Y-65414711D01*
X91865425Y-65244535D01*
X91800968Y-65200493D01*
X91855465Y-65165425D01*
X91969630Y-64998339D01*
X92009795Y-64800000D01*
X92009795Y-64798052D01*
X92229610Y-64754328D01*
X92424264Y-64624264D01*
X93943582Y-63104946D01*
X94293352Y-63338655D01*
X94752572Y-63430000D01*
X95207428Y-63430000D01*
X95666648Y-63338655D01*
X96055956Y-63078528D01*
X96250000Y-62788120D01*
X96444044Y-63078528D01*
X96833352Y-63338655D01*
X97292572Y-63430000D01*
X97747428Y-63430000D01*
X98206648Y-63338655D01*
X98595956Y-63078528D01*
X98856083Y-62689220D01*
X98947428Y-62230000D01*
X98856083Y-61770780D01*
X98595956Y-61381472D01*
X98206648Y-61121345D01*
X97747428Y-61030000D01*
X97292572Y-61030000D01*
X97022291Y-61083763D01*
X96543531Y-60605003D01*
X96833352Y-60798655D01*
X97292572Y-60890000D01*
X97747428Y-60890000D01*
X98206648Y-60798655D01*
X98595956Y-60538528D01*
X98856083Y-60149220D01*
X98947428Y-59690000D01*
X98856083Y-59230780D01*
X98595956Y-58841472D01*
X98206648Y-58581345D01*
X97747428Y-58490000D01*
X97292572Y-58490000D01*
X97080677Y-58532149D01*
X96574264Y-58025736D01*
X96379610Y-57895672D01*
X96150000Y-57850000D01*
X94448528Y-57850000D01*
X94198528Y-57600000D01*
X96000000Y-57600000D01*
X96038906Y-57592121D01*
X96071681Y-57569727D01*
X96093161Y-57536346D01*
X96100000Y-57500000D01*
X96100000Y-57403635D01*
X96120572Y-57404304D01*
X96390487Y-57302648D01*
X96430438Y-57275954D01*
X96448436Y-57130507D01*
X96100000Y-56782071D01*
X96100000Y-56767929D01*
X96455507Y-57123436D01*
X96600954Y-57105438D01*
X96719930Y-56842698D01*
X96729304Y-56554428D01*
X96651373Y-56347507D01*
X97443564Y-56347507D01*
X97461562Y-56492954D01*
X97724302Y-56611930D01*
X98012572Y-56621304D01*
X98282487Y-56519648D01*
X98322438Y-56492954D01*
X98340436Y-56347507D01*
X97892000Y-55899071D01*
X97443564Y-56347507D01*
X96651373Y-56347507D01*
X96627648Y-56284513D01*
X96600954Y-56244562D01*
X96455507Y-56226564D01*
X96100000Y-56582071D01*
X96100000Y-56567929D01*
X96448436Y-56219493D01*
X96430438Y-56074046D01*
X96294683Y-56012572D01*
X97162696Y-56012572D01*
X97264352Y-56282487D01*
X97291046Y-56322438D01*
X97436493Y-56340436D01*
X97884929Y-55892000D01*
X97899071Y-55892000D01*
X98347507Y-56340436D01*
X98492954Y-56322438D01*
X98611930Y-56059698D01*
X98621304Y-55771428D01*
X98519648Y-55501513D01*
X98492954Y-55461562D01*
X98347507Y-55443564D01*
X97899071Y-55892000D01*
X97884929Y-55892000D01*
X97436493Y-55443564D01*
X97291046Y-55461562D01*
X97172070Y-55724302D01*
X97162696Y-56012572D01*
X96294683Y-56012572D01*
X96167698Y-55955070D01*
X96100000Y-55952869D01*
X96100000Y-55436493D01*
X97443564Y-55436493D01*
X97892000Y-55884929D01*
X98340436Y-55436493D01*
X98322438Y-55291046D01*
X98059698Y-55172070D01*
X97771428Y-55162696D01*
X97501513Y-55264352D01*
X97461562Y-55291046D01*
X97443564Y-55436493D01*
X96100000Y-55436493D01*
X96100000Y-54455507D01*
X98226564Y-54455507D01*
X98244562Y-54600954D01*
X98507302Y-54719930D01*
X98795572Y-54729304D01*
X99065487Y-54627648D01*
X99105438Y-54600954D01*
X99123436Y-54455507D01*
X98675000Y-54007071D01*
X98226564Y-54455507D01*
X96100000Y-54455507D01*
X96100000Y-54120572D01*
X97945696Y-54120572D01*
X98047352Y-54390487D01*
X98074046Y-54430438D01*
X98219493Y-54448436D01*
X98667929Y-54000000D01*
X98682071Y-54000000D01*
X99130507Y-54448436D01*
X99275954Y-54430438D01*
X99394930Y-54167698D01*
X99404304Y-53879428D01*
X99302648Y-53609513D01*
X99275954Y-53569562D01*
X99130507Y-53551564D01*
X98682071Y-54000000D01*
X98667929Y-54000000D01*
X98219493Y-53551564D01*
X98074046Y-53569562D01*
X97955070Y-53832302D01*
X97945696Y-54120572D01*
X96100000Y-54120572D01*
X96100000Y-53544493D01*
X98226564Y-53544493D01*
X98675000Y-53992929D01*
X99123436Y-53544493D01*
X99105438Y-53399046D01*
X98842698Y-53280070D01*
X98554428Y-53270696D01*
X98284513Y-53372352D01*
X98244562Y-53399046D01*
X98226564Y-53544493D01*
X96100000Y-53544493D01*
X96100000Y-52563507D01*
X97443564Y-52563507D01*
X97461562Y-52708954D01*
X97724302Y-52827930D01*
X98012572Y-52837304D01*
X98282487Y-52735648D01*
X98322438Y-52708954D01*
X98340436Y-52563507D01*
X97892000Y-52115071D01*
X97443564Y-52563507D01*
X96100000Y-52563507D01*
X96100000Y-52228572D01*
X97162696Y-52228572D01*
X97264352Y-52498487D01*
X97291046Y-52538438D01*
X97436493Y-52556436D01*
X97884929Y-52108000D01*
X97899071Y-52108000D01*
X98347507Y-52556436D01*
X98492954Y-52538438D01*
X98611930Y-52275698D01*
X98621304Y-51987428D01*
X98519648Y-51717513D01*
X98492954Y-51677562D01*
X98347507Y-51659564D01*
X97899071Y-52108000D01*
X97884929Y-52108000D01*
X97436493Y-51659564D01*
X97291046Y-51677562D01*
X97172070Y-51940302D01*
X97162696Y-52228572D01*
X96100000Y-52228572D01*
X96100000Y-52053635D01*
X96120572Y-52054304D01*
X96390487Y-51952648D01*
X96430438Y-51925954D01*
X96448436Y-51780507D01*
X96100000Y-51432071D01*
X96100000Y-51417929D01*
X96455507Y-51773436D01*
X96600954Y-51755438D01*
X96647570Y-51652493D01*
X97443564Y-51652493D01*
X97892000Y-52100929D01*
X98340436Y-51652493D01*
X98322438Y-51507046D01*
X98059698Y-51388070D01*
X97771428Y-51378696D01*
X97501513Y-51480352D01*
X97461562Y-51507046D01*
X97443564Y-51652493D01*
X96647570Y-51652493D01*
X96719930Y-51492698D01*
X96729304Y-51204428D01*
X96627648Y-50934513D01*
X96600954Y-50894562D01*
X96455507Y-50876564D01*
X96100000Y-51232071D01*
X96100000Y-51217929D01*
X96448436Y-50869493D01*
X96430438Y-50724046D01*
X96167698Y-50605070D01*
X96100000Y-50602869D01*
X96100000Y-50550000D01*
X99450000Y-50550000D01*
X99450000Y-99450000D01*
X99450000Y-99450000D01*
G37*
X99450000Y-99450000D02*
X57732815Y-99450000D01*
X57888528Y-99345956D01*
X58032486Y-99130507D01*
X63551564Y-99130507D01*
X63569562Y-99275954D01*
X63832302Y-99394930D01*
X64120572Y-99404304D01*
X64390487Y-99302648D01*
X64430438Y-99275954D01*
X64448436Y-99130507D01*
X95551564Y-99130507D01*
X95569562Y-99275954D01*
X95832302Y-99394930D01*
X96120572Y-99404304D01*
X96390487Y-99302648D01*
X96430438Y-99275954D01*
X96448436Y-99130507D01*
X96000000Y-98682071D01*
X95551564Y-99130507D01*
X64448436Y-99130507D01*
X64000000Y-98682071D01*
X63551564Y-99130507D01*
X58032486Y-99130507D01*
X58148655Y-98956648D01*
X58180695Y-98795572D01*
X63270696Y-98795572D01*
X63372352Y-99065487D01*
X63399046Y-99105438D01*
X63544493Y-99123436D01*
X63992929Y-98675000D01*
X64007071Y-98675000D01*
X64455507Y-99123436D01*
X64600954Y-99105438D01*
X64719930Y-98842698D01*
X64729304Y-98554428D01*
X64651373Y-98347507D01*
X65443564Y-98347507D01*
X65461562Y-98492954D01*
X65724302Y-98611930D01*
X66012572Y-98621304D01*
X66282487Y-98519648D01*
X66322438Y-98492954D01*
X66340436Y-98347507D01*
X65892000Y-97899071D01*
X65443564Y-98347507D01*
X64651373Y-98347507D01*
X64627648Y-98284513D01*
X64600954Y-98244562D01*
X64455507Y-98226564D01*
X64007071Y-98675000D01*
X63992929Y-98675000D01*
X63544493Y-98226564D01*
X63399046Y-98244562D01*
X63280070Y-98507302D01*
X63270696Y-98795572D01*
X58180695Y-98795572D01*
X58188069Y-98758501D01*
X58194849Y-98748354D01*
X58274582Y-98347507D01*
X61659564Y-98347507D01*
X61677562Y-98492954D01*
X61940302Y-98611930D01*
X62228572Y-98621304D01*
X62498487Y-98519648D01*
X62538438Y-98492954D01*
X62556436Y-98347507D01*
X62108000Y-97899071D01*
X61659564Y-98347507D01*
X58274582Y-98347507D01*
X58290000Y-98270000D01*
X58290000Y-98012572D01*
X61378696Y-98012572D01*
X61480352Y-98282487D01*
X61507046Y-98322438D01*
X61652493Y-98340436D01*
X62100929Y-97892000D01*
X62115071Y-97892000D01*
X62563507Y-98340436D01*
X62708954Y-98322438D01*
X62755570Y-98219493D01*
X63551564Y-98219493D01*
X64000000Y-98667929D01*
X64448436Y-98219493D01*
X64430438Y-98074046D01*
X64294683Y-98012572D01*
X65162696Y-98012572D01*
X65264352Y-98282487D01*
X65291046Y-98322438D01*
X65436493Y-98340436D01*
X65884929Y-97892000D01*
X65899071Y-97892000D01*
X66347507Y-98340436D01*
X66492954Y-98322438D01*
X66611930Y-98059698D01*
X66621304Y-97771428D01*
X66519648Y-97501513D01*
X66492954Y-97461562D01*
X66347507Y-97443564D01*
X65899071Y-97892000D01*
X65884929Y-97892000D01*
X65436493Y-97443564D01*
X65291046Y-97461562D01*
X65172070Y-97724302D01*
X65162696Y-98012572D01*
X64294683Y-98012572D01*
X64167698Y-97955070D01*
X63879428Y-97945696D01*
X63609513Y-98047352D01*
X63569562Y-98074046D01*
X63551564Y-98219493D01*
X62755570Y-98219493D01*
X62827930Y-98059698D01*
X62837304Y-97771428D01*
X62735648Y-97501513D01*
X62708954Y-97461562D01*
X62563507Y-97443564D01*
X62115071Y-97892000D01*
X62100929Y-97892000D01*
X61652493Y-97443564D01*
X61507046Y-97461562D01*
X61388070Y-97724302D01*
X61378696Y-98012572D01*
X58290000Y-98012572D01*
X58290000Y-97436493D01*
X61659564Y-97436493D01*
X62108000Y-97884929D01*
X62556436Y-97436493D01*
X65443564Y-97436493D01*
X65892000Y-97884929D01*
X66340436Y-97436493D01*
X66322438Y-97291046D01*
X66059698Y-97172070D01*
X65771428Y-97162696D01*
X65501513Y-97264352D01*
X65461562Y-97291046D01*
X65443564Y-97436493D01*
X62556436Y-97436493D01*
X62538438Y-97291046D01*
X62275698Y-97172070D01*
X61987428Y-97162696D01*
X61717513Y-97264352D01*
X61677562Y-97291046D01*
X61659564Y-97436493D01*
X58290000Y-97436493D01*
X58290000Y-96455507D01*
X60876564Y-96455507D01*
X60894562Y-96600954D01*
X61157302Y-96719930D01*
X61445572Y-96729304D01*
X61715487Y-96627648D01*
X61755438Y-96600954D01*
X61773436Y-96455507D01*
X66226564Y-96455507D01*
X66244562Y-96600954D01*
X66507302Y-96719930D01*
X66795572Y-96729304D01*
X67065487Y-96627648D01*
X67105438Y-96600954D01*
X67123436Y-96455507D01*
X66675000Y-96007071D01*
X66226564Y-96455507D01*
X61773436Y-96455507D01*
X61325000Y-96007071D01*
X60876564Y-96455507D01*
X58290000Y-96455507D01*
X58290000Y-96120572D01*
X60595696Y-96120572D01*
X60697352Y-96390487D01*
X60724046Y-96430438D01*
X60869493Y-96448436D01*
X61317929Y-96000000D01*
X61332071Y-96000000D01*
X61780507Y-96448436D01*
X61925954Y-96430438D01*
X62044930Y-96167698D01*
X62046462Y-96120572D01*
X65945696Y-96120572D01*
X66047352Y-96390487D01*
X66074046Y-96430438D01*
X66219493Y-96448436D01*
X66667929Y-96000000D01*
X66682071Y-96000000D01*
X67130507Y-96448436D01*
X67275954Y-96430438D01*
X67394930Y-96167698D01*
X67404304Y-95879428D01*
X67302648Y-95609513D01*
X67275954Y-95569562D01*
X67130507Y-95551564D01*
X66682071Y-96000000D01*
X66667929Y-96000000D01*
X66219493Y-95551564D01*
X66074046Y-95569562D01*
X65955070Y-95832302D01*
X65945696Y-96120572D01*
X62046462Y-96120572D01*
X62054304Y-95879428D01*
X61952648Y-95609513D01*
X61925954Y-95569562D01*
X61780507Y-95551564D01*
X61332071Y-96000000D01*
X61317929Y-96000000D01*
X60869493Y-95551564D01*
X60724046Y-95569562D01*
X60605070Y-95832302D01*
X60595696Y-96120572D01*
X58290000Y-96120572D01*
X58290000Y-95770273D01*
X58300000Y-95720000D01*
X58300000Y-95544493D01*
X60876564Y-95544493D01*
X61325000Y-95992929D01*
X61773436Y-95544493D01*
X66226564Y-95544493D01*
X66675000Y-95992929D01*
X67123436Y-95544493D01*
X67105438Y-95399046D01*
X66842698Y-95280070D01*
X66554428Y-95270696D01*
X66284513Y-95372352D01*
X66244562Y-95399046D01*
X66226564Y-95544493D01*
X61773436Y-95544493D01*
X61755438Y-95399046D01*
X61492698Y-95280070D01*
X61204428Y-95270696D01*
X60934513Y-95372352D01*
X60894562Y-95399046D01*
X60876564Y-95544493D01*
X58300000Y-95544493D01*
X58300000Y-94563507D01*
X61659564Y-94563507D01*
X61677562Y-94708954D01*
X61940302Y-94827930D01*
X62228572Y-94837304D01*
X62498487Y-94735648D01*
X62538438Y-94708954D01*
X62556436Y-94563507D01*
X65443564Y-94563507D01*
X65461562Y-94708954D01*
X65724302Y-94827930D01*
X66012572Y-94837304D01*
X66282487Y-94735648D01*
X66322438Y-94708954D01*
X66340436Y-94563507D01*
X65892000Y-94115071D01*
X65443564Y-94563507D01*
X62556436Y-94563507D01*
X62108000Y-94115071D01*
X61659564Y-94563507D01*
X58300000Y-94563507D01*
X58300000Y-94228572D01*
X61378696Y-94228572D01*
X61480352Y-94498487D01*
X61507046Y-94538438D01*
X61652493Y-94556436D01*
X62100929Y-94108000D01*
X62115071Y-94108000D01*
X62563507Y-94556436D01*
X62708954Y-94538438D01*
X62827930Y-94275698D01*
X62829462Y-94228572D01*
X65162696Y-94228572D01*
X65264352Y-94498487D01*
X65291046Y-94538438D01*
X65436493Y-94556436D01*
X65884929Y-94108000D01*
X65899071Y-94108000D01*
X66347507Y-94556436D01*
X66492954Y-94538438D01*
X66611930Y-94275698D01*
X66621304Y-93987428D01*
X66519648Y-93717513D01*
X66492954Y-93677562D01*
X66347507Y-93659564D01*
X65899071Y-94108000D01*
X65884929Y-94108000D01*
X65436493Y-93659564D01*
X65291046Y-93677562D01*
X65172070Y-93940302D01*
X65162696Y-94228572D01*
X62829462Y-94228572D01*
X62837304Y-93987428D01*
X62759373Y-93780507D01*
X63551564Y-93780507D01*
X63569562Y-93925954D01*
X63832302Y-94044930D01*
X64120572Y-94054304D01*
X64390487Y-93952648D01*
X64430438Y-93925954D01*
X64448436Y-93780507D01*
X64000000Y-93332071D01*
X63551564Y-93780507D01*
X62759373Y-93780507D01*
X62735648Y-93717513D01*
X62708954Y-93677562D01*
X62563507Y-93659564D01*
X62115071Y-94108000D01*
X62100929Y-94108000D01*
X61652493Y-93659564D01*
X61507046Y-93677562D01*
X61388070Y-93940302D01*
X61378696Y-94228572D01*
X58300000Y-94228572D01*
X58300000Y-93652493D01*
X61659564Y-93652493D01*
X62108000Y-94100929D01*
X62556436Y-93652493D01*
X62538438Y-93507046D01*
X62402683Y-93445572D01*
X63270696Y-93445572D01*
X63372352Y-93715487D01*
X63399046Y-93755438D01*
X63544493Y-93773436D01*
X63992929Y-93325000D01*
X64007071Y-93325000D01*
X64455507Y-93773436D01*
X64600954Y-93755438D01*
X64647570Y-93652493D01*
X65443564Y-93652493D01*
X65892000Y-94100929D01*
X66340436Y-93652493D01*
X66322438Y-93507046D01*
X66059698Y-93388070D01*
X65771428Y-93378696D01*
X65501513Y-93480352D01*
X65461562Y-93507046D01*
X65443564Y-93652493D01*
X64647570Y-93652493D01*
X64719930Y-93492698D01*
X64729304Y-93204428D01*
X64627648Y-92934513D01*
X64600954Y-92894562D01*
X64455507Y-92876564D01*
X64007071Y-93325000D01*
X63992929Y-93325000D01*
X63544493Y-92876564D01*
X63399046Y-92894562D01*
X63280070Y-93157302D01*
X63270696Y-93445572D01*
X62402683Y-93445572D01*
X62275698Y-93388070D01*
X61987428Y-93378696D01*
X61717513Y-93480352D01*
X61677562Y-93507046D01*
X61659564Y-93652493D01*
X58300000Y-93652493D01*
X58300000Y-92869493D01*
X63551564Y-92869493D01*
X64000000Y-93317929D01*
X64448436Y-92869493D01*
X64430438Y-92724046D01*
X64167698Y-92605070D01*
X63879428Y-92595696D01*
X63609513Y-92697352D01*
X63569562Y-92724046D01*
X63551564Y-92869493D01*
X58300000Y-92869493D01*
X58300000Y-92867178D01*
X58816692Y-92764401D01*
X59351990Y-92406726D01*
X59623756Y-92000000D01*
X61148884Y-92000000D01*
X61184575Y-92055465D01*
X61351661Y-92169630D01*
X61550000Y-92209795D01*
X62950000Y-92209795D01*
X63135289Y-92174931D01*
X63305465Y-92065425D01*
X63419630Y-91898339D01*
X63459795Y-91700000D01*
X63459795Y-91221284D01*
X64672488Y-91221284D01*
X64831608Y-91605447D01*
X65133211Y-91910814D01*
X65528715Y-92077517D01*
X65700000Y-91998868D01*
X65700000Y-91050000D01*
X65800000Y-91050000D01*
X65800000Y-91998868D01*
X65971285Y-92077517D01*
X66366789Y-91910814D01*
X66668392Y-91605447D01*
X66827512Y-91221284D01*
X66748749Y-91050000D01*
X65800000Y-91050000D01*
X65700000Y-91050000D01*
X64751251Y-91050000D01*
X64672488Y-91221284D01*
X63459795Y-91221284D01*
X63459795Y-90778716D01*
X64672488Y-90778716D01*
X64751251Y-90950000D01*
X65700000Y-90950000D01*
X65700000Y-90001132D01*
X65800000Y-90001132D01*
X65800000Y-90950000D01*
X66748749Y-90950000D01*
X66827512Y-90778716D01*
X66668392Y-90394553D01*
X66366789Y-90089186D01*
X65971285Y-89922483D01*
X65800000Y-90001132D01*
X65700000Y-90001132D01*
X65528715Y-89922483D01*
X65133211Y-90089186D01*
X64831608Y-90394553D01*
X64672488Y-90778716D01*
X63459795Y-90778716D01*
X63459795Y-90300000D01*
X63424931Y-90114711D01*
X63315425Y-89944535D01*
X63148339Y-89830370D01*
X62950000Y-89790205D01*
X61550000Y-89790205D01*
X61364711Y-89825069D01*
X61194535Y-89934575D01*
X61149832Y-90000000D01*
X59242328Y-90000000D01*
X58816692Y-89715599D01*
X58185264Y-89590000D01*
X57814736Y-89590000D01*
X57183308Y-89715599D01*
X56648010Y-90073274D01*
X56290335Y-90608572D01*
X56164736Y-91240000D01*
X56175935Y-91296299D01*
X56166117Y-91306117D01*
X55895151Y-91711646D01*
X55800000Y-92190000D01*
X55800000Y-95679727D01*
X55790000Y-95730000D01*
X55790000Y-98270000D01*
X55885151Y-98748354D01*
X55891931Y-98758501D01*
X55931345Y-98956648D01*
X56191472Y-99345956D01*
X56347185Y-99450000D01*
X55192815Y-99450000D01*
X55348528Y-99345956D01*
X55608655Y-98956648D01*
X55700000Y-98497428D01*
X55700000Y-98042572D01*
X55608655Y-97583352D01*
X55348528Y-97194044D01*
X55058120Y-97000000D01*
X55348528Y-96805956D01*
X55608655Y-96416648D01*
X55700000Y-95957428D01*
X55700000Y-95502572D01*
X55608655Y-95043352D01*
X55348528Y-94654044D01*
X54959220Y-94393917D01*
X54500000Y-94302572D01*
X54040780Y-94393917D01*
X53651472Y-94654044D01*
X53391345Y-95043352D01*
X53300000Y-95502572D01*
X53300000Y-95957428D01*
X53391345Y-96416648D01*
X53651472Y-96805956D01*
X53941880Y-97000000D01*
X53651472Y-97194044D01*
X53391345Y-97583352D01*
X53300000Y-98042572D01*
X53300000Y-98497428D01*
X53391345Y-98956648D01*
X53651472Y-99345956D01*
X53807185Y-99450000D01*
X52652815Y-99450000D01*
X52808528Y-99345956D01*
X53068655Y-98956648D01*
X53160000Y-98497428D01*
X53160000Y-98042572D01*
X53068655Y-97583352D01*
X52808528Y-97194044D01*
X52518120Y-97000000D01*
X52808528Y-96805956D01*
X53068655Y-96416648D01*
X53160000Y-95957428D01*
X53160000Y-95502572D01*
X53068655Y-95043352D01*
X52808528Y-94654044D01*
X52419220Y-94393917D01*
X51960000Y-94302572D01*
X51500780Y-94393917D01*
X51111472Y-94654044D01*
X50851345Y-95043352D01*
X50760000Y-95502572D01*
X50760000Y-95957428D01*
X50851345Y-96416648D01*
X51111472Y-96805956D01*
X51401880Y-97000000D01*
X51111472Y-97194044D01*
X50851345Y-97583352D01*
X50760000Y-98042572D01*
X50760000Y-98497428D01*
X50851345Y-98956648D01*
X51111472Y-99345956D01*
X51267185Y-99450000D01*
X50550000Y-99450000D01*
X50550000Y-86160000D01*
X56164736Y-86160000D01*
X56290335Y-86791428D01*
X56648010Y-87326726D01*
X57183308Y-87684401D01*
X57814736Y-87810000D01*
X58185264Y-87810000D01*
X58816692Y-87684401D01*
X59351990Y-87326726D01*
X59709665Y-86791428D01*
X59835264Y-86160000D01*
X59709665Y-85528572D01*
X59351990Y-84993274D01*
X58816692Y-84635599D01*
X58185264Y-84510000D01*
X57814736Y-84510000D01*
X57183308Y-84635599D01*
X56648010Y-84993274D01*
X56290335Y-85528572D01*
X56164736Y-86160000D01*
X50550000Y-86160000D01*
X50550000Y-81080000D01*
X56164736Y-81080000D01*
X56290335Y-81711428D01*
X56648010Y-82246726D01*
X57183308Y-82604401D01*
X57814736Y-82730000D01*
X58185264Y-82730000D01*
X58816692Y-82604401D01*
X59351990Y-82246726D01*
X59709665Y-81711428D01*
X59835264Y-81080000D01*
X59709665Y-80448572D01*
X59351990Y-79913274D01*
X58816692Y-79555599D01*
X58185264Y-79430000D01*
X57814736Y-79430000D01*
X57183308Y-79555599D01*
X56648010Y-79913274D01*
X56290335Y-80448572D01*
X56164736Y-81080000D01*
X50550000Y-81080000D01*
X50550000Y-74850000D01*
X56190205Y-74850000D01*
X56190205Y-77150000D01*
X56225069Y-77335289D01*
X56334575Y-77505465D01*
X56501661Y-77619630D01*
X56700000Y-77659795D01*
X59300000Y-77659795D01*
X59485289Y-77624931D01*
X59655465Y-77515425D01*
X59769630Y-77348339D01*
X59809795Y-77150000D01*
X59809795Y-77000000D01*
X65835786Y-77000000D01*
X67000000Y-78164214D01*
X67000000Y-90635000D01*
X67076120Y-91017684D01*
X67292893Y-91342107D01*
X69729000Y-93778214D01*
X69729000Y-93873021D01*
X69643711Y-93889069D01*
X69473535Y-93998575D01*
X69359370Y-94165661D01*
X69319205Y-94364000D01*
X69319205Y-95764000D01*
X69354069Y-95949289D01*
X69463575Y-96119465D01*
X69630661Y-96233630D01*
X69729000Y-96253544D01*
X69729000Y-96704720D01*
X69653044Y-96755472D01*
X69392917Y-97144780D01*
X69301572Y-97604000D01*
X69392917Y-98063220D01*
X69653044Y-98452528D01*
X70042352Y-98712655D01*
X70501572Y-98804000D01*
X70956428Y-98804000D01*
X71415648Y-98712655D01*
X71804956Y-98452528D01*
X72065083Y-98063220D01*
X72156428Y-97604000D01*
X72065083Y-97144780D01*
X71804956Y-96755472D01*
X71729000Y-96704720D01*
X71729000Y-96254979D01*
X71814289Y-96238931D01*
X71984465Y-96129425D01*
X72098630Y-95962339D01*
X72138795Y-95764000D01*
X72138795Y-94364000D01*
X72103931Y-94178711D01*
X71994425Y-94008535D01*
X71827339Y-93894370D01*
X71729000Y-93874456D01*
X71729000Y-93555000D01*
X81275000Y-93555000D01*
X81275000Y-94004565D01*
X81335896Y-94151582D01*
X81448418Y-94264104D01*
X81595435Y-94325000D01*
X82070000Y-94325000D01*
X82170000Y-94225000D01*
X82170000Y-93455000D01*
X81375000Y-93455000D01*
X81275000Y-93555000D01*
X71729000Y-93555000D01*
X71729000Y-93364000D01*
X71697259Y-93204428D01*
X71652880Y-92981316D01*
X71436107Y-92656893D01*
X70484214Y-91705000D01*
X76475000Y-91705000D01*
X76475000Y-92429565D01*
X76535896Y-92576582D01*
X76648418Y-92689104D01*
X76795435Y-92750000D01*
X77395000Y-92750000D01*
X77495000Y-92650000D01*
X77495000Y-91605000D01*
X77505000Y-91605000D01*
X77505000Y-92650000D01*
X77605000Y-92750000D01*
X78204565Y-92750000D01*
X78351582Y-92689104D01*
X78464104Y-92576582D01*
X78525000Y-92429565D01*
X78525000Y-91705000D01*
X78425000Y-91605000D01*
X77505000Y-91605000D01*
X77495000Y-91605000D01*
X76575000Y-91605000D01*
X76475000Y-91705000D01*
X70484214Y-91705000D01*
X69000000Y-90220786D01*
X69000000Y-87113015D01*
X69443336Y-87113015D01*
X69510819Y-87352332D01*
X69747647Y-87710282D01*
X70103429Y-87950354D01*
X70524000Y-88036000D01*
X70724000Y-88036000D01*
X70724000Y-86941000D01*
X70734000Y-86941000D01*
X70734000Y-88036000D01*
X70934000Y-88036000D01*
X71354571Y-87950354D01*
X71710353Y-87710282D01*
X71947181Y-87352332D01*
X72014664Y-87113015D01*
X71928987Y-86941000D01*
X70734000Y-86941000D01*
X70724000Y-86941000D01*
X69529013Y-86941000D01*
X69443336Y-87113015D01*
X69000000Y-87113015D01*
X69000000Y-86758985D01*
X69443336Y-86758985D01*
X69529013Y-86931000D01*
X70724000Y-86931000D01*
X70724000Y-85836000D01*
X70734000Y-85836000D01*
X70734000Y-86931000D01*
X71928987Y-86931000D01*
X72014664Y-86758985D01*
X71947181Y-86519668D01*
X71710353Y-86161718D01*
X71354571Y-85921646D01*
X70934000Y-85836000D01*
X70734000Y-85836000D01*
X70724000Y-85836000D01*
X70524000Y-85836000D01*
X70103429Y-85921646D01*
X69747647Y-86161718D01*
X69510819Y-86519668D01*
X69443336Y-86758985D01*
X69000000Y-86758985D01*
X69000000Y-84501000D01*
X69429000Y-84501000D01*
X69429000Y-85175565D01*
X69489896Y-85322582D01*
X69602418Y-85435104D01*
X69749435Y-85496000D01*
X70624000Y-85496000D01*
X70724000Y-85396000D01*
X70724000Y-84401000D01*
X70734000Y-84401000D01*
X70734000Y-85396000D01*
X70834000Y-85496000D01*
X71708565Y-85496000D01*
X71855582Y-85435104D01*
X71968104Y-85322582D01*
X72029000Y-85175565D01*
X72029000Y-84501000D01*
X71929000Y-84401000D01*
X70734000Y-84401000D01*
X70724000Y-84401000D01*
X69529000Y-84401000D01*
X69429000Y-84501000D01*
X69000000Y-84501000D01*
X69000000Y-83616435D01*
X69429000Y-83616435D01*
X69429000Y-84291000D01*
X69529000Y-84391000D01*
X70724000Y-84391000D01*
X70724000Y-83396000D01*
X70734000Y-83396000D01*
X70734000Y-84391000D01*
X71929000Y-84391000D01*
X72029000Y-84291000D01*
X72029000Y-83616435D01*
X71968104Y-83469418D01*
X71855582Y-83356896D01*
X71708565Y-83296000D01*
X70834000Y-83296000D01*
X70734000Y-83396000D01*
X70724000Y-83396000D01*
X70624000Y-83296000D01*
X69749435Y-83296000D01*
X69602418Y-83356896D01*
X69489896Y-83469418D01*
X69429000Y-83616435D01*
X69000000Y-83616435D01*
X69000000Y-79606006D01*
X69064718Y-79779006D01*
X69357488Y-80092849D01*
X69748075Y-80270764D01*
X69822985Y-80285664D01*
X69995000Y-80199987D01*
X69995000Y-79205000D01*
X70005000Y-79205000D01*
X70005000Y-80199987D01*
X70177015Y-80285664D01*
X70251925Y-80270764D01*
X70642512Y-80092849D01*
X70935282Y-79779006D01*
X71085664Y-79377015D01*
X70999989Y-79205000D01*
X70005000Y-79205000D01*
X69995000Y-79205000D01*
X69975000Y-79205000D01*
X69975000Y-79195000D01*
X69995000Y-79195000D01*
X69995000Y-78200013D01*
X70005000Y-78200013D01*
X70005000Y-79195000D01*
X70999989Y-79195000D01*
X71085664Y-79022985D01*
X70935282Y-78620994D01*
X70642512Y-78307151D01*
X70251925Y-78129236D01*
X70177015Y-78114336D01*
X70005000Y-78200013D01*
X69995000Y-78200013D01*
X69822985Y-78114336D01*
X69748075Y-78129236D01*
X69357488Y-78307151D01*
X69064718Y-78620994D01*
X69000000Y-78793994D01*
X69000000Y-77914214D01*
X70004418Y-76909795D01*
X70700000Y-76909795D01*
X70885289Y-76874931D01*
X71055465Y-76765425D01*
X71169630Y-76598339D01*
X71209795Y-76400000D01*
X71209795Y-75000000D01*
X71174931Y-74814711D01*
X71065425Y-74644535D01*
X70898339Y-74530370D01*
X70700000Y-74490205D01*
X69300000Y-74490205D01*
X69114711Y-74525069D01*
X68944535Y-74634575D01*
X68830370Y-74801661D01*
X68790205Y-75000000D01*
X68790205Y-75295582D01*
X67875000Y-76210786D01*
X66957107Y-75292893D01*
X66632684Y-75076120D01*
X66250000Y-75000000D01*
X59809795Y-75000000D01*
X59809795Y-74850000D01*
X59774931Y-74664711D01*
X59665425Y-74494535D01*
X59498339Y-74380370D01*
X59300000Y-74340205D01*
X56700000Y-74340205D01*
X56514711Y-74375069D01*
X56344535Y-74484575D01*
X56230370Y-74651661D01*
X56190205Y-74850000D01*
X50550000Y-74850000D01*
X50550000Y-70100000D01*
X56396744Y-70100000D01*
X56416073Y-70168540D01*
X56750449Y-70672480D01*
X57252221Y-71010100D01*
X57845000Y-71130000D01*
X57995000Y-71130000D01*
X57995000Y-70100000D01*
X58005000Y-70100000D01*
X58005000Y-71130000D01*
X58155000Y-71130000D01*
X58747779Y-71010100D01*
X59249551Y-70672480D01*
X59583927Y-70168540D01*
X59603256Y-70100000D01*
X59868213Y-70100000D01*
X59893917Y-70229220D01*
X60154044Y-70618528D01*
X60543352Y-70878655D01*
X61002572Y-70970000D01*
X61457428Y-70970000D01*
X61916648Y-70878655D01*
X62305956Y-70618528D01*
X62500000Y-70328120D01*
X62694044Y-70618528D01*
X63083352Y-70878655D01*
X63542572Y-70970000D01*
X63997428Y-70970000D01*
X64456648Y-70878655D01*
X64845956Y-70618528D01*
X65100000Y-70238324D01*
X65100000Y-72400000D01*
X65145672Y-72629610D01*
X65275736Y-72824264D01*
X66575736Y-74124264D01*
X66770390Y-74254328D01*
X67000000Y-74300000D01*
X78400000Y-74300000D01*
X78400000Y-88232750D01*
X78323339Y-88180370D01*
X78125000Y-88140205D01*
X76875000Y-88140205D01*
X76689711Y-88175069D01*
X76519535Y-88284575D01*
X76405370Y-88451661D01*
X76365205Y-88650000D01*
X76365205Y-90150000D01*
X76400069Y-90335289D01*
X76509575Y-90505465D01*
X76595286Y-90564028D01*
X76535896Y-90623418D01*
X76475000Y-90770435D01*
X76475000Y-91495000D01*
X76575000Y-91595000D01*
X77495000Y-91595000D01*
X77495000Y-91575000D01*
X77505000Y-91575000D01*
X77505000Y-91595000D01*
X78425000Y-91595000D01*
X78525000Y-91495000D01*
X78525000Y-91305000D01*
X79600000Y-91305000D01*
X79600000Y-92379565D01*
X79660896Y-92526582D01*
X79773418Y-92639104D01*
X79920435Y-92700000D01*
X80595000Y-92700000D01*
X80695000Y-92600000D01*
X80695000Y-91205000D01*
X79700000Y-91205000D01*
X79600000Y-91305000D01*
X78525000Y-91305000D01*
X78525000Y-90770435D01*
X78464104Y-90623418D01*
X78404800Y-90564114D01*
X78480465Y-90515425D01*
X78558697Y-90400929D01*
X78569915Y-90418363D01*
X78766566Y-90552728D01*
X79000000Y-90600000D01*
X79600000Y-90600000D01*
X79600000Y-91095000D01*
X79700000Y-91195000D01*
X80695000Y-91195000D01*
X80695000Y-91175000D01*
X80705000Y-91175000D01*
X80705000Y-91195000D01*
X80725000Y-91195000D01*
X80725000Y-91205000D01*
X80705000Y-91205000D01*
X80705000Y-92600000D01*
X80805000Y-92700000D01*
X81384314Y-92700000D01*
X81335896Y-92748418D01*
X81275000Y-92895435D01*
X81275000Y-93345000D01*
X81375000Y-93445000D01*
X82170000Y-93445000D01*
X82170000Y-93425000D01*
X82180000Y-93425000D01*
X82180000Y-93445000D01*
X82200000Y-93445000D01*
X82200000Y-93455000D01*
X82180000Y-93455000D01*
X82180000Y-94225000D01*
X82280000Y-94325000D01*
X82754565Y-94325000D01*
X82798263Y-94306900D01*
X82926661Y-94394630D01*
X83125000Y-94434795D01*
X84125000Y-94434795D01*
X84310289Y-94399931D01*
X84480465Y-94290425D01*
X84594630Y-94123339D01*
X84634795Y-93925000D01*
X84634795Y-93284443D01*
X85109444Y-92809795D01*
X85649135Y-92809795D01*
X87861205Y-95021865D01*
X87861205Y-95764000D01*
X87896069Y-95949289D01*
X88005575Y-96119465D01*
X88172661Y-96233630D01*
X88271000Y-96253544D01*
X88271000Y-96704720D01*
X88195044Y-96755472D01*
X87934917Y-97144780D01*
X87843572Y-97604000D01*
X87934917Y-98063220D01*
X88195044Y-98452528D01*
X88584352Y-98712655D01*
X89043572Y-98804000D01*
X89498428Y-98804000D01*
X89540798Y-98795572D01*
X95270696Y-98795572D01*
X95372352Y-99065487D01*
X95399046Y-99105438D01*
X95544493Y-99123436D01*
X95992929Y-98675000D01*
X96007071Y-98675000D01*
X96455507Y-99123436D01*
X96600954Y-99105438D01*
X96719930Y-98842698D01*
X96729304Y-98554428D01*
X96651373Y-98347507D01*
X97443564Y-98347507D01*
X97461562Y-98492954D01*
X97724302Y-98611930D01*
X98012572Y-98621304D01*
X98282487Y-98519648D01*
X98322438Y-98492954D01*
X98340436Y-98347507D01*
X97892000Y-97899071D01*
X97443564Y-98347507D01*
X96651373Y-98347507D01*
X96627648Y-98284513D01*
X96600954Y-98244562D01*
X96455507Y-98226564D01*
X96007071Y-98675000D01*
X95992929Y-98675000D01*
X95544493Y-98226564D01*
X95399046Y-98244562D01*
X95280070Y-98507302D01*
X95270696Y-98795572D01*
X89540798Y-98795572D01*
X89957648Y-98712655D01*
X90346956Y-98452528D01*
X90417128Y-98347507D01*
X93659564Y-98347507D01*
X93677562Y-98492954D01*
X93940302Y-98611930D01*
X94228572Y-98621304D01*
X94498487Y-98519648D01*
X94538438Y-98492954D01*
X94556436Y-98347507D01*
X94108000Y-97899071D01*
X93659564Y-98347507D01*
X90417128Y-98347507D01*
X90607083Y-98063220D01*
X90617157Y-98012572D01*
X93378696Y-98012572D01*
X93480352Y-98282487D01*
X93507046Y-98322438D01*
X93652493Y-98340436D01*
X94100929Y-97892000D01*
X94115071Y-97892000D01*
X94563507Y-98340436D01*
X94708954Y-98322438D01*
X94755570Y-98219493D01*
X95551564Y-98219493D01*
X96000000Y-98667929D01*
X96448436Y-98219493D01*
X96430438Y-98074046D01*
X96294683Y-98012572D01*
X97162696Y-98012572D01*
X97264352Y-98282487D01*
X97291046Y-98322438D01*
X97436493Y-98340436D01*
X97884929Y-97892000D01*
X97899071Y-97892000D01*
X98347507Y-98340436D01*
X98492954Y-98322438D01*
X98611930Y-98059698D01*
X98621304Y-97771428D01*
X98519648Y-97501513D01*
X98492954Y-97461562D01*
X98347507Y-97443564D01*
X97899071Y-97892000D01*
X97884929Y-97892000D01*
X97436493Y-97443564D01*
X97291046Y-97461562D01*
X97172070Y-97724302D01*
X97162696Y-98012572D01*
X96294683Y-98012572D01*
X96167698Y-97955070D01*
X95879428Y-97945696D01*
X95609513Y-98047352D01*
X95569562Y-98074046D01*
X95551564Y-98219493D01*
X94755570Y-98219493D01*
X94827930Y-98059698D01*
X94837304Y-97771428D01*
X94735648Y-97501513D01*
X94708954Y-97461562D01*
X94563507Y-97443564D01*
X94115071Y-97892000D01*
X94100929Y-97892000D01*
X93652493Y-97443564D01*
X93507046Y-97461562D01*
X93388070Y-97724302D01*
X93378696Y-98012572D01*
X90617157Y-98012572D01*
X90698428Y-97604000D01*
X90665109Y-97436493D01*
X93659564Y-97436493D01*
X94108000Y-97884929D01*
X94556436Y-97436493D01*
X97443564Y-97436493D01*
X97892000Y-97884929D01*
X98340436Y-97436493D01*
X98322438Y-97291046D01*
X98059698Y-97172070D01*
X97771428Y-97162696D01*
X97501513Y-97264352D01*
X97461562Y-97291046D01*
X97443564Y-97436493D01*
X94556436Y-97436493D01*
X94538438Y-97291046D01*
X94275698Y-97172070D01*
X93987428Y-97162696D01*
X93717513Y-97264352D01*
X93677562Y-97291046D01*
X93659564Y-97436493D01*
X90665109Y-97436493D01*
X90607083Y-97144780D01*
X90346956Y-96755472D01*
X90271000Y-96704720D01*
X90271000Y-96455507D01*
X92876564Y-96455507D01*
X92894562Y-96600954D01*
X93157302Y-96719930D01*
X93445572Y-96729304D01*
X93715487Y-96627648D01*
X93755438Y-96600954D01*
X93773436Y-96455507D01*
X98226564Y-96455507D01*
X98244562Y-96600954D01*
X98507302Y-96719930D01*
X98795572Y-96729304D01*
X99065487Y-96627648D01*
X99105438Y-96600954D01*
X99123436Y-96455507D01*
X98675000Y-96007071D01*
X98226564Y-96455507D01*
X93773436Y-96455507D01*
X93325000Y-96007071D01*
X92876564Y-96455507D01*
X90271000Y-96455507D01*
X90271000Y-96254979D01*
X90356289Y-96238931D01*
X90526465Y-96129425D01*
X90532513Y-96120572D01*
X92595696Y-96120572D01*
X92697352Y-96390487D01*
X92724046Y-96430438D01*
X92869493Y-96448436D01*
X93317929Y-96000000D01*
X93332071Y-96000000D01*
X93780507Y-96448436D01*
X93925954Y-96430438D01*
X94044930Y-96167698D01*
X94046462Y-96120572D01*
X97945696Y-96120572D01*
X98047352Y-96390487D01*
X98074046Y-96430438D01*
X98219493Y-96448436D01*
X98667929Y-96000000D01*
X98682071Y-96000000D01*
X99130507Y-96448436D01*
X99275954Y-96430438D01*
X99394930Y-96167698D01*
X99404304Y-95879428D01*
X99302648Y-95609513D01*
X99275954Y-95569562D01*
X99130507Y-95551564D01*
X98682071Y-96000000D01*
X98667929Y-96000000D01*
X98219493Y-95551564D01*
X98074046Y-95569562D01*
X97955070Y-95832302D01*
X97945696Y-96120572D01*
X94046462Y-96120572D01*
X94054304Y-95879428D01*
X93952648Y-95609513D01*
X93925954Y-95569562D01*
X93780507Y-95551564D01*
X93332071Y-96000000D01*
X93317929Y-96000000D01*
X92869493Y-95551564D01*
X92724046Y-95569562D01*
X92605070Y-95832302D01*
X92595696Y-96120572D01*
X90532513Y-96120572D01*
X90640630Y-95962339D01*
X90680795Y-95764000D01*
X90680795Y-95544493D01*
X92876564Y-95544493D01*
X93325000Y-95992929D01*
X93773436Y-95544493D01*
X98226564Y-95544493D01*
X98675000Y-95992929D01*
X99123436Y-95544493D01*
X99105438Y-95399046D01*
X98842698Y-95280070D01*
X98554428Y-95270696D01*
X98284513Y-95372352D01*
X98244562Y-95399046D01*
X98226564Y-95544493D01*
X93773436Y-95544493D01*
X93755438Y-95399046D01*
X93492698Y-95280070D01*
X93204428Y-95270696D01*
X92934513Y-95372352D01*
X92894562Y-95399046D01*
X92876564Y-95544493D01*
X90680795Y-95544493D01*
X90680795Y-95233419D01*
X91350707Y-94563507D01*
X93659564Y-94563507D01*
X93677562Y-94708954D01*
X93940302Y-94827930D01*
X94228572Y-94837304D01*
X94498487Y-94735648D01*
X94538438Y-94708954D01*
X94556436Y-94563507D01*
X97443564Y-94563507D01*
X97461562Y-94708954D01*
X97724302Y-94827930D01*
X98012572Y-94837304D01*
X98282487Y-94735648D01*
X98322438Y-94708954D01*
X98340436Y-94563507D01*
X97892000Y-94115071D01*
X97443564Y-94563507D01*
X94556436Y-94563507D01*
X94108000Y-94115071D01*
X93659564Y-94563507D01*
X91350707Y-94563507D01*
X91685642Y-94228572D01*
X93378696Y-94228572D01*
X93480352Y-94498487D01*
X93507046Y-94538438D01*
X93652493Y-94556436D01*
X94100929Y-94108000D01*
X94115071Y-94108000D01*
X94563507Y-94556436D01*
X94708954Y-94538438D01*
X94827930Y-94275698D01*
X94829462Y-94228572D01*
X97162696Y-94228572D01*
X97264352Y-94498487D01*
X97291046Y-94538438D01*
X97436493Y-94556436D01*
X97884929Y-94108000D01*
X97899071Y-94108000D01*
X98347507Y-94556436D01*
X98492954Y-94538438D01*
X98611930Y-94275698D01*
X98621304Y-93987428D01*
X98519648Y-93717513D01*
X98492954Y-93677562D01*
X98347507Y-93659564D01*
X97899071Y-94108000D01*
X97884929Y-94108000D01*
X97436493Y-93659564D01*
X97291046Y-93677562D01*
X97172070Y-93940302D01*
X97162696Y-94228572D01*
X94829462Y-94228572D01*
X94837304Y-93987428D01*
X94759373Y-93780507D01*
X95551564Y-93780507D01*
X95569562Y-93925954D01*
X95832302Y-94044930D01*
X96120572Y-94054304D01*
X96390487Y-93952648D01*
X96430438Y-93925954D01*
X96448436Y-93780507D01*
X96000000Y-93332071D01*
X95551564Y-93780507D01*
X94759373Y-93780507D01*
X94735648Y-93717513D01*
X94708954Y-93677562D01*
X94563507Y-93659564D01*
X94115071Y-94108000D01*
X94100929Y-94108000D01*
X93652493Y-93659564D01*
X93507046Y-93677562D01*
X93388070Y-93940302D01*
X93378696Y-94228572D01*
X91685642Y-94228572D01*
X92261721Y-93652493D01*
X93659564Y-93652493D01*
X94108000Y-94100929D01*
X94556436Y-93652493D01*
X94538438Y-93507046D01*
X94402683Y-93445572D01*
X95270696Y-93445572D01*
X95372352Y-93715487D01*
X95399046Y-93755438D01*
X95544493Y-93773436D01*
X95992929Y-93325000D01*
X96007071Y-93325000D01*
X96455507Y-93773436D01*
X96600954Y-93755438D01*
X96647570Y-93652493D01*
X97443564Y-93652493D01*
X97892000Y-94100929D01*
X98340436Y-93652493D01*
X98322438Y-93507046D01*
X98059698Y-93388070D01*
X97771428Y-93378696D01*
X97501513Y-93480352D01*
X97461562Y-93507046D01*
X97443564Y-93652493D01*
X96647570Y-93652493D01*
X96719930Y-93492698D01*
X96729304Y-93204428D01*
X96627648Y-92934513D01*
X96600954Y-92894562D01*
X96455507Y-92876564D01*
X96007071Y-93325000D01*
X95992929Y-93325000D01*
X95544493Y-92876564D01*
X95399046Y-92894562D01*
X95280070Y-93157302D01*
X95270696Y-93445572D01*
X94402683Y-93445572D01*
X94275698Y-93388070D01*
X93987428Y-93378696D01*
X93717513Y-93480352D01*
X93677562Y-93507046D01*
X93659564Y-93652493D01*
X92261721Y-93652493D01*
X93044721Y-92869493D01*
X95551564Y-92869493D01*
X96000000Y-93317929D01*
X96448436Y-92869493D01*
X96430438Y-92724046D01*
X96167698Y-92605070D01*
X95879428Y-92595696D01*
X95609513Y-92697352D01*
X95569562Y-92724046D01*
X95551564Y-92869493D01*
X93044721Y-92869493D01*
X94254419Y-91659795D01*
X94650000Y-91659795D01*
X94835289Y-91624931D01*
X95005465Y-91515425D01*
X95119630Y-91348339D01*
X95159795Y-91150000D01*
X95159795Y-90669193D01*
X95463721Y-90669193D01*
X95477855Y-90740254D01*
X95647602Y-91113124D01*
X95947119Y-91392651D01*
X96330807Y-91536280D01*
X96495000Y-91449989D01*
X96495000Y-90505000D01*
X96505000Y-90505000D01*
X96505000Y-91449989D01*
X96669193Y-91536280D01*
X97052881Y-91392651D01*
X97352398Y-91113124D01*
X97522145Y-90740254D01*
X97536279Y-90669193D01*
X97449987Y-90505000D01*
X96505000Y-90505000D01*
X96495000Y-90505000D01*
X95550013Y-90505000D01*
X95463721Y-90669193D01*
X95159795Y-90669193D01*
X95159795Y-90330807D01*
X95463721Y-90330807D01*
X95550013Y-90495000D01*
X96495000Y-90495000D01*
X96495000Y-89550011D01*
X96505000Y-89550011D01*
X96505000Y-90495000D01*
X97449987Y-90495000D01*
X97536279Y-90330807D01*
X97522145Y-90259746D01*
X97352398Y-89886876D01*
X97052881Y-89607349D01*
X96669193Y-89463720D01*
X96505000Y-89550011D01*
X96495000Y-89550011D01*
X96330807Y-89463720D01*
X95947119Y-89607349D01*
X95647602Y-89886876D01*
X95477855Y-90259746D01*
X95463721Y-90330807D01*
X95159795Y-90330807D01*
X95159795Y-89850000D01*
X95124931Y-89664711D01*
X95015425Y-89494535D01*
X95000000Y-89483996D01*
X95000000Y-80114214D01*
X98227107Y-76887107D01*
X98443880Y-76562684D01*
X98520000Y-76180000D01*
X98520000Y-68209280D01*
X98595956Y-68158528D01*
X98856083Y-67769220D01*
X98947428Y-67310000D01*
X98856083Y-66850780D01*
X98595956Y-66461472D01*
X98206648Y-66201345D01*
X97747428Y-66110000D01*
X97292572Y-66110000D01*
X96850000Y-66198033D01*
X96850000Y-65998528D01*
X96947223Y-65901305D01*
X97292572Y-65970000D01*
X97747428Y-65970000D01*
X98206648Y-65878655D01*
X98595956Y-65618528D01*
X98856083Y-65229220D01*
X98947428Y-64770000D01*
X98856083Y-64310780D01*
X98595956Y-63921472D01*
X98206648Y-63661345D01*
X97747428Y-63570000D01*
X97292572Y-63570000D01*
X96833352Y-63661345D01*
X96444044Y-63921472D01*
X96250000Y-64211880D01*
X96055956Y-63921472D01*
X95666648Y-63661345D01*
X95207428Y-63570000D01*
X94752572Y-63570000D01*
X94293352Y-63661345D01*
X93904044Y-63921472D01*
X93643917Y-64310780D01*
X93552572Y-64770000D01*
X93615436Y-65086036D01*
X92575736Y-66125736D01*
X92445672Y-66320390D01*
X92400000Y-66550000D01*
X92400000Y-71051472D01*
X90751472Y-72700000D01*
X83774913Y-72700000D01*
X83774980Y-72623548D01*
X86093528Y-70305000D01*
X89100000Y-70305000D01*
X89100000Y-70879565D01*
X89160896Y-71026582D01*
X89273418Y-71139104D01*
X89420435Y-71200000D01*
X90395000Y-71200000D01*
X90495000Y-71100000D01*
X90495000Y-70205000D01*
X90505000Y-70205000D01*
X90505000Y-71100000D01*
X90605000Y-71200000D01*
X91579565Y-71200000D01*
X91726582Y-71139104D01*
X91839104Y-71026582D01*
X91900000Y-70879565D01*
X91900000Y-70305000D01*
X91800000Y-70205000D01*
X90505000Y-70205000D01*
X90495000Y-70205000D01*
X89200000Y-70205000D01*
X89100000Y-70305000D01*
X86093528Y-70305000D01*
X88093528Y-68305000D01*
X89100000Y-68305000D01*
X89100000Y-68879565D01*
X89160896Y-69026582D01*
X89273418Y-69139104D01*
X89420435Y-69200000D01*
X89273418Y-69260896D01*
X89160896Y-69373418D01*
X89100000Y-69520435D01*
X89100000Y-70095000D01*
X89200000Y-70195000D01*
X90495000Y-70195000D01*
X90495000Y-69300000D01*
X90395000Y-69200000D01*
X90495000Y-69100000D01*
X90495000Y-68205000D01*
X90505000Y-68205000D01*
X90505000Y-69100000D01*
X90605000Y-69200000D01*
X90505000Y-69300000D01*
X90505000Y-70195000D01*
X91800000Y-70195000D01*
X91900000Y-70095000D01*
X91900000Y-69520435D01*
X91839104Y-69373418D01*
X91726582Y-69260896D01*
X91579565Y-69200000D01*
X91726582Y-69139104D01*
X91839104Y-69026582D01*
X91900000Y-68879565D01*
X91900000Y-68305000D01*
X91800000Y-68205000D01*
X90505000Y-68205000D01*
X90495000Y-68205000D01*
X89200000Y-68205000D01*
X89100000Y-68305000D01*
X88093528Y-68305000D01*
X89199026Y-67199502D01*
X89283043Y-67256909D01*
X89273418Y-67260896D01*
X89160896Y-67373418D01*
X89100000Y-67520435D01*
X89100000Y-68095000D01*
X89200000Y-68195000D01*
X90495000Y-68195000D01*
X90495000Y-68175000D01*
X90505000Y-68175000D01*
X90505000Y-68195000D01*
X91800000Y-68195000D01*
X91900000Y-68095000D01*
X91900000Y-67520435D01*
X91839104Y-67373418D01*
X91726582Y-67260896D01*
X91714729Y-67255987D01*
X91855465Y-67165425D01*
X91969630Y-66998339D01*
X92009795Y-66800000D01*
X92009795Y-65600000D01*
X91974931Y-65414711D01*
X91865425Y-65244535D01*
X91800968Y-65200493D01*
X91855465Y-65165425D01*
X91969630Y-64998339D01*
X92009795Y-64800000D01*
X92009795Y-64798052D01*
X92229610Y-64754328D01*
X92424264Y-64624264D01*
X93943582Y-63104946D01*
X94293352Y-63338655D01*
X94752572Y-63430000D01*
X95207428Y-63430000D01*
X95666648Y-63338655D01*
X96055956Y-63078528D01*
X96250000Y-62788120D01*
X96444044Y-63078528D01*
X96833352Y-63338655D01*
X97292572Y-63430000D01*
X97747428Y-63430000D01*
X98206648Y-63338655D01*
X98595956Y-63078528D01*
X98856083Y-62689220D01*
X98947428Y-62230000D01*
X98856083Y-61770780D01*
X98595956Y-61381472D01*
X98206648Y-61121345D01*
X97747428Y-61030000D01*
X97292572Y-61030000D01*
X97022291Y-61083763D01*
X96543531Y-60605003D01*
X96833352Y-60798655D01*
X97292572Y-60890000D01*
X97747428Y-60890000D01*
X98206648Y-60798655D01*
X98595956Y-60538528D01*
X98856083Y-60149220D01*
X98947428Y-59690000D01*
X98856083Y-59230780D01*
X98595956Y-58841472D01*
X98206648Y-58581345D01*
X97747428Y-58490000D01*
X97292572Y-58490000D01*
X97080677Y-58532149D01*
X96574264Y-58025736D01*
X96379610Y-57895672D01*
X96150000Y-57850000D01*
X94448528Y-57850000D01*
X94198528Y-57600000D01*
X96000000Y-57600000D01*
X96038906Y-57592121D01*
X96071681Y-57569727D01*
X96093161Y-57536346D01*
X96100000Y-57500000D01*
X96100000Y-57403635D01*
X96120572Y-57404304D01*
X96390487Y-57302648D01*
X96430438Y-57275954D01*
X96448436Y-57130507D01*
X96100000Y-56782071D01*
X96100000Y-56767929D01*
X96455507Y-57123436D01*
X96600954Y-57105438D01*
X96719930Y-56842698D01*
X96729304Y-56554428D01*
X96651373Y-56347507D01*
X97443564Y-56347507D01*
X97461562Y-56492954D01*
X97724302Y-56611930D01*
X98012572Y-56621304D01*
X98282487Y-56519648D01*
X98322438Y-56492954D01*
X98340436Y-56347507D01*
X97892000Y-55899071D01*
X97443564Y-56347507D01*
X96651373Y-56347507D01*
X96627648Y-56284513D01*
X96600954Y-56244562D01*
X96455507Y-56226564D01*
X96100000Y-56582071D01*
X96100000Y-56567929D01*
X96448436Y-56219493D01*
X96430438Y-56074046D01*
X96294683Y-56012572D01*
X97162696Y-56012572D01*
X97264352Y-56282487D01*
X97291046Y-56322438D01*
X97436493Y-56340436D01*
X97884929Y-55892000D01*
X97899071Y-55892000D01*
X98347507Y-56340436D01*
X98492954Y-56322438D01*
X98611930Y-56059698D01*
X98621304Y-55771428D01*
X98519648Y-55501513D01*
X98492954Y-55461562D01*
X98347507Y-55443564D01*
X97899071Y-55892000D01*
X97884929Y-55892000D01*
X97436493Y-55443564D01*
X97291046Y-55461562D01*
X97172070Y-55724302D01*
X97162696Y-56012572D01*
X96294683Y-56012572D01*
X96167698Y-55955070D01*
X96100000Y-55952869D01*
X96100000Y-55436493D01*
X97443564Y-55436493D01*
X97892000Y-55884929D01*
X98340436Y-55436493D01*
X98322438Y-55291046D01*
X98059698Y-55172070D01*
X97771428Y-55162696D01*
X97501513Y-55264352D01*
X97461562Y-55291046D01*
X97443564Y-55436493D01*
X96100000Y-55436493D01*
X96100000Y-54455507D01*
X98226564Y-54455507D01*
X98244562Y-54600954D01*
X98507302Y-54719930D01*
X98795572Y-54729304D01*
X99065487Y-54627648D01*
X99105438Y-54600954D01*
X99123436Y-54455507D01*
X98675000Y-54007071D01*
X98226564Y-54455507D01*
X96100000Y-54455507D01*
X96100000Y-54120572D01*
X97945696Y-54120572D01*
X98047352Y-54390487D01*
X98074046Y-54430438D01*
X98219493Y-54448436D01*
X98667929Y-54000000D01*
X98682071Y-54000000D01*
X99130507Y-54448436D01*
X99275954Y-54430438D01*
X99394930Y-54167698D01*
X99404304Y-53879428D01*
X99302648Y-53609513D01*
X99275954Y-53569562D01*
X99130507Y-53551564D01*
X98682071Y-54000000D01*
X98667929Y-54000000D01*
X98219493Y-53551564D01*
X98074046Y-53569562D01*
X97955070Y-53832302D01*
X97945696Y-54120572D01*
X96100000Y-54120572D01*
X96100000Y-53544493D01*
X98226564Y-53544493D01*
X98675000Y-53992929D01*
X99123436Y-53544493D01*
X99105438Y-53399046D01*
X98842698Y-53280070D01*
X98554428Y-53270696D01*
X98284513Y-53372352D01*
X98244562Y-53399046D01*
X98226564Y-53544493D01*
X96100000Y-53544493D01*
X96100000Y-52563507D01*
X97443564Y-52563507D01*
X97461562Y-52708954D01*
X97724302Y-52827930D01*
X98012572Y-52837304D01*
X98282487Y-52735648D01*
X98322438Y-52708954D01*
X98340436Y-52563507D01*
X97892000Y-52115071D01*
X97443564Y-52563507D01*
X96100000Y-52563507D01*
X96100000Y-52228572D01*
X97162696Y-52228572D01*
X97264352Y-52498487D01*
X97291046Y-52538438D01*
X97436493Y-52556436D01*
X97884929Y-52108000D01*
X97899071Y-52108000D01*
X98347507Y-52556436D01*
X98492954Y-52538438D01*
X98611930Y-52275698D01*
X98621304Y-51987428D01*
X98519648Y-51717513D01*
X98492954Y-51677562D01*
X98347507Y-51659564D01*
X97899071Y-52108000D01*
X97884929Y-52108000D01*
X97436493Y-51659564D01*
X97291046Y-51677562D01*
X97172070Y-51940302D01*
X97162696Y-52228572D01*
X96100000Y-52228572D01*
X96100000Y-52053635D01*
X96120572Y-52054304D01*
X96390487Y-51952648D01*
X96430438Y-51925954D01*
X96448436Y-51780507D01*
X96100000Y-51432071D01*
X96100000Y-51417929D01*
X96455507Y-51773436D01*
X96600954Y-51755438D01*
X96647570Y-51652493D01*
X97443564Y-51652493D01*
X97892000Y-52100929D01*
X98340436Y-51652493D01*
X98322438Y-51507046D01*
X98059698Y-51388070D01*
X97771428Y-51378696D01*
X97501513Y-51480352D01*
X97461562Y-51507046D01*
X97443564Y-51652493D01*
X96647570Y-51652493D01*
X96719930Y-51492698D01*
X96729304Y-51204428D01*
X96627648Y-50934513D01*
X96600954Y-50894562D01*
X96455507Y-50876564D01*
X96100000Y-51232071D01*
X96100000Y-51217929D01*
X96448436Y-50869493D01*
X96430438Y-50724046D01*
X96167698Y-50605070D01*
X96100000Y-50602869D01*
X96100000Y-50550000D01*
X99450000Y-50550000D01*
X99450000Y-99450000D01*
G36*
X96520000Y-69331393D02*
X96504565Y-69325000D01*
X96030000Y-69325000D01*
X95930000Y-69425000D01*
X95930000Y-70195000D01*
X95950000Y-70195000D01*
X95950000Y-70205000D01*
X95930000Y-70205000D01*
X95930000Y-70975000D01*
X96030000Y-71075000D01*
X96504565Y-71075000D01*
X96520000Y-71068607D01*
X96520000Y-75765786D01*
X93292893Y-78992893D01*
X93076120Y-79317316D01*
X93076120Y-79317317D01*
X93000000Y-79700000D01*
X93000000Y-89481058D01*
X92994535Y-89484575D01*
X92880370Y-89651661D01*
X92840205Y-89850000D01*
X92840205Y-90245581D01*
X89231581Y-93854205D01*
X88814865Y-93854205D01*
X86509795Y-91549135D01*
X86509795Y-90600000D01*
X87500000Y-90600000D01*
X87718074Y-90558967D01*
X87918363Y-90430085D01*
X88052728Y-90233434D01*
X88100000Y-90000000D01*
X88100000Y-87423643D01*
X88289647Y-87710282D01*
X88645429Y-87950354D01*
X89066000Y-88036000D01*
X89266000Y-88036000D01*
X89266000Y-86941000D01*
X89276000Y-86941000D01*
X89276000Y-88036000D01*
X89476000Y-88036000D01*
X89896571Y-87950354D01*
X90252353Y-87710282D01*
X90489181Y-87352332D01*
X90556664Y-87113015D01*
X90470987Y-86941000D01*
X89276000Y-86941000D01*
X89266000Y-86941000D01*
X89246000Y-86941000D01*
X89246000Y-86931000D01*
X89266000Y-86931000D01*
X89266000Y-85836000D01*
X89276000Y-85836000D01*
X89276000Y-86931000D01*
X90470987Y-86931000D01*
X90556664Y-86758985D01*
X90489181Y-86519668D01*
X90252353Y-86161718D01*
X89896571Y-85921646D01*
X89476000Y-85836000D01*
X89276000Y-85836000D01*
X89266000Y-85836000D01*
X89066000Y-85836000D01*
X88645429Y-85921646D01*
X88289647Y-86161718D01*
X88100000Y-86448357D01*
X88100000Y-85390686D01*
X88144418Y-85435104D01*
X88291435Y-85496000D01*
X89166000Y-85496000D01*
X89266000Y-85396000D01*
X89266000Y-84401000D01*
X89276000Y-84401000D01*
X89276000Y-85396000D01*
X89376000Y-85496000D01*
X90250565Y-85496000D01*
X90397582Y-85435104D01*
X90510104Y-85322582D01*
X90571000Y-85175565D01*
X90571000Y-84501000D01*
X90471000Y-84401000D01*
X89276000Y-84401000D01*
X89266000Y-84401000D01*
X89246000Y-84401000D01*
X89246000Y-84391000D01*
X89266000Y-84391000D01*
X89266000Y-83396000D01*
X89276000Y-83396000D01*
X89276000Y-84391000D01*
X90471000Y-84391000D01*
X90571000Y-84291000D01*
X90571000Y-83616435D01*
X90510104Y-83469418D01*
X90397582Y-83356896D01*
X90250565Y-83296000D01*
X89376000Y-83296000D01*
X89276000Y-83396000D01*
X89266000Y-83396000D01*
X89166000Y-83296000D01*
X88291435Y-83296000D01*
X88144418Y-83356896D01*
X88100000Y-83401314D01*
X88100000Y-82884795D01*
X88975000Y-82884795D01*
X89160289Y-82849931D01*
X89303639Y-82757687D01*
X89345435Y-82775000D01*
X89820000Y-82775000D01*
X89920000Y-82675000D01*
X89920000Y-81905000D01*
X89930000Y-81905000D01*
X89930000Y-82675000D01*
X90030000Y-82775000D01*
X90504565Y-82775000D01*
X90651582Y-82714104D01*
X90764104Y-82601582D01*
X90825000Y-82454565D01*
X90825000Y-82005000D01*
X90725000Y-81905000D01*
X89930000Y-81905000D01*
X89920000Y-81905000D01*
X89900000Y-81905000D01*
X89900000Y-81895000D01*
X89920000Y-81895000D01*
X89920000Y-81125000D01*
X89930000Y-81125000D01*
X89930000Y-81895000D01*
X90725000Y-81895000D01*
X90825000Y-81795000D01*
X90825000Y-81345435D01*
X90764104Y-81198418D01*
X90651582Y-81085896D01*
X90504565Y-81025000D01*
X90030000Y-81025000D01*
X89930000Y-81125000D01*
X89920000Y-81125000D01*
X89820000Y-81025000D01*
X89345435Y-81025000D01*
X89301737Y-81043100D01*
X89173339Y-80955370D01*
X89075000Y-80935456D01*
X89075000Y-77673528D01*
X94899264Y-71849264D01*
X95029328Y-71654611D01*
X95075000Y-71425000D01*
X95075000Y-71165979D01*
X95160289Y-71149931D01*
X95303639Y-71057687D01*
X95345435Y-71075000D01*
X95820000Y-71075000D01*
X95920000Y-70975000D01*
X95920000Y-70205000D01*
X95900000Y-70205000D01*
X95900000Y-70195000D01*
X95920000Y-70195000D01*
X95920000Y-69425000D01*
X95820000Y-69325000D01*
X95623528Y-69325000D01*
X96520000Y-68428528D01*
X96520000Y-69331393D01*
X96520000Y-69331393D01*
G37*
X96520000Y-69331393D02*
X96504565Y-69325000D01*
X96030000Y-69325000D01*
X95930000Y-69425000D01*
X95930000Y-70195000D01*
X95950000Y-70195000D01*
X95950000Y-70205000D01*
X95930000Y-70205000D01*
X95930000Y-70975000D01*
X96030000Y-71075000D01*
X96504565Y-71075000D01*
X96520000Y-71068607D01*
X96520000Y-75765786D01*
X93292893Y-78992893D01*
X93076120Y-79317316D01*
X93076120Y-79317317D01*
X93000000Y-79700000D01*
X93000000Y-89481058D01*
X92994535Y-89484575D01*
X92880370Y-89651661D01*
X92840205Y-89850000D01*
X92840205Y-90245581D01*
X89231581Y-93854205D01*
X88814865Y-93854205D01*
X86509795Y-91549135D01*
X86509795Y-90600000D01*
X87500000Y-90600000D01*
X87718074Y-90558967D01*
X87918363Y-90430085D01*
X88052728Y-90233434D01*
X88100000Y-90000000D01*
X88100000Y-87423643D01*
X88289647Y-87710282D01*
X88645429Y-87950354D01*
X89066000Y-88036000D01*
X89266000Y-88036000D01*
X89266000Y-86941000D01*
X89276000Y-86941000D01*
X89276000Y-88036000D01*
X89476000Y-88036000D01*
X89896571Y-87950354D01*
X90252353Y-87710282D01*
X90489181Y-87352332D01*
X90556664Y-87113015D01*
X90470987Y-86941000D01*
X89276000Y-86941000D01*
X89266000Y-86941000D01*
X89246000Y-86941000D01*
X89246000Y-86931000D01*
X89266000Y-86931000D01*
X89266000Y-85836000D01*
X89276000Y-85836000D01*
X89276000Y-86931000D01*
X90470987Y-86931000D01*
X90556664Y-86758985D01*
X90489181Y-86519668D01*
X90252353Y-86161718D01*
X89896571Y-85921646D01*
X89476000Y-85836000D01*
X89276000Y-85836000D01*
X89266000Y-85836000D01*
X89066000Y-85836000D01*
X88645429Y-85921646D01*
X88289647Y-86161718D01*
X88100000Y-86448357D01*
X88100000Y-85390686D01*
X88144418Y-85435104D01*
X88291435Y-85496000D01*
X89166000Y-85496000D01*
X89266000Y-85396000D01*
X89266000Y-84401000D01*
X89276000Y-84401000D01*
X89276000Y-85396000D01*
X89376000Y-85496000D01*
X90250565Y-85496000D01*
X90397582Y-85435104D01*
X90510104Y-85322582D01*
X90571000Y-85175565D01*
X90571000Y-84501000D01*
X90471000Y-84401000D01*
X89276000Y-84401000D01*
X89266000Y-84401000D01*
X89246000Y-84401000D01*
X89246000Y-84391000D01*
X89266000Y-84391000D01*
X89266000Y-83396000D01*
X89276000Y-83396000D01*
X89276000Y-84391000D01*
X90471000Y-84391000D01*
X90571000Y-84291000D01*
X90571000Y-83616435D01*
X90510104Y-83469418D01*
X90397582Y-83356896D01*
X90250565Y-83296000D01*
X89376000Y-83296000D01*
X89276000Y-83396000D01*
X89266000Y-83396000D01*
X89166000Y-83296000D01*
X88291435Y-83296000D01*
X88144418Y-83356896D01*
X88100000Y-83401314D01*
X88100000Y-82884795D01*
X88975000Y-82884795D01*
X89160289Y-82849931D01*
X89303639Y-82757687D01*
X89345435Y-82775000D01*
X89820000Y-82775000D01*
X89920000Y-82675000D01*
X89920000Y-81905000D01*
X89930000Y-81905000D01*
X89930000Y-82675000D01*
X90030000Y-82775000D01*
X90504565Y-82775000D01*
X90651582Y-82714104D01*
X90764104Y-82601582D01*
X90825000Y-82454565D01*
X90825000Y-82005000D01*
X90725000Y-81905000D01*
X89930000Y-81905000D01*
X89920000Y-81905000D01*
X89900000Y-81905000D01*
X89900000Y-81895000D01*
X89920000Y-81895000D01*
X89920000Y-81125000D01*
X89930000Y-81125000D01*
X89930000Y-81895000D01*
X90725000Y-81895000D01*
X90825000Y-81795000D01*
X90825000Y-81345435D01*
X90764104Y-81198418D01*
X90651582Y-81085896D01*
X90504565Y-81025000D01*
X90030000Y-81025000D01*
X89930000Y-81125000D01*
X89920000Y-81125000D01*
X89820000Y-81025000D01*
X89345435Y-81025000D01*
X89301737Y-81043100D01*
X89173339Y-80955370D01*
X89075000Y-80935456D01*
X89075000Y-77673528D01*
X94899264Y-71849264D01*
X95029328Y-71654611D01*
X95075000Y-71425000D01*
X95075000Y-71165979D01*
X95160289Y-71149931D01*
X95303639Y-71057687D01*
X95345435Y-71075000D01*
X95820000Y-71075000D01*
X95920000Y-70975000D01*
X95920000Y-70205000D01*
X95900000Y-70205000D01*
X95900000Y-70195000D01*
X95920000Y-70195000D01*
X95920000Y-69425000D01*
X95820000Y-69325000D01*
X95623528Y-69325000D01*
X96520000Y-68428528D01*
X96520000Y-69331393D01*
G36*
X72990205Y-70800000D02*
X73025069Y-70985289D01*
X73134575Y-71155465D01*
X73301661Y-71269630D01*
X73500000Y-71309795D01*
X75500000Y-71309795D01*
X75685289Y-71274931D01*
X75855465Y-71165425D01*
X75969630Y-70998339D01*
X75979419Y-70950000D01*
X80239340Y-70950000D01*
X81989340Y-72700000D01*
X69148528Y-72700000D01*
X68359795Y-71911267D01*
X68359795Y-70100000D01*
X72990205Y-70100000D01*
X72990205Y-70800000D01*
X72990205Y-70800000D01*
G37*
X72990205Y-70800000D02*
X73025069Y-70985289D01*
X73134575Y-71155465D01*
X73301661Y-71269630D01*
X73500000Y-71309795D01*
X75500000Y-71309795D01*
X75685289Y-71274931D01*
X75855465Y-71165425D01*
X75969630Y-70998339D01*
X75979419Y-70950000D01*
X80239340Y-70950000D01*
X81989340Y-72700000D01*
X69148528Y-72700000D01*
X68359795Y-71911267D01*
X68359795Y-70100000D01*
X72990205Y-70100000D01*
X72990205Y-70800000D01*
G36*
X68900000Y-57500000D02*
X68907879Y-57538906D01*
X68930273Y-57571681D01*
X68963654Y-57593161D01*
X69000000Y-57600000D01*
X60100000Y-57600000D01*
X60100000Y-57130507D01*
X63551564Y-57130507D01*
X63569562Y-57275954D01*
X63832302Y-57394930D01*
X64120572Y-57404304D01*
X64390487Y-57302648D01*
X64430438Y-57275954D01*
X64448436Y-57130507D01*
X64000000Y-56682071D01*
X63551564Y-57130507D01*
X60100000Y-57130507D01*
X60100000Y-56795572D01*
X63270696Y-56795572D01*
X63372352Y-57065487D01*
X63399046Y-57105438D01*
X63544493Y-57123436D01*
X63992929Y-56675000D01*
X64007071Y-56675000D01*
X64455507Y-57123436D01*
X64600954Y-57105438D01*
X64719930Y-56842698D01*
X64729304Y-56554428D01*
X64651373Y-56347507D01*
X65443564Y-56347507D01*
X65461562Y-56492954D01*
X65724302Y-56611930D01*
X66012572Y-56621304D01*
X66282487Y-56519648D01*
X66322438Y-56492954D01*
X66340436Y-56347507D01*
X65892000Y-55899071D01*
X65443564Y-56347507D01*
X64651373Y-56347507D01*
X64627648Y-56284513D01*
X64600954Y-56244562D01*
X64455507Y-56226564D01*
X64007071Y-56675000D01*
X63992929Y-56675000D01*
X63544493Y-56226564D01*
X63399046Y-56244562D01*
X63280070Y-56507302D01*
X63270696Y-56795572D01*
X60100000Y-56795572D01*
X60100000Y-56347507D01*
X61659564Y-56347507D01*
X61677562Y-56492954D01*
X61940302Y-56611930D01*
X62228572Y-56621304D01*
X62498487Y-56519648D01*
X62538438Y-56492954D01*
X62556436Y-56347507D01*
X62108000Y-55899071D01*
X61659564Y-56347507D01*
X60100000Y-56347507D01*
X60100000Y-56012572D01*
X61378696Y-56012572D01*
X61480352Y-56282487D01*
X61507046Y-56322438D01*
X61652493Y-56340436D01*
X62100929Y-55892000D01*
X62115071Y-55892000D01*
X62563507Y-56340436D01*
X62708954Y-56322438D01*
X62755570Y-56219493D01*
X63551564Y-56219493D01*
X64000000Y-56667929D01*
X64448436Y-56219493D01*
X64430438Y-56074046D01*
X64294683Y-56012572D01*
X65162696Y-56012572D01*
X65264352Y-56282487D01*
X65291046Y-56322438D01*
X65436493Y-56340436D01*
X65884929Y-55892000D01*
X65899071Y-55892000D01*
X66347507Y-56340436D01*
X66492954Y-56322438D01*
X66611930Y-56059698D01*
X66621304Y-55771428D01*
X66519648Y-55501513D01*
X66492954Y-55461562D01*
X66347507Y-55443564D01*
X65899071Y-55892000D01*
X65884929Y-55892000D01*
X65436493Y-55443564D01*
X65291046Y-55461562D01*
X65172070Y-55724302D01*
X65162696Y-56012572D01*
X64294683Y-56012572D01*
X64167698Y-55955070D01*
X63879428Y-55945696D01*
X63609513Y-56047352D01*
X63569562Y-56074046D01*
X63551564Y-56219493D01*
X62755570Y-56219493D01*
X62827930Y-56059698D01*
X62837304Y-55771428D01*
X62735648Y-55501513D01*
X62708954Y-55461562D01*
X62563507Y-55443564D01*
X62115071Y-55892000D01*
X62100929Y-55892000D01*
X61652493Y-55443564D01*
X61507046Y-55461562D01*
X61388070Y-55724302D01*
X61378696Y-56012572D01*
X60100000Y-56012572D01*
X60100000Y-55436493D01*
X61659564Y-55436493D01*
X62108000Y-55884929D01*
X62556436Y-55436493D01*
X65443564Y-55436493D01*
X65892000Y-55884929D01*
X66340436Y-55436493D01*
X66322438Y-55291046D01*
X66059698Y-55172070D01*
X65771428Y-55162696D01*
X65501513Y-55264352D01*
X65461562Y-55291046D01*
X65443564Y-55436493D01*
X62556436Y-55436493D01*
X62538438Y-55291046D01*
X62275698Y-55172070D01*
X61987428Y-55162696D01*
X61717513Y-55264352D01*
X61677562Y-55291046D01*
X61659564Y-55436493D01*
X60100000Y-55436493D01*
X60100000Y-54455507D01*
X60876564Y-54455507D01*
X60894562Y-54600954D01*
X61157302Y-54719930D01*
X61445572Y-54729304D01*
X61715487Y-54627648D01*
X61755438Y-54600954D01*
X61773436Y-54455507D01*
X66226564Y-54455507D01*
X66244562Y-54600954D01*
X66507302Y-54719930D01*
X66795572Y-54729304D01*
X67065487Y-54627648D01*
X67105438Y-54600954D01*
X67123436Y-54455507D01*
X66675000Y-54007071D01*
X66226564Y-54455507D01*
X61773436Y-54455507D01*
X61325000Y-54007071D01*
X60876564Y-54455507D01*
X60100000Y-54455507D01*
X60100000Y-54120572D01*
X60595696Y-54120572D01*
X60697352Y-54390487D01*
X60724046Y-54430438D01*
X60869493Y-54448436D01*
X61317929Y-54000000D01*
X61332071Y-54000000D01*
X61780507Y-54448436D01*
X61925954Y-54430438D01*
X62044930Y-54167698D01*
X62046462Y-54120572D01*
X65945696Y-54120572D01*
X66047352Y-54390487D01*
X66074046Y-54430438D01*
X66219493Y-54448436D01*
X66667929Y-54000000D01*
X66682071Y-54000000D01*
X67130507Y-54448436D01*
X67275954Y-54430438D01*
X67394930Y-54167698D01*
X67404304Y-53879428D01*
X67302648Y-53609513D01*
X67275954Y-53569562D01*
X67130507Y-53551564D01*
X66682071Y-54000000D01*
X66667929Y-54000000D01*
X66219493Y-53551564D01*
X66074046Y-53569562D01*
X65955070Y-53832302D01*
X65945696Y-54120572D01*
X62046462Y-54120572D01*
X62054304Y-53879428D01*
X61952648Y-53609513D01*
X61925954Y-53569562D01*
X61780507Y-53551564D01*
X61332071Y-54000000D01*
X61317929Y-54000000D01*
X60869493Y-53551564D01*
X60724046Y-53569562D01*
X60605070Y-53832302D01*
X60595696Y-54120572D01*
X60100000Y-54120572D01*
X60100000Y-53544493D01*
X60876564Y-53544493D01*
X61325000Y-53992929D01*
X61773436Y-53544493D01*
X66226564Y-53544493D01*
X66675000Y-53992929D01*
X67123436Y-53544493D01*
X67105438Y-53399046D01*
X66842698Y-53280070D01*
X66554428Y-53270696D01*
X66284513Y-53372352D01*
X66244562Y-53399046D01*
X66226564Y-53544493D01*
X61773436Y-53544493D01*
X61755438Y-53399046D01*
X61492698Y-53280070D01*
X61204428Y-53270696D01*
X60934513Y-53372352D01*
X60894562Y-53399046D01*
X60876564Y-53544493D01*
X60100000Y-53544493D01*
X60100000Y-52563507D01*
X61659564Y-52563507D01*
X61677562Y-52708954D01*
X61940302Y-52827930D01*
X62228572Y-52837304D01*
X62498487Y-52735648D01*
X62538438Y-52708954D01*
X62556436Y-52563507D01*
X65443564Y-52563507D01*
X65461562Y-52708954D01*
X65724302Y-52827930D01*
X66012572Y-52837304D01*
X66282487Y-52735648D01*
X66322438Y-52708954D01*
X66340436Y-52563507D01*
X65892000Y-52115071D01*
X65443564Y-52563507D01*
X62556436Y-52563507D01*
X62108000Y-52115071D01*
X61659564Y-52563507D01*
X60100000Y-52563507D01*
X60100000Y-52228572D01*
X61378696Y-52228572D01*
X61480352Y-52498487D01*
X61507046Y-52538438D01*
X61652493Y-52556436D01*
X62100929Y-52108000D01*
X62115071Y-52108000D01*
X62563507Y-52556436D01*
X62708954Y-52538438D01*
X62827930Y-52275698D01*
X62829462Y-52228572D01*
X65162696Y-52228572D01*
X65264352Y-52498487D01*
X65291046Y-52538438D01*
X65436493Y-52556436D01*
X65884929Y-52108000D01*
X65899071Y-52108000D01*
X66347507Y-52556436D01*
X66492954Y-52538438D01*
X66611930Y-52275698D01*
X66621304Y-51987428D01*
X66519648Y-51717513D01*
X66492954Y-51677562D01*
X66347507Y-51659564D01*
X65899071Y-52108000D01*
X65884929Y-52108000D01*
X65436493Y-51659564D01*
X65291046Y-51677562D01*
X65172070Y-51940302D01*
X65162696Y-52228572D01*
X62829462Y-52228572D01*
X62837304Y-51987428D01*
X62759373Y-51780507D01*
X63551564Y-51780507D01*
X63569562Y-51925954D01*
X63832302Y-52044930D01*
X64120572Y-52054304D01*
X64390487Y-51952648D01*
X64430438Y-51925954D01*
X64448436Y-51780507D01*
X64000000Y-51332071D01*
X63551564Y-51780507D01*
X62759373Y-51780507D01*
X62735648Y-51717513D01*
X62708954Y-51677562D01*
X62563507Y-51659564D01*
X62115071Y-52108000D01*
X62100929Y-52108000D01*
X61652493Y-51659564D01*
X61507046Y-51677562D01*
X61388070Y-51940302D01*
X61378696Y-52228572D01*
X60100000Y-52228572D01*
X60100000Y-51652493D01*
X61659564Y-51652493D01*
X62108000Y-52100929D01*
X62556436Y-51652493D01*
X62538438Y-51507046D01*
X62402683Y-51445572D01*
X63270696Y-51445572D01*
X63372352Y-51715487D01*
X63399046Y-51755438D01*
X63544493Y-51773436D01*
X63992929Y-51325000D01*
X64007071Y-51325000D01*
X64455507Y-51773436D01*
X64600954Y-51755438D01*
X64647570Y-51652493D01*
X65443564Y-51652493D01*
X65892000Y-52100929D01*
X66340436Y-51652493D01*
X66322438Y-51507046D01*
X66059698Y-51388070D01*
X65771428Y-51378696D01*
X65501513Y-51480352D01*
X65461562Y-51507046D01*
X65443564Y-51652493D01*
X64647570Y-51652493D01*
X64719930Y-51492698D01*
X64729304Y-51204428D01*
X64627648Y-50934513D01*
X64600954Y-50894562D01*
X64455507Y-50876564D01*
X64007071Y-51325000D01*
X63992929Y-51325000D01*
X63544493Y-50876564D01*
X63399046Y-50894562D01*
X63280070Y-51157302D01*
X63270696Y-51445572D01*
X62402683Y-51445572D01*
X62275698Y-51388070D01*
X61987428Y-51378696D01*
X61717513Y-51480352D01*
X61677562Y-51507046D01*
X61659564Y-51652493D01*
X60100000Y-51652493D01*
X60100000Y-51500000D01*
X60058967Y-51281926D01*
X59930085Y-51081637D01*
X59733434Y-50947272D01*
X59500000Y-50900000D01*
X50550000Y-50900000D01*
X50550000Y-50869493D01*
X63551564Y-50869493D01*
X64000000Y-51317929D01*
X64448436Y-50869493D01*
X64430438Y-50724046D01*
X64167698Y-50605070D01*
X63879428Y-50595696D01*
X63609513Y-50697352D01*
X63569562Y-50724046D01*
X63551564Y-50869493D01*
X50550000Y-50869493D01*
X50550000Y-50550000D01*
X68900000Y-50550000D01*
X68900000Y-57500000D01*
X68900000Y-57500000D01*
G37*
X68900000Y-57500000D02*
X68907879Y-57538906D01*
X68930273Y-57571681D01*
X68963654Y-57593161D01*
X69000000Y-57600000D01*
X60100000Y-57600000D01*
X60100000Y-57130507D01*
X63551564Y-57130507D01*
X63569562Y-57275954D01*
X63832302Y-57394930D01*
X64120572Y-57404304D01*
X64390487Y-57302648D01*
X64430438Y-57275954D01*
X64448436Y-57130507D01*
X64000000Y-56682071D01*
X63551564Y-57130507D01*
X60100000Y-57130507D01*
X60100000Y-56795572D01*
X63270696Y-56795572D01*
X63372352Y-57065487D01*
X63399046Y-57105438D01*
X63544493Y-57123436D01*
X63992929Y-56675000D01*
X64007071Y-56675000D01*
X64455507Y-57123436D01*
X64600954Y-57105438D01*
X64719930Y-56842698D01*
X64729304Y-56554428D01*
X64651373Y-56347507D01*
X65443564Y-56347507D01*
X65461562Y-56492954D01*
X65724302Y-56611930D01*
X66012572Y-56621304D01*
X66282487Y-56519648D01*
X66322438Y-56492954D01*
X66340436Y-56347507D01*
X65892000Y-55899071D01*
X65443564Y-56347507D01*
X64651373Y-56347507D01*
X64627648Y-56284513D01*
X64600954Y-56244562D01*
X64455507Y-56226564D01*
X64007071Y-56675000D01*
X63992929Y-56675000D01*
X63544493Y-56226564D01*
X63399046Y-56244562D01*
X63280070Y-56507302D01*
X63270696Y-56795572D01*
X60100000Y-56795572D01*
X60100000Y-56347507D01*
X61659564Y-56347507D01*
X61677562Y-56492954D01*
X61940302Y-56611930D01*
X62228572Y-56621304D01*
X62498487Y-56519648D01*
X62538438Y-56492954D01*
X62556436Y-56347507D01*
X62108000Y-55899071D01*
X61659564Y-56347507D01*
X60100000Y-56347507D01*
X60100000Y-56012572D01*
X61378696Y-56012572D01*
X61480352Y-56282487D01*
X61507046Y-56322438D01*
X61652493Y-56340436D01*
X62100929Y-55892000D01*
X62115071Y-55892000D01*
X62563507Y-56340436D01*
X62708954Y-56322438D01*
X62755570Y-56219493D01*
X63551564Y-56219493D01*
X64000000Y-56667929D01*
X64448436Y-56219493D01*
X64430438Y-56074046D01*
X64294683Y-56012572D01*
X65162696Y-56012572D01*
X65264352Y-56282487D01*
X65291046Y-56322438D01*
X65436493Y-56340436D01*
X65884929Y-55892000D01*
X65899071Y-55892000D01*
X66347507Y-56340436D01*
X66492954Y-56322438D01*
X66611930Y-56059698D01*
X66621304Y-55771428D01*
X66519648Y-55501513D01*
X66492954Y-55461562D01*
X66347507Y-55443564D01*
X65899071Y-55892000D01*
X65884929Y-55892000D01*
X65436493Y-55443564D01*
X65291046Y-55461562D01*
X65172070Y-55724302D01*
X65162696Y-56012572D01*
X64294683Y-56012572D01*
X64167698Y-55955070D01*
X63879428Y-55945696D01*
X63609513Y-56047352D01*
X63569562Y-56074046D01*
X63551564Y-56219493D01*
X62755570Y-56219493D01*
X62827930Y-56059698D01*
X62837304Y-55771428D01*
X62735648Y-55501513D01*
X62708954Y-55461562D01*
X62563507Y-55443564D01*
X62115071Y-55892000D01*
X62100929Y-55892000D01*
X61652493Y-55443564D01*
X61507046Y-55461562D01*
X61388070Y-55724302D01*
X61378696Y-56012572D01*
X60100000Y-56012572D01*
X60100000Y-55436493D01*
X61659564Y-55436493D01*
X62108000Y-55884929D01*
X62556436Y-55436493D01*
X65443564Y-55436493D01*
X65892000Y-55884929D01*
X66340436Y-55436493D01*
X66322438Y-55291046D01*
X66059698Y-55172070D01*
X65771428Y-55162696D01*
X65501513Y-55264352D01*
X65461562Y-55291046D01*
X65443564Y-55436493D01*
X62556436Y-55436493D01*
X62538438Y-55291046D01*
X62275698Y-55172070D01*
X61987428Y-55162696D01*
X61717513Y-55264352D01*
X61677562Y-55291046D01*
X61659564Y-55436493D01*
X60100000Y-55436493D01*
X60100000Y-54455507D01*
X60876564Y-54455507D01*
X60894562Y-54600954D01*
X61157302Y-54719930D01*
X61445572Y-54729304D01*
X61715487Y-54627648D01*
X61755438Y-54600954D01*
X61773436Y-54455507D01*
X66226564Y-54455507D01*
X66244562Y-54600954D01*
X66507302Y-54719930D01*
X66795572Y-54729304D01*
X67065487Y-54627648D01*
X67105438Y-54600954D01*
X67123436Y-54455507D01*
X66675000Y-54007071D01*
X66226564Y-54455507D01*
X61773436Y-54455507D01*
X61325000Y-54007071D01*
X60876564Y-54455507D01*
X60100000Y-54455507D01*
X60100000Y-54120572D01*
X60595696Y-54120572D01*
X60697352Y-54390487D01*
X60724046Y-54430438D01*
X60869493Y-54448436D01*
X61317929Y-54000000D01*
X61332071Y-54000000D01*
X61780507Y-54448436D01*
X61925954Y-54430438D01*
X62044930Y-54167698D01*
X62046462Y-54120572D01*
X65945696Y-54120572D01*
X66047352Y-54390487D01*
X66074046Y-54430438D01*
X66219493Y-54448436D01*
X66667929Y-54000000D01*
X66682071Y-54000000D01*
X67130507Y-54448436D01*
X67275954Y-54430438D01*
X67394930Y-54167698D01*
X67404304Y-53879428D01*
X67302648Y-53609513D01*
X67275954Y-53569562D01*
X67130507Y-53551564D01*
X66682071Y-54000000D01*
X66667929Y-54000000D01*
X66219493Y-53551564D01*
X66074046Y-53569562D01*
X65955070Y-53832302D01*
X65945696Y-54120572D01*
X62046462Y-54120572D01*
X62054304Y-53879428D01*
X61952648Y-53609513D01*
X61925954Y-53569562D01*
X61780507Y-53551564D01*
X61332071Y-54000000D01*
X61317929Y-54000000D01*
X60869493Y-53551564D01*
X60724046Y-53569562D01*
X60605070Y-53832302D01*
X60595696Y-54120572D01*
X60100000Y-54120572D01*
X60100000Y-53544493D01*
X60876564Y-53544493D01*
X61325000Y-53992929D01*
X61773436Y-53544493D01*
X66226564Y-53544493D01*
X66675000Y-53992929D01*
X67123436Y-53544493D01*
X67105438Y-53399046D01*
X66842698Y-53280070D01*
X66554428Y-53270696D01*
X66284513Y-53372352D01*
X66244562Y-53399046D01*
X66226564Y-53544493D01*
X61773436Y-53544493D01*
X61755438Y-53399046D01*
X61492698Y-53280070D01*
X61204428Y-53270696D01*
X60934513Y-53372352D01*
X60894562Y-53399046D01*
X60876564Y-53544493D01*
X60100000Y-53544493D01*
X60100000Y-52563507D01*
X61659564Y-52563507D01*
X61677562Y-52708954D01*
X61940302Y-52827930D01*
X62228572Y-52837304D01*
X62498487Y-52735648D01*
X62538438Y-52708954D01*
X62556436Y-52563507D01*
X65443564Y-52563507D01*
X65461562Y-52708954D01*
X65724302Y-52827930D01*
X66012572Y-52837304D01*
X66282487Y-52735648D01*
X66322438Y-52708954D01*
X66340436Y-52563507D01*
X65892000Y-52115071D01*
X65443564Y-52563507D01*
X62556436Y-52563507D01*
X62108000Y-52115071D01*
X61659564Y-52563507D01*
X60100000Y-52563507D01*
X60100000Y-52228572D01*
X61378696Y-52228572D01*
X61480352Y-52498487D01*
X61507046Y-52538438D01*
X61652493Y-52556436D01*
X62100929Y-52108000D01*
X62115071Y-52108000D01*
X62563507Y-52556436D01*
X62708954Y-52538438D01*
X62827930Y-52275698D01*
X62829462Y-52228572D01*
X65162696Y-52228572D01*
X65264352Y-52498487D01*
X65291046Y-52538438D01*
X65436493Y-52556436D01*
X65884929Y-52108000D01*
X65899071Y-52108000D01*
X66347507Y-52556436D01*
X66492954Y-52538438D01*
X66611930Y-52275698D01*
X66621304Y-51987428D01*
X66519648Y-51717513D01*
X66492954Y-51677562D01*
X66347507Y-51659564D01*
X65899071Y-52108000D01*
X65884929Y-52108000D01*
X65436493Y-51659564D01*
X65291046Y-51677562D01*
X65172070Y-51940302D01*
X65162696Y-52228572D01*
X62829462Y-52228572D01*
X62837304Y-51987428D01*
X62759373Y-51780507D01*
X63551564Y-51780507D01*
X63569562Y-51925954D01*
X63832302Y-52044930D01*
X64120572Y-52054304D01*
X64390487Y-51952648D01*
X64430438Y-51925954D01*
X64448436Y-51780507D01*
X64000000Y-51332071D01*
X63551564Y-51780507D01*
X62759373Y-51780507D01*
X62735648Y-51717513D01*
X62708954Y-51677562D01*
X62563507Y-51659564D01*
X62115071Y-52108000D01*
X62100929Y-52108000D01*
X61652493Y-51659564D01*
X61507046Y-51677562D01*
X61388070Y-51940302D01*
X61378696Y-52228572D01*
X60100000Y-52228572D01*
X60100000Y-51652493D01*
X61659564Y-51652493D01*
X62108000Y-52100929D01*
X62556436Y-51652493D01*
X62538438Y-51507046D01*
X62402683Y-51445572D01*
X63270696Y-51445572D01*
X63372352Y-51715487D01*
X63399046Y-51755438D01*
X63544493Y-51773436D01*
X63992929Y-51325000D01*
X64007071Y-51325000D01*
X64455507Y-51773436D01*
X64600954Y-51755438D01*
X64647570Y-51652493D01*
X65443564Y-51652493D01*
X65892000Y-52100929D01*
X66340436Y-51652493D01*
X66322438Y-51507046D01*
X66059698Y-51388070D01*
X65771428Y-51378696D01*
X65501513Y-51480352D01*
X65461562Y-51507046D01*
X65443564Y-51652493D01*
X64647570Y-51652493D01*
X64719930Y-51492698D01*
X64729304Y-51204428D01*
X64627648Y-50934513D01*
X64600954Y-50894562D01*
X64455507Y-50876564D01*
X64007071Y-51325000D01*
X63992929Y-51325000D01*
X63544493Y-50876564D01*
X63399046Y-50894562D01*
X63280070Y-51157302D01*
X63270696Y-51445572D01*
X62402683Y-51445572D01*
X62275698Y-51388070D01*
X61987428Y-51378696D01*
X61717513Y-51480352D01*
X61677562Y-51507046D01*
X61659564Y-51652493D01*
X60100000Y-51652493D01*
X60100000Y-51500000D01*
X60058967Y-51281926D01*
X59930085Y-51081637D01*
X59733434Y-50947272D01*
X59500000Y-50900000D01*
X50550000Y-50900000D01*
X50550000Y-50869493D01*
X63551564Y-50869493D01*
X64000000Y-51317929D01*
X64448436Y-50869493D01*
X64430438Y-50724046D01*
X64167698Y-50605070D01*
X63879428Y-50595696D01*
X63609513Y-50697352D01*
X63569562Y-50724046D01*
X63551564Y-50869493D01*
X50550000Y-50869493D01*
X50550000Y-50550000D01*
X68900000Y-50550000D01*
X68900000Y-57500000D01*
G36*
X56088246Y-51770000D02*
X56088246Y-54070000D01*
X56130083Y-54292346D01*
X56261490Y-54496558D01*
X56461993Y-54633556D01*
X56700000Y-54681754D01*
X59300000Y-54681754D01*
X59400000Y-54662938D01*
X59400000Y-56746086D01*
X58856919Y-56383211D01*
X58187223Y-56250000D01*
X57812777Y-56250000D01*
X57143081Y-56383211D01*
X56575340Y-56762563D01*
X56195988Y-57330304D01*
X56062777Y-58000000D01*
X56195988Y-58669696D01*
X56575340Y-59237437D01*
X57143081Y-59616789D01*
X57812777Y-59750000D01*
X58187223Y-59750000D01*
X58856919Y-59616789D01*
X59424660Y-59237437D01*
X59562828Y-59030653D01*
X60425000Y-59030653D01*
X60425000Y-60000000D01*
X60575000Y-60150000D01*
X61750000Y-60150000D01*
X61750000Y-58700000D01*
X61850000Y-58700000D01*
X61850000Y-60150000D01*
X63025000Y-60150000D01*
X63175000Y-60000000D01*
X63175000Y-59030653D01*
X63083656Y-58810128D01*
X62914873Y-58641345D01*
X62694348Y-58550000D01*
X62000000Y-58550000D01*
X61850000Y-58700000D01*
X61750000Y-58700000D01*
X61600000Y-58550000D01*
X60905652Y-58550000D01*
X60685127Y-58641345D01*
X60516344Y-58810128D01*
X60425000Y-59030653D01*
X59562828Y-59030653D01*
X59804012Y-58669696D01*
X59877549Y-58300000D01*
X63012342Y-58300000D01*
X63130935Y-58349244D01*
X64861472Y-58350754D01*
X64984306Y-58300000D01*
X72888246Y-58300000D01*
X72888246Y-58800000D01*
X72900000Y-58862468D01*
X72900000Y-59541957D01*
X72888246Y-59600000D01*
X72888246Y-60800000D01*
X72900000Y-60862468D01*
X72900000Y-61541957D01*
X72888246Y-61600000D01*
X72888246Y-62800000D01*
X72900000Y-62862468D01*
X72900000Y-63541957D01*
X72888246Y-63600000D01*
X72888246Y-64800000D01*
X72900000Y-64862468D01*
X72900000Y-65541957D01*
X72888246Y-65600000D01*
X72888246Y-66800000D01*
X72900000Y-66862468D01*
X72900000Y-67541957D01*
X72888246Y-67600000D01*
X72888246Y-68800000D01*
X72900000Y-68862468D01*
X72900000Y-69341298D01*
X72888510Y-69323442D01*
X72688007Y-69186444D01*
X72450000Y-69138246D01*
X71842275Y-69138246D01*
X71650000Y-69100000D01*
X70400000Y-69100000D01*
X69979048Y-69183733D01*
X69655382Y-69400000D01*
X68337774Y-69400000D01*
X68288510Y-69323442D01*
X68088007Y-69186444D01*
X67850000Y-69138246D01*
X66350000Y-69138246D01*
X66127654Y-69180083D01*
X65923442Y-69311490D01*
X65862966Y-69400000D01*
X65225789Y-69400000D01*
X65200430Y-69272512D01*
X64918626Y-68850761D01*
X64496875Y-68568957D01*
X64161196Y-68502186D01*
X64286623Y-68477237D01*
X64295940Y-68471012D01*
X64496875Y-68431043D01*
X64918626Y-68149239D01*
X65200430Y-67727488D01*
X65299387Y-67230000D01*
X65200430Y-66732512D01*
X64918626Y-66310761D01*
X64496875Y-66028957D01*
X64295940Y-65988988D01*
X64286623Y-65982763D01*
X63770000Y-65880000D01*
X61289188Y-65880000D01*
X61070942Y-65661754D01*
X62575000Y-65661754D01*
X62797346Y-65619917D01*
X63001558Y-65488510D01*
X63138556Y-65288007D01*
X63186754Y-65050000D01*
X63186754Y-62950000D01*
X63144917Y-62727654D01*
X63013510Y-62523442D01*
X62813007Y-62386444D01*
X62575000Y-62338246D01*
X61025000Y-62338246D01*
X60802654Y-62380083D01*
X60598442Y-62511490D01*
X60503802Y-62650000D01*
X58500000Y-62650000D01*
X58056355Y-62738246D01*
X56700000Y-62738246D01*
X56477654Y-62780083D01*
X56273442Y-62911490D01*
X56136444Y-63111993D01*
X56088246Y-63350000D01*
X56088246Y-65650000D01*
X56130083Y-65872346D01*
X56261490Y-66076558D01*
X56461993Y-66213556D01*
X56700000Y-66261754D01*
X57852566Y-66261754D01*
X59775406Y-68184594D01*
X59784928Y-68190957D01*
X59891490Y-68356558D01*
X60091993Y-68493556D01*
X60330000Y-68541754D01*
X60537725Y-68541754D01*
X60588804Y-68551914D01*
X60503125Y-68568957D01*
X60081374Y-68850761D01*
X59858513Y-69184298D01*
X59804012Y-68910304D01*
X59424660Y-68342563D01*
X58856919Y-67963211D01*
X58187223Y-67830000D01*
X57812777Y-67830000D01*
X57143081Y-67963211D01*
X56575340Y-68342563D01*
X56195988Y-68910304D01*
X56098581Y-69400000D01*
X50650000Y-69400000D01*
X50650000Y-60400000D01*
X60425000Y-60400000D01*
X60425000Y-61369347D01*
X60516344Y-61589872D01*
X60685127Y-61758655D01*
X60905652Y-61850000D01*
X61600000Y-61850000D01*
X61750000Y-61700000D01*
X61750000Y-60250000D01*
X61850000Y-60250000D01*
X61850000Y-61700000D01*
X62000000Y-61850000D01*
X62694348Y-61850000D01*
X62914873Y-61758655D01*
X63083656Y-61589872D01*
X63175000Y-61369347D01*
X63175000Y-60400000D01*
X63025000Y-60250000D01*
X61850000Y-60250000D01*
X61750000Y-60250000D01*
X60575000Y-60250000D01*
X60425000Y-60400000D01*
X50650000Y-60400000D01*
X50650000Y-51600000D01*
X56122672Y-51600000D01*
X56088246Y-51770000D01*
X56088246Y-51770000D01*
G37*
X56088246Y-51770000D02*
X56088246Y-54070000D01*
X56130083Y-54292346D01*
X56261490Y-54496558D01*
X56461993Y-54633556D01*
X56700000Y-54681754D01*
X59300000Y-54681754D01*
X59400000Y-54662938D01*
X59400000Y-56746086D01*
X58856919Y-56383211D01*
X58187223Y-56250000D01*
X57812777Y-56250000D01*
X57143081Y-56383211D01*
X56575340Y-56762563D01*
X56195988Y-57330304D01*
X56062777Y-58000000D01*
X56195988Y-58669696D01*
X56575340Y-59237437D01*
X57143081Y-59616789D01*
X57812777Y-59750000D01*
X58187223Y-59750000D01*
X58856919Y-59616789D01*
X59424660Y-59237437D01*
X59562828Y-59030653D01*
X60425000Y-59030653D01*
X60425000Y-60000000D01*
X60575000Y-60150000D01*
X61750000Y-60150000D01*
X61750000Y-58700000D01*
X61850000Y-58700000D01*
X61850000Y-60150000D01*
X63025000Y-60150000D01*
X63175000Y-60000000D01*
X63175000Y-59030653D01*
X63083656Y-58810128D01*
X62914873Y-58641345D01*
X62694348Y-58550000D01*
X62000000Y-58550000D01*
X61850000Y-58700000D01*
X61750000Y-58700000D01*
X61600000Y-58550000D01*
X60905652Y-58550000D01*
X60685127Y-58641345D01*
X60516344Y-58810128D01*
X60425000Y-59030653D01*
X59562828Y-59030653D01*
X59804012Y-58669696D01*
X59877549Y-58300000D01*
X63012342Y-58300000D01*
X63130935Y-58349244D01*
X64861472Y-58350754D01*
X64984306Y-58300000D01*
X72888246Y-58300000D01*
X72888246Y-58800000D01*
X72900000Y-58862468D01*
X72900000Y-59541957D01*
X72888246Y-59600000D01*
X72888246Y-60800000D01*
X72900000Y-60862468D01*
X72900000Y-61541957D01*
X72888246Y-61600000D01*
X72888246Y-62800000D01*
X72900000Y-62862468D01*
X72900000Y-63541957D01*
X72888246Y-63600000D01*
X72888246Y-64800000D01*
X72900000Y-64862468D01*
X72900000Y-65541957D01*
X72888246Y-65600000D01*
X72888246Y-66800000D01*
X72900000Y-66862468D01*
X72900000Y-67541957D01*
X72888246Y-67600000D01*
X72888246Y-68800000D01*
X72900000Y-68862468D01*
X72900000Y-69341298D01*
X72888510Y-69323442D01*
X72688007Y-69186444D01*
X72450000Y-69138246D01*
X71842275Y-69138246D01*
X71650000Y-69100000D01*
X70400000Y-69100000D01*
X69979048Y-69183733D01*
X69655382Y-69400000D01*
X68337774Y-69400000D01*
X68288510Y-69323442D01*
X68088007Y-69186444D01*
X67850000Y-69138246D01*
X66350000Y-69138246D01*
X66127654Y-69180083D01*
X65923442Y-69311490D01*
X65862966Y-69400000D01*
X65225789Y-69400000D01*
X65200430Y-69272512D01*
X64918626Y-68850761D01*
X64496875Y-68568957D01*
X64161196Y-68502186D01*
X64286623Y-68477237D01*
X64295940Y-68471012D01*
X64496875Y-68431043D01*
X64918626Y-68149239D01*
X65200430Y-67727488D01*
X65299387Y-67230000D01*
X65200430Y-66732512D01*
X64918626Y-66310761D01*
X64496875Y-66028957D01*
X64295940Y-65988988D01*
X64286623Y-65982763D01*
X63770000Y-65880000D01*
X61289188Y-65880000D01*
X61070942Y-65661754D01*
X62575000Y-65661754D01*
X62797346Y-65619917D01*
X63001558Y-65488510D01*
X63138556Y-65288007D01*
X63186754Y-65050000D01*
X63186754Y-62950000D01*
X63144917Y-62727654D01*
X63013510Y-62523442D01*
X62813007Y-62386444D01*
X62575000Y-62338246D01*
X61025000Y-62338246D01*
X60802654Y-62380083D01*
X60598442Y-62511490D01*
X60503802Y-62650000D01*
X58500000Y-62650000D01*
X58056355Y-62738246D01*
X56700000Y-62738246D01*
X56477654Y-62780083D01*
X56273442Y-62911490D01*
X56136444Y-63111993D01*
X56088246Y-63350000D01*
X56088246Y-65650000D01*
X56130083Y-65872346D01*
X56261490Y-66076558D01*
X56461993Y-66213556D01*
X56700000Y-66261754D01*
X57852566Y-66261754D01*
X59775406Y-68184594D01*
X59784928Y-68190957D01*
X59891490Y-68356558D01*
X60091993Y-68493556D01*
X60330000Y-68541754D01*
X60537725Y-68541754D01*
X60588804Y-68551914D01*
X60503125Y-68568957D01*
X60081374Y-68850761D01*
X59858513Y-69184298D01*
X59804012Y-68910304D01*
X59424660Y-68342563D01*
X58856919Y-67963211D01*
X58187223Y-67830000D01*
X57812777Y-67830000D01*
X57143081Y-67963211D01*
X56575340Y-68342563D01*
X56195988Y-68910304D01*
X56098581Y-69400000D01*
X50650000Y-69400000D01*
X50650000Y-60400000D01*
X60425000Y-60400000D01*
X60425000Y-61369347D01*
X60516344Y-61589872D01*
X60685127Y-61758655D01*
X60905652Y-61850000D01*
X61600000Y-61850000D01*
X61750000Y-61700000D01*
X61750000Y-60250000D01*
X61850000Y-60250000D01*
X61850000Y-61700000D01*
X62000000Y-61850000D01*
X62694348Y-61850000D01*
X62914873Y-61758655D01*
X63083656Y-61589872D01*
X63175000Y-61369347D01*
X63175000Y-60400000D01*
X63025000Y-60250000D01*
X61850000Y-60250000D01*
X61750000Y-60250000D01*
X60575000Y-60250000D01*
X60425000Y-60400000D01*
X50650000Y-60400000D01*
X50650000Y-51600000D01*
X56122672Y-51600000D01*
X56088246Y-51770000D01*
G36*
X87400000Y-81243505D02*
X87363246Y-81425000D01*
X87363246Y-82375000D01*
X87400000Y-82570332D01*
X87400000Y-89900000D01*
X86574122Y-89900000D01*
X86569917Y-89877654D01*
X86438510Y-89673442D01*
X86238007Y-89536444D01*
X86000000Y-89488246D01*
X84600000Y-89488246D01*
X84377654Y-89530083D01*
X84173442Y-89661490D01*
X84147697Y-89699169D01*
X84039872Y-89591344D01*
X83819347Y-89500000D01*
X83200000Y-89500000D01*
X83050000Y-89650000D01*
X83050000Y-89900000D01*
X82950000Y-89900000D01*
X82950000Y-89650000D01*
X82800000Y-89500000D01*
X82180653Y-89500000D01*
X81960128Y-89591344D01*
X81853984Y-89697488D01*
X81838510Y-89673442D01*
X81638007Y-89536444D01*
X81400000Y-89488246D01*
X80000000Y-89488246D01*
X79777654Y-89530083D01*
X79573442Y-89661490D01*
X79436444Y-89861993D01*
X79428747Y-89900000D01*
X79100000Y-89900000D01*
X79100000Y-85550000D01*
X80550000Y-85550000D01*
X80550000Y-86219348D01*
X80641345Y-86439873D01*
X80810128Y-86608656D01*
X81030653Y-86700000D01*
X82450000Y-86700000D01*
X82600000Y-86550000D01*
X82600000Y-85400000D01*
X83400000Y-85400000D01*
X83400000Y-86550000D01*
X83550000Y-86700000D01*
X84969347Y-86700000D01*
X85189872Y-86608656D01*
X85358655Y-86439873D01*
X85450000Y-86219348D01*
X85450000Y-85550000D01*
X85300000Y-85400000D01*
X83400000Y-85400000D01*
X82600000Y-85400000D01*
X80700000Y-85400000D01*
X80550000Y-85550000D01*
X79100000Y-85550000D01*
X79100000Y-83780652D01*
X80550000Y-83780652D01*
X80550000Y-84450000D01*
X80700000Y-84600000D01*
X82600000Y-84600000D01*
X82600000Y-83450000D01*
X83400000Y-83450000D01*
X83400000Y-84600000D01*
X85300000Y-84600000D01*
X85450000Y-84450000D01*
X85450000Y-83780652D01*
X85358655Y-83560127D01*
X85189872Y-83391344D01*
X84969347Y-83300000D01*
X83550000Y-83300000D01*
X83400000Y-83450000D01*
X82600000Y-83450000D01*
X82450000Y-83300000D01*
X81030653Y-83300000D01*
X80810128Y-83391344D01*
X80641345Y-83560127D01*
X80550000Y-83780652D01*
X79100000Y-83780652D01*
X79100000Y-74400000D01*
X87400000Y-74400000D01*
X87400000Y-81243505D01*
X87400000Y-81243505D01*
G37*
X87400000Y-81243505D02*
X87363246Y-81425000D01*
X87363246Y-82375000D01*
X87400000Y-82570332D01*
X87400000Y-89900000D01*
X86574122Y-89900000D01*
X86569917Y-89877654D01*
X86438510Y-89673442D01*
X86238007Y-89536444D01*
X86000000Y-89488246D01*
X84600000Y-89488246D01*
X84377654Y-89530083D01*
X84173442Y-89661490D01*
X84147697Y-89699169D01*
X84039872Y-89591344D01*
X83819347Y-89500000D01*
X83200000Y-89500000D01*
X83050000Y-89650000D01*
X83050000Y-89900000D01*
X82950000Y-89900000D01*
X82950000Y-89650000D01*
X82800000Y-89500000D01*
X82180653Y-89500000D01*
X81960128Y-89591344D01*
X81853984Y-89697488D01*
X81838510Y-89673442D01*
X81638007Y-89536444D01*
X81400000Y-89488246D01*
X80000000Y-89488246D01*
X79777654Y-89530083D01*
X79573442Y-89661490D01*
X79436444Y-89861993D01*
X79428747Y-89900000D01*
X79100000Y-89900000D01*
X79100000Y-85550000D01*
X80550000Y-85550000D01*
X80550000Y-86219348D01*
X80641345Y-86439873D01*
X80810128Y-86608656D01*
X81030653Y-86700000D01*
X82450000Y-86700000D01*
X82600000Y-86550000D01*
X82600000Y-85400000D01*
X83400000Y-85400000D01*
X83400000Y-86550000D01*
X83550000Y-86700000D01*
X84969347Y-86700000D01*
X85189872Y-86608656D01*
X85358655Y-86439873D01*
X85450000Y-86219348D01*
X85450000Y-85550000D01*
X85300000Y-85400000D01*
X83400000Y-85400000D01*
X82600000Y-85400000D01*
X80700000Y-85400000D01*
X80550000Y-85550000D01*
X79100000Y-85550000D01*
X79100000Y-83780652D01*
X80550000Y-83780652D01*
X80550000Y-84450000D01*
X80700000Y-84600000D01*
X82600000Y-84600000D01*
X82600000Y-83450000D01*
X83400000Y-83450000D01*
X83400000Y-84600000D01*
X85300000Y-84600000D01*
X85450000Y-84450000D01*
X85450000Y-83780652D01*
X85358655Y-83560127D01*
X85189872Y-83391344D01*
X84969347Y-83300000D01*
X83550000Y-83300000D01*
X83400000Y-83450000D01*
X82600000Y-83450000D01*
X82450000Y-83300000D01*
X81030653Y-83300000D01*
X80810128Y-83391344D01*
X80641345Y-83560127D01*
X80550000Y-83780652D01*
X79100000Y-83780652D01*
X79100000Y-74400000D01*
X87400000Y-74400000D01*
X87400000Y-81243505D01*
M02*
