M48
;DRILL file {KiCad 4.0.0-rc1-stable} date 2016-02-04 20:32:05
;FORMAT={-:-/ absolute / metric / decimal}
FMAT,2
METRIC,TZ
T1C0.300
T2C0.700
T3C0.800
T4C1.000
T5C1.500
T6C3.200
%
G90
G05
M71
T1
X61.325Y-54.
X61.325Y-96.
X62.108Y-52.108
X62.108Y-55.892
X62.108Y-94.108
X62.108Y-97.892
X64.Y-51.325
X64.Y-56.675
X64.Y-93.325
X64.Y-98.675
X65.892Y-52.108
X65.892Y-55.892
X65.892Y-94.108
X65.892Y-97.892
X66.675Y-54.
X66.675Y-96.
X70.4Y-70.2
X70.4Y-71.8
X73.15Y-71.8
X81.1Y-93.
X82.95Y-72.6
X83.Y-74.4
X92.25Y-70.2
X93.325Y-54.
X93.325Y-96.
X94.108Y-52.108
X94.108Y-55.892
X94.108Y-94.108
X94.108Y-97.892
X95.9Y-71.2
X96.Y-51.325
X96.Y-56.675
X96.Y-93.325
X96.Y-98.675
X97.892Y-52.108
X97.892Y-55.892
X97.892Y-94.108
X97.892Y-97.892
X98.675Y-54.
X98.675Y-96.
T2
X94.Y-90.5
X96.5Y-90.5
T3
X62.25Y-91.
X65.75Y-91.
X70.Y-75.7
X70.Y-79.2
T4
X51.96Y-95.73
X51.96Y-98.27
X54.5Y-95.73
X54.5Y-98.27
X57.04Y-95.73
X57.04Y-98.27
X61.23Y-67.23
X61.23Y-69.77
X63.77Y-67.23
X63.77Y-69.77
X70.729Y-84.396
X70.729Y-86.936
X70.729Y-95.064
X70.729Y-97.604
X89.271Y-84.396
X89.271Y-86.936
X89.271Y-95.064
X89.271Y-97.604
X94.98Y-59.69
X94.98Y-62.23
X94.98Y-64.77
X94.98Y-67.31
X97.52Y-59.69
X97.52Y-62.23
X97.52Y-64.77
X97.52Y-67.31
T5
X58.Y-52.92
X58.Y-58.
X58.Y-64.5
X58.Y-69.58
X58.Y-76.
X58.Y-81.08
X58.Y-86.16
X58.Y-91.24
T6
X64.Y-54.
X64.Y-96.
X96.Y-54.
X96.Y-96.
T0
M30
