G04 #@! TF.FileFunction,Legend,Bot*
%FSLAX46Y46*%
G04 Gerber Fmt 4.6, Leading zero omitted, Abs format (unit mm)*
G04 Created by KiCad (PCBNEW 4.0.0-rc1-stable) date 2016-02-04 20:23:29*
%MOMM*%
G01*
G04 APERTURE LIST*
%ADD10C,0.100000*%
%ADD11C,0.151000*%
%ADD12C,0.152000*%
%ADD13C,0.381000*%
%ADD14C,0.150000*%
%ADD15C,1.700000*%
%ADD16C,2.000000*%
%ADD17C,1.800000*%
%ADD18R,1.600000X2.000000*%
%ADD19O,1.600000X2.000000*%
%ADD20O,5.200000X5.200000*%
%ADD21R,1.100000X1.000000*%
%ADD22R,2.000000X1.600000*%
%ADD23O,2.000000X1.600000*%
%ADD24R,1.200000X1.150000*%
%ADD25O,1.600000X1.800000*%
%ADD26C,7.700000*%
%ADD27C,0.850000*%
%ADD28C,1.200000*%
%ADD29R,1.500000X1.500000*%
G04 APERTURE END LIST*
D10*
D11*
X71590905Y-51840476D02*
X70790905Y-51840476D01*
X70790905Y-52030952D01*
X70829000Y-52145238D01*
X70905190Y-52221429D01*
X70981381Y-52259524D01*
X71133762Y-52297619D01*
X71248048Y-52297619D01*
X71400429Y-52259524D01*
X71476619Y-52221429D01*
X71552810Y-52145238D01*
X71590905Y-52030952D01*
X71590905Y-51840476D01*
X71590905Y-52640476D02*
X71057571Y-52640476D01*
X71209952Y-52640476D02*
X71133762Y-52678571D01*
X71095667Y-52716667D01*
X71057571Y-52792857D01*
X71057571Y-52869048D01*
X70790905Y-53288095D02*
X70790905Y-53440476D01*
X70829000Y-53516667D01*
X70905190Y-53592857D01*
X71057571Y-53630952D01*
X71324238Y-53630952D01*
X71476619Y-53592857D01*
X71552810Y-53516667D01*
X71590905Y-53440476D01*
X71590905Y-53288095D01*
X71552810Y-53211905D01*
X71476619Y-53135714D01*
X71324238Y-53097619D01*
X71057571Y-53097619D01*
X70905190Y-53135714D01*
X70829000Y-53211905D01*
X70790905Y-53288095D01*
X71552810Y-54316666D02*
X71590905Y-54240476D01*
X71590905Y-54088095D01*
X71552810Y-54011904D01*
X71514714Y-53973809D01*
X71438524Y-53935714D01*
X71209952Y-53935714D01*
X71133762Y-53973809D01*
X71095667Y-54011904D01*
X71057571Y-54088095D01*
X71057571Y-54240476D01*
X71095667Y-54316666D01*
X71057571Y-54545237D02*
X71057571Y-54849999D01*
X70790905Y-54659523D02*
X71476619Y-54659523D01*
X71552810Y-54697618D01*
X71590905Y-54773809D01*
X71590905Y-54849999D01*
X71590905Y-55230952D02*
X71552810Y-55154761D01*
X71514714Y-55116666D01*
X71438524Y-55078571D01*
X71209952Y-55078571D01*
X71133762Y-55116666D01*
X71095667Y-55154761D01*
X71057571Y-55230952D01*
X71057571Y-55345238D01*
X71095667Y-55421428D01*
X71133762Y-55459523D01*
X71209952Y-55497619D01*
X71438524Y-55497619D01*
X71514714Y-55459523D01*
X71552810Y-55421428D01*
X71590905Y-55345238D01*
X71590905Y-55230952D01*
X71057571Y-55840476D02*
X71857571Y-55840476D01*
X71095667Y-55840476D02*
X71057571Y-55916667D01*
X71057571Y-56069048D01*
X71095667Y-56145238D01*
X71133762Y-56183333D01*
X71209952Y-56221429D01*
X71438524Y-56221429D01*
X71514714Y-56183333D01*
X71552810Y-56145238D01*
X71590905Y-56069048D01*
X71590905Y-55916667D01*
X71552810Y-55840476D01*
X71057571Y-56907143D02*
X71590905Y-56907143D01*
X71057571Y-56564286D02*
X71476619Y-56564286D01*
X71552810Y-56602381D01*
X71590905Y-56678572D01*
X71590905Y-56792858D01*
X71552810Y-56869048D01*
X71514714Y-56907143D01*
X71552810Y-57250001D02*
X71590905Y-57326191D01*
X71590905Y-57478572D01*
X71552810Y-57554763D01*
X71476619Y-57592858D01*
X71438524Y-57592858D01*
X71362333Y-57554763D01*
X71324238Y-57478572D01*
X71324238Y-57364287D01*
X71286143Y-57288096D01*
X71209952Y-57250001D01*
X71171857Y-57250001D01*
X71095667Y-57288096D01*
X71057571Y-57364287D01*
X71057571Y-57478572D01*
X71095667Y-57554763D01*
X71057571Y-58469049D02*
X71590905Y-58659525D01*
X71057571Y-58850001D01*
X70867095Y-59116668D02*
X70829000Y-59154763D01*
X70790905Y-59230954D01*
X70790905Y-59421430D01*
X70829000Y-59497620D01*
X70867095Y-59535716D01*
X70943286Y-59573811D01*
X71019476Y-59573811D01*
X71133762Y-59535716D01*
X71590905Y-59078573D01*
X71590905Y-59573811D01*
X71514714Y-59916668D02*
X71552810Y-59954763D01*
X71590905Y-59916668D01*
X71552810Y-59878573D01*
X71514714Y-59916668D01*
X71590905Y-59916668D01*
X70790905Y-60450001D02*
X70790905Y-60526192D01*
X70829000Y-60602382D01*
X70867095Y-60640477D01*
X70943286Y-60678573D01*
X71095667Y-60716668D01*
X71286143Y-60716668D01*
X71438524Y-60678573D01*
X71514714Y-60640477D01*
X71552810Y-60602382D01*
X71590905Y-60526192D01*
X71590905Y-60450001D01*
X71552810Y-60373811D01*
X71514714Y-60335715D01*
X71438524Y-60297620D01*
X71286143Y-60259525D01*
X71095667Y-60259525D01*
X70943286Y-60297620D01*
X70867095Y-60335715D01*
X70829000Y-60373811D01*
X70790905Y-60450001D01*
X72861905Y-51840476D02*
X72061905Y-51840476D01*
X72861905Y-52183333D02*
X72442857Y-52183333D01*
X72366667Y-52145238D01*
X72328571Y-52069048D01*
X72328571Y-51954762D01*
X72366667Y-51878571D01*
X72404762Y-51840476D01*
X72328571Y-52450000D02*
X72328571Y-52754762D01*
X72061905Y-52564286D02*
X72747619Y-52564286D01*
X72823810Y-52602381D01*
X72861905Y-52678572D01*
X72861905Y-52754762D01*
X72328571Y-52907143D02*
X72328571Y-53211905D01*
X72061905Y-53021429D02*
X72747619Y-53021429D01*
X72823810Y-53059524D01*
X72861905Y-53135715D01*
X72861905Y-53211905D01*
X72328571Y-53478572D02*
X73128571Y-53478572D01*
X72366667Y-53478572D02*
X72328571Y-53554763D01*
X72328571Y-53707144D01*
X72366667Y-53783334D01*
X72404762Y-53821429D01*
X72480952Y-53859525D01*
X72709524Y-53859525D01*
X72785714Y-53821429D01*
X72823810Y-53783334D01*
X72861905Y-53707144D01*
X72861905Y-53554763D01*
X72823810Y-53478572D01*
X72785714Y-54202382D02*
X72823810Y-54240477D01*
X72861905Y-54202382D01*
X72823810Y-54164287D01*
X72785714Y-54202382D01*
X72861905Y-54202382D01*
X72366667Y-54202382D02*
X72404762Y-54240477D01*
X72442857Y-54202382D01*
X72404762Y-54164287D01*
X72366667Y-54202382D01*
X72442857Y-54202382D01*
X72023810Y-55154763D02*
X73052381Y-54469048D01*
X72023810Y-55992858D02*
X73052381Y-55307143D01*
X72328571Y-56259524D02*
X72861905Y-56259524D01*
X72404762Y-56259524D02*
X72366667Y-56297619D01*
X72328571Y-56373810D01*
X72328571Y-56488096D01*
X72366667Y-56564286D01*
X72442857Y-56602381D01*
X72861905Y-56602381D01*
X72861905Y-56983334D02*
X72328571Y-56983334D01*
X72061905Y-56983334D02*
X72100000Y-56945239D01*
X72138095Y-56983334D01*
X72100000Y-57021429D01*
X72061905Y-56983334D01*
X72138095Y-56983334D01*
X72823810Y-57707143D02*
X72861905Y-57630953D01*
X72861905Y-57478572D01*
X72823810Y-57402381D01*
X72785714Y-57364286D01*
X72709524Y-57326191D01*
X72480952Y-57326191D01*
X72404762Y-57364286D01*
X72366667Y-57402381D01*
X72328571Y-57478572D01*
X72328571Y-57630953D01*
X72366667Y-57707143D01*
X72823810Y-58354762D02*
X72861905Y-58278572D01*
X72861905Y-58126191D01*
X72823810Y-58050000D01*
X72747619Y-58011905D01*
X72442857Y-58011905D01*
X72366667Y-58050000D01*
X72328571Y-58126191D01*
X72328571Y-58278572D01*
X72366667Y-58354762D01*
X72442857Y-58392857D01*
X72519048Y-58392857D01*
X72595238Y-58011905D01*
X72823810Y-59078571D02*
X72861905Y-59002381D01*
X72861905Y-58850000D01*
X72823810Y-58773809D01*
X72785714Y-58735714D01*
X72709524Y-58697619D01*
X72480952Y-58697619D01*
X72404762Y-58735714D01*
X72366667Y-58773809D01*
X72328571Y-58850000D01*
X72328571Y-59002381D01*
X72366667Y-59078571D01*
X72861905Y-59421428D02*
X72328571Y-59421428D01*
X72061905Y-59421428D02*
X72100000Y-59383333D01*
X72138095Y-59421428D01*
X72100000Y-59459523D01*
X72061905Y-59421428D01*
X72138095Y-59421428D01*
X72861905Y-59802380D02*
X72328571Y-59802380D01*
X72480952Y-59802380D02*
X72404762Y-59840475D01*
X72366667Y-59878571D01*
X72328571Y-59954761D01*
X72328571Y-60030952D01*
X72823810Y-60640475D02*
X72861905Y-60564285D01*
X72861905Y-60411904D01*
X72823810Y-60335713D01*
X72785714Y-60297618D01*
X72709524Y-60259523D01*
X72480952Y-60259523D01*
X72404762Y-60297618D01*
X72366667Y-60335713D01*
X72328571Y-60411904D01*
X72328571Y-60564285D01*
X72366667Y-60640475D01*
X72328571Y-61326189D02*
X72861905Y-61326189D01*
X72328571Y-60983332D02*
X72747619Y-60983332D01*
X72823810Y-61021427D01*
X72861905Y-61097618D01*
X72861905Y-61211904D01*
X72823810Y-61288094D01*
X72785714Y-61326189D01*
X72861905Y-61707142D02*
X72328571Y-61707142D01*
X72061905Y-61707142D02*
X72100000Y-61669047D01*
X72138095Y-61707142D01*
X72100000Y-61745237D01*
X72061905Y-61707142D01*
X72138095Y-61707142D01*
X72328571Y-61973808D02*
X72328571Y-62278570D01*
X72061905Y-62088094D02*
X72747619Y-62088094D01*
X72823810Y-62126189D01*
X72861905Y-62202380D01*
X72861905Y-62278570D01*
X72823810Y-62507142D02*
X72861905Y-62583332D01*
X72861905Y-62735713D01*
X72823810Y-62811904D01*
X72747619Y-62849999D01*
X72709524Y-62849999D01*
X72633333Y-62811904D01*
X72595238Y-62735713D01*
X72595238Y-62621428D01*
X72557143Y-62545237D01*
X72480952Y-62507142D01*
X72442857Y-62507142D01*
X72366667Y-62545237D01*
X72328571Y-62621428D01*
X72328571Y-62735713D01*
X72366667Y-62811904D01*
X72785714Y-63192856D02*
X72823810Y-63230951D01*
X72861905Y-63192856D01*
X72823810Y-63154761D01*
X72785714Y-63192856D01*
X72861905Y-63192856D01*
X72823810Y-63916665D02*
X72861905Y-63840475D01*
X72861905Y-63688094D01*
X72823810Y-63611903D01*
X72785714Y-63573808D01*
X72709524Y-63535713D01*
X72480952Y-63535713D01*
X72404762Y-63573808D01*
X72366667Y-63611903D01*
X72328571Y-63688094D01*
X72328571Y-63840475D01*
X72366667Y-63916665D01*
X72861905Y-64373808D02*
X72823810Y-64297617D01*
X72785714Y-64259522D01*
X72709524Y-64221427D01*
X72480952Y-64221427D01*
X72404762Y-64259522D01*
X72366667Y-64297617D01*
X72328571Y-64373808D01*
X72328571Y-64488094D01*
X72366667Y-64564284D01*
X72404762Y-64602379D01*
X72480952Y-64640475D01*
X72709524Y-64640475D01*
X72785714Y-64602379D01*
X72823810Y-64564284D01*
X72861905Y-64488094D01*
X72861905Y-64373808D01*
X72861905Y-64983332D02*
X72328571Y-64983332D01*
X72404762Y-64983332D02*
X72366667Y-65021427D01*
X72328571Y-65097618D01*
X72328571Y-65211904D01*
X72366667Y-65288094D01*
X72442857Y-65326189D01*
X72861905Y-65326189D01*
X72442857Y-65326189D02*
X72366667Y-65364285D01*
X72328571Y-65440475D01*
X72328571Y-65554761D01*
X72366667Y-65630951D01*
X72442857Y-65669046D01*
X72861905Y-65669046D01*
X72023810Y-66621428D02*
X73052381Y-65935713D01*
X72861905Y-66888094D02*
X72061905Y-66888094D01*
X72061905Y-67078570D01*
X72100000Y-67192856D01*
X72176190Y-67269047D01*
X72252381Y-67307142D01*
X72404762Y-67345237D01*
X72519048Y-67345237D01*
X72671429Y-67307142D01*
X72747619Y-67269047D01*
X72823810Y-67192856D01*
X72861905Y-67078570D01*
X72861905Y-66888094D01*
X72861905Y-67688094D02*
X72328571Y-67688094D01*
X72480952Y-67688094D02*
X72404762Y-67726189D01*
X72366667Y-67764285D01*
X72328571Y-67840475D01*
X72328571Y-67916666D01*
X72061905Y-68335713D02*
X72061905Y-68488094D01*
X72100000Y-68564285D01*
X72176190Y-68640475D01*
X72328571Y-68678570D01*
X72595238Y-68678570D01*
X72747619Y-68640475D01*
X72823810Y-68564285D01*
X72861905Y-68488094D01*
X72861905Y-68335713D01*
X72823810Y-68259523D01*
X72747619Y-68183332D01*
X72595238Y-68145237D01*
X72328571Y-68145237D01*
X72176190Y-68183332D01*
X72100000Y-68259523D01*
X72061905Y-68335713D01*
X72823810Y-69364284D02*
X72861905Y-69288094D01*
X72861905Y-69135713D01*
X72823810Y-69059522D01*
X72785714Y-69021427D01*
X72709524Y-68983332D01*
X72480952Y-68983332D01*
X72404762Y-69021427D01*
X72366667Y-69059522D01*
X72328571Y-69135713D01*
X72328571Y-69288094D01*
X72366667Y-69364284D01*
X72328571Y-69592855D02*
X72328571Y-69897617D01*
X72061905Y-69707141D02*
X72747619Y-69707141D01*
X72823810Y-69745236D01*
X72861905Y-69821427D01*
X72861905Y-69897617D01*
X72861905Y-70278570D02*
X72823810Y-70202379D01*
X72785714Y-70164284D01*
X72709524Y-70126189D01*
X72480952Y-70126189D01*
X72404762Y-70164284D01*
X72366667Y-70202379D01*
X72328571Y-70278570D01*
X72328571Y-70392856D01*
X72366667Y-70469046D01*
X72404762Y-70507141D01*
X72480952Y-70545237D01*
X72709524Y-70545237D01*
X72785714Y-70507141D01*
X72823810Y-70469046D01*
X72861905Y-70392856D01*
X72861905Y-70278570D01*
X72328571Y-70888094D02*
X73128571Y-70888094D01*
X72366667Y-70888094D02*
X72328571Y-70964285D01*
X72328571Y-71116666D01*
X72366667Y-71192856D01*
X72404762Y-71230951D01*
X72480952Y-71269047D01*
X72709524Y-71269047D01*
X72785714Y-71230951D01*
X72823810Y-71192856D01*
X72861905Y-71116666D01*
X72861905Y-70964285D01*
X72823810Y-70888094D01*
X72328571Y-71954761D02*
X72861905Y-71954761D01*
X72328571Y-71611904D02*
X72747619Y-71611904D01*
X72823810Y-71649999D01*
X72861905Y-71726190D01*
X72861905Y-71840476D01*
X72823810Y-71916666D01*
X72785714Y-71954761D01*
X72823810Y-72297619D02*
X72861905Y-72373809D01*
X72861905Y-72526190D01*
X72823810Y-72602381D01*
X72747619Y-72640476D01*
X72709524Y-72640476D01*
X72633333Y-72602381D01*
X72595238Y-72526190D01*
X72595238Y-72411905D01*
X72557143Y-72335714D01*
X72480952Y-72297619D01*
X72442857Y-72297619D01*
X72366667Y-72335714D01*
X72328571Y-72411905D01*
X72328571Y-72526190D01*
X72366667Y-72602381D01*
X72023810Y-73554762D02*
X73052381Y-72869047D01*
X73409095Y-51802381D02*
X73371000Y-51840476D01*
X73332905Y-51916667D01*
X73332905Y-52107143D01*
X73371000Y-52183333D01*
X73409095Y-52221429D01*
X73485286Y-52259524D01*
X73561476Y-52259524D01*
X73675762Y-52221429D01*
X74132905Y-51764286D01*
X74132905Y-52259524D01*
X73332905Y-52754762D02*
X73332905Y-52830953D01*
X73371000Y-52907143D01*
X73409095Y-52945238D01*
X73485286Y-52983334D01*
X73637667Y-53021429D01*
X73828143Y-53021429D01*
X73980524Y-52983334D01*
X74056714Y-52945238D01*
X74094810Y-52907143D01*
X74132905Y-52830953D01*
X74132905Y-52754762D01*
X74094810Y-52678572D01*
X74056714Y-52640476D01*
X73980524Y-52602381D01*
X73828143Y-52564286D01*
X73637667Y-52564286D01*
X73485286Y-52602381D01*
X73409095Y-52640476D01*
X73371000Y-52678572D01*
X73332905Y-52754762D01*
X74132905Y-53783334D02*
X74132905Y-53326191D01*
X74132905Y-53554762D02*
X73332905Y-53554762D01*
X73447190Y-53478572D01*
X73523381Y-53402381D01*
X73561476Y-53326191D01*
X73332905Y-54469048D02*
X73332905Y-54316667D01*
X73371000Y-54240477D01*
X73409095Y-54202382D01*
X73523381Y-54126191D01*
X73675762Y-54088096D01*
X73980524Y-54088096D01*
X74056714Y-54126191D01*
X74094810Y-54164286D01*
X74132905Y-54240477D01*
X74132905Y-54392858D01*
X74094810Y-54469048D01*
X74056714Y-54507144D01*
X73980524Y-54545239D01*
X73790048Y-54545239D01*
X73713857Y-54507144D01*
X73675762Y-54469048D01*
X73637667Y-54392858D01*
X73637667Y-54240477D01*
X73675762Y-54164286D01*
X73713857Y-54126191D01*
X73790048Y-54088096D01*
X74056714Y-54888096D02*
X74094810Y-54926191D01*
X74132905Y-54888096D01*
X74094810Y-54850001D01*
X74056714Y-54888096D01*
X74132905Y-54888096D01*
X73332905Y-55421429D02*
X73332905Y-55497620D01*
X73371000Y-55573810D01*
X73409095Y-55611905D01*
X73485286Y-55650001D01*
X73637667Y-55688096D01*
X73828143Y-55688096D01*
X73980524Y-55650001D01*
X74056714Y-55611905D01*
X74094810Y-55573810D01*
X74132905Y-55497620D01*
X74132905Y-55421429D01*
X74094810Y-55345239D01*
X74056714Y-55307143D01*
X73980524Y-55269048D01*
X73828143Y-55230953D01*
X73637667Y-55230953D01*
X73485286Y-55269048D01*
X73409095Y-55307143D01*
X73371000Y-55345239D01*
X73332905Y-55421429D01*
X73409095Y-55992858D02*
X73371000Y-56030953D01*
X73332905Y-56107144D01*
X73332905Y-56297620D01*
X73371000Y-56373810D01*
X73409095Y-56411906D01*
X73485286Y-56450001D01*
X73561476Y-56450001D01*
X73675762Y-56411906D01*
X74132905Y-55954763D01*
X74132905Y-56450001D01*
X74132905Y-57402382D02*
X73332905Y-57402382D01*
X73332905Y-57707144D01*
X73371000Y-57783335D01*
X73409095Y-57821430D01*
X73485286Y-57859525D01*
X73599571Y-57859525D01*
X73675762Y-57821430D01*
X73713857Y-57783335D01*
X73751952Y-57707144D01*
X73751952Y-57402382D01*
X74132905Y-58202382D02*
X73599571Y-58202382D01*
X73332905Y-58202382D02*
X73371000Y-58164287D01*
X73409095Y-58202382D01*
X73371000Y-58240477D01*
X73332905Y-58202382D01*
X73409095Y-58202382D01*
X74132905Y-58697620D02*
X74094810Y-58621429D01*
X74056714Y-58583334D01*
X73980524Y-58545239D01*
X73751952Y-58545239D01*
X73675762Y-58583334D01*
X73637667Y-58621429D01*
X73599571Y-58697620D01*
X73599571Y-58811906D01*
X73637667Y-58888096D01*
X73675762Y-58926191D01*
X73751952Y-58964287D01*
X73980524Y-58964287D01*
X74056714Y-58926191D01*
X74094810Y-58888096D01*
X74132905Y-58811906D01*
X74132905Y-58697620D01*
X73599571Y-59192858D02*
X73599571Y-59497620D01*
X73332905Y-59307144D02*
X74018619Y-59307144D01*
X74094810Y-59345239D01*
X74132905Y-59421430D01*
X74132905Y-59497620D01*
X74132905Y-59764287D02*
X73599571Y-59764287D01*
X73751952Y-59764287D02*
X73675762Y-59802382D01*
X73637667Y-59840478D01*
X73599571Y-59916668D01*
X73599571Y-59992859D01*
X74132905Y-60869049D02*
X73332905Y-60869049D01*
X74132905Y-61326192D01*
X73332905Y-61326192D01*
X74132905Y-61821430D02*
X74094810Y-61745239D01*
X74056714Y-61707144D01*
X73980524Y-61669049D01*
X73751952Y-61669049D01*
X73675762Y-61707144D01*
X73637667Y-61745239D01*
X73599571Y-61821430D01*
X73599571Y-61935716D01*
X73637667Y-62011906D01*
X73675762Y-62050001D01*
X73751952Y-62088097D01*
X73980524Y-62088097D01*
X74056714Y-62050001D01*
X74094810Y-62011906D01*
X74132905Y-61935716D01*
X74132905Y-61821430D01*
X73599571Y-62354764D02*
X74132905Y-62507145D01*
X73751952Y-62659526D01*
X74132905Y-62811907D01*
X73599571Y-62964288D01*
X74132905Y-63269049D02*
X73599571Y-63269049D01*
X73332905Y-63269049D02*
X73371000Y-63230954D01*
X73409095Y-63269049D01*
X73371000Y-63307144D01*
X73332905Y-63269049D01*
X73409095Y-63269049D01*
X74094810Y-63992858D02*
X74132905Y-63916668D01*
X74132905Y-63764287D01*
X74094810Y-63688096D01*
X74056714Y-63650001D01*
X73980524Y-63611906D01*
X73751952Y-63611906D01*
X73675762Y-63650001D01*
X73637667Y-63688096D01*
X73599571Y-63764287D01*
X73599571Y-63916668D01*
X73637667Y-63992858D01*
X74132905Y-64335715D02*
X73332905Y-64335715D01*
X73828143Y-64411906D02*
X74132905Y-64640477D01*
X73599571Y-64640477D02*
X73904333Y-64335715D01*
X74132905Y-64983334D02*
X73599571Y-64983334D01*
X73332905Y-64983334D02*
X73371000Y-64945239D01*
X73409095Y-64983334D01*
X73371000Y-65021429D01*
X73332905Y-64983334D01*
X73409095Y-64983334D01*
D12*
X59400000Y-80600000D02*
X63000000Y-80600000D01*
X63000000Y-80600000D02*
X63000000Y-77000000D01*
X63000000Y-77000000D02*
X59400000Y-77000000D01*
X59400000Y-77000000D02*
X59400000Y-80600000D01*
X59400000Y-90700000D02*
X63000000Y-90700000D01*
X63000000Y-90700000D02*
X63000000Y-87100000D01*
X63000000Y-87100000D02*
X59400000Y-87100000D01*
X59400000Y-87100000D02*
X59400000Y-90700000D01*
X59400000Y-75200000D02*
X63000000Y-75200000D01*
X63000000Y-75200000D02*
X63000000Y-71600000D01*
X63000000Y-71600000D02*
X59400000Y-71600000D01*
X59400000Y-71600000D02*
X59400000Y-75200000D01*
X59400000Y-85400000D02*
X63000000Y-85400000D01*
X63000000Y-85400000D02*
X63000000Y-81800000D01*
X63000000Y-81800000D02*
X59400000Y-81800000D01*
X59400000Y-81800000D02*
X59400000Y-85400000D01*
X50690000Y-99540000D02*
X58310000Y-99540000D01*
X58310000Y-99540000D02*
X58310000Y-94460000D01*
X58310000Y-94460000D02*
X50690000Y-94460000D01*
X50690000Y-94460000D02*
X50690000Y-99540000D01*
X55770000Y-94384000D02*
X58310000Y-94384000D01*
X58310000Y-94384000D02*
X58310000Y-94231000D01*
X58310000Y-94231000D02*
X55770000Y-94231000D01*
X55770000Y-94231000D02*
X55770000Y-94384000D01*
X65040000Y-71040000D02*
X65040000Y-65960000D01*
X65040000Y-65960000D02*
X59960000Y-65960000D01*
X59960000Y-65960000D02*
X59960000Y-71040000D01*
X59960000Y-71040000D02*
X65040000Y-71040000D01*
X59884000Y-68500000D02*
X59884000Y-65960000D01*
X59884000Y-65960000D02*
X59731000Y-65960000D01*
X59731000Y-65960000D02*
X59731000Y-68500000D01*
X59731000Y-68500000D02*
X59884000Y-68500000D01*
X98790000Y-68580000D02*
X98790000Y-58420000D01*
X98790000Y-58420000D02*
X93710000Y-58420000D01*
X93710000Y-58420000D02*
X93710000Y-68580000D01*
X93710000Y-68580000D02*
X98790000Y-68580000D01*
X93634000Y-60960000D02*
X93634000Y-58420000D01*
X93634000Y-58420000D02*
X93481000Y-58420000D01*
X93481000Y-58420000D02*
X93481000Y-60960000D01*
X93481000Y-60960000D02*
X93634000Y-60960000D01*
X57400000Y-64600000D02*
X53800000Y-64600000D01*
X53800000Y-64600000D02*
X53800000Y-68200000D01*
X53800000Y-68200000D02*
X57400000Y-68200000D01*
X57400000Y-68200000D02*
X57400000Y-64600000D01*
X60300000Y-57900000D02*
X56700000Y-57900000D01*
X56700000Y-57900000D02*
X56700000Y-61500000D01*
X56700000Y-61500000D02*
X60300000Y-61500000D01*
X60300000Y-61500000D02*
X60300000Y-57900000D01*
X67300000Y-79200000D02*
X67300000Y-80800000D01*
X67300000Y-80800000D02*
X70300000Y-80800000D01*
X70300000Y-80800000D02*
X70300000Y-79200000D01*
X70300000Y-79200000D02*
X67300000Y-79200000D01*
X67300000Y-76700000D02*
X67300000Y-78300000D01*
X67300000Y-78300000D02*
X70300000Y-78300000D01*
X70300000Y-78300000D02*
X70300000Y-76700000D01*
X70300000Y-76700000D02*
X67300000Y-76700000D01*
X67300000Y-74200000D02*
X67300000Y-75800000D01*
X67300000Y-75800000D02*
X70300000Y-75800000D01*
X70300000Y-75800000D02*
X70300000Y-74200000D01*
X70300000Y-74200000D02*
X67300000Y-74200000D01*
X67300000Y-89400000D02*
X67300000Y-91000000D01*
X67300000Y-91000000D02*
X70300000Y-91000000D01*
X70300000Y-91000000D02*
X70300000Y-89400000D01*
X70300000Y-89400000D02*
X67300000Y-89400000D01*
X67300000Y-86800000D02*
X67300000Y-88400000D01*
X67300000Y-88400000D02*
X70300000Y-88400000D01*
X70300000Y-88400000D02*
X70300000Y-86800000D01*
X70300000Y-86800000D02*
X67300000Y-86800000D01*
X67300000Y-84400000D02*
X67300000Y-86000000D01*
X67300000Y-86000000D02*
X70300000Y-86000000D01*
X70300000Y-86000000D02*
X70300000Y-84400000D01*
X70300000Y-84400000D02*
X67300000Y-84400000D01*
D13*
X95100000Y-77950000D02*
X96650000Y-76900000D01*
X95049900Y-73150200D02*
X94950840Y-73051140D01*
X94950840Y-73051140D02*
X94849240Y-72850480D01*
X94849240Y-72850480D02*
X94849240Y-72550760D01*
X94849240Y-72550760D02*
X94950840Y-72251040D01*
X94950840Y-72251040D02*
X95349620Y-72050380D01*
X95349620Y-72050380D02*
X95850000Y-71948780D01*
X95850000Y-71948780D02*
X96248780Y-71948780D01*
X96248780Y-71948780D02*
X96650100Y-72149440D01*
X96650100Y-72149440D02*
X96850760Y-72550760D01*
X96850760Y-72550760D02*
X96850760Y-72748880D01*
X96850760Y-72748880D02*
X96850760Y-73051140D01*
X96850760Y-73051140D02*
X96650100Y-73150200D01*
X95049900Y-71151220D02*
X94950840Y-71049620D01*
X94950840Y-71049620D02*
X94849240Y-70749900D01*
X94849240Y-70749900D02*
X94950840Y-70351120D01*
X94950840Y-70351120D02*
X95148960Y-70048860D01*
X95148960Y-70048860D02*
X95550280Y-69949800D01*
X95550280Y-69949800D02*
X95949060Y-69949800D01*
X95949060Y-69949800D02*
X96449440Y-70048860D01*
X96449440Y-70048860D02*
X96749160Y-70249520D01*
X96749160Y-70249520D02*
X96850760Y-70549240D01*
X96850760Y-70549240D02*
X96850760Y-70950560D01*
X96850760Y-70950560D02*
X96650100Y-71151220D01*
X93350640Y-71550000D02*
X93350640Y-71450940D01*
X93350640Y-71450940D02*
X93449700Y-70848960D01*
X93449700Y-70848960D02*
X93650360Y-70351120D01*
X93650360Y-70351120D02*
X94049140Y-69850740D01*
X94049140Y-69850740D02*
X94651120Y-69350360D01*
X94651120Y-69350360D02*
X95049900Y-69149700D01*
X95049900Y-69149700D02*
X95550280Y-69050640D01*
X95550280Y-69050640D02*
X96149720Y-69050640D01*
X96149720Y-69050640D02*
X96949820Y-69248760D01*
X96949820Y-69248760D02*
X97650860Y-69850740D01*
X97650860Y-69850740D02*
X98049640Y-70351120D01*
X98049640Y-70351120D02*
X98349360Y-71049620D01*
X98349360Y-71049620D02*
X98349360Y-71849720D01*
X98349360Y-71849720D02*
X98151240Y-72449160D01*
X98151240Y-72449160D02*
X97848980Y-73051140D01*
X97848980Y-73051140D02*
X97351140Y-73548980D01*
X97351140Y-73548980D02*
X96650100Y-73950300D01*
X96650100Y-73950300D02*
X96050660Y-74049360D01*
X96050660Y-74049360D02*
X95451220Y-74049360D01*
X95451220Y-74049360D02*
X94849240Y-73851240D01*
X94849240Y-73851240D02*
X94348860Y-73548980D01*
X94348860Y-73548980D02*
X93851020Y-73051140D01*
X93851020Y-73051140D02*
X93548760Y-72550760D01*
X93548760Y-72550760D02*
X93449700Y-72149440D01*
X93449700Y-72149440D02*
X93350640Y-71550000D01*
X94700000Y-77400000D02*
X94800000Y-77700000D01*
X94800000Y-77700000D02*
X95100000Y-77950000D01*
X95100000Y-77950000D02*
X95500000Y-78100000D01*
X95500000Y-78100000D02*
X95950000Y-78100000D01*
X95950000Y-78100000D02*
X96300000Y-78100000D01*
X96300000Y-78100000D02*
X96750000Y-77900000D01*
X96750000Y-77900000D02*
X97000000Y-77750000D01*
X97000000Y-77750000D02*
X97200000Y-77450000D01*
X97200000Y-77450000D02*
X97150000Y-77150000D01*
X97150000Y-77150000D02*
X96900000Y-76900000D01*
X96900000Y-76900000D02*
X96500000Y-76750000D01*
X96500000Y-76750000D02*
X95950000Y-76650000D01*
X95950000Y-76650000D02*
X95450000Y-76750000D01*
X95450000Y-76750000D02*
X94950000Y-76900000D01*
X94950000Y-76900000D02*
X94750000Y-77150000D01*
X94750000Y-77150000D02*
X94700000Y-77400000D01*
X93400640Y-77400000D02*
X93400640Y-77300940D01*
X93400640Y-77300940D02*
X93499700Y-76698960D01*
X93499700Y-76698960D02*
X93700360Y-76201120D01*
X93700360Y-76201120D02*
X94099140Y-75700740D01*
X94099140Y-75700740D02*
X94701120Y-75200360D01*
X94701120Y-75200360D02*
X95099900Y-74999700D01*
X95099900Y-74999700D02*
X95600280Y-74900640D01*
X95600280Y-74900640D02*
X96199720Y-74900640D01*
X96199720Y-74900640D02*
X96999820Y-75098760D01*
X96999820Y-75098760D02*
X97700860Y-75700740D01*
X97700860Y-75700740D02*
X98099640Y-76201120D01*
X98099640Y-76201120D02*
X98399360Y-76899620D01*
X98399360Y-76899620D02*
X98399360Y-77699720D01*
X98399360Y-77699720D02*
X98201240Y-78299160D01*
X98201240Y-78299160D02*
X97898980Y-78901140D01*
X97898980Y-78901140D02*
X97401140Y-79398980D01*
X97401140Y-79398980D02*
X96700100Y-79800300D01*
X96700100Y-79800300D02*
X96100660Y-79899360D01*
X96100660Y-79899360D02*
X95501220Y-79899360D01*
X95501220Y-79899360D02*
X94899240Y-79701240D01*
X94899240Y-79701240D02*
X94398860Y-79398980D01*
X94398860Y-79398980D02*
X93901020Y-78901140D01*
X93901020Y-78901140D02*
X93598760Y-78400760D01*
X93598760Y-78400760D02*
X93499700Y-77999440D01*
X93499700Y-77999440D02*
X93400640Y-77400000D01*
X97289860Y-85068780D02*
X98760520Y-85429460D01*
X98760520Y-85429460D02*
X97698800Y-85708860D01*
X97698800Y-85708860D02*
X98770680Y-86018740D01*
X98770680Y-86018740D02*
X97320340Y-86359100D01*
X97980740Y-83648920D02*
X97970580Y-84438860D01*
X97970580Y-84438860D02*
X97980740Y-84449020D01*
X97980740Y-84449020D02*
X97970580Y-84449020D01*
X97259380Y-84489660D02*
X98801160Y-84489660D01*
X97249220Y-83600660D02*
X98818940Y-83600660D01*
X98818940Y-83600660D02*
X98808780Y-83610820D01*
X97350820Y-83049480D02*
X97269540Y-82698960D01*
X97269540Y-82698960D02*
X97259380Y-82378920D01*
X97259380Y-82378920D02*
X97460040Y-82140160D01*
X97460040Y-82140160D02*
X97729280Y-82109680D01*
X97729280Y-82109680D02*
X97970580Y-82350980D01*
X97970580Y-82350980D02*
X98100120Y-82739600D01*
X98100120Y-82739600D02*
X98260140Y-82919940D01*
X98260140Y-82919940D02*
X98559860Y-82960580D01*
X98559860Y-82960580D02*
X98780840Y-82729440D01*
X98780840Y-82729440D02*
X98808780Y-82409400D01*
X98808780Y-82409400D02*
X98699560Y-82058880D01*
X97249220Y-81020020D02*
X97269540Y-80771100D01*
X97269540Y-80771100D02*
X97510840Y-80529800D01*
X97510840Y-80529800D02*
X98001060Y-80440900D01*
X98001060Y-80440900D02*
X98349040Y-80468840D01*
X98349040Y-80468840D02*
X98669080Y-80669500D01*
X98669080Y-80669500D02*
X98791000Y-80920960D01*
X98791000Y-80920960D02*
X98719880Y-81230840D01*
X98719880Y-81230840D02*
X98539540Y-81449280D01*
X98539540Y-81449280D02*
X98079800Y-81520400D01*
X98079800Y-81520400D02*
X97670860Y-81469600D01*
X97670860Y-81469600D02*
X97388920Y-81360380D01*
X97388920Y-81360380D02*
X97259380Y-80999700D01*
X95529640Y-81619460D02*
X96090980Y-81360380D01*
X96090980Y-81360380D02*
X96609140Y-81898860D01*
X96609140Y-81898860D02*
X96339900Y-82419560D01*
X96339900Y-82419560D02*
X96499920Y-82698960D01*
X96479600Y-84139140D02*
X96289100Y-84469340D01*
X96289100Y-84469340D02*
X96619300Y-84908760D01*
X96619300Y-84908760D02*
X96129080Y-85381200D01*
X96129080Y-85381200D02*
X95649020Y-85099260D01*
X95649020Y-85099260D02*
X95179120Y-85289760D01*
X95179120Y-85289760D02*
X94991160Y-85899360D01*
X94991160Y-85899360D02*
X94310440Y-85899360D01*
X94310440Y-85899360D02*
X94170740Y-85340560D01*
X94170740Y-85340560D02*
X93599240Y-85139900D01*
X93599240Y-85139900D02*
X93129340Y-85409140D01*
X93129340Y-85409140D02*
X92618800Y-84939240D01*
X92618800Y-84939240D02*
X92880420Y-84421080D01*
X92880420Y-84421080D02*
X92679760Y-83951180D01*
X92679760Y-83951180D02*
X92138740Y-83781000D01*
X92138740Y-83781000D02*
X92120960Y-83090120D01*
X92120960Y-83090120D02*
X92669600Y-82879300D01*
X92669600Y-82879300D02*
X92839780Y-82460200D01*
X92839780Y-82460200D02*
X92570540Y-81909020D01*
X92570540Y-81909020D02*
X93098860Y-81390860D01*
X93098860Y-81390860D02*
X93639880Y-81639780D01*
X93639880Y-81639780D02*
X94119940Y-81469600D01*
X94119940Y-81469600D02*
X94219000Y-80920960D01*
X94219000Y-80920960D02*
X94920040Y-80910800D01*
X94920040Y-80910800D02*
X95120700Y-81469600D01*
X95120700Y-81469600D02*
X95519480Y-81609300D01*
X95499160Y-83750520D02*
X95349300Y-84050240D01*
X95349300Y-84050240D02*
X95151180Y-84250900D01*
X95151180Y-84250900D02*
X94749860Y-84400760D01*
X94749860Y-84400760D02*
X94351080Y-84400760D01*
X94351080Y-84400760D02*
X94000560Y-84250900D01*
X94000560Y-84250900D02*
X93650040Y-83798780D01*
X93650040Y-83798780D02*
X93599240Y-83349200D01*
X93599240Y-83349200D02*
X93700840Y-82950420D01*
X93700840Y-82950420D02*
X94048820Y-82549100D01*
X94048820Y-82549100D02*
X94500940Y-82399240D01*
X94500940Y-82399240D02*
X94998780Y-82450040D01*
X94998780Y-82450040D02*
X95301040Y-82698960D01*
X95301040Y-82698960D02*
X95499160Y-83049480D01*
X95499160Y-83049480D02*
X96499920Y-82698960D01*
X95499160Y-83750520D02*
X96499920Y-84149300D01*
D14*
X87033333Y-79861905D02*
X87033333Y-79061905D01*
X86728571Y-79061905D01*
X86652380Y-79100000D01*
X86614285Y-79138095D01*
X86576190Y-79214286D01*
X86576190Y-79328571D01*
X86614285Y-79404762D01*
X86652380Y-79442857D01*
X86728571Y-79480952D01*
X87033333Y-79480952D01*
X86271428Y-79633333D02*
X85890476Y-79633333D01*
X86347619Y-79861905D02*
X86080952Y-79061905D01*
X85814285Y-79861905D01*
X85395238Y-79061905D02*
X85319047Y-79061905D01*
X85242857Y-79100000D01*
X85204762Y-79138095D01*
X85166666Y-79214286D01*
X85128571Y-79366667D01*
X85128571Y-79557143D01*
X85166666Y-79709524D01*
X85204762Y-79785714D01*
X85242857Y-79823810D01*
X85319047Y-79861905D01*
X85395238Y-79861905D01*
X85471428Y-79823810D01*
X85509524Y-79785714D01*
X85547619Y-79709524D01*
X85585714Y-79557143D01*
X85585714Y-79366667D01*
X85547619Y-79214286D01*
X85509524Y-79138095D01*
X85471428Y-79100000D01*
X85395238Y-79061905D01*
X91733333Y-80561905D02*
X91733333Y-79761905D01*
X91428571Y-79761905D01*
X91352380Y-79800000D01*
X91314285Y-79838095D01*
X91276190Y-79914286D01*
X91276190Y-80028571D01*
X91314285Y-80104762D01*
X91352380Y-80142857D01*
X91428571Y-80180952D01*
X91733333Y-80180952D01*
X90971428Y-80333333D02*
X90590476Y-80333333D01*
X91047619Y-80561905D02*
X90780952Y-79761905D01*
X90514285Y-80561905D01*
X89828571Y-80561905D02*
X90285714Y-80561905D01*
X90057143Y-80561905D02*
X90057143Y-79761905D01*
X90133333Y-79876190D01*
X90209524Y-79952381D01*
X90285714Y-79990476D01*
X81590476Y-87061905D02*
X81590476Y-86261905D01*
X81285714Y-86261905D01*
X81209523Y-86300000D01*
X81171428Y-86338095D01*
X81133333Y-86414286D01*
X81133333Y-86528571D01*
X81171428Y-86604762D01*
X81209523Y-86642857D01*
X81285714Y-86680952D01*
X81590476Y-86680952D01*
X80523809Y-86642857D02*
X80409523Y-86680952D01*
X80371428Y-86719048D01*
X80333333Y-86795238D01*
X80333333Y-86909524D01*
X80371428Y-86985714D01*
X80409523Y-87023810D01*
X80485714Y-87061905D01*
X80790476Y-87061905D01*
X80790476Y-86261905D01*
X80523809Y-86261905D01*
X80447619Y-86300000D01*
X80409523Y-86338095D01*
X80371428Y-86414286D01*
X80371428Y-86490476D01*
X80409523Y-86566667D01*
X80447619Y-86604762D01*
X80523809Y-86642857D01*
X80790476Y-86642857D01*
X79647619Y-86528571D02*
X79647619Y-87061905D01*
X79838095Y-86223810D02*
X80028571Y-86795238D01*
X79533333Y-86795238D01*
X86890476Y-87061905D02*
X86890476Y-86261905D01*
X86585714Y-86261905D01*
X86509523Y-86300000D01*
X86471428Y-86338095D01*
X86433333Y-86414286D01*
X86433333Y-86528571D01*
X86471428Y-86604762D01*
X86509523Y-86642857D01*
X86585714Y-86680952D01*
X86890476Y-86680952D01*
X85823809Y-86642857D02*
X85709523Y-86680952D01*
X85671428Y-86719048D01*
X85633333Y-86795238D01*
X85633333Y-86909524D01*
X85671428Y-86985714D01*
X85709523Y-87023810D01*
X85785714Y-87061905D01*
X86090476Y-87061905D01*
X86090476Y-86261905D01*
X85823809Y-86261905D01*
X85747619Y-86300000D01*
X85709523Y-86338095D01*
X85671428Y-86414286D01*
X85671428Y-86490476D01*
X85709523Y-86566667D01*
X85747619Y-86604762D01*
X85823809Y-86642857D01*
X86090476Y-86642857D01*
X84909523Y-86261905D02*
X85290476Y-86261905D01*
X85328571Y-86642857D01*
X85290476Y-86604762D01*
X85214285Y-86566667D01*
X85023809Y-86566667D01*
X84947619Y-86604762D01*
X84909523Y-86642857D01*
X84871428Y-86719048D01*
X84871428Y-86909524D01*
X84909523Y-86985714D01*
X84947619Y-87023810D01*
X85023809Y-87061905D01*
X85214285Y-87061905D01*
X85290476Y-87023810D01*
X85328571Y-86985714D01*
X86890476Y-82461905D02*
X86890476Y-81661905D01*
X86585714Y-81661905D01*
X86509523Y-81700000D01*
X86471428Y-81738095D01*
X86433333Y-81814286D01*
X86433333Y-81928571D01*
X86471428Y-82004762D01*
X86509523Y-82042857D01*
X86585714Y-82080952D01*
X86890476Y-82080952D01*
X85633333Y-82385714D02*
X85671428Y-82423810D01*
X85785714Y-82461905D01*
X85861904Y-82461905D01*
X85976190Y-82423810D01*
X86052381Y-82347619D01*
X86090476Y-82271429D01*
X86128571Y-82119048D01*
X86128571Y-82004762D01*
X86090476Y-81852381D01*
X86052381Y-81776190D01*
X85976190Y-81700000D01*
X85861904Y-81661905D01*
X85785714Y-81661905D01*
X85671428Y-81700000D01*
X85633333Y-81738095D01*
X85138095Y-81661905D02*
X85061904Y-81661905D01*
X84985714Y-81700000D01*
X84947619Y-81738095D01*
X84909523Y-81814286D01*
X84871428Y-81966667D01*
X84871428Y-82157143D01*
X84909523Y-82309524D01*
X84947619Y-82385714D01*
X84985714Y-82423810D01*
X85061904Y-82461905D01*
X85138095Y-82461905D01*
X85214285Y-82423810D01*
X85252381Y-82385714D01*
X85290476Y-82309524D01*
X85328571Y-82157143D01*
X85328571Y-81966667D01*
X85290476Y-81814286D01*
X85252381Y-81738095D01*
X85214285Y-81700000D01*
X85138095Y-81661905D01*
%LPC*%
D15*
X97000000Y-87500000D02*
X100000000Y-87500000D01*
X97000000Y-91000000D02*
X100000000Y-91000000D01*
X96000000Y-93000000D02*
X100000000Y-93000000D01*
X93000000Y-96000000D02*
X93000000Y-100000000D01*
X67000000Y-96000000D02*
X67000000Y-100000000D01*
X61000000Y-96000000D02*
X61000000Y-100000000D01*
X67000000Y-50000000D02*
X67000000Y-54000000D01*
X61000000Y-54000000D02*
X61000000Y-50000000D01*
X99000000Y-52000000D02*
X99000000Y-51000000D01*
X93000000Y-54000000D02*
X93000000Y-50000000D01*
X100000000Y-57000000D02*
X96000000Y-57000000D01*
D16*
X99000000Y-99000000D02*
X99000000Y-98000000D01*
X50000000Y-50000000D02*
X50000000Y-100000000D01*
X100000000Y-50000000D02*
X50000000Y-50000000D01*
D17*
X100000000Y-100000000D02*
X100000000Y-50000000D01*
D16*
X59000000Y-100000000D02*
X100000000Y-100000000D01*
D18*
X81490000Y-65300000D03*
D19*
X84030000Y-65300000D03*
X86570000Y-65300000D03*
X89110000Y-65300000D03*
D20*
X96950000Y-89250000D03*
D21*
X60150000Y-79750000D03*
X60150000Y-77850000D03*
X62250000Y-78800000D03*
X60150000Y-89850000D03*
X60150000Y-87950000D03*
X62250000Y-88900000D03*
X60150000Y-74350000D03*
X60150000Y-72450000D03*
X62250000Y-73400000D03*
X60150000Y-84550000D03*
X60150000Y-82650000D03*
X62250000Y-83600000D03*
D22*
X58420000Y-92710000D03*
D23*
X58420000Y-90170000D03*
X58420000Y-87630000D03*
X58420000Y-85090000D03*
X55880000Y-92710000D03*
X55880000Y-90170000D03*
X55880000Y-87630000D03*
X55880000Y-85090000D03*
X53340000Y-92710000D03*
X53340000Y-90170000D03*
X53340000Y-87630000D03*
X53340000Y-85090000D03*
D22*
X58420000Y-80010000D03*
D23*
X58420000Y-77470000D03*
X58420000Y-74930000D03*
X58420000Y-72390000D03*
X55880000Y-80010000D03*
X55880000Y-77470000D03*
X55880000Y-74930000D03*
X55880000Y-72390000D03*
X53340000Y-80010000D03*
X53340000Y-77470000D03*
X53340000Y-74930000D03*
X53340000Y-72390000D03*
D18*
X57040000Y-95730000D03*
D19*
X57040000Y-98270000D03*
X54500000Y-95730000D03*
X54500000Y-98270000D03*
X51960000Y-95730000D03*
X51960000Y-98270000D03*
D22*
X61230000Y-67230000D03*
D23*
X63770000Y-67230000D03*
X61230000Y-69770000D03*
X63770000Y-69770000D03*
D22*
X94980000Y-59690000D03*
D23*
X97520000Y-59690000D03*
X94980000Y-62230000D03*
X97520000Y-62230000D03*
X94980000Y-64770000D03*
X97520000Y-64770000D03*
X94980000Y-67310000D03*
X97520000Y-67310000D03*
D22*
X63500000Y-74930000D03*
D23*
X66040000Y-74930000D03*
X63500000Y-77470000D03*
X66040000Y-77470000D03*
X63500000Y-80010000D03*
X66040000Y-80010000D03*
D22*
X63500000Y-85090000D03*
D23*
X66040000Y-85090000D03*
X63500000Y-87630000D03*
X66040000Y-87630000D03*
X63500000Y-90170000D03*
X66040000Y-90170000D03*
D22*
X55880000Y-63500000D03*
D23*
X53340000Y-63500000D03*
X55880000Y-60960000D03*
X53340000Y-60960000D03*
X55880000Y-58420000D03*
X53340000Y-58420000D03*
D21*
X56650000Y-65450000D03*
X56650000Y-67350000D03*
X54550000Y-66400000D03*
X59550000Y-58750000D03*
X59550000Y-60650000D03*
X57450000Y-59700000D03*
D24*
X68075000Y-80000000D03*
X69525000Y-80000000D03*
X68075000Y-77500000D03*
X69525000Y-77500000D03*
X68075000Y-75000000D03*
X69525000Y-75000000D03*
X68075000Y-90200000D03*
X69525000Y-90200000D03*
X68075000Y-87600000D03*
X69525000Y-87600000D03*
X68075000Y-85200000D03*
X69525000Y-85200000D03*
D18*
X78890000Y-59370000D03*
D19*
X78890000Y-56830000D03*
X81430000Y-59370000D03*
X81430000Y-56830000D03*
X83970000Y-59370000D03*
X83970000Y-56830000D03*
D25*
X86510000Y-59370000D03*
X86510000Y-56830000D03*
D26*
X64000000Y-54000000D03*
D27*
X66675000Y-54000000D03*
X65892000Y-52108000D03*
X64000000Y-51325000D03*
X62108000Y-52108000D03*
X61325000Y-54000000D03*
X62108000Y-55892000D03*
X64000000Y-56675000D03*
X65892000Y-55892000D03*
D26*
X64000000Y-96000000D03*
D27*
X66675000Y-96000000D03*
X65892000Y-94108000D03*
X64000000Y-93325000D03*
X62108000Y-94108000D03*
X61325000Y-96000000D03*
X62108000Y-97892000D03*
X64000000Y-98675000D03*
X65892000Y-97892000D03*
D26*
X96000000Y-96000000D03*
D27*
X98675000Y-96000000D03*
X97892000Y-94108000D03*
X96000000Y-93325000D03*
X94108000Y-94108000D03*
X93325000Y-96000000D03*
X94108000Y-97892000D03*
X96000000Y-98675000D03*
X97892000Y-97892000D03*
D26*
X96000000Y-54000000D03*
D27*
X98675000Y-54000000D03*
X97892000Y-52108000D03*
X96000000Y-51325000D03*
X94108000Y-52108000D03*
X93325000Y-54000000D03*
X94108000Y-55892000D03*
X96000000Y-56675000D03*
X97892000Y-55892000D03*
D28*
X88000000Y-79450000D03*
X90650000Y-78750000D03*
X82550000Y-86600000D03*
X83750000Y-86600000D03*
X88000000Y-82100000D03*
D29*
X56900000Y-53400000D03*
X80000000Y-98200000D03*
M02*
