G04 #@! TF.FileFunction,Legend,Top*
%FSLAX46Y46*%
G04 Gerber Fmt 4.6, Leading zero omitted, Abs format (unit mm)*
G04 Created by KiCad (PCBNEW 4.0.0-rc1-stable) date 2016-02-04 20:23:29*
%MOMM*%
G01*
G04 APERTURE LIST*
%ADD10C,0.100000*%
%ADD11C,0.152000*%
%ADD12C,0.200000*%
%ADD13C,0.150000*%
%ADD14C,1.700000*%
%ADD15C,2.000000*%
%ADD16C,1.800000*%
%ADD17R,1.600000X2.000000*%
%ADD18O,1.600000X2.000000*%
%ADD19O,5.200000X5.200000*%
%ADD20R,1.000000X1.000000*%
%ADD21R,1.000000X0.750000*%
%ADD22R,4.300000X0.900000*%
%ADD23R,4.300000X1.200000*%
%ADD24R,1.150000X1.200000*%
%ADD25R,1.200000X1.150000*%
%ADD26R,1.450000X1.700000*%
%ADD27R,1.400000X1.650000*%
%ADD28R,1.100000X1.000000*%
%ADD29R,3.900000X2.400000*%
%ADD30R,1.600000X2.400000*%
%ADD31R,2.000000X1.600000*%
%ADD32O,2.000000X1.600000*%
%ADD33R,1.700000X1.600000*%
%ADD34O,1.600000X1.800000*%
%ADD35R,1.700000X0.500000*%
%ADD36R,0.500000X1.700000*%
%ADD37C,7.700000*%
%ADD38C,0.850000*%
%ADD39C,1.200000*%
%ADD40R,1.500000X1.500000*%
G04 APERTURE END LIST*
D10*
D11*
X81100000Y-61900000D02*
X81500000Y-60700000D01*
X84000000Y-60700000D02*
X84400000Y-61900000D01*
X86500000Y-61200000D02*
X86500000Y-60900000D01*
X89100000Y-61200000D02*
X86500000Y-61200000D01*
X86500000Y-60700000D02*
X86500000Y-60900000D01*
X89757143Y-63009524D02*
X89757143Y-62400000D01*
X90061905Y-62704762D02*
X89452381Y-62704762D01*
X89261905Y-62095238D02*
X89261905Y-61600000D01*
X89566667Y-61866667D01*
X89566667Y-61752381D01*
X89604762Y-61676191D01*
X89642857Y-61638095D01*
X89719048Y-61600000D01*
X89909524Y-61600000D01*
X89985714Y-61638095D01*
X90023810Y-61676191D01*
X90061905Y-61752381D01*
X90061905Y-61980953D01*
X90023810Y-62057143D01*
X89985714Y-62095238D01*
X89261905Y-61371429D02*
X90061905Y-61104762D01*
X89261905Y-60838095D01*
X89261905Y-60647619D02*
X89261905Y-60152381D01*
X89566667Y-60419048D01*
X89566667Y-60304762D01*
X89604762Y-60228572D01*
X89642857Y-60190476D01*
X89719048Y-60152381D01*
X89909524Y-60152381D01*
X89985714Y-60190476D01*
X90023810Y-60228572D01*
X90061905Y-60304762D01*
X90061905Y-60533334D01*
X90023810Y-60609524D01*
X89985714Y-60647619D01*
X84661905Y-62880953D02*
X84661905Y-62423810D01*
X85461905Y-62652381D02*
X84661905Y-62652381D01*
X85461905Y-62233333D02*
X84928571Y-61814286D01*
X84928571Y-62233333D02*
X85461905Y-61814286D01*
X85461905Y-61509524D02*
X84661905Y-61509524D01*
X84661905Y-61319048D01*
X84700000Y-61204762D01*
X84776190Y-61128571D01*
X84852381Y-61090476D01*
X85004762Y-61052381D01*
X85119048Y-61052381D01*
X85271429Y-61090476D01*
X85347619Y-61128571D01*
X85423810Y-61204762D01*
X85461905Y-61319048D01*
X85461905Y-61509524D01*
X80861905Y-62500000D02*
X80480952Y-62766667D01*
X80861905Y-62957143D02*
X80061905Y-62957143D01*
X80061905Y-62652381D01*
X80100000Y-62576190D01*
X80138095Y-62538095D01*
X80214286Y-62500000D01*
X80328571Y-62500000D01*
X80404762Y-62538095D01*
X80442857Y-62576190D01*
X80480952Y-62652381D01*
X80480952Y-62957143D01*
X80861905Y-62233333D02*
X80328571Y-61814286D01*
X80328571Y-62233333D02*
X80861905Y-61814286D01*
X80861905Y-61509524D02*
X80061905Y-61509524D01*
X80061905Y-61319048D01*
X80100000Y-61204762D01*
X80176190Y-61128571D01*
X80252381Y-61090476D01*
X80404762Y-61052381D01*
X80519048Y-61052381D01*
X80671429Y-61090476D01*
X80747619Y-61128571D01*
X80823810Y-61204762D01*
X80861905Y-61319048D01*
X80861905Y-61509524D01*
X78500000Y-62628571D02*
X78461905Y-62704762D01*
X78461905Y-62819047D01*
X78500000Y-62933333D01*
X78576190Y-63009524D01*
X78652381Y-63047619D01*
X78804762Y-63085714D01*
X78919048Y-63085714D01*
X79071429Y-63047619D01*
X79147619Y-63009524D01*
X79223810Y-62933333D01*
X79261905Y-62819047D01*
X79261905Y-62742857D01*
X79223810Y-62628571D01*
X79185714Y-62590476D01*
X78919048Y-62590476D01*
X78919048Y-62742857D01*
X79261905Y-62247619D02*
X78461905Y-62247619D01*
X79261905Y-61790476D01*
X78461905Y-61790476D01*
X79261905Y-61409524D02*
X78461905Y-61409524D01*
X78461905Y-61219048D01*
X78500000Y-61104762D01*
X78576190Y-61028571D01*
X78652381Y-60990476D01*
X78804762Y-60952381D01*
X78919048Y-60952381D01*
X79071429Y-60990476D01*
X79147619Y-61028571D01*
X79223810Y-61104762D01*
X79261905Y-61219048D01*
X79261905Y-61409524D01*
X86223810Y-55092619D02*
X86261905Y-54978333D01*
X86261905Y-54787857D01*
X86223810Y-54711667D01*
X86185714Y-54673571D01*
X86109524Y-54635476D01*
X86033333Y-54635476D01*
X85957143Y-54673571D01*
X85919048Y-54711667D01*
X85880952Y-54787857D01*
X85842857Y-54940238D01*
X85804762Y-55016429D01*
X85766667Y-55054524D01*
X85690476Y-55092619D01*
X85614286Y-55092619D01*
X85538095Y-55054524D01*
X85500000Y-55016429D01*
X85461905Y-54940238D01*
X85461905Y-54749762D01*
X85500000Y-54635476D01*
X85461905Y-54368809D02*
X86261905Y-54178333D01*
X85690476Y-54025952D01*
X86261905Y-53873571D01*
X85461905Y-53683095D01*
X86261905Y-53378333D02*
X85461905Y-53378333D01*
X85461905Y-53187857D01*
X85500000Y-53073571D01*
X85576190Y-52997380D01*
X85652381Y-52959285D01*
X85804762Y-52921190D01*
X85919048Y-52921190D01*
X86071429Y-52959285D01*
X86147619Y-52997380D01*
X86223810Y-53073571D01*
X86261905Y-53187857D01*
X86261905Y-53378333D01*
X86261905Y-52578333D02*
X85461905Y-52578333D01*
X85461905Y-52045000D02*
X85461905Y-51892619D01*
X85500000Y-51816428D01*
X85576190Y-51740238D01*
X85728571Y-51702143D01*
X85995238Y-51702143D01*
X86147619Y-51740238D01*
X86223810Y-51816428D01*
X86261905Y-51892619D01*
X86261905Y-52045000D01*
X86223810Y-52121190D01*
X86147619Y-52197381D01*
X85995238Y-52235476D01*
X85728571Y-52235476D01*
X85576190Y-52197381D01*
X85500000Y-52121190D01*
X85461905Y-52045000D01*
X84323810Y-55092619D02*
X84361905Y-54978333D01*
X84361905Y-54787857D01*
X84323810Y-54711667D01*
X84285714Y-54673571D01*
X84209524Y-54635476D01*
X84133333Y-54635476D01*
X84057143Y-54673571D01*
X84019048Y-54711667D01*
X83980952Y-54787857D01*
X83942857Y-54940238D01*
X83904762Y-55016429D01*
X83866667Y-55054524D01*
X83790476Y-55092619D01*
X83714286Y-55092619D01*
X83638095Y-55054524D01*
X83600000Y-55016429D01*
X83561905Y-54940238D01*
X83561905Y-54749762D01*
X83600000Y-54635476D01*
X83561905Y-54368809D02*
X84361905Y-54178333D01*
X83790476Y-54025952D01*
X84361905Y-53873571D01*
X83561905Y-53683095D01*
X84285714Y-52921190D02*
X84323810Y-52959285D01*
X84361905Y-53073571D01*
X84361905Y-53149761D01*
X84323810Y-53264047D01*
X84247619Y-53340238D01*
X84171429Y-53378333D01*
X84019048Y-53416428D01*
X83904762Y-53416428D01*
X83752381Y-53378333D01*
X83676190Y-53340238D01*
X83600000Y-53264047D01*
X83561905Y-53149761D01*
X83561905Y-53073571D01*
X83600000Y-52959285D01*
X83638095Y-52921190D01*
X84361905Y-52197380D02*
X84361905Y-52578333D01*
X83561905Y-52578333D01*
X84361905Y-51930714D02*
X83561905Y-51930714D01*
X84361905Y-51473571D02*
X83904762Y-51816428D01*
X83561905Y-51473571D02*
X84019048Y-51930714D01*
X81823810Y-55092619D02*
X81861905Y-54978333D01*
X81861905Y-54787857D01*
X81823810Y-54711667D01*
X81785714Y-54673571D01*
X81709524Y-54635476D01*
X81633333Y-54635476D01*
X81557143Y-54673571D01*
X81519048Y-54711667D01*
X81480952Y-54787857D01*
X81442857Y-54940238D01*
X81404762Y-55016429D01*
X81366667Y-55054524D01*
X81290476Y-55092619D01*
X81214286Y-55092619D01*
X81138095Y-55054524D01*
X81100000Y-55016429D01*
X81061905Y-54940238D01*
X81061905Y-54749762D01*
X81100000Y-54635476D01*
X81061905Y-54368809D02*
X81861905Y-54178333D01*
X81290476Y-54025952D01*
X81861905Y-53873571D01*
X81061905Y-53683095D01*
X81061905Y-53225952D02*
X81061905Y-53073571D01*
X81100000Y-52997380D01*
X81176190Y-52921190D01*
X81328571Y-52883095D01*
X81595238Y-52883095D01*
X81747619Y-52921190D01*
X81823810Y-52997380D01*
X81861905Y-53073571D01*
X81861905Y-53225952D01*
X81823810Y-53302142D01*
X81747619Y-53378333D01*
X81595238Y-53416428D01*
X81328571Y-53416428D01*
X81176190Y-53378333D01*
X81100000Y-53302142D01*
X81061905Y-53225952D01*
X79261905Y-54597381D02*
X78880952Y-54864048D01*
X79261905Y-55054524D02*
X78461905Y-55054524D01*
X78461905Y-54749762D01*
X78500000Y-54673571D01*
X78538095Y-54635476D01*
X78614286Y-54597381D01*
X78728571Y-54597381D01*
X78804762Y-54635476D01*
X78842857Y-54673571D01*
X78880952Y-54749762D01*
X78880952Y-55054524D01*
X79223810Y-54292619D02*
X79261905Y-54178333D01*
X79261905Y-53987857D01*
X79223810Y-53911667D01*
X79185714Y-53873571D01*
X79109524Y-53835476D01*
X79033333Y-53835476D01*
X78957143Y-53873571D01*
X78919048Y-53911667D01*
X78880952Y-53987857D01*
X78842857Y-54140238D01*
X78804762Y-54216429D01*
X78766667Y-54254524D01*
X78690476Y-54292619D01*
X78614286Y-54292619D01*
X78538095Y-54254524D01*
X78500000Y-54216429D01*
X78461905Y-54140238D01*
X78461905Y-53949762D01*
X78500000Y-53835476D01*
X78461905Y-53606905D02*
X78461905Y-53149762D01*
X79261905Y-53378333D02*
X78461905Y-53378333D01*
D12*
X51609572Y-61678571D02*
X50752429Y-61678571D01*
X51181001Y-61678571D02*
X51181001Y-60178571D01*
X51038144Y-60392857D01*
X50895286Y-60535714D01*
X50752429Y-60607143D01*
X51109572Y-57628571D02*
X51252429Y-57628571D01*
X51395286Y-57700000D01*
X51466715Y-57771429D01*
X51538144Y-57914286D01*
X51609572Y-58200000D01*
X51609572Y-58557143D01*
X51538144Y-58842857D01*
X51466715Y-58985714D01*
X51395286Y-59057143D01*
X51252429Y-59128571D01*
X51109572Y-59128571D01*
X50966715Y-59057143D01*
X50895286Y-58985714D01*
X50823858Y-58842857D01*
X50752429Y-58557143D01*
X50752429Y-58200000D01*
X50823858Y-57914286D01*
X50895286Y-57771429D01*
X50966715Y-57700000D01*
X51109572Y-57628571D01*
X51235715Y-55992857D02*
X50735715Y-55992857D01*
X50735715Y-56778571D02*
X50735715Y-55278571D01*
X51450001Y-55278571D01*
X51950000Y-56350000D02*
X52664286Y-56350000D01*
X51807143Y-56778571D02*
X52307143Y-55278571D01*
X52807143Y-56778571D01*
X53307143Y-56778571D02*
X53307143Y-55278571D01*
X54164286Y-56778571D01*
X54164286Y-55278571D01*
X50692857Y-66728571D02*
X50692857Y-65228571D01*
X51192857Y-66300000D01*
X51692857Y-65228571D01*
X51692857Y-66728571D01*
X52692857Y-65228571D02*
X52978571Y-65228571D01*
X53121429Y-65300000D01*
X53264286Y-65442857D01*
X53335714Y-65728571D01*
X53335714Y-66228571D01*
X53264286Y-66514286D01*
X53121429Y-66657143D01*
X52978571Y-66728571D01*
X52692857Y-66728571D01*
X52550000Y-66657143D01*
X52407143Y-66514286D01*
X52335714Y-66228571D01*
X52335714Y-65728571D01*
X52407143Y-65442857D01*
X52550000Y-65300000D01*
X52692857Y-65228571D01*
X53764286Y-65228571D02*
X54621429Y-65228571D01*
X54192858Y-66728571D02*
X54192858Y-65228571D01*
X60888572Y-74108571D02*
X61031429Y-74108571D01*
X61174286Y-74180000D01*
X61245715Y-74251429D01*
X61317144Y-74394286D01*
X61388572Y-74680000D01*
X61388572Y-75037143D01*
X61317144Y-75322857D01*
X61245715Y-75465714D01*
X61174286Y-75537143D01*
X61031429Y-75608571D01*
X60888572Y-75608571D01*
X60745715Y-75537143D01*
X60674286Y-75465714D01*
X60602858Y-75322857D01*
X60531429Y-75037143D01*
X60531429Y-74680000D01*
X60602858Y-74394286D01*
X60674286Y-74251429D01*
X60745715Y-74180000D01*
X60888572Y-74108571D01*
X61388572Y-78148571D02*
X60531429Y-78148571D01*
X60960001Y-78148571D02*
X60960001Y-76648571D01*
X60817144Y-76862857D01*
X60674286Y-77005714D01*
X60531429Y-77077143D01*
X60460001Y-84268571D02*
X61388572Y-84268571D01*
X60888572Y-84840000D01*
X61102858Y-84840000D01*
X61245715Y-84911429D01*
X61317144Y-84982857D01*
X61388572Y-85125714D01*
X61388572Y-85482857D01*
X61317144Y-85625714D01*
X61245715Y-85697143D01*
X61102858Y-85768571D01*
X60674286Y-85768571D01*
X60531429Y-85697143D01*
X60460001Y-85625714D01*
X61245715Y-87308571D02*
X61245715Y-88308571D01*
X60888572Y-86737143D02*
X60531429Y-87808571D01*
X61460001Y-87808571D01*
X60531429Y-79331429D02*
X60602858Y-79260000D01*
X60745715Y-79188571D01*
X61102858Y-79188571D01*
X61245715Y-79260000D01*
X61317144Y-79331429D01*
X61388572Y-79474286D01*
X61388572Y-79617143D01*
X61317144Y-79831429D01*
X60460001Y-80688571D01*
X61388572Y-80688571D01*
X61317144Y-89348571D02*
X60602858Y-89348571D01*
X60531429Y-90062857D01*
X60602858Y-89991429D01*
X60745715Y-89920000D01*
X61102858Y-89920000D01*
X61245715Y-89991429D01*
X61317144Y-90062857D01*
X61388572Y-90205714D01*
X61388572Y-90562857D01*
X61317144Y-90705714D01*
X61245715Y-90777143D01*
X61102858Y-90848571D01*
X60745715Y-90848571D01*
X60602858Y-90777143D01*
X60531429Y-90705714D01*
X51109572Y-71568571D02*
X51252429Y-71568571D01*
X51395286Y-71640000D01*
X51466715Y-71711429D01*
X51538144Y-71854286D01*
X51609572Y-72140000D01*
X51609572Y-72497143D01*
X51538144Y-72782857D01*
X51466715Y-72925714D01*
X51395286Y-72997143D01*
X51252429Y-73068571D01*
X51109572Y-73068571D01*
X50966715Y-72997143D01*
X50895286Y-72925714D01*
X50823858Y-72782857D01*
X50752429Y-72497143D01*
X50752429Y-72140000D01*
X50823858Y-71854286D01*
X50895286Y-71711429D01*
X50966715Y-71640000D01*
X51109572Y-71568571D01*
X51466715Y-89348571D02*
X51181001Y-89348571D01*
X51038144Y-89420000D01*
X50966715Y-89491429D01*
X50823858Y-89705714D01*
X50752429Y-89991429D01*
X50752429Y-90562857D01*
X50823858Y-90705714D01*
X50895286Y-90777143D01*
X51038144Y-90848571D01*
X51323858Y-90848571D01*
X51466715Y-90777143D01*
X51538144Y-90705714D01*
X51609572Y-90562857D01*
X51609572Y-90205714D01*
X51538144Y-90062857D01*
X51466715Y-89991429D01*
X51323858Y-89920000D01*
X51038144Y-89920000D01*
X50895286Y-89991429D01*
X50823858Y-90062857D01*
X50752429Y-90205714D01*
X50681001Y-91888571D02*
X51681001Y-91888571D01*
X51038144Y-93388571D01*
X51538144Y-86808571D02*
X50823858Y-86808571D01*
X50752429Y-87522857D01*
X50823858Y-87451429D01*
X50966715Y-87380000D01*
X51323858Y-87380000D01*
X51466715Y-87451429D01*
X51538144Y-87522857D01*
X51609572Y-87665714D01*
X51609572Y-88022857D01*
X51538144Y-88165714D01*
X51466715Y-88237143D01*
X51323858Y-88308571D01*
X50966715Y-88308571D01*
X50823858Y-88237143D01*
X50752429Y-88165714D01*
X51466715Y-84768571D02*
X51466715Y-85768571D01*
X51109572Y-84197143D02*
X50752429Y-85268571D01*
X51681001Y-85268571D01*
X50681001Y-79188571D02*
X51609572Y-79188571D01*
X51109572Y-79760000D01*
X51323858Y-79760000D01*
X51466715Y-79831429D01*
X51538144Y-79902857D01*
X51609572Y-80045714D01*
X51609572Y-80402857D01*
X51538144Y-80545714D01*
X51466715Y-80617143D01*
X51323858Y-80688571D01*
X50895286Y-80688571D01*
X50752429Y-80617143D01*
X50681001Y-80545714D01*
X50752429Y-76791429D02*
X50823858Y-76720000D01*
X50966715Y-76648571D01*
X51323858Y-76648571D01*
X51466715Y-76720000D01*
X51538144Y-76791429D01*
X51609572Y-76934286D01*
X51609572Y-77077143D01*
X51538144Y-77291429D01*
X50681001Y-78148571D01*
X51609572Y-78148571D01*
X51609572Y-75608571D02*
X50752429Y-75608571D01*
X51181001Y-75608571D02*
X51181001Y-74108571D01*
X51038144Y-74322857D01*
X50895286Y-74465714D01*
X50752429Y-74537143D01*
D11*
X80220000Y-66570000D02*
X80220000Y-64030000D01*
X80220000Y-64030000D02*
X90380000Y-64030000D01*
X90380000Y-64030000D02*
X90380000Y-66570000D01*
X90380000Y-66570000D02*
X80220000Y-66570000D01*
X80220000Y-66799000D02*
X80220000Y-66646000D01*
X80220000Y-66646000D02*
X82760000Y-66646000D01*
X82760000Y-66646000D02*
X82760000Y-66799000D01*
X82760000Y-66799000D02*
X80220000Y-66799000D01*
X70600000Y-73700000D02*
X73400000Y-73700000D01*
X73400000Y-73700000D02*
X73400000Y-77700000D01*
X73400000Y-77700000D02*
X70600000Y-77700000D01*
X70600000Y-77700000D02*
X70600000Y-73700000D01*
X90900000Y-82100000D02*
X95700000Y-82100000D01*
X95700000Y-82100000D02*
X95700000Y-86700000D01*
X95700000Y-86700000D02*
X90900000Y-86700000D01*
X90900000Y-86700000D02*
X90900000Y-82100000D01*
X68200000Y-73500000D02*
X65400000Y-73500000D01*
X65400000Y-73500000D02*
X65400000Y-69500000D01*
X65400000Y-69500000D02*
X68200000Y-69500000D01*
X68200000Y-69500000D02*
X68200000Y-73500000D01*
X76800000Y-88000000D02*
X75200000Y-88000000D01*
X75200000Y-88000000D02*
X75200000Y-85000000D01*
X75200000Y-85000000D02*
X76800000Y-85000000D01*
X76800000Y-85000000D02*
X76800000Y-88000000D01*
X85450000Y-75400000D02*
X85450000Y-73800000D01*
X85450000Y-73800000D02*
X88450000Y-73800000D01*
X88450000Y-73800000D02*
X88450000Y-75400000D01*
X88450000Y-75400000D02*
X85450000Y-75400000D01*
X78150000Y-75400000D02*
X78150000Y-73800000D01*
X78150000Y-73800000D02*
X81150000Y-73800000D01*
X81150000Y-73800000D02*
X81150000Y-75400000D01*
X81150000Y-75400000D02*
X78150000Y-75400000D01*
X98000000Y-77500000D02*
X98000000Y-79100000D01*
X98000000Y-79100000D02*
X95000000Y-79100000D01*
X95000000Y-79100000D02*
X95000000Y-77500000D01*
X95000000Y-77500000D02*
X98000000Y-77500000D01*
X90626000Y-74250000D02*
X90626000Y-75826000D01*
X90626000Y-75826000D02*
X90531000Y-75826000D01*
X88674000Y-74250000D02*
X88674000Y-75826000D01*
X88674000Y-75826000D02*
X88769000Y-75826000D01*
X55050000Y-81550000D02*
X55050000Y-83550000D01*
X55050000Y-83550000D02*
X51450000Y-83550000D01*
X51450000Y-83550000D02*
X51450000Y-81550000D01*
X51450000Y-81550000D02*
X55050000Y-81550000D01*
X56300000Y-68800000D02*
X56300000Y-70800000D01*
X56300000Y-70800000D02*
X52700000Y-70800000D01*
X52700000Y-70800000D02*
X52700000Y-68800000D01*
X52700000Y-68800000D02*
X56300000Y-68800000D01*
X90300000Y-51900000D02*
X90300000Y-53900000D01*
X90300000Y-53900000D02*
X86700000Y-53900000D01*
X86700000Y-53900000D02*
X86700000Y-51900000D01*
X86700000Y-51900000D02*
X90300000Y-51900000D01*
X70000000Y-53900000D02*
X70000000Y-51900000D01*
X70000000Y-51900000D02*
X73600000Y-51900000D01*
X73600000Y-51900000D02*
X73600000Y-53900000D01*
X73600000Y-53900000D02*
X70000000Y-53900000D01*
X70300000Y-83700000D02*
X67500000Y-83700000D01*
X67500000Y-83700000D02*
X67500000Y-79700000D01*
X67500000Y-79700000D02*
X70300000Y-79700000D01*
X70300000Y-79700000D02*
X70300000Y-83700000D01*
X61300000Y-65400000D02*
X57700000Y-65400000D01*
X57700000Y-65400000D02*
X57700000Y-61800000D01*
X57700000Y-61800000D02*
X61300000Y-61800000D01*
X61300000Y-61800000D02*
X61300000Y-65400000D01*
X64900000Y-61800000D02*
X61300000Y-61800000D01*
X61300000Y-61800000D02*
X61300000Y-58200000D01*
X61300000Y-58200000D02*
X64900000Y-58200000D01*
X64900000Y-58200000D02*
X64900000Y-61800000D01*
X61300000Y-61800000D02*
X57700000Y-61800000D01*
X57700000Y-61800000D02*
X57700000Y-58200000D01*
X57700000Y-58200000D02*
X61300000Y-58200000D01*
X61300000Y-58200000D02*
X61300000Y-61800000D01*
X91100000Y-77500000D02*
X91100000Y-68500000D01*
X91100000Y-68500000D02*
X98500000Y-68500000D01*
X98500000Y-68500000D02*
X98500000Y-77500000D01*
X98500000Y-77500000D02*
X91100000Y-77500000D01*
X59690000Y-83820000D02*
X59690000Y-93980000D01*
X59690000Y-93980000D02*
X52070000Y-93980000D01*
X52070000Y-93980000D02*
X52070000Y-83820000D01*
X52070000Y-83820000D02*
X59690000Y-83820000D01*
X59919000Y-91440000D02*
X59919000Y-93980000D01*
X59919000Y-93980000D02*
X59766000Y-93980000D01*
X59766000Y-93980000D02*
X59766000Y-91440000D01*
X59766000Y-91440000D02*
X59919000Y-91440000D01*
X59690000Y-71120000D02*
X59690000Y-81280000D01*
X59690000Y-81280000D02*
X52070000Y-81280000D01*
X52070000Y-81280000D02*
X52070000Y-71120000D01*
X52070000Y-71120000D02*
X59690000Y-71120000D01*
X59919000Y-78740000D02*
X59919000Y-81280000D01*
X59919000Y-81280000D02*
X59766000Y-81280000D01*
X59766000Y-81280000D02*
X59766000Y-78740000D01*
X59766000Y-78740000D02*
X59919000Y-78740000D01*
X62230000Y-81280000D02*
X62230000Y-73660000D01*
X62230000Y-73660000D02*
X67310000Y-73660000D01*
X67310000Y-73660000D02*
X67310000Y-81280000D01*
X67310000Y-81280000D02*
X62230000Y-81280000D01*
X62001000Y-76200000D02*
X62001000Y-73660000D01*
X62001000Y-73660000D02*
X62154000Y-73660000D01*
X62154000Y-73660000D02*
X62154000Y-76200000D01*
X62154000Y-76200000D02*
X62001000Y-76200000D01*
X62230000Y-91440000D02*
X62230000Y-83820000D01*
X62230000Y-83820000D02*
X67310000Y-83820000D01*
X67310000Y-83820000D02*
X67310000Y-91440000D01*
X67310000Y-91440000D02*
X62230000Y-91440000D01*
X62001000Y-86360000D02*
X62001000Y-83820000D01*
X62001000Y-83820000D02*
X62154000Y-83820000D01*
X62154000Y-83820000D02*
X62154000Y-86360000D01*
X62154000Y-86360000D02*
X62001000Y-86360000D01*
X57150000Y-57150000D02*
X57150000Y-64770000D01*
X57150000Y-64770000D02*
X52070000Y-64770000D01*
X52070000Y-64770000D02*
X52070000Y-57150000D01*
X52070000Y-57150000D02*
X57150000Y-57150000D01*
X57379000Y-62230000D02*
X57379000Y-64770000D01*
X57379000Y-64770000D02*
X57226000Y-64770000D01*
X57226000Y-64770000D02*
X57226000Y-62230000D01*
X57226000Y-62230000D02*
X57379000Y-62230000D01*
X64925000Y-65800000D02*
X62125000Y-65800000D01*
X62125000Y-65800000D02*
X62125000Y-61800000D01*
X62125000Y-61800000D02*
X64925000Y-61800000D01*
X64925000Y-61800000D02*
X64925000Y-65800000D01*
X91000000Y-78445800D02*
X92600000Y-78445800D01*
X92600000Y-78445800D02*
X92600000Y-81445800D01*
X92600000Y-81445800D02*
X91000000Y-81445800D01*
X91000000Y-81445800D02*
X91000000Y-78445800D01*
X73300000Y-56800000D02*
X73300000Y-55200000D01*
X73300000Y-55200000D02*
X76300000Y-55200000D01*
X76300000Y-55200000D02*
X76300000Y-56800000D01*
X76300000Y-56800000D02*
X73300000Y-56800000D01*
X89400000Y-88850000D02*
X89400000Y-90450000D01*
X89400000Y-90450000D02*
X86400000Y-90450000D01*
X86400000Y-90450000D02*
X86400000Y-88850000D01*
X86400000Y-88850000D02*
X89400000Y-88850000D01*
X67500000Y-73700000D02*
X70300000Y-73700000D01*
X70300000Y-73700000D02*
X70300000Y-77700000D01*
X70300000Y-77700000D02*
X67500000Y-77700000D01*
X67500000Y-77700000D02*
X67500000Y-73700000D01*
X67500000Y-84200000D02*
X70300000Y-84200000D01*
X70300000Y-84200000D02*
X70300000Y-88200000D01*
X70300000Y-88200000D02*
X67500000Y-88200000D01*
X67500000Y-88200000D02*
X67500000Y-84200000D01*
X90800000Y-98900000D02*
X80800000Y-98900000D01*
X80800000Y-98900000D02*
X80800000Y-94300000D01*
X80800000Y-94300000D02*
X90800000Y-94300000D01*
X90800000Y-94300000D02*
X90800000Y-98900000D01*
X76300000Y-61400000D02*
X66300000Y-61400000D01*
X66300000Y-61400000D02*
X66300000Y-56800000D01*
X66300000Y-56800000D02*
X76300000Y-56800000D01*
X76300000Y-56800000D02*
X76300000Y-61400000D01*
X84200000Y-62000000D02*
X84200000Y-63600000D01*
X84200000Y-63600000D02*
X81200000Y-63600000D01*
X81200000Y-63600000D02*
X81200000Y-62000000D01*
X81200000Y-62000000D02*
X84200000Y-62000000D01*
X69700000Y-88600000D02*
X72500000Y-88600000D01*
X72500000Y-88600000D02*
X72500000Y-92600000D01*
X72500000Y-92600000D02*
X69700000Y-92600000D01*
X69700000Y-92600000D02*
X69700000Y-88600000D01*
X87780000Y-60640000D02*
X77620000Y-60640000D01*
X77620000Y-60640000D02*
X77620000Y-55560000D01*
X77620000Y-55560000D02*
X87780000Y-55560000D01*
X87780000Y-55560000D02*
X87780000Y-60640000D01*
X80160000Y-60869000D02*
X77620000Y-60869000D01*
X77620000Y-60869000D02*
X77620000Y-60716000D01*
X77620000Y-60716000D02*
X80160000Y-60716000D01*
X80160000Y-60716000D02*
X80160000Y-60869000D01*
X57700000Y-67000000D02*
X59300000Y-67000000D01*
X59300000Y-67000000D02*
X59300000Y-70000000D01*
X59300000Y-70000000D02*
X57700000Y-70000000D01*
X57700000Y-70000000D02*
X57700000Y-67000000D01*
X90050000Y-87900000D02*
G75*
G03X90050000Y-87900000I-750000J0D01*
G01*
X68200000Y-65800000D02*
X65400000Y-65800000D01*
X65400000Y-65800000D02*
X65400000Y-61800000D01*
X65400000Y-61800000D02*
X68200000Y-61800000D01*
X68200000Y-61800000D02*
X68200000Y-65800000D01*
X94700000Y-81445800D02*
X93100000Y-81445800D01*
X93100000Y-81445800D02*
X93100000Y-78445800D01*
X93100000Y-78445800D02*
X94700000Y-78445800D01*
X94700000Y-78445800D02*
X94700000Y-81445800D01*
X85250000Y-89200000D02*
X85250000Y-90800000D01*
X85250000Y-90800000D02*
X82250000Y-90800000D01*
X82250000Y-90800000D02*
X82250000Y-89200000D01*
X82250000Y-89200000D02*
X85250000Y-89200000D01*
X93800000Y-66700000D02*
X93800000Y-68300000D01*
X93800000Y-68300000D02*
X90800000Y-68300000D01*
X90800000Y-68300000D02*
X90800000Y-66700000D01*
X90800000Y-66700000D02*
X93800000Y-66700000D01*
X90800000Y-66700000D02*
X90800000Y-65100000D01*
X90800000Y-65100000D02*
X93800000Y-65100000D01*
X93800000Y-65100000D02*
X93800000Y-66700000D01*
X93800000Y-66700000D02*
X90800000Y-66700000D01*
X93800000Y-61900000D02*
X93800000Y-63500000D01*
X93800000Y-63500000D02*
X90800000Y-63500000D01*
X90800000Y-63500000D02*
X90800000Y-61900000D01*
X90800000Y-61900000D02*
X93800000Y-61900000D01*
X93800000Y-63500000D02*
X93800000Y-65100000D01*
X93800000Y-65100000D02*
X90800000Y-65100000D01*
X90800000Y-65100000D02*
X90800000Y-63500000D01*
X90800000Y-63500000D02*
X93800000Y-63500000D01*
X85900000Y-63600000D02*
X85900000Y-62000000D01*
X85900000Y-62000000D02*
X88900000Y-62000000D01*
X88900000Y-62000000D02*
X88900000Y-63600000D01*
X88900000Y-63600000D02*
X85900000Y-63600000D01*
X78700000Y-66900000D02*
X77100000Y-66900000D01*
X77100000Y-66900000D02*
X77100000Y-63900000D01*
X77100000Y-63900000D02*
X78700000Y-63900000D01*
X78700000Y-63900000D02*
X78700000Y-66900000D01*
X77100000Y-66900000D02*
X75500000Y-66900000D01*
X75500000Y-66900000D02*
X75500000Y-63900000D01*
X75500000Y-63900000D02*
X77100000Y-63900000D01*
X77100000Y-63900000D02*
X77100000Y-66900000D01*
X55630000Y-52130000D02*
X58170000Y-52130000D01*
X58170000Y-52130000D02*
X58170000Y-54670000D01*
X58170000Y-54670000D02*
X55630000Y-54670000D01*
X55630000Y-54670000D02*
X55630000Y-52130000D01*
X55630000Y-51901000D02*
X58170000Y-51901000D01*
X58170000Y-51901000D02*
X58170000Y-52054000D01*
X58170000Y-52054000D02*
X55630000Y-52054000D01*
X55630000Y-52054000D02*
X55630000Y-51901000D01*
X78730000Y-96930000D02*
X81270000Y-96930000D01*
X81270000Y-96930000D02*
X81270000Y-99470000D01*
X81270000Y-99470000D02*
X78730000Y-99470000D01*
X78730000Y-99470000D02*
X78730000Y-96930000D01*
X78730000Y-96701000D02*
X81270000Y-96701000D01*
X81270000Y-96701000D02*
X81270000Y-96854000D01*
X81270000Y-96854000D02*
X78730000Y-96854000D01*
X78730000Y-96854000D02*
X78730000Y-96701000D01*
X69200000Y-94300000D02*
X79200000Y-94300000D01*
X79200000Y-94300000D02*
X79200000Y-98900000D01*
X79200000Y-98900000D02*
X69200000Y-98900000D01*
X69200000Y-98900000D02*
X69200000Y-94300000D01*
X55492857Y-82954762D02*
X55635714Y-83002381D01*
X55873810Y-83002381D01*
X55969048Y-82954762D01*
X56016667Y-82907143D01*
X56064286Y-82811905D01*
X56064286Y-82716667D01*
X56016667Y-82621429D01*
X55969048Y-82573810D01*
X55873810Y-82526190D01*
X55683333Y-82478571D01*
X55588095Y-82430952D01*
X55540476Y-82383333D01*
X55492857Y-82288095D01*
X55492857Y-82192857D01*
X55540476Y-82097619D01*
X55588095Y-82050000D01*
X55683333Y-82002381D01*
X55921429Y-82002381D01*
X56064286Y-82050000D01*
X56873810Y-82954762D02*
X56778572Y-83002381D01*
X56588095Y-83002381D01*
X56492857Y-82954762D01*
X56445238Y-82859524D01*
X56445238Y-82478571D01*
X56492857Y-82383333D01*
X56588095Y-82335714D01*
X56778572Y-82335714D01*
X56873810Y-82383333D01*
X56921429Y-82478571D01*
X56921429Y-82573810D01*
X56445238Y-82669048D01*
X57350000Y-83002381D02*
X57350000Y-82335714D01*
X57350000Y-82526190D02*
X57397619Y-82430952D01*
X57445238Y-82383333D01*
X57540476Y-82335714D01*
X57635715Y-82335714D01*
X57873810Y-82335714D02*
X58111905Y-83002381D01*
X58350001Y-82335714D01*
X58873810Y-83002381D02*
X58778572Y-82954762D01*
X58730953Y-82907143D01*
X58683334Y-82811905D01*
X58683334Y-82526190D01*
X58730953Y-82430952D01*
X58778572Y-82383333D01*
X58873810Y-82335714D01*
X59016668Y-82335714D01*
X59111906Y-82383333D01*
X59159525Y-82430952D01*
X59207144Y-82526190D01*
X59207144Y-82811905D01*
X59159525Y-82907143D01*
X59111906Y-82954762D01*
X59016668Y-83002381D01*
X58873810Y-83002381D01*
X62607143Y-81952381D02*
X63178572Y-81952381D01*
X62892857Y-82952381D02*
X62892857Y-81952381D01*
X63511905Y-82952381D02*
X63511905Y-81952381D01*
X63940477Y-82952381D02*
X63940477Y-82428571D01*
X63892858Y-82333333D01*
X63797620Y-82285714D01*
X63654762Y-82285714D01*
X63559524Y-82333333D01*
X63511905Y-82380952D01*
X64797620Y-82904762D02*
X64702382Y-82952381D01*
X64511905Y-82952381D01*
X64416667Y-82904762D01*
X64369048Y-82809524D01*
X64369048Y-82428571D01*
X64416667Y-82333333D01*
X64511905Y-82285714D01*
X64702382Y-82285714D01*
X64797620Y-82333333D01*
X64845239Y-82428571D01*
X64845239Y-82523810D01*
X64369048Y-82619048D01*
X65273810Y-82952381D02*
X65273810Y-82285714D01*
X65273810Y-82476190D02*
X65321429Y-82380952D01*
X65369048Y-82333333D01*
X65464286Y-82285714D01*
X65559525Y-82285714D01*
X65892858Y-82952381D02*
X65892858Y-82285714D01*
X65892858Y-82380952D02*
X65940477Y-82333333D01*
X66035715Y-82285714D01*
X66178573Y-82285714D01*
X66273811Y-82333333D01*
X66321430Y-82428571D01*
X66321430Y-82952381D01*
X66321430Y-82428571D02*
X66369049Y-82333333D01*
X66464287Y-82285714D01*
X66607144Y-82285714D01*
X66702382Y-82333333D01*
X66750001Y-82428571D01*
X66750001Y-82952381D01*
X69161905Y-56302381D02*
X68828571Y-55826190D01*
X68590476Y-56302381D02*
X68590476Y-55302381D01*
X68971429Y-55302381D01*
X69066667Y-55350000D01*
X69114286Y-55397619D01*
X69161905Y-55492857D01*
X69161905Y-55635714D01*
X69114286Y-55730952D01*
X69066667Y-55778571D01*
X68971429Y-55826190D01*
X68590476Y-55826190D01*
X69971429Y-56254762D02*
X69876191Y-56302381D01*
X69685714Y-56302381D01*
X69590476Y-56254762D01*
X69542857Y-56159524D01*
X69542857Y-55778571D01*
X69590476Y-55683333D01*
X69685714Y-55635714D01*
X69876191Y-55635714D01*
X69971429Y-55683333D01*
X70019048Y-55778571D01*
X70019048Y-55873810D01*
X69542857Y-55969048D01*
X70400000Y-56254762D02*
X70495238Y-56302381D01*
X70685714Y-56302381D01*
X70780953Y-56254762D01*
X70828572Y-56159524D01*
X70828572Y-56111905D01*
X70780953Y-56016667D01*
X70685714Y-55969048D01*
X70542857Y-55969048D01*
X70447619Y-55921429D01*
X70400000Y-55826190D01*
X70400000Y-55778571D01*
X70447619Y-55683333D01*
X70542857Y-55635714D01*
X70685714Y-55635714D01*
X70780953Y-55683333D01*
X71638096Y-56254762D02*
X71542858Y-56302381D01*
X71352381Y-56302381D01*
X71257143Y-56254762D01*
X71209524Y-56159524D01*
X71209524Y-55778571D01*
X71257143Y-55683333D01*
X71352381Y-55635714D01*
X71542858Y-55635714D01*
X71638096Y-55683333D01*
X71685715Y-55778571D01*
X71685715Y-55873810D01*
X71209524Y-55969048D01*
X71971429Y-55635714D02*
X72352381Y-55635714D01*
X72114286Y-55302381D02*
X72114286Y-56159524D01*
X72161905Y-56254762D01*
X72257143Y-56302381D01*
X72352381Y-56302381D01*
D13*
X72285714Y-84861905D02*
X72285714Y-84061905D01*
X72590476Y-84061905D01*
X72666667Y-84100000D01*
X72704762Y-84138095D01*
X72742857Y-84214286D01*
X72742857Y-84328571D01*
X72704762Y-84404762D01*
X72666667Y-84442857D01*
X72590476Y-84480952D01*
X72285714Y-84480952D01*
X73047619Y-84633333D02*
X73428571Y-84633333D01*
X72971428Y-84861905D02*
X73238095Y-84061905D01*
X73504762Y-84861905D01*
X74190476Y-84861905D02*
X73733333Y-84861905D01*
X73961904Y-84861905D02*
X73961904Y-84061905D01*
X73885714Y-84176190D01*
X73809523Y-84252381D01*
X73733333Y-84290476D01*
X74495238Y-84138095D02*
X74533333Y-84100000D01*
X74609524Y-84061905D01*
X74800000Y-84061905D01*
X74876190Y-84100000D01*
X74914286Y-84138095D01*
X74952381Y-84214286D01*
X74952381Y-84290476D01*
X74914286Y-84404762D01*
X74457143Y-84861905D01*
X74952381Y-84861905D01*
X72728571Y-78861905D02*
X72728571Y-78061905D01*
X73033333Y-78061905D01*
X73109524Y-78100000D01*
X73147619Y-78138095D01*
X73185714Y-78214286D01*
X73185714Y-78328571D01*
X73147619Y-78404762D01*
X73109524Y-78442857D01*
X73033333Y-78480952D01*
X72728571Y-78480952D01*
X73795238Y-78442857D02*
X73909524Y-78480952D01*
X73947619Y-78519048D01*
X73985714Y-78595238D01*
X73985714Y-78709524D01*
X73947619Y-78785714D01*
X73909524Y-78823810D01*
X73833333Y-78861905D01*
X73528571Y-78861905D01*
X73528571Y-78061905D01*
X73795238Y-78061905D01*
X73871428Y-78100000D01*
X73909524Y-78138095D01*
X73947619Y-78214286D01*
X73947619Y-78290476D01*
X73909524Y-78366667D01*
X73871428Y-78404762D01*
X73795238Y-78442857D01*
X73528571Y-78442857D01*
X74747619Y-78861905D02*
X74290476Y-78861905D01*
X74519047Y-78861905D02*
X74519047Y-78061905D01*
X74442857Y-78176190D01*
X74366666Y-78252381D01*
X74290476Y-78290476D01*
X75433333Y-78328571D02*
X75433333Y-78861905D01*
X75242857Y-78023810D02*
X75052381Y-78595238D01*
X75547619Y-78595238D01*
X72728571Y-79861905D02*
X72728571Y-79061905D01*
X73033333Y-79061905D01*
X73109524Y-79100000D01*
X73147619Y-79138095D01*
X73185714Y-79214286D01*
X73185714Y-79328571D01*
X73147619Y-79404762D01*
X73109524Y-79442857D01*
X73033333Y-79480952D01*
X72728571Y-79480952D01*
X73795238Y-79442857D02*
X73909524Y-79480952D01*
X73947619Y-79519048D01*
X73985714Y-79595238D01*
X73985714Y-79709524D01*
X73947619Y-79785714D01*
X73909524Y-79823810D01*
X73833333Y-79861905D01*
X73528571Y-79861905D01*
X73528571Y-79061905D01*
X73795238Y-79061905D01*
X73871428Y-79100000D01*
X73909524Y-79138095D01*
X73947619Y-79214286D01*
X73947619Y-79290476D01*
X73909524Y-79366667D01*
X73871428Y-79404762D01*
X73795238Y-79442857D01*
X73528571Y-79442857D01*
X74747619Y-79861905D02*
X74290476Y-79861905D01*
X74519047Y-79861905D02*
X74519047Y-79061905D01*
X74442857Y-79176190D01*
X74366666Y-79252381D01*
X74290476Y-79290476D01*
X75471429Y-79061905D02*
X75090476Y-79061905D01*
X75052381Y-79442857D01*
X75090476Y-79404762D01*
X75166667Y-79366667D01*
X75357143Y-79366667D01*
X75433333Y-79404762D01*
X75471429Y-79442857D01*
X75509524Y-79519048D01*
X75509524Y-79709524D01*
X75471429Y-79785714D01*
X75433333Y-79823810D01*
X75357143Y-79861905D01*
X75166667Y-79861905D01*
X75090476Y-79823810D01*
X75052381Y-79785714D01*
D11*
X56138096Y-55170000D02*
X56042858Y-55122381D01*
X55900001Y-55122381D01*
X55757143Y-55170000D01*
X55661905Y-55265238D01*
X55614286Y-55360476D01*
X55566667Y-55550952D01*
X55566667Y-55693810D01*
X55614286Y-55884286D01*
X55661905Y-55979524D01*
X55757143Y-56074762D01*
X55900001Y-56122381D01*
X55995239Y-56122381D01*
X56138096Y-56074762D01*
X56185715Y-56027143D01*
X56185715Y-55693810D01*
X55995239Y-55693810D01*
X56614286Y-56122381D02*
X56614286Y-55122381D01*
X57185715Y-56122381D01*
X57185715Y-55122381D01*
X57661905Y-56122381D02*
X57661905Y-55122381D01*
X57900000Y-55122381D01*
X58042858Y-55170000D01*
X58138096Y-55265238D01*
X58185715Y-55360476D01*
X58233334Y-55550952D01*
X58233334Y-55693810D01*
X58185715Y-55884286D01*
X58138096Y-55979524D01*
X58042858Y-56074762D01*
X57900000Y-56122381D01*
X57661905Y-56122381D01*
D13*
X65233333Y-67161905D02*
X65233333Y-66361905D01*
X65500000Y-66933333D01*
X65766667Y-66361905D01*
X65766667Y-67161905D01*
X66261905Y-67161905D02*
X66185714Y-67123810D01*
X66147619Y-67085714D01*
X66109524Y-67009524D01*
X66109524Y-66780952D01*
X66147619Y-66704762D01*
X66185714Y-66666667D01*
X66261905Y-66628571D01*
X66376191Y-66628571D01*
X66452381Y-66666667D01*
X66490476Y-66704762D01*
X66528572Y-66780952D01*
X66528572Y-67009524D01*
X66490476Y-67085714D01*
X66452381Y-67123810D01*
X66376191Y-67161905D01*
X66261905Y-67161905D01*
X66757143Y-66628571D02*
X67061905Y-66628571D01*
X66871429Y-66361905D02*
X66871429Y-67047619D01*
X66909524Y-67123810D01*
X66985715Y-67161905D01*
X67061905Y-67161905D01*
X67442858Y-67161905D02*
X67366667Y-67123810D01*
X67328572Y-67085714D01*
X67290477Y-67009524D01*
X67290477Y-66780952D01*
X67328572Y-66704762D01*
X67366667Y-66666667D01*
X67442858Y-66628571D01*
X67557144Y-66628571D01*
X67633334Y-66666667D01*
X67671429Y-66704762D01*
X67709525Y-66780952D01*
X67709525Y-67009524D01*
X67671429Y-67085714D01*
X67633334Y-67123810D01*
X67557144Y-67161905D01*
X67442858Y-67161905D01*
X68052382Y-67161905D02*
X68052382Y-66628571D01*
X68052382Y-66780952D02*
X68090477Y-66704762D01*
X68128573Y-66666667D01*
X68204763Y-66628571D01*
X68280954Y-66628571D01*
X71109524Y-66142857D02*
X70842857Y-66142857D01*
X70842857Y-66561905D02*
X70842857Y-65761905D01*
X71223810Y-65761905D01*
X71871428Y-66561905D02*
X71871428Y-66142857D01*
X71833333Y-66066667D01*
X71757143Y-66028571D01*
X71604762Y-66028571D01*
X71528571Y-66066667D01*
X71871428Y-66523810D02*
X71795238Y-66561905D01*
X71604762Y-66561905D01*
X71528571Y-66523810D01*
X71490476Y-66447619D01*
X71490476Y-66371429D01*
X71528571Y-66295238D01*
X71604762Y-66257143D01*
X71795238Y-66257143D01*
X71871428Y-66219048D01*
X72252381Y-66028571D02*
X72252381Y-66561905D01*
X72252381Y-66104762D02*
X72290476Y-66066667D01*
X72366667Y-66028571D01*
X72480953Y-66028571D01*
X72557143Y-66066667D01*
X72595238Y-66142857D01*
X72595238Y-66561905D01*
X73395239Y-66561905D02*
X72938096Y-66561905D01*
X73166667Y-66561905D02*
X73166667Y-65761905D01*
X73090477Y-65876190D01*
X73014286Y-65952381D01*
X72938096Y-65990476D01*
X71109524Y-67442857D02*
X70842857Y-67442857D01*
X70842857Y-67861905D02*
X70842857Y-67061905D01*
X71223810Y-67061905D01*
X71871428Y-67861905D02*
X71871428Y-67442857D01*
X71833333Y-67366667D01*
X71757143Y-67328571D01*
X71604762Y-67328571D01*
X71528571Y-67366667D01*
X71871428Y-67823810D02*
X71795238Y-67861905D01*
X71604762Y-67861905D01*
X71528571Y-67823810D01*
X71490476Y-67747619D01*
X71490476Y-67671429D01*
X71528571Y-67595238D01*
X71604762Y-67557143D01*
X71795238Y-67557143D01*
X71871428Y-67519048D01*
X72252381Y-67328571D02*
X72252381Y-67861905D01*
X72252381Y-67404762D02*
X72290476Y-67366667D01*
X72366667Y-67328571D01*
X72480953Y-67328571D01*
X72557143Y-67366667D01*
X72595238Y-67442857D01*
X72595238Y-67861905D01*
X72938096Y-67138095D02*
X72976191Y-67100000D01*
X73052382Y-67061905D01*
X73242858Y-67061905D01*
X73319048Y-67100000D01*
X73357144Y-67138095D01*
X73395239Y-67214286D01*
X73395239Y-67290476D01*
X73357144Y-67404762D01*
X72900001Y-67861905D01*
X73395239Y-67861905D01*
X69690476Y-70223810D02*
X69804762Y-70261905D01*
X69995238Y-70261905D01*
X70071428Y-70223810D01*
X70109524Y-70185714D01*
X70147619Y-70109524D01*
X70147619Y-70033333D01*
X70109524Y-69957143D01*
X70071428Y-69919048D01*
X69995238Y-69880952D01*
X69842857Y-69842857D01*
X69766666Y-69804762D01*
X69728571Y-69766667D01*
X69690476Y-69690476D01*
X69690476Y-69614286D01*
X69728571Y-69538095D01*
X69766666Y-69500000D01*
X69842857Y-69461905D01*
X70033333Y-69461905D01*
X70147619Y-69500000D01*
X70642857Y-69461905D02*
X70719048Y-69461905D01*
X70795238Y-69500000D01*
X70833333Y-69538095D01*
X70871429Y-69614286D01*
X70909524Y-69766667D01*
X70909524Y-69957143D01*
X70871429Y-70109524D01*
X70833333Y-70185714D01*
X70795238Y-70223810D01*
X70719048Y-70261905D01*
X70642857Y-70261905D01*
X70566667Y-70223810D01*
X70528571Y-70185714D01*
X70490476Y-70109524D01*
X70452381Y-69957143D01*
X70452381Y-69766667D01*
X70490476Y-69614286D01*
X70528571Y-69538095D01*
X70566667Y-69500000D01*
X70642857Y-69461905D01*
X70890476Y-71223810D02*
X71004762Y-71261905D01*
X71195238Y-71261905D01*
X71271428Y-71223810D01*
X71309524Y-71185714D01*
X71347619Y-71109524D01*
X71347619Y-71033333D01*
X71309524Y-70957143D01*
X71271428Y-70919048D01*
X71195238Y-70880952D01*
X71042857Y-70842857D01*
X70966666Y-70804762D01*
X70928571Y-70766667D01*
X70890476Y-70690476D01*
X70890476Y-70614286D01*
X70928571Y-70538095D01*
X70966666Y-70500000D01*
X71042857Y-70461905D01*
X71233333Y-70461905D01*
X71347619Y-70500000D01*
X72109524Y-71261905D02*
X71652381Y-71261905D01*
X71880952Y-71261905D02*
X71880952Y-70461905D01*
X71804762Y-70576190D01*
X71728571Y-70652381D01*
X71652381Y-70690476D01*
X70590476Y-72223810D02*
X70704762Y-72261905D01*
X70895238Y-72261905D01*
X70971428Y-72223810D01*
X71009524Y-72185714D01*
X71047619Y-72109524D01*
X71047619Y-72033333D01*
X71009524Y-71957143D01*
X70971428Y-71919048D01*
X70895238Y-71880952D01*
X70742857Y-71842857D01*
X70666666Y-71804762D01*
X70628571Y-71766667D01*
X70590476Y-71690476D01*
X70590476Y-71614286D01*
X70628571Y-71538095D01*
X70666666Y-71500000D01*
X70742857Y-71461905D01*
X70933333Y-71461905D01*
X71047619Y-71500000D01*
X71352381Y-71538095D02*
X71390476Y-71500000D01*
X71466667Y-71461905D01*
X71657143Y-71461905D01*
X71733333Y-71500000D01*
X71771429Y-71538095D01*
X71809524Y-71614286D01*
X71809524Y-71690476D01*
X71771429Y-71804762D01*
X71314286Y-72261905D01*
X71809524Y-72261905D01*
X70890476Y-73223810D02*
X71004762Y-73261905D01*
X71195238Y-73261905D01*
X71271428Y-73223810D01*
X71309524Y-73185714D01*
X71347619Y-73109524D01*
X71347619Y-73033333D01*
X71309524Y-72957143D01*
X71271428Y-72919048D01*
X71195238Y-72880952D01*
X71042857Y-72842857D01*
X70966666Y-72804762D01*
X70928571Y-72766667D01*
X70890476Y-72690476D01*
X70890476Y-72614286D01*
X70928571Y-72538095D01*
X70966666Y-72500000D01*
X71042857Y-72461905D01*
X71233333Y-72461905D01*
X71347619Y-72500000D01*
X71614286Y-72461905D02*
X72109524Y-72461905D01*
X71842857Y-72766667D01*
X71957143Y-72766667D01*
X72033333Y-72804762D01*
X72071429Y-72842857D01*
X72109524Y-72919048D01*
X72109524Y-73109524D01*
X72071429Y-73185714D01*
X72033333Y-73223810D01*
X71957143Y-73261905D01*
X71728571Y-73261905D01*
X71652381Y-73223810D01*
X71614286Y-73185714D01*
X72690476Y-80723810D02*
X72804762Y-80761905D01*
X72995238Y-80761905D01*
X73071428Y-80723810D01*
X73109524Y-80685714D01*
X73147619Y-80609524D01*
X73147619Y-80533333D01*
X73109524Y-80457143D01*
X73071428Y-80419048D01*
X72995238Y-80380952D01*
X72842857Y-80342857D01*
X72766666Y-80304762D01*
X72728571Y-80266667D01*
X72690476Y-80190476D01*
X72690476Y-80114286D01*
X72728571Y-80038095D01*
X72766666Y-80000000D01*
X72842857Y-79961905D01*
X73033333Y-79961905D01*
X73147619Y-80000000D01*
X73833333Y-80228571D02*
X73833333Y-80761905D01*
X73642857Y-79923810D02*
X73452381Y-80495238D01*
X73947619Y-80495238D01*
X72290476Y-81723810D02*
X72404762Y-81761905D01*
X72595238Y-81761905D01*
X72671428Y-81723810D01*
X72709524Y-81685714D01*
X72747619Y-81609524D01*
X72747619Y-81533333D01*
X72709524Y-81457143D01*
X72671428Y-81419048D01*
X72595238Y-81380952D01*
X72442857Y-81342857D01*
X72366666Y-81304762D01*
X72328571Y-81266667D01*
X72290476Y-81190476D01*
X72290476Y-81114286D01*
X72328571Y-81038095D01*
X72366666Y-81000000D01*
X72442857Y-80961905D01*
X72633333Y-80961905D01*
X72747619Y-81000000D01*
X73471429Y-80961905D02*
X73090476Y-80961905D01*
X73052381Y-81342857D01*
X73090476Y-81304762D01*
X73166667Y-81266667D01*
X73357143Y-81266667D01*
X73433333Y-81304762D01*
X73471429Y-81342857D01*
X73509524Y-81419048D01*
X73509524Y-81609524D01*
X73471429Y-81685714D01*
X73433333Y-81723810D01*
X73357143Y-81761905D01*
X73166667Y-81761905D01*
X73090476Y-81723810D01*
X73052381Y-81685714D01*
X72590476Y-82723810D02*
X72704762Y-82761905D01*
X72895238Y-82761905D01*
X72971428Y-82723810D01*
X73009524Y-82685714D01*
X73047619Y-82609524D01*
X73047619Y-82533333D01*
X73009524Y-82457143D01*
X72971428Y-82419048D01*
X72895238Y-82380952D01*
X72742857Y-82342857D01*
X72666666Y-82304762D01*
X72628571Y-82266667D01*
X72590476Y-82190476D01*
X72590476Y-82114286D01*
X72628571Y-82038095D01*
X72666666Y-82000000D01*
X72742857Y-81961905D01*
X72933333Y-81961905D01*
X73047619Y-82000000D01*
X73733333Y-81961905D02*
X73580952Y-81961905D01*
X73504762Y-82000000D01*
X73466667Y-82038095D01*
X73390476Y-82152381D01*
X73352381Y-82304762D01*
X73352381Y-82609524D01*
X73390476Y-82685714D01*
X73428571Y-82723810D01*
X73504762Y-82761905D01*
X73657143Y-82761905D01*
X73733333Y-82723810D01*
X73771429Y-82685714D01*
X73809524Y-82609524D01*
X73809524Y-82419048D01*
X73771429Y-82342857D01*
X73733333Y-82304762D01*
X73657143Y-82266667D01*
X73504762Y-82266667D01*
X73428571Y-82304762D01*
X73390476Y-82342857D01*
X73352381Y-82419048D01*
X71590476Y-83723810D02*
X71704762Y-83761905D01*
X71895238Y-83761905D01*
X71971428Y-83723810D01*
X72009524Y-83685714D01*
X72047619Y-83609524D01*
X72047619Y-83533333D01*
X72009524Y-83457143D01*
X71971428Y-83419048D01*
X71895238Y-83380952D01*
X71742857Y-83342857D01*
X71666666Y-83304762D01*
X71628571Y-83266667D01*
X71590476Y-83190476D01*
X71590476Y-83114286D01*
X71628571Y-83038095D01*
X71666666Y-83000000D01*
X71742857Y-82961905D01*
X71933333Y-82961905D01*
X72047619Y-83000000D01*
X72314286Y-82961905D02*
X72847619Y-82961905D01*
X72504762Y-83761905D01*
%LPC*%
D14*
X97000000Y-91000000D02*
X100000000Y-91000000D01*
X97000000Y-87500000D02*
X100000000Y-87500000D01*
X67000000Y-54000000D02*
X67000000Y-50000000D01*
X61000000Y-54000000D02*
X61000000Y-50000000D01*
X93000000Y-54000000D02*
X93000000Y-50500000D01*
X96000000Y-57000000D02*
X100000000Y-57000000D01*
X98000000Y-51500000D02*
X99500000Y-51500000D01*
X96000000Y-93000000D02*
X100000000Y-93000000D01*
X99000000Y-95500000D02*
X99000000Y-99000000D01*
X93000000Y-96000000D02*
X93000000Y-99500000D01*
X67000000Y-96000000D02*
X67000000Y-100000000D01*
X61000000Y-96000000D02*
X61000000Y-99500000D01*
D15*
X100000000Y-100000000D02*
X59000000Y-100000000D01*
D16*
X100000000Y-50000000D02*
X100000000Y-100000000D01*
D15*
X50000000Y-50000000D02*
X100000000Y-50000000D01*
D17*
X81490000Y-65300000D03*
D18*
X84030000Y-65300000D03*
X86570000Y-65300000D03*
X89110000Y-65300000D03*
D19*
X96950000Y-89250000D03*
D20*
X71275000Y-74375000D03*
D21*
X71275000Y-75300000D03*
X71275000Y-76100000D03*
D20*
X71275000Y-77025000D03*
X72725000Y-77025000D03*
D21*
X72725000Y-76100000D03*
X72725000Y-75300000D03*
D20*
X72725000Y-74375000D03*
D22*
X93300000Y-82900000D03*
X93300000Y-85900000D03*
D23*
X93300000Y-84400000D03*
D20*
X67525000Y-72825000D03*
D21*
X67525000Y-71900000D03*
X67525000Y-71100000D03*
D20*
X67525000Y-70175000D03*
X66075000Y-70175000D03*
D21*
X66075000Y-71100000D03*
X66075000Y-71900000D03*
D20*
X66075000Y-72825000D03*
D24*
X76000000Y-87225000D03*
X76000000Y-85775000D03*
D25*
X86225000Y-74600000D03*
X87675000Y-74600000D03*
X78925000Y-74600000D03*
X80375000Y-74600000D03*
X97225000Y-78300000D03*
X95775000Y-78300000D03*
D26*
X89650000Y-75350000D03*
X89650000Y-73150000D03*
D27*
X54100000Y-82550000D03*
X52400000Y-82550000D03*
X55350000Y-69800000D03*
X53650000Y-69800000D03*
X89350000Y-52900000D03*
X87650000Y-52900000D03*
X70950000Y-52900000D03*
X72650000Y-52900000D03*
D20*
X69625000Y-83025000D03*
D21*
X69625000Y-82100000D03*
X69625000Y-81300000D03*
D20*
X69625000Y-80375000D03*
X68175000Y-80375000D03*
D21*
X68175000Y-81300000D03*
X68175000Y-82100000D03*
D20*
X68175000Y-83025000D03*
D28*
X60550000Y-64550000D03*
X60550000Y-62650000D03*
X58450000Y-63600000D03*
X64150000Y-60950000D03*
X64150000Y-59050000D03*
X62050000Y-60000000D03*
X60550000Y-60950000D03*
X60550000Y-59050000D03*
X58450000Y-60000000D03*
D29*
X94800000Y-69900000D03*
D30*
X92500000Y-76100000D03*
X94800000Y-76100000D03*
X97100000Y-76100000D03*
D31*
X58420000Y-92710000D03*
D32*
X58420000Y-90170000D03*
X58420000Y-87630000D03*
X58420000Y-85090000D03*
X55880000Y-92710000D03*
X55880000Y-90170000D03*
X55880000Y-87630000D03*
X55880000Y-85090000D03*
X53340000Y-92710000D03*
X53340000Y-90170000D03*
X53340000Y-87630000D03*
X53340000Y-85090000D03*
D31*
X58420000Y-80010000D03*
D32*
X58420000Y-77470000D03*
X58420000Y-74930000D03*
X58420000Y-72390000D03*
X55880000Y-80010000D03*
X55880000Y-77470000D03*
X55880000Y-74930000D03*
X55880000Y-72390000D03*
X53340000Y-80010000D03*
X53340000Y-77470000D03*
X53340000Y-74930000D03*
X53340000Y-72390000D03*
D17*
X57040000Y-95730000D03*
D18*
X57040000Y-98270000D03*
X54500000Y-95730000D03*
X54500000Y-98270000D03*
X51960000Y-95730000D03*
X51960000Y-98270000D03*
D31*
X61230000Y-67230000D03*
D32*
X63770000Y-67230000D03*
X61230000Y-69770000D03*
X63770000Y-69770000D03*
D31*
X94980000Y-59690000D03*
D32*
X97520000Y-59690000D03*
X94980000Y-62230000D03*
X97520000Y-62230000D03*
X94980000Y-64770000D03*
X97520000Y-64770000D03*
X94980000Y-67310000D03*
X97520000Y-67310000D03*
D31*
X63500000Y-74930000D03*
D32*
X66040000Y-74930000D03*
X63500000Y-77470000D03*
X66040000Y-77470000D03*
X63500000Y-80010000D03*
X66040000Y-80010000D03*
D31*
X63500000Y-85090000D03*
D32*
X66040000Y-85090000D03*
X63500000Y-87630000D03*
X66040000Y-87630000D03*
X63500000Y-90170000D03*
X66040000Y-90170000D03*
D31*
X55880000Y-63500000D03*
D32*
X53340000Y-63500000D03*
X55880000Y-60960000D03*
X53340000Y-60960000D03*
X55880000Y-58420000D03*
X53340000Y-58420000D03*
D20*
X64250000Y-65125000D03*
D21*
X64250000Y-64200000D03*
X64250000Y-63400000D03*
D20*
X64250000Y-62475000D03*
X62800000Y-62475000D03*
D21*
X62800000Y-63400000D03*
X62800000Y-64200000D03*
D20*
X62800000Y-65125000D03*
D24*
X91800000Y-79220800D03*
X91800000Y-80670800D03*
D25*
X74075000Y-56000000D03*
X75525000Y-56000000D03*
X88625000Y-89650000D03*
X87175000Y-89650000D03*
D20*
X68175000Y-74375000D03*
D21*
X68175000Y-75300000D03*
X68175000Y-76100000D03*
D20*
X68175000Y-77025000D03*
X69625000Y-77025000D03*
D21*
X69625000Y-76100000D03*
X69625000Y-75300000D03*
D20*
X69625000Y-74375000D03*
X68175000Y-84875000D03*
D21*
X68175000Y-85800000D03*
X68175000Y-86600000D03*
D20*
X68175000Y-87525000D03*
X69625000Y-87525000D03*
D21*
X69625000Y-86600000D03*
X69625000Y-85800000D03*
D20*
X69625000Y-84875000D03*
D33*
X89700000Y-96600000D03*
X81900000Y-96600000D03*
X75200000Y-59100000D03*
X67400000Y-59100000D03*
D25*
X83425000Y-62800000D03*
X81975000Y-62800000D03*
D20*
X70375000Y-89275000D03*
D21*
X70375000Y-90200000D03*
X70375000Y-91000000D03*
D20*
X70375000Y-91925000D03*
X71825000Y-91925000D03*
D21*
X71825000Y-91000000D03*
X71825000Y-90200000D03*
D20*
X71825000Y-89275000D03*
D17*
X78890000Y-59370000D03*
D18*
X78890000Y-56830000D03*
X81430000Y-59370000D03*
X81430000Y-56830000D03*
X83970000Y-59370000D03*
X83970000Y-56830000D03*
D34*
X86510000Y-59370000D03*
X86510000Y-56830000D03*
D24*
X58500000Y-67775000D03*
X58500000Y-69225000D03*
D35*
X89300000Y-85950000D03*
X89300000Y-85450000D03*
X89300000Y-84950000D03*
X89300000Y-84450000D03*
X89300000Y-83950000D03*
X89300000Y-83450000D03*
X89300000Y-82950000D03*
X89300000Y-82450000D03*
X89300000Y-81950000D03*
X89300000Y-81450000D03*
X89300000Y-80950000D03*
X89300000Y-80450000D03*
X89300000Y-79950000D03*
X89300000Y-79450000D03*
X89300000Y-78950000D03*
X89300000Y-78450000D03*
D36*
X87350000Y-76500000D03*
X86850000Y-76500000D03*
X86350000Y-76500000D03*
X85850000Y-76500000D03*
X85350000Y-76500000D03*
X84850000Y-76500000D03*
X84350000Y-76500000D03*
X83850000Y-76500000D03*
X83350000Y-76500000D03*
X82850000Y-76500000D03*
X82350000Y-76500000D03*
X81850000Y-76500000D03*
X81350000Y-76500000D03*
X80850000Y-76500000D03*
X80350000Y-76500000D03*
X79850000Y-76500000D03*
D35*
X77900000Y-78450000D03*
X77900000Y-78950000D03*
X77900000Y-79450000D03*
X77900000Y-79950000D03*
X77900000Y-80450000D03*
X77900000Y-80950000D03*
X77900000Y-81450000D03*
X77900000Y-81950000D03*
X77900000Y-82450000D03*
X77900000Y-82950000D03*
X77900000Y-83450000D03*
X77900000Y-83950000D03*
X77900000Y-84450000D03*
X77900000Y-84950000D03*
X77900000Y-85450000D03*
X77900000Y-85950000D03*
D36*
X79850000Y-87900000D03*
X80350000Y-87900000D03*
X80850000Y-87900000D03*
X81350000Y-87900000D03*
X81850000Y-87900000D03*
X82350000Y-87900000D03*
X82850000Y-87900000D03*
X83350000Y-87900000D03*
X83850000Y-87900000D03*
X84350000Y-87900000D03*
X84850000Y-87900000D03*
X85350000Y-87900000D03*
X85850000Y-87900000D03*
X86350000Y-87900000D03*
X86850000Y-87900000D03*
X87350000Y-87900000D03*
D20*
X67525000Y-65125000D03*
D21*
X67525000Y-64200000D03*
X67525000Y-63400000D03*
D20*
X67525000Y-62475000D03*
X66075000Y-62475000D03*
D21*
X66075000Y-63400000D03*
X66075000Y-64200000D03*
D20*
X66075000Y-65125000D03*
D24*
X93900000Y-80670800D03*
X93900000Y-79220800D03*
D25*
X84475000Y-90000000D03*
X83025000Y-90000000D03*
X93025000Y-67500000D03*
X91575000Y-67500000D03*
X91575000Y-65900000D03*
X93025000Y-65900000D03*
X93025000Y-62700000D03*
X91575000Y-62700000D03*
X93025000Y-64300000D03*
X91575000Y-64300000D03*
X86675000Y-62800000D03*
X88125000Y-62800000D03*
D24*
X77900000Y-66125000D03*
X77900000Y-64675000D03*
X76300000Y-66125000D03*
X76300000Y-64675000D03*
D37*
X64000000Y-54000000D03*
D38*
X66675000Y-54000000D03*
X65892000Y-52108000D03*
X64000000Y-51325000D03*
X62108000Y-52108000D03*
X61325000Y-54000000D03*
X62108000Y-55892000D03*
X64000000Y-56675000D03*
X65892000Y-55892000D03*
D37*
X64000000Y-96000000D03*
D38*
X66675000Y-96000000D03*
X65892000Y-94108000D03*
X64000000Y-93325000D03*
X62108000Y-94108000D03*
X61325000Y-96000000D03*
X62108000Y-97892000D03*
X64000000Y-98675000D03*
X65892000Y-97892000D03*
D37*
X96000000Y-96000000D03*
D38*
X98675000Y-96000000D03*
X97892000Y-94108000D03*
X96000000Y-93325000D03*
X94108000Y-94108000D03*
X93325000Y-96000000D03*
X94108000Y-97892000D03*
X96000000Y-98675000D03*
X97892000Y-97892000D03*
D37*
X96000000Y-54000000D03*
D38*
X98675000Y-54000000D03*
X97892000Y-52108000D03*
X96000000Y-51325000D03*
X94108000Y-52108000D03*
X93325000Y-54000000D03*
X94108000Y-55892000D03*
X96000000Y-56675000D03*
X97892000Y-55892000D03*
D39*
X75700000Y-84200000D03*
X76250000Y-78800000D03*
X76250000Y-80100000D03*
D40*
X56900000Y-53400000D03*
X80000000Y-98200000D03*
D39*
X68750000Y-67450000D03*
X70100000Y-66100000D03*
X70100000Y-67450000D03*
X69000000Y-70200000D03*
X70200000Y-71100000D03*
X69000000Y-71900000D03*
X70200000Y-72800000D03*
X71900000Y-80400000D03*
X70900000Y-81300000D03*
X71900000Y-82100000D03*
X70900000Y-83100000D03*
D33*
X70300000Y-96600000D03*
X78100000Y-96600000D03*
M02*
