M48
;DRILL file {KiCad 4.0.0-rc1-stable} date 2016-02-04 20:21:46
;FORMAT={-:-/ absolute / metric / decimal}
FMAT,2
METRIC,TZ
T1C0.300
T2C1.000
T3C2.500
T4C3.200
%
G90
G05
M71
T1
X50.8Y-50.8
X50.8Y-56.8
X50.8Y-62.4
X50.8Y-67.6
X57.2Y-50.8
X59.5Y-62.65
X61.325Y-54.
X61.325Y-96.
X62.108Y-52.108
X62.108Y-55.892
X62.108Y-94.108
X62.108Y-97.892
X64.Y-51.325
X64.Y-56.675
X64.Y-93.325
X64.Y-98.675
X65.892Y-52.108
X65.892Y-55.892
X65.892Y-94.108
X65.892Y-97.892
X66.675Y-54.
X66.675Y-96.
X68.7Y-64.25
X69.2Y-50.8
X69.355Y-61.505
X70.3Y-69.3
X71.Y-99.2
X71.75Y-56.8
X72.05Y-87.35
X72.3Y-78.2
X73.649Y-76.405
X73.65Y-74.4
X73.657Y-75.3
X74.35Y-54.45
X74.8Y-50.8
X75.05Y-85.8
X75.051Y-87.364
X75.7Y-84.2
X75.9Y-71.5
X76.25Y-78.801
X76.25Y-80.1
X76.791Y-88.144
X77.052Y-90.051
X77.4Y-99.2
X78.05Y-72.55
X78.053Y-73.754
X78.275Y-71.25
X78.676Y-73.149
X78.75Y-75.9
X80.1Y-91.1
X80.15Y-94.2
X80.298Y-73.601
X80.8Y-50.8
X81.046Y-70.631
X81.148Y-73.607
X81.601Y-71.45
X81.648Y-90.44
X81.752Y-74.36
X81.8Y-94.172
X82.55Y-86.6
X82.65Y-70.4
X82.75Y-73.4
X83.21Y-71.32
X83.3Y-74.2
X83.357Y-75.148
X83.6Y-99.2
X83.75Y-86.6
X83.936Y-70.875
X84.78Y-72.693
X85.3Y-92.8
X85.5Y-62.8
X86.05Y-89.25
X86.128Y-90.096
X87.4Y-50.8
X87.65Y-73.6
X88.Y-79.45
X88.Y-82.1
X88.5Y-61.7
X88.8Y-59.65
X89.373Y-76.599
X89.45Y-60.25
X89.6Y-99.2
X90.435Y-60.095
X90.55Y-67.299
X90.596Y-77.726
X90.65Y-78.75
X90.65Y-69.153
X90.652Y-62.347
X90.749Y-87.15
X90.8Y-73.15
X90.848Y-59.3
X90.85Y-83.65
X91.Y-88.
X91.5Y-69.125
X91.717Y-59.469
X92.202Y-87.95
X92.323Y-60.065
X92.35Y-87.1
X92.4Y-70.05
X92.425Y-69.125
X92.5Y-74.55
X92.8Y-80.7
X92.85Y-89.
X92.95Y-59.25
X93.202Y-87.127
X93.325Y-54.
X93.325Y-96.
X94.1Y-87.127
X94.108Y-52.108
X94.108Y-55.892
X94.108Y-94.108
X94.108Y-97.892
X94.167Y-87.983
X95.8Y-79.25
X95.961Y-85.092
X96.Y-51.325
X96.Y-56.675
X96.Y-93.325
X96.Y-98.675
X96.25Y-66.
X96.565Y-84.494
X97.086Y-83.822
X97.892Y-52.108
X97.892Y-55.892
X97.892Y-94.108
X97.892Y-97.892
X97.9Y-84.5
X98.095Y-82.95
X98.675Y-54.
X98.675Y-96.
X99.35Y-59.468
X99.35Y-63.695
X99.35Y-68.113
X99.35Y-72.504
X99.35Y-76.84
X99.35Y-81.013
X99.35Y-85.104
T2
X51.96Y-95.73
X51.96Y-98.27
X53.34Y-58.42
X53.34Y-60.96
X53.34Y-63.5
X53.34Y-72.39
X53.34Y-74.93
X53.34Y-77.47
X53.34Y-80.01
X53.34Y-85.09
X53.34Y-87.63
X53.34Y-90.17
X53.34Y-92.71
X54.5Y-95.73
X54.5Y-98.27
X55.88Y-58.42
X55.88Y-60.96
X55.88Y-63.5
X55.88Y-72.39
X55.88Y-74.93
X55.88Y-77.47
X55.88Y-80.01
X55.88Y-85.09
X55.88Y-87.63
X55.88Y-90.17
X55.88Y-92.71
X56.9Y-53.4
X57.04Y-95.73
X57.04Y-98.27
X58.42Y-72.39
X58.42Y-74.93
X58.42Y-77.47
X58.42Y-80.01
X58.42Y-85.09
X58.42Y-87.63
X58.42Y-90.17
X58.42Y-92.71
X61.23Y-67.23
X61.23Y-69.77
X63.5Y-74.93
X63.5Y-77.47
X63.5Y-80.01
X63.5Y-85.09
X63.5Y-87.63
X63.5Y-90.17
X63.77Y-67.23
X63.77Y-69.77
X66.04Y-74.93
X66.04Y-77.47
X66.04Y-80.01
X66.04Y-85.09
X66.04Y-87.63
X66.04Y-90.17
X78.89Y-56.83
X78.89Y-59.37
X80.Y-98.2
X81.43Y-56.83
X81.43Y-59.37
X81.49Y-65.3
X83.97Y-56.83
X83.97Y-59.37
X84.03Y-65.3
X86.51Y-56.83
X86.51Y-59.37
X86.57Y-65.3
X89.11Y-65.3
X94.98Y-59.69
X94.98Y-62.23
X94.98Y-64.77
X94.98Y-67.31
X97.52Y-59.69
X97.52Y-62.23
X97.52Y-64.77
X97.52Y-67.31
T3
X96.95Y-89.25
T4
X64.Y-54.
X64.Y-96.
X96.Y-54.
X96.Y-96.
T0
M30
