G04 #@! TF.FileFunction,Legend,Top*
%FSLAX46Y46*%
G04 Gerber Fmt 4.6, Leading zero omitted, Abs format (unit mm)*
G04 Created by KiCad (PCBNEW (2015-08-30 BZR 6134, Git 4e94d52)-product) date 2015-09-01 19:05:39*
%MOMM*%
G01*
G04 APERTURE LIST*
%ADD10C,0.100000*%
%ADD11C,0.200000*%
%ADD12C,0.152000*%
G04 APERTURE END LIST*
D10*
D11*
X50538095Y-53552381D02*
X50538095Y-52552381D01*
X50871429Y-53266667D01*
X51204762Y-52552381D01*
X51204762Y-53552381D01*
X51823809Y-53552381D02*
X51728571Y-53504762D01*
X51680952Y-53457143D01*
X51633333Y-53361905D01*
X51633333Y-53076190D01*
X51680952Y-52980952D01*
X51728571Y-52933333D01*
X51823809Y-52885714D01*
X51966667Y-52885714D01*
X52061905Y-52933333D01*
X52109524Y-52980952D01*
X52157143Y-53076190D01*
X52157143Y-53361905D01*
X52109524Y-53457143D01*
X52061905Y-53504762D01*
X51966667Y-53552381D01*
X51823809Y-53552381D01*
X52442857Y-52885714D02*
X52823809Y-52885714D01*
X52585714Y-52552381D02*
X52585714Y-53409524D01*
X52633333Y-53504762D01*
X52728571Y-53552381D01*
X52823809Y-53552381D01*
X50795238Y-50252381D02*
X51366667Y-50252381D01*
X51080952Y-51252381D02*
X51080952Y-50252381D01*
X51700000Y-51252381D02*
X51700000Y-50252381D01*
X52128572Y-51252381D02*
X52128572Y-50728571D01*
X52080953Y-50633333D01*
X51985715Y-50585714D01*
X51842857Y-50585714D01*
X51747619Y-50633333D01*
X51700000Y-50680952D01*
D12*
X87455025Y-73025179D02*
X87455025Y-71425179D01*
X87455025Y-71425179D02*
X90455025Y-71425179D01*
X90455025Y-71425179D02*
X90455025Y-73025179D01*
X90455025Y-73025179D02*
X87455025Y-73025179D01*
X93455025Y-71425179D02*
X93455025Y-73025179D01*
X93455025Y-73025179D02*
X90455025Y-73025179D01*
X90455025Y-73025179D02*
X90455025Y-71425179D01*
X90455025Y-71425179D02*
X93455025Y-71425179D01*
X87000000Y-58300000D02*
X85400000Y-58300000D01*
X85400000Y-58300000D02*
X85400000Y-55300000D01*
X85400000Y-55300000D02*
X87000000Y-55300000D01*
X87000000Y-55300000D02*
X87000000Y-58300000D01*
X86776000Y-53100000D02*
X86776000Y-54676000D01*
X86776000Y-54676000D02*
X86681000Y-54676000D01*
X84824000Y-53100000D02*
X84824000Y-54676000D01*
X84824000Y-54676000D02*
X84919000Y-54676000D01*
X82250000Y-86400000D02*
G75*
G03X82250000Y-86400000I-4250000J0D01*
G01*
X77238177Y-82078969D02*
G75*
G03X77238000Y-90721000I761823J-4321031D01*
G01*
X77285759Y-82350043D02*
G75*
G03X77286000Y-90450000I714241J-4049957D01*
G01*
X77309379Y-82485109D02*
G75*
G03X77310000Y-90315000I690621J-3914891D01*
G01*
X77333939Y-82619834D02*
G75*
G03X77333000Y-90180000I666061J-3780166D01*
G01*
X84450000Y-87400000D02*
X82450000Y-87400000D01*
X83450000Y-88400000D02*
X83450000Y-86400000D01*
X72550000Y-87400000D02*
G75*
G03X72550000Y-87400000I-4250000J0D01*
G01*
X72621031Y-86638177D02*
G75*
G03X63979000Y-86638000I-4321031J-761823D01*
G01*
X72349957Y-86685759D02*
G75*
G03X64250000Y-86686000I-4049957J-714241D01*
G01*
X72214891Y-86709379D02*
G75*
G03X64385000Y-86710000I-3914891J-690621D01*
G01*
X72080166Y-86733939D02*
G75*
G03X64520000Y-86733000I-3780166J-666061D01*
G01*
X67300000Y-93850000D02*
X67300000Y-91850000D01*
X66300000Y-92850000D02*
X68300000Y-92850000D01*
X84200000Y-55100000D02*
G75*
G03X84200000Y-55100000I-3400000J0D01*
G01*
X84282949Y-54485715D02*
G75*
G03X77317000Y-54486000I-3482949J-614285D01*
G01*
X84013158Y-54533895D02*
G75*
G03X77587000Y-54533000I-3213158J-566105D01*
G01*
X83878091Y-54557515D02*
G75*
G03X77722000Y-54557000I-3078091J-542485D01*
G01*
X83743024Y-54581135D02*
G75*
G03X77857000Y-54581000I-2943024J-518865D01*
G01*
X79800000Y-60700000D02*
X79800000Y-58700000D01*
X78800000Y-59700000D02*
X80800000Y-59700000D01*
X112200000Y-66600000D02*
X110600000Y-66600000D01*
X110600000Y-66600000D02*
X110600000Y-63600000D01*
X110600000Y-63600000D02*
X112200000Y-63600000D01*
X112200000Y-63600000D02*
X112200000Y-66600000D01*
X93600000Y-77800000D02*
G75*
G03X93600000Y-77800000I-3400000J0D01*
G01*
X90814285Y-81282949D02*
G75*
G03X90814000Y-74317000I-614285J3482949D01*
G01*
X90766105Y-81013158D02*
G75*
G03X90767000Y-74587000I-566105J3213158D01*
G01*
X90742485Y-80878091D02*
G75*
G03X90743000Y-74722000I-542485J3078091D01*
G01*
X90718865Y-80743024D02*
G75*
G03X90719000Y-74857000I-518865J2943024D01*
G01*
X84600000Y-76800000D02*
X86600000Y-76800000D01*
X85600000Y-75800000D02*
X85600000Y-77800000D01*
X83080000Y-102040000D02*
X72920000Y-102040000D01*
X72920000Y-102040000D02*
X72920000Y-99540000D01*
X72920000Y-99540000D02*
X83080000Y-99540000D01*
X83080000Y-99540000D02*
X83080000Y-102040000D01*
X74510000Y-108290000D02*
X73870000Y-108290000D01*
X73870000Y-108290000D02*
X73870000Y-102040000D01*
X73870000Y-102040000D02*
X74510000Y-102040000D01*
X74510000Y-102040000D02*
X74510000Y-108290000D01*
X77050000Y-108290000D02*
X76410000Y-108290000D01*
X76410000Y-108290000D02*
X76410000Y-102040000D01*
X76410000Y-102040000D02*
X77050000Y-102040000D01*
X77050000Y-102040000D02*
X77050000Y-108290000D01*
X79590000Y-108290000D02*
X78950000Y-108290000D01*
X78950000Y-108290000D02*
X78950000Y-102040000D01*
X78950000Y-102040000D02*
X79590000Y-102040000D01*
X79590000Y-102040000D02*
X79590000Y-108290000D01*
X82130000Y-108290000D02*
X81490000Y-108290000D01*
X81490000Y-108290000D02*
X81490000Y-102040000D01*
X81490000Y-102040000D02*
X82130000Y-102040000D01*
X82130000Y-102040000D02*
X82130000Y-108290000D01*
X75460000Y-102269000D02*
X72920000Y-102269000D01*
X72920000Y-102269000D02*
X72920000Y-102116000D01*
X72920000Y-102116000D02*
X75460000Y-102116000D01*
X75460000Y-102116000D02*
X75460000Y-102269000D01*
X95080000Y-102040000D02*
X84920000Y-102040000D01*
X84920000Y-102040000D02*
X84920000Y-99540000D01*
X84920000Y-99540000D02*
X95080000Y-99540000D01*
X95080000Y-99540000D02*
X95080000Y-102040000D01*
X86510000Y-108290000D02*
X85870000Y-108290000D01*
X85870000Y-108290000D02*
X85870000Y-102040000D01*
X85870000Y-102040000D02*
X86510000Y-102040000D01*
X86510000Y-102040000D02*
X86510000Y-108290000D01*
X89050000Y-108290000D02*
X88410000Y-108290000D01*
X88410000Y-108290000D02*
X88410000Y-102040000D01*
X88410000Y-102040000D02*
X89050000Y-102040000D01*
X89050000Y-102040000D02*
X89050000Y-108290000D01*
X91590000Y-108290000D02*
X90950000Y-108290000D01*
X90950000Y-108290000D02*
X90950000Y-102040000D01*
X90950000Y-102040000D02*
X91590000Y-102040000D01*
X91590000Y-102040000D02*
X91590000Y-108290000D01*
X94130000Y-108290000D02*
X93490000Y-108290000D01*
X93490000Y-108290000D02*
X93490000Y-102040000D01*
X93490000Y-102040000D02*
X94130000Y-102040000D01*
X94130000Y-102040000D02*
X94130000Y-108290000D01*
X87460000Y-102269000D02*
X84920000Y-102269000D01*
X84920000Y-102269000D02*
X84920000Y-102116000D01*
X84920000Y-102116000D02*
X87460000Y-102116000D01*
X87460000Y-102116000D02*
X87460000Y-102269000D01*
X50400000Y-66580000D02*
X50400000Y-56420000D01*
X50400000Y-56420000D02*
X62800000Y-56420000D01*
X62800000Y-56420000D02*
X62800000Y-66580000D01*
X62800000Y-66580000D02*
X50400000Y-66580000D01*
X50400000Y-78080000D02*
X50400000Y-67920000D01*
X50400000Y-67920000D02*
X62800000Y-67920000D01*
X62800000Y-67920000D02*
X62800000Y-78080000D01*
X62800000Y-78080000D02*
X50400000Y-78080000D01*
X50400000Y-99660000D02*
X50400000Y-79340000D01*
X50400000Y-79340000D02*
X62800000Y-79340000D01*
X62800000Y-79340000D02*
X62800000Y-99660000D01*
X62800000Y-99660000D02*
X50400000Y-99660000D01*
X99770000Y-91690000D02*
X99770000Y-99310000D01*
X99770000Y-99310000D02*
X97230000Y-99310000D01*
X97230000Y-99310000D02*
X97230000Y-91690000D01*
X97230000Y-91690000D02*
X99770000Y-91690000D01*
X99999000Y-96770000D02*
X99999000Y-99310000D01*
X99999000Y-99310000D02*
X99846000Y-99310000D01*
X99846000Y-99310000D02*
X99846000Y-96770000D01*
X99846000Y-96770000D02*
X99999000Y-96770000D01*
X106770000Y-91690000D02*
X106770000Y-99310000D01*
X106770000Y-99310000D02*
X104230000Y-99310000D01*
X104230000Y-99310000D02*
X104230000Y-91690000D01*
X104230000Y-91690000D02*
X106770000Y-91690000D01*
X106999000Y-96770000D02*
X106999000Y-99310000D01*
X106999000Y-99310000D02*
X106846000Y-99310000D01*
X106846000Y-99310000D02*
X106846000Y-96770000D01*
X106846000Y-96770000D02*
X106999000Y-96770000D01*
X122000000Y-70170000D02*
X122000000Y-85410000D01*
X122000000Y-85410000D02*
X119500000Y-85410000D01*
X119500000Y-85410000D02*
X119500000Y-70170000D01*
X119500000Y-70170000D02*
X122000000Y-70170000D01*
X128250000Y-83820000D02*
X128250000Y-84460000D01*
X128250000Y-84460000D02*
X122000000Y-84460000D01*
X122000000Y-84460000D02*
X122000000Y-83820000D01*
X122000000Y-83820000D02*
X128250000Y-83820000D01*
X128250000Y-81280000D02*
X128250000Y-81920000D01*
X128250000Y-81920000D02*
X122000000Y-81920000D01*
X122000000Y-81920000D02*
X122000000Y-81280000D01*
X122000000Y-81280000D02*
X128250000Y-81280000D01*
X128250000Y-78740000D02*
X128250000Y-79380000D01*
X128250000Y-79380000D02*
X122000000Y-79380000D01*
X122000000Y-79380000D02*
X122000000Y-78740000D01*
X122000000Y-78740000D02*
X128250000Y-78740000D01*
X128250000Y-76200000D02*
X128250000Y-76840000D01*
X128250000Y-76840000D02*
X122000000Y-76840000D01*
X122000000Y-76840000D02*
X122000000Y-76200000D01*
X122000000Y-76200000D02*
X128250000Y-76200000D01*
X128250000Y-73660000D02*
X128250000Y-74300000D01*
X128250000Y-74300000D02*
X122000000Y-74300000D01*
X122000000Y-74300000D02*
X122000000Y-73660000D01*
X122000000Y-73660000D02*
X128250000Y-73660000D01*
X128250000Y-71120000D02*
X128250000Y-71760000D01*
X128250000Y-71760000D02*
X122000000Y-71760000D01*
X122000000Y-71760000D02*
X122000000Y-71120000D01*
X122000000Y-71120000D02*
X128250000Y-71120000D01*
X122229000Y-82870000D02*
X122229000Y-85410000D01*
X122229000Y-85410000D02*
X122076000Y-85410000D01*
X122076000Y-85410000D02*
X122076000Y-82870000D01*
X122076000Y-82870000D02*
X122229000Y-82870000D01*
X119010000Y-91640000D02*
X111390000Y-91640000D01*
X111390000Y-91640000D02*
X111390000Y-86560000D01*
X111390000Y-86560000D02*
X119010000Y-86560000D01*
X119010000Y-86560000D02*
X119010000Y-91640000D01*
X113930000Y-91869000D02*
X111390000Y-91869000D01*
X111390000Y-91869000D02*
X111390000Y-91716000D01*
X111390000Y-91716000D02*
X113930000Y-91716000D01*
X113930000Y-91716000D02*
X113930000Y-91869000D01*
X82700000Y-90800000D02*
X82700000Y-87200000D01*
X82700000Y-87200000D02*
X86300000Y-87200000D01*
X86300000Y-87200000D02*
X86300000Y-90800000D01*
X86300000Y-90800000D02*
X82700000Y-90800000D01*
X89900000Y-90800000D02*
X89900000Y-87200000D01*
X89900000Y-87200000D02*
X93500000Y-87200000D01*
X93500000Y-87200000D02*
X93500000Y-90800000D01*
X93500000Y-90800000D02*
X89900000Y-90800000D01*
X86300000Y-90800000D02*
X86300000Y-87200000D01*
X86300000Y-87200000D02*
X89900000Y-87200000D01*
X89900000Y-87200000D02*
X89900000Y-90800000D01*
X89900000Y-90800000D02*
X86300000Y-90800000D01*
X93500000Y-90800000D02*
X93500000Y-87200000D01*
X93500000Y-87200000D02*
X97100000Y-87200000D01*
X97100000Y-87200000D02*
X97100000Y-90800000D01*
X97100000Y-90800000D02*
X93500000Y-90800000D01*
X63764000Y-64200000D02*
X63764000Y-61824000D01*
X63764000Y-61824000D02*
X64269000Y-61824000D01*
X66836000Y-64200000D02*
X66836000Y-61824000D01*
X66836000Y-61824000D02*
X66331000Y-61824000D01*
X70400000Y-62036000D02*
X68024000Y-62036000D01*
X68024000Y-62036000D02*
X68024000Y-61531000D01*
X70400000Y-58964000D02*
X68024000Y-58964000D01*
X68024000Y-58964000D02*
X68024000Y-59469000D01*
X103536000Y-94400000D02*
X103536000Y-96776000D01*
X103536000Y-96776000D02*
X103031000Y-96776000D01*
X100464000Y-94400000D02*
X100464000Y-96776000D01*
X100464000Y-96776000D02*
X100969000Y-96776000D01*
X110536000Y-94400000D02*
X110536000Y-96776000D01*
X110536000Y-96776000D02*
X110031000Y-96776000D01*
X107464000Y-94400000D02*
X107464000Y-96776000D01*
X107464000Y-96776000D02*
X107969000Y-96776000D01*
X112700000Y-81000000D02*
X112700000Y-77400000D01*
X112700000Y-77400000D02*
X116300000Y-77400000D01*
X116300000Y-77400000D02*
X116300000Y-81000000D01*
X116300000Y-81000000D02*
X112700000Y-81000000D01*
X112700000Y-75900000D02*
X112700000Y-72300000D01*
X112700000Y-72300000D02*
X116300000Y-72300000D01*
X116300000Y-72300000D02*
X116300000Y-75900000D01*
X116300000Y-75900000D02*
X112700000Y-75900000D01*
X109700000Y-50900000D02*
X111700000Y-50900000D01*
X111700000Y-50900000D02*
X111700000Y-54500000D01*
X111700000Y-54500000D02*
X109700000Y-54500000D01*
X109700000Y-54500000D02*
X109700000Y-50900000D01*
X111700000Y-50900000D02*
X113700000Y-50900000D01*
X113700000Y-50900000D02*
X113700000Y-54500000D01*
X113700000Y-54500000D02*
X111700000Y-54500000D01*
X111700000Y-54500000D02*
X111700000Y-50900000D01*
X102449652Y-65317462D02*
X102449652Y-70117462D01*
X102449652Y-70117462D02*
X97849652Y-70117462D01*
X97849652Y-70117462D02*
X97849652Y-65317462D01*
X97849652Y-65317462D02*
X102449652Y-65317462D01*
X82800000Y-69600000D02*
X82800000Y-71200000D01*
X82800000Y-71200000D02*
X79800000Y-71200000D01*
X79800000Y-71200000D02*
X79800000Y-69600000D01*
X79800000Y-69600000D02*
X82800000Y-69600000D01*
X77325000Y-59000000D02*
X78925000Y-59000000D01*
X78925000Y-59000000D02*
X78925000Y-62000000D01*
X78925000Y-62000000D02*
X77325000Y-62000000D01*
X77325000Y-62000000D02*
X77325000Y-59000000D01*
X98600000Y-87000000D02*
X100200000Y-87000000D01*
X100200000Y-87000000D02*
X100200000Y-90000000D01*
X100200000Y-90000000D02*
X98600000Y-90000000D01*
X98600000Y-90000000D02*
X98600000Y-87000000D01*
X107400000Y-87000000D02*
X109000000Y-87000000D01*
X109000000Y-87000000D02*
X109000000Y-90000000D01*
X109000000Y-90000000D02*
X107400000Y-90000000D01*
X107400000Y-90000000D02*
X107400000Y-87000000D01*
X75100000Y-79700000D02*
X75100000Y-75700000D01*
X75100000Y-75700000D02*
X82900000Y-75700000D01*
X82900000Y-75700000D02*
X82900000Y-79700000D01*
X82900000Y-79700000D02*
X75100000Y-79700000D01*
X65900000Y-79700000D02*
X65900000Y-75700000D01*
X65900000Y-75700000D02*
X73700000Y-75700000D01*
X73700000Y-75700000D02*
X73700000Y-79700000D01*
X73700000Y-79700000D02*
X65900000Y-79700000D01*
X113800000Y-66600000D02*
X112200000Y-66600000D01*
X112200000Y-66600000D02*
X112200000Y-63600000D01*
X112200000Y-63600000D02*
X113800000Y-63600000D01*
X113800000Y-63600000D02*
X113800000Y-66600000D01*
X115400000Y-66600000D02*
X113800000Y-66600000D01*
X113800000Y-66600000D02*
X113800000Y-63600000D01*
X113800000Y-63600000D02*
X115400000Y-63600000D01*
X115400000Y-63600000D02*
X115400000Y-66600000D01*
X88300000Y-83000000D02*
X88300000Y-85800000D01*
X88300000Y-85800000D02*
X84300000Y-85800000D01*
X84300000Y-85800000D02*
X84300000Y-83000000D01*
X84300000Y-83000000D02*
X88300000Y-83000000D01*
X95500000Y-83000000D02*
X95500000Y-85800000D01*
X95500000Y-85800000D02*
X91500000Y-85800000D01*
X91500000Y-85800000D02*
X91500000Y-83000000D01*
X91500000Y-83000000D02*
X95500000Y-83000000D01*
X103500000Y-68675000D02*
X103500000Y-65875000D01*
X103500000Y-65875000D02*
X107500000Y-65875000D01*
X107500000Y-65875000D02*
X107500000Y-68675000D01*
X107500000Y-68675000D02*
X103500000Y-68675000D01*
X110600000Y-70700000D02*
X110600000Y-67900000D01*
X110600000Y-67900000D02*
X114600000Y-67900000D01*
X114600000Y-67900000D02*
X114600000Y-70700000D01*
X114600000Y-70700000D02*
X110600000Y-70700000D01*
X110600000Y-62300000D02*
X110600000Y-59500000D01*
X110600000Y-59500000D02*
X114600000Y-59500000D01*
X114600000Y-59500000D02*
X114600000Y-62300000D01*
X114600000Y-62300000D02*
X110600000Y-62300000D01*
X98000000Y-50600000D02*
X109200000Y-50600000D01*
X109200000Y-50600000D02*
X109200000Y-57400000D01*
X109200000Y-57400000D02*
X98000000Y-57400000D01*
X98000000Y-57400000D02*
X98000000Y-50600000D01*
X79800000Y-71900000D02*
X67600000Y-71900000D01*
X67600000Y-71900000D02*
X67600000Y-64300000D01*
X67600000Y-64300000D02*
X79800000Y-64300000D01*
X79800000Y-64300000D02*
X79800000Y-71900000D01*
X77300000Y-62300000D02*
X73700000Y-62300000D01*
X73700000Y-62300000D02*
X73700000Y-58700000D01*
X73700000Y-58700000D02*
X77300000Y-58700000D01*
X77300000Y-58700000D02*
X77300000Y-62300000D01*
X103800000Y-87000000D02*
X103800000Y-90600000D01*
X103800000Y-90600000D02*
X100200000Y-90600000D01*
X100200000Y-90600000D02*
X100200000Y-87000000D01*
X100200000Y-87000000D02*
X103800000Y-87000000D01*
X107400000Y-87000000D02*
X107400000Y-90600000D01*
X107400000Y-90600000D02*
X103800000Y-90600000D01*
X103800000Y-90600000D02*
X103800000Y-87000000D01*
X103800000Y-87000000D02*
X107400000Y-87000000D01*
X86655025Y-71425179D02*
X86655025Y-59225179D01*
X86655025Y-59225179D02*
X94255025Y-59225179D01*
X94255025Y-59225179D02*
X94255025Y-71425179D01*
X94255025Y-71425179D02*
X86655025Y-71425179D01*
X109180000Y-64140000D02*
X99020000Y-64140000D01*
X99020000Y-64140000D02*
X99020000Y-59060000D01*
X99020000Y-59060000D02*
X109180000Y-59060000D01*
X109180000Y-59060000D02*
X109180000Y-64140000D01*
X101560000Y-64369000D02*
X99020000Y-64369000D01*
X99020000Y-64369000D02*
X99020000Y-64216000D01*
X99020000Y-64216000D02*
X101560000Y-64216000D01*
X101560000Y-64216000D02*
X101560000Y-64369000D01*
X87035563Y-50864215D02*
X96035563Y-50864215D01*
X96035563Y-50864215D02*
X96035563Y-58264215D01*
X96035563Y-58264215D02*
X87035563Y-58264215D01*
X87035563Y-58264215D02*
X87035563Y-50864215D01*
X56330000Y-55540000D02*
X56330000Y-50460000D01*
X56330000Y-50460000D02*
X58830000Y-50460000D01*
X58830000Y-50460000D02*
X58830000Y-55540000D01*
X58830000Y-55540000D02*
X56330000Y-55540000D01*
X50080000Y-52050000D02*
X50080000Y-51410000D01*
X50080000Y-51410000D02*
X56330000Y-51410000D01*
X56330000Y-51410000D02*
X56330000Y-52050000D01*
X56330000Y-52050000D02*
X50080000Y-52050000D01*
X50080000Y-54590000D02*
X50080000Y-53950000D01*
X50080000Y-53950000D02*
X56330000Y-53950000D01*
X56330000Y-53950000D02*
X56330000Y-54590000D01*
X56330000Y-54590000D02*
X50080000Y-54590000D01*
X56101000Y-53000000D02*
X56101000Y-50460000D01*
X56101000Y-50460000D02*
X56254000Y-50460000D01*
X56254000Y-50460000D02*
X56254000Y-53000000D01*
X56254000Y-53000000D02*
X56101000Y-53000000D01*
X75200000Y-58100000D02*
X73600000Y-58100000D01*
X73600000Y-58100000D02*
X73600000Y-55100000D01*
X73600000Y-55100000D02*
X75200000Y-55100000D01*
X75200000Y-55100000D02*
X75200000Y-58100000D01*
X85100000Y-59150000D02*
X85100000Y-60750000D01*
X85100000Y-60750000D02*
X82100000Y-60750000D01*
X82100000Y-60750000D02*
X82100000Y-59150000D01*
X82100000Y-59150000D02*
X85100000Y-59150000D01*
X64152381Y-61190477D02*
X63152381Y-61190477D01*
X63628571Y-61190477D02*
X63628571Y-60619048D01*
X64152381Y-60619048D02*
X63152381Y-60619048D01*
X64104762Y-59761905D02*
X64152381Y-59857143D01*
X64152381Y-60047620D01*
X64104762Y-60142858D01*
X64009524Y-60190477D01*
X63628571Y-60190477D01*
X63533333Y-60142858D01*
X63485714Y-60047620D01*
X63485714Y-59857143D01*
X63533333Y-59761905D01*
X63628571Y-59714286D01*
X63723810Y-59714286D01*
X63819048Y-60190477D01*
X64152381Y-58857143D02*
X63628571Y-58857143D01*
X63533333Y-58904762D01*
X63485714Y-59000000D01*
X63485714Y-59190477D01*
X63533333Y-59285715D01*
X64104762Y-58857143D02*
X64152381Y-58952381D01*
X64152381Y-59190477D01*
X64104762Y-59285715D01*
X64009524Y-59333334D01*
X63914286Y-59333334D01*
X63819048Y-59285715D01*
X63771429Y-59190477D01*
X63771429Y-58952381D01*
X63723810Y-58857143D01*
X63485714Y-58523810D02*
X63485714Y-58142858D01*
X63152381Y-58380953D02*
X64009524Y-58380953D01*
X64104762Y-58333334D01*
X64152381Y-58238096D01*
X64152381Y-58142858D01*
X64104762Y-57428571D02*
X64152381Y-57523809D01*
X64152381Y-57714286D01*
X64104762Y-57809524D01*
X64009524Y-57857143D01*
X63628571Y-57857143D01*
X63533333Y-57809524D01*
X63485714Y-57714286D01*
X63485714Y-57523809D01*
X63533333Y-57428571D01*
X63628571Y-57380952D01*
X63723810Y-57380952D01*
X63819048Y-57857143D01*
X64152381Y-56952381D02*
X63485714Y-56952381D01*
X63676190Y-56952381D02*
X63580952Y-56904762D01*
X63533333Y-56857143D01*
X63485714Y-56761905D01*
X63485714Y-56666666D01*
X64371429Y-74761905D02*
X64371429Y-74000000D01*
X64752381Y-74380952D02*
X63990476Y-74380952D01*
X64752381Y-73000000D02*
X64752381Y-73571429D01*
X64752381Y-73285715D02*
X63752381Y-73285715D01*
X63895238Y-73380953D01*
X63990476Y-73476191D01*
X64038095Y-73571429D01*
X63847619Y-72619048D02*
X63800000Y-72571429D01*
X63752381Y-72476191D01*
X63752381Y-72238095D01*
X63800000Y-72142857D01*
X63847619Y-72095238D01*
X63942857Y-72047619D01*
X64038095Y-72047619D01*
X64180952Y-72095238D01*
X64752381Y-72666667D01*
X64752381Y-72047619D01*
X63752381Y-71761905D02*
X64752381Y-71428572D01*
X63752381Y-71095238D01*
X64228571Y-90380952D02*
X64276190Y-90238095D01*
X64323810Y-90190476D01*
X64419048Y-90142857D01*
X64561905Y-90142857D01*
X64657143Y-90190476D01*
X64704762Y-90238095D01*
X64752381Y-90333333D01*
X64752381Y-90714286D01*
X63752381Y-90714286D01*
X63752381Y-90380952D01*
X63800000Y-90285714D01*
X63847619Y-90238095D01*
X63942857Y-90190476D01*
X64038095Y-90190476D01*
X64133333Y-90238095D01*
X64180952Y-90285714D01*
X64228571Y-90380952D01*
X64228571Y-90714286D01*
X64228571Y-89714286D02*
X64228571Y-89380952D01*
X64752381Y-89238095D02*
X64752381Y-89714286D01*
X63752381Y-89714286D01*
X63752381Y-89238095D01*
X64657143Y-88238095D02*
X64704762Y-88285714D01*
X64752381Y-88428571D01*
X64752381Y-88523809D01*
X64704762Y-88666667D01*
X64609524Y-88761905D01*
X64514286Y-88809524D01*
X64323810Y-88857143D01*
X64180952Y-88857143D01*
X63990476Y-88809524D01*
X63895238Y-88761905D01*
X63800000Y-88666667D01*
X63752381Y-88523809D01*
X63752381Y-88428571D01*
X63800000Y-88285714D01*
X63847619Y-88238095D01*
X100714286Y-98928571D02*
X100380952Y-98928571D01*
X100380952Y-99452381D02*
X100380952Y-98452381D01*
X100857143Y-98452381D01*
X101190476Y-99166667D02*
X101666667Y-99166667D01*
X101095238Y-99452381D02*
X101428571Y-98452381D01*
X101761905Y-99452381D01*
X102095238Y-99452381D02*
X102095238Y-98452381D01*
X102666667Y-99452381D01*
X102666667Y-98452381D01*
X103666667Y-99452381D02*
X103095238Y-99452381D01*
X103380952Y-99452381D02*
X103380952Y-98452381D01*
X103285714Y-98595238D01*
X103190476Y-98690476D01*
X103095238Y-98738095D01*
X108214286Y-98928571D02*
X107880952Y-98928571D01*
X107880952Y-99452381D02*
X107880952Y-98452381D01*
X108357143Y-98452381D01*
X108690476Y-99166667D02*
X109166667Y-99166667D01*
X108595238Y-99452381D02*
X108928571Y-98452381D01*
X109261905Y-99452381D01*
X109595238Y-99452381D02*
X109595238Y-98452381D01*
X110166667Y-99452381D01*
X110166667Y-98452381D01*
X110595238Y-98547619D02*
X110642857Y-98500000D01*
X110738095Y-98452381D01*
X110976191Y-98452381D01*
X111071429Y-98500000D01*
X111119048Y-98547619D01*
X111166667Y-98642857D01*
X111166667Y-98738095D01*
X111119048Y-98880952D01*
X110547619Y-99452381D01*
X111166667Y-99452381D01*
X117452381Y-69095238D02*
X118261905Y-69095238D01*
X118357143Y-69047619D01*
X118404762Y-69000000D01*
X118452381Y-68904762D01*
X118452381Y-68714285D01*
X118404762Y-68619047D01*
X118357143Y-68571428D01*
X118261905Y-68523809D01*
X117452381Y-68523809D01*
X118166667Y-68095238D02*
X118166667Y-67619047D01*
X118452381Y-68190476D02*
X117452381Y-67857143D01*
X118452381Y-67523809D01*
X118452381Y-66619047D02*
X117976190Y-66952381D01*
X118452381Y-67190476D02*
X117452381Y-67190476D01*
X117452381Y-66809523D01*
X117500000Y-66714285D01*
X117547619Y-66666666D01*
X117642857Y-66619047D01*
X117785714Y-66619047D01*
X117880952Y-66666666D01*
X117928571Y-66714285D01*
X117976190Y-66809523D01*
X117976190Y-67190476D01*
X117452381Y-66333333D02*
X117452381Y-65761904D01*
X118452381Y-66047619D02*
X117452381Y-66047619D01*
M02*
