G04 #@! TF.FileFunction,Legend,Bot*
%FSLAX46Y46*%
G04 Gerber Fmt 4.6, Leading zero omitted, Abs format (unit mm)*
G04 Created by KiCad (PCBNEW (2015-08-30 BZR 6134, Git 4e94d52)-product) date 2015-09-01 19:22:26*
%MOMM*%
G01*
G04 APERTURE LIST*
%ADD10C,0.100000*%
%ADD11C,0.160000*%
%ADD12C,0.152000*%
G04 APERTURE END LIST*
D10*
D11*
X116501905Y-84672381D02*
X116501905Y-83672381D01*
X116263810Y-83672381D01*
X116120952Y-83720000D01*
X116025714Y-83815238D01*
X115978095Y-83910476D01*
X115930476Y-84100952D01*
X115930476Y-84243810D01*
X115978095Y-84434286D01*
X116025714Y-84529524D01*
X116120952Y-84624762D01*
X116263810Y-84672381D01*
X116501905Y-84672381D01*
X115644762Y-83672381D02*
X115073333Y-83672381D01*
X115359048Y-84672381D02*
X115359048Y-83672381D01*
X114168571Y-84672381D02*
X114501905Y-84196190D01*
X114740000Y-84672381D02*
X114740000Y-83672381D01*
X114359047Y-83672381D01*
X114263809Y-83720000D01*
X114216190Y-83767619D01*
X114168571Y-83862857D01*
X114168571Y-84005714D01*
X114216190Y-84100952D01*
X114263809Y-84148571D01*
X114359047Y-84196190D01*
X114740000Y-84196190D01*
X116644762Y-81132381D02*
X116073333Y-81132381D01*
X116359048Y-82132381D02*
X116359048Y-81132381D01*
X115835238Y-82132381D02*
X115311428Y-81465714D01*
X115835238Y-81465714D02*
X115311428Y-82132381D01*
X114930476Y-82132381D02*
X114930476Y-81132381D01*
X114692381Y-81132381D01*
X114549523Y-81180000D01*
X114454285Y-81275238D01*
X114406666Y-81370476D01*
X114359047Y-81560952D01*
X114359047Y-81703810D01*
X114406666Y-81894286D01*
X114454285Y-81989524D01*
X114549523Y-82084762D01*
X114692381Y-82132381D01*
X114930476Y-82132381D01*
X115930476Y-79592381D02*
X116263810Y-79116190D01*
X116501905Y-79592381D02*
X116501905Y-78592381D01*
X116120952Y-78592381D01*
X116025714Y-78640000D01*
X115978095Y-78687619D01*
X115930476Y-78782857D01*
X115930476Y-78925714D01*
X115978095Y-79020952D01*
X116025714Y-79068571D01*
X116120952Y-79116190D01*
X116501905Y-79116190D01*
X115597143Y-79592381D02*
X115073333Y-78925714D01*
X115597143Y-78925714D02*
X115073333Y-79592381D01*
X114692381Y-79592381D02*
X114692381Y-78592381D01*
X114454286Y-78592381D01*
X114311428Y-78640000D01*
X114216190Y-78735238D01*
X114168571Y-78830476D01*
X114120952Y-79020952D01*
X114120952Y-79163810D01*
X114168571Y-79354286D01*
X114216190Y-79449524D01*
X114311428Y-79544762D01*
X114454286Y-79592381D01*
X114692381Y-79592381D01*
X116501905Y-76671429D02*
X115740000Y-76671429D01*
X115978095Y-73560000D02*
X116073333Y-73512381D01*
X116216190Y-73512381D01*
X116359048Y-73560000D01*
X116454286Y-73655238D01*
X116501905Y-73750476D01*
X116549524Y-73940952D01*
X116549524Y-74083810D01*
X116501905Y-74274286D01*
X116454286Y-74369524D01*
X116359048Y-74464762D01*
X116216190Y-74512381D01*
X116120952Y-74512381D01*
X115978095Y-74464762D01*
X115930476Y-74417143D01*
X115930476Y-74083810D01*
X116120952Y-74083810D01*
X115501905Y-74512381D02*
X115501905Y-73512381D01*
X114930476Y-74512381D01*
X114930476Y-73512381D01*
X114454286Y-74512381D02*
X114454286Y-73512381D01*
X114216191Y-73512381D01*
X114073333Y-73560000D01*
X113978095Y-73655238D01*
X113930476Y-73750476D01*
X113882857Y-73940952D01*
X113882857Y-74083810D01*
X113930476Y-74274286D01*
X113978095Y-74369524D01*
X114073333Y-74464762D01*
X114216191Y-74512381D01*
X114454286Y-74512381D01*
X116501905Y-71448571D02*
X116168571Y-71448571D01*
X116025714Y-71972381D02*
X116501905Y-71972381D01*
X116501905Y-70972381D01*
X116025714Y-70972381D01*
X115644762Y-71924762D02*
X115501905Y-71972381D01*
X115263809Y-71972381D01*
X115168571Y-71924762D01*
X115120952Y-71877143D01*
X115073333Y-71781905D01*
X115073333Y-71686667D01*
X115120952Y-71591429D01*
X115168571Y-71543810D01*
X115263809Y-71496190D01*
X115454286Y-71448571D01*
X115549524Y-71400952D01*
X115597143Y-71353333D01*
X115644762Y-71258095D01*
X115644762Y-71162857D01*
X115597143Y-71067619D01*
X115549524Y-71020000D01*
X115454286Y-70972381D01*
X115216190Y-70972381D01*
X115073333Y-71020000D01*
X114644762Y-71972381D02*
X114644762Y-70972381D01*
X114263809Y-70972381D01*
X114168571Y-71020000D01*
X114120952Y-71067619D01*
X114073333Y-71162857D01*
X114073333Y-71305714D01*
X114120952Y-71400952D01*
X114168571Y-71448571D01*
X114263809Y-71496190D01*
X114644762Y-71496190D01*
X113882857Y-72067619D02*
X113120952Y-72067619D01*
X112549523Y-71448571D02*
X112406666Y-71496190D01*
X112359047Y-71543810D01*
X112311428Y-71639048D01*
X112311428Y-71781905D01*
X112359047Y-71877143D01*
X112406666Y-71924762D01*
X112501904Y-71972381D01*
X112882857Y-71972381D01*
X112882857Y-70972381D01*
X112549523Y-70972381D01*
X112454285Y-71020000D01*
X112406666Y-71067619D01*
X112359047Y-71162857D01*
X112359047Y-71258095D01*
X112406666Y-71353333D01*
X112454285Y-71400952D01*
X112549523Y-71448571D01*
X112882857Y-71448571D01*
X111692381Y-70972381D02*
X111501904Y-70972381D01*
X111406666Y-71020000D01*
X111311428Y-71115238D01*
X111263809Y-71305714D01*
X111263809Y-71639048D01*
X111311428Y-71829524D01*
X111406666Y-71924762D01*
X111501904Y-71972381D01*
X111692381Y-71972381D01*
X111787619Y-71924762D01*
X111882857Y-71829524D01*
X111930476Y-71639048D01*
X111930476Y-71305714D01*
X111882857Y-71115238D01*
X111787619Y-71020000D01*
X111692381Y-70972381D01*
X110644762Y-70972381D02*
X110454285Y-70972381D01*
X110359047Y-71020000D01*
X110263809Y-71115238D01*
X110216190Y-71305714D01*
X110216190Y-71639048D01*
X110263809Y-71829524D01*
X110359047Y-71924762D01*
X110454285Y-71972381D01*
X110644762Y-71972381D01*
X110740000Y-71924762D01*
X110835238Y-71829524D01*
X110882857Y-71639048D01*
X110882857Y-71305714D01*
X110835238Y-71115238D01*
X110740000Y-71020000D01*
X110644762Y-70972381D01*
X109930476Y-70972381D02*
X109359047Y-70972381D01*
X109644762Y-71972381D02*
X109644762Y-70972381D01*
X113120952Y-70800000D02*
X109263809Y-70800000D01*
D12*
X104204318Y-71729884D02*
X102604318Y-71729884D01*
X102604318Y-71729884D02*
X102604318Y-74729884D01*
X102604318Y-74729884D02*
X104204318Y-74729884D01*
X104204318Y-74729884D02*
X104204318Y-71729884D01*
X99804318Y-81729884D02*
X101404318Y-81729884D01*
X101404318Y-81729884D02*
X101404318Y-78729884D01*
X101404318Y-78729884D02*
X99804318Y-78729884D01*
X99804318Y-78729884D02*
X99804318Y-81729884D01*
X102204318Y-71729884D02*
X100604318Y-71729884D01*
X100604318Y-71729884D02*
X100604318Y-74729884D01*
X100604318Y-74729884D02*
X102204318Y-74729884D01*
X102204318Y-74729884D02*
X102204318Y-71729884D01*
X101804318Y-81729884D02*
X103404318Y-81729884D01*
X103404318Y-81729884D02*
X103404318Y-78729884D01*
X103404318Y-78729884D02*
X101804318Y-78729884D01*
X101804318Y-78729884D02*
X101804318Y-81729884D01*
X73000000Y-94700000D02*
X71000000Y-94700000D01*
X71000000Y-94700000D02*
X71000000Y-98300000D01*
X71000000Y-98300000D02*
X73000000Y-98300000D01*
X73000000Y-98300000D02*
X73000000Y-94700000D01*
X85000000Y-95200000D02*
X83000000Y-95200000D01*
X83000000Y-95200000D02*
X83000000Y-98800000D01*
X83000000Y-98800000D02*
X85000000Y-98800000D01*
X85000000Y-98800000D02*
X85000000Y-95200000D01*
M02*
