M48
;DRILL file {KiCad (2015-08-30 BZR 6134, Git 4e94d52)-product} date 2015-09-01 19:05:47
;FORMAT={-:-/ absolute / metric / decimal}
FMAT,2
METRIC,TZ
T1C0.300
T2C0.700
T3C0.800
T4C1.000
T5C1.500
T6C3.200
%
G90
G05
M71
T1
X60.9Y-79.05
X60.906Y-77.95
X61.95Y-77.95
X61.95Y-79.05
X64.325Y-96.
X65.108Y-94.108
X65.108Y-97.892
X66.325Y-54.
X67.Y-93.325
X67.Y-98.675
X67.108Y-52.108
X67.108Y-55.892
X68.892Y-94.108
X68.892Y-97.892
X69.Y-51.325
X69.Y-56.675
X69.675Y-96.
X70.892Y-52.108
X70.892Y-55.892
X71.675Y-54.
X76.55Y-60.525
X76.575Y-58.475
X77.6Y-64.5
X77.6Y-67.1
X79.1Y-64.5
X79.1Y-67.1
X84.5Y-52.
X84.8Y-86.8
X84.9Y-56.1
X85.35Y-71.95
X86.073Y-74.173
X86.077Y-72.53
X86.077Y-73.37
X86.4Y-59.
X86.4Y-60.
X86.4Y-61.
X86.4Y-62.
X86.4Y-63.
X86.4Y-64.
X86.4Y-65.
X86.4Y-66.
X86.4Y-67.
X87.5Y-59.
X87.5Y-67.
X87.527Y-74.2
X87.532Y-73.398
X87.55Y-75.05
X87.8Y-86.8
X88.5Y-59.
X88.5Y-67.
X89.5Y-59.
X89.5Y-67.
X90.5Y-59.
X90.5Y-67.
X91.2Y-73.3
X91.5Y-59.
X91.5Y-67.
X92.Y-86.8
X92.294Y-79.794
X92.5Y-59.
X92.5Y-67.
X93.5Y-59.
X93.5Y-67.
X94.094Y-77.994
X94.5Y-59.
X94.5Y-60.
X94.5Y-61.
X94.5Y-62.
X94.5Y-63.
X94.5Y-64.
X94.5Y-65.
X94.5Y-66.
X94.5Y-67.
X94.995Y-82.322
X95.Y-86.8
X95.683Y-79.533
X98.4Y-73.
X98.921Y-82.72
X98.95Y-85.8
X99.72Y-82.786
X100.1Y-86.1
X100.158Y-70.709
X100.2Y-74.9
X100.261Y-57.823
X100.78Y-82.189
X101.504Y-86.192
X101.604Y-71.13
X101.867Y-82.723
X102.Y-87.7
X102.404Y-73.93
X103.066Y-82.423
X103.204Y-71.13
X103.604Y-79.53
X104.5Y-82.8
X104.504Y-73.93
X104.544Y-85.072
X104.6Y-88.9
X106.1Y-82.8
X106.142Y-86.142
X107.03Y-81.908
X107.5Y-99.2
X108.823Y-83.741
X109.17Y-69.499
X109.17Y-70.301
X109.38Y-68.697
X109.923Y-67.1
X111.852Y-67.5
X112.2Y-62.7
X112.659Y-67.497
X113.7Y-62.7
X113.808Y-66.992
X114.376Y-67.565
X114.5Y-74.1
X114.5Y-79.2
X115.325Y-54.
X115.325Y-96.
X116.108Y-52.108
X116.108Y-55.892
X116.108Y-94.108
X116.108Y-97.892
X118.Y-51.325
X118.Y-56.675
X118.Y-93.325
X118.Y-98.675
X119.892Y-52.108
X119.892Y-55.892
X119.892Y-94.108
X119.892Y-97.892
X120.675Y-54.
X120.675Y-96.
T2
X80.8Y-53.85
X80.8Y-56.35
X88.95Y-77.8
X91.45Y-77.8
T3
X68.3Y-85.65
X68.3Y-89.15
X76.25Y-86.4
X79.75Y-86.4
T4
X60.23Y-51.73
X60.23Y-54.27
X62.77Y-51.73
X62.77Y-54.27
X74.19Y-93.06
X74.19Y-95.6
X74.19Y-98.14
X76.73Y-93.06
X76.73Y-95.6
X76.73Y-98.14
X79.27Y-93.06
X79.27Y-95.6
X79.27Y-98.14
X81.81Y-93.06
X81.81Y-95.6
X81.81Y-98.14
X86.19Y-93.06
X86.19Y-95.6
X86.19Y-98.14
X88.73Y-93.06
X88.73Y-95.6
X88.73Y-98.14
X91.27Y-93.06
X91.27Y-95.6
X91.27Y-98.14
X93.81Y-93.06
X93.81Y-95.6
X93.81Y-98.14
X98.5Y-92.96
X98.5Y-95.5
X98.5Y-98.04
X100.29Y-60.33
X100.29Y-62.87
X102.83Y-60.33
X102.83Y-62.87
X105.37Y-60.33
X105.37Y-62.87
X105.5Y-92.96
X105.5Y-95.5
X105.5Y-98.04
X107.91Y-60.33
X107.91Y-62.87
X112.66Y-87.83
X112.66Y-90.37
X115.2Y-87.83
X115.2Y-90.37
X117.74Y-87.83
X117.74Y-90.37
X118.1Y-71.44
X118.1Y-73.98
X118.1Y-76.52
X118.1Y-79.06
X118.1Y-81.6
X118.1Y-84.14
T5
X61.5Y-58.96
X61.5Y-64.04
X61.5Y-70.46
X61.5Y-75.54
X61.5Y-81.88
X61.5Y-86.96
X61.5Y-92.04
X61.5Y-97.12
T6
X67.Y-96.
X69.Y-54.
X118.Y-54.
X118.Y-96.
T0
M30
